<svg width="34" height="34" viewBox="0 0 34 34" fill="none" xmlns="http://www.w3.org/2000/svg">
<path d="M11.4248 0.341797H9.09668V3.17777H11.4248V0.341797Z" fill="#939598"/>
<path d="M16.0811 0.341797H13.7529V3.17777H16.0811V0.341797Z" fill="#939598"/>
<path d="M20.7217 0.341797H18.3936V3.17777H20.7217V0.341797Z" fill="#939598"/>
<path d="M25.378 0.341797H23.0498V3.17777H25.378V0.341797Z" fill="#939598"/>
<path d="M11.4248 31.0645H9.09668V33.7429H11.4248V31.0645Z" fill="#939598"/>
<path d="M16.0811 31.0645H13.7529V33.7429H16.0811V31.0645Z" fill="#939598"/>
<path d="M20.7217 31.0645H18.3936V33.7429H20.7217V31.0645Z" fill="#939598"/>
<path d="M25.378 31.0645H23.0498V33.7429H25.378V31.0645Z" fill="#939598"/>
<path d="M30.8477 22.4107V24.585H33.6792V22.4107H30.8477Z" fill="#939598"/>
<path d="M30.8379 18.0572V20.2314H33.6694V18.0572H30.8379Z" fill="#939598"/>
<path d="M30.8428 13.7037V15.8779H33.6743V13.7037H30.8428Z" fill="#939598"/>
<path d="M30.8486 9.3492V11.5234H33.6802V9.3492H30.8486Z" fill="#939598"/>
<path d="M0 22.4107L0 24.585H2.98883V22.4107H0Z" fill="#939598"/>
<path d="M0.00585938 18.0572L0.00585938 20.2314H2.99469V18.0572H0.00585938Z" fill="#939598"/>
<path d="M0.0107422 13.7027L0.0107422 15.877H2.99958V13.7027H0.0107422Z" fill="#939598"/>
<path d="M0.000976563 9.34919L0.000976562 11.5234H2.98981V9.34919H0.000976563Z" fill="#939598"/>
<path fill-rule="evenodd" clip-rule="evenodd" d="M30.9785 31.002H3.07227V3.03613H30.9785V31.002ZM4.56668 29.5052H29.4841V4.53289H4.56668V29.5052Z" fill="#939598"/>
<path fill-rule="evenodd" clip-rule="evenodd" d="M25.0611 22.6499L24.5771 19.3428C24.2409 17.0607 23.4342 15.1611 22.2241 13.6989L23.0846 12.6877L21.1081 10.9385L20.2475 11.9497C18.634 10.9111 16.644 10.3508 14.3448 10.3645L10.8623 10.3782L12.6103 11.2664C14.5061 12.2367 16.281 13.3709 17.9214 14.6692L10.9564 22.8139L12.9464 24.5631L19.9248 16.4047C21.4308 17.8396 22.8157 19.4248 24.0393 21.174L25.0611 22.6499Z" fill="#C01818" stroke="#C01818" stroke-linecap="round" stroke-linejoin="round"/>
</svg>
