<svg width="31" height="22" viewBox="0 0 31 22" fill="none" xmlns="http://www.w3.org/2000/svg">
<path fill-rule="evenodd" clip-rule="evenodd" d="M27.8076 2.30067H28.9191V1.16797H27.8076V2.30067Z" fill="white"/>
<path fill-rule="evenodd" clip-rule="evenodd" d="M0.357422 2.0597H10.8672V1.40918H0.357422V2.0597Z" fill="white"/>
<path fill-rule="evenodd" clip-rule="evenodd" d="M0.356445 21.5151V3.51074H28.922V21.5151H0.356445Z" fill="white"/>
<path fill-rule="evenodd" clip-rule="evenodd" d="M0.00103858 0V2.01434H0V21.9899H30.0684L30.0793 2.01434H30.0778V0H0.00103858ZM27.6396 2.23219H28.7031V1.14838H27.6396V2.23219ZM1.37451 2.00161H11.4295V1.37918H1.37451V2.00161ZM1.37311 20.6157H28.7059V3.38861H1.37311V20.6157Z" fill="#939598"/>
<rect x="8" y="14.75" width="14" height="1.75" fill="#007EFF"/>
<path fill-rule="evenodd" clip-rule="evenodd" d="M16.1372 11.0622L17.693 9.50644L18.9304 10.7439L15.2181 14.4562L13.9807 13.2188L13.981 13.2184L11.5 10.7374L12.7374 9.5L14.3872 11.1497L14.3872 6H16.1372V11.0622Z" fill="#007EFF"/>
</svg>
