<svg width="34" height="28" viewBox="0 0 34 28" fill="none" xmlns="http://www.w3.org/2000/svg">
<path fill-rule="evenodd" clip-rule="evenodd" d="M1.67773 22.5067H31.7573V2.53223H1.67773V22.5067Z" fill="white"/>
<path fill-rule="evenodd" clip-rule="evenodd" d="M0.134766 0.995117V24.0456H11.3362V26.4625H8.19131V27.9998H25.2427V26.4625H22.0978V24.0456H33.2993V0.995117H0.134766ZM1.6772 22.5084H31.7568V2.5339H1.6772V22.5084Z" fill="#939598"/>
<path fill-rule="evenodd" clip-rule="evenodd" d="M27.3307 6.84577H28.5247V5.63303H27.3307V6.84577ZM4.87631 6.58786H16.0664V5.89182H4.87631V6.58786ZM3.40527 8.26188H30.0314V4.27637H3.40527V8.26188Z" fill="#C01818"/>
<path fill-rule="evenodd" clip-rule="evenodd" d="M3.82715 19.013H6.93065V15.9199H3.82715V19.013Z" fill="#C01818"/>
<path fill-rule="evenodd" clip-rule="evenodd" d="M9.49707 19.013H12.6006V15.9199H9.49707V19.013Z" fill="#C01818"/>
<path fill-rule="evenodd" clip-rule="evenodd" d="M15.168 19.013H18.2715V15.9199H15.168V19.013Z" fill="#C01818"/>
<path fill-rule="evenodd" clip-rule="evenodd" d="M20.8379 19.013H23.9414V15.9199H20.8379V19.013Z" fill="#C01818"/>
<path fill-rule="evenodd" clip-rule="evenodd" d="M26.5078 19.013H29.6113V15.9199H26.5078V19.013Z" fill="#C01818"/>
<path fill-rule="evenodd" clip-rule="evenodd" d="M6.24512 12.7042H27.1941V11.4844H6.24512V12.7042Z" fill="#C01818"/>
</svg>
