<svg width="35" height="27" viewBox="0 0 35 27" fill="none" xmlns="http://www.w3.org/2000/svg">
<path fill-rule="evenodd" clip-rule="evenodd" d="M29.8076 3.30067H30.9191V2.16797H29.8076V3.30067Z" fill="white"/>
<path fill-rule="evenodd" clip-rule="evenodd" d="M2.35742 3.0597H12.8672V2.40918H2.35742V3.0597Z" fill="white"/>
<path fill-rule="evenodd" clip-rule="evenodd" d="M2.35645 22.5151V4.51074H30.922V22.5151H2.35645Z" fill="white"/>
<path fill-rule="evenodd" clip-rule="evenodd" d="M0.921984 0.96875V3.07397H0.920898V23.9508H32.346L32.3574 3.07397H32.3558V0.96875H0.921984ZM29.8077 3.30155H30.9192V2.16885H29.8077V3.30155ZM2.3575 3.06047H12.8662V2.40995H2.3575V3.06047ZM2.35591 22.5147H30.922V4.51032H2.35591V22.5147Z" fill="#939598"/>
<path fill-rule="evenodd" clip-rule="evenodd" d="M11.9362 15.3236L14.5044 14.3897L13.7695 9.80779C13.7815 8.23634 15.0552 6.96191 16.6188 6.96191C18.1846 6.96191 19.4589 8.2396 19.4681 9.81431L18.9286 14.4456L21.3421 15.3236L22.0493 17.9572H11.2285L11.9362 15.3236Z" fill="white"/>
<path fill-rule="evenodd" clip-rule="evenodd" d="M11.9366 15.324L14.5048 14.3901L13.7699 9.80822C13.7819 8.23677 15.0556 6.96234 16.6192 6.96234C18.185 6.96234 19.4593 8.24003 19.4685 9.81473L18.929 14.446L21.3425 15.324L22.0497 17.9576H11.2295L11.9366 15.324ZM21.8299 14.8772L19.5652 14.0535L20.0525 9.86477L20.0547 9.8311C20.0547 7.92571 18.5134 6.37598 16.6193 6.37598C14.7252 6.37598 13.1839 7.92571 13.1839 9.8311L13.8498 14.0046L11.4499 14.8772L10.4648 18.5441H22.8139L21.8299 14.8772Z" fill="#939598"/>
<path fill-rule="evenodd" clip-rule="evenodd" d="M18.3144 11.8809L18.3052 11.9048C17.6713 13.706 16.728 13.7554 16.6939 13.7565L16.645 13.757C16.5614 13.7543 15.6649 13.687 15.0125 11.9195L15.0033 11.8994C15.0017 11.8951 14.8616 11.5736 14.7954 10.9068C15.0733 11.3624 15.6681 11.699 16.3845 11.7799L16.5484 11.5416H16.8268L16.9945 11.7859C17.6214 11.7278 18.1597 11.4737 18.4843 11.1142C18.4208 11.6219 18.3177 11.8733 18.3144 11.8809ZM15.374 10.4605L16.2716 11.0958C16.2716 11.0958 15.2253 11.6241 15.374 10.4605ZM17.9133 10.4605C18.062 11.6241 17.0145 11.0958 17.0145 11.0958L17.9133 10.4605ZM19.0318 10.0691L19.0291 9.94473L18.9298 9.87034C18.2829 9.39033 17.5529 9.10742 16.7595 9.10742C15.6426 9.10742 14.7156 9.63088 14.3688 9.83939L14.2478 9.91215L14.2461 10.0533C14.2255 11.4456 14.5229 12.088 14.5311 12.1053L14.5322 12.1075C15.2903 14.1617 16.4235 14.3045 16.6428 14.3045H16.6488L16.6965 14.304C16.9174 14.2969 18.0571 14.121 18.7735 12.0847L18.7751 12.0798C18.7871 12.0532 19.0639 11.4174 19.0318 10.0691Z" fill="#939598"/>
<path fill-rule="evenodd" clip-rule="evenodd" d="M27.9631 15.7334C25.2185 15.7334 22.9863 17.9668 22.9863 20.7127C22.9863 23.4582 25.2185 25.6915 27.9631 25.6915C30.7076 25.6915 32.9398 23.4582 32.9398 20.7127C32.9398 17.9668 30.7076 15.7334 27.9631 15.7334Z" fill="white"/>
<mask id="mask0" mask-type="alpha" maskUnits="userSpaceOnUse" x="21" y="14" width="14" height="14">
<path fill-rule="evenodd" clip-rule="evenodd" d="M34.2469 14.4258V27.0004H21.6787L21.6787 14.4258H34.2469V14.4258Z" fill="white"/>
</mask>
<g mask="url(#mask0)">
<path fill-rule="evenodd" clip-rule="evenodd" d="M27.9629 15.7339C25.2184 15.7339 22.9862 17.9673 22.9862 20.7132C22.9862 23.4587 25.2184 25.692 27.9629 25.692C30.7074 25.692 32.9397 23.4587 32.9397 20.7132C32.9397 17.9673 30.7074 15.7339 27.9629 15.7339ZM27.9629 27.0006C24.4971 27.0006 21.6711 24.1819 21.6787 20.7132C21.6863 17.2461 24.4976 14.4258 27.9629 14.4258C31.4281 14.4258 34.247 17.2461 34.247 20.7132C34.247 24.1797 31.4281 27.0006 27.9629 27.0006Z" fill="#C01818"/>
</g>
<path d="M24.2305 16.9268L32.0749 24.7753" stroke="#C01818" stroke-width="2"/>
</svg>
