<svg width="33" height="27" viewBox="0 0 33 27" fill="none" xmlns="http://www.w3.org/2000/svg">
<path fill-rule="evenodd" clip-rule="evenodd" d="M27.8867 2.33192H28.9982V1.19922H27.8867V2.33192Z" fill="white"/>
<path fill-rule="evenodd" clip-rule="evenodd" d="M0.435547 2.09095H10.9453V1.44043H0.435547V2.09095Z" fill="white"/>
<path fill-rule="evenodd" clip-rule="evenodd" d="M0.435547 21.5463V3.54199H29.0011V21.5463H0.435547Z" fill="white"/>
<path fill-rule="evenodd" clip-rule="evenodd" d="M0.00103858 0V2.01434H0V21.9899H30.0684L30.0793 2.01434H30.0778V0H0.00103858ZM27.6396 2.23219H28.7031V1.14838H27.6396V2.23219ZM1.37451 2.00161H11.4295V1.37918H1.37451V2.00161ZM1.37311 20.6157H28.7059V3.38861H1.37311V20.6157Z" fill="#939598"/>
<path fill-rule="evenodd" clip-rule="evenodd" d="M26.0412 14.7656C23.2967 14.7656 21.0645 16.999 21.0645 19.745C21.0645 22.4904 23.2967 24.7238 26.0412 24.7238C28.7857 24.7238 31.0179 22.4904 31.0179 19.745C31.0179 16.999 28.7857 14.7656 26.0412 14.7656Z" fill="white"/>
<mask id="mask0" mask-type="alpha" maskUnits="userSpaceOnUse" x="19" y="13" width="14" height="14">
<path fill-rule="evenodd" clip-rule="evenodd" d="M32.326 13.457V26.0316H19.7578L19.7578 13.457H32.326V13.457Z" fill="white"/>
</mask>
<g mask="url(#mask0)">
<path fill-rule="evenodd" clip-rule="evenodd" d="M26.042 14.7651C23.2975 14.7651 21.0653 16.9985 21.0653 19.7445C21.0653 22.4899 23.2975 24.7233 26.042 24.7233C28.7865 24.7233 31.0188 22.4899 31.0188 19.7445C31.0188 16.9985 28.7865 14.7651 26.042 14.7651ZM26.042 26.0319C22.5762 26.0319 19.7502 23.2132 19.7578 19.7445C19.7654 16.2774 22.5767 13.457 26.042 13.457C29.5072 13.457 32.3261 16.2774 32.3261 19.7445C32.3261 23.211 29.5072 26.0319 26.042 26.0319Z" fill="#C01818"/>
</g>
<path d="M22.3105 15.959L30.155 23.8075" stroke="#C01818" stroke-width="2"/>
<path fill-rule="evenodd" clip-rule="evenodd" d="M16.1002 4.75H13.9102V6.86912C12.0237 7.28849 10.5386 8.77357 10.1192 10.66H8V12.85H10.1214C10.5438 14.7317 12.027 16.2123 13.9102 16.6309V18.75H16.1002V16.6286C17.9784 16.2068 19.4569 14.7282 19.8786 12.85H22V10.66H19.8808C19.4622 8.77701 17.9817 7.2939 16.1002 6.87143V4.75ZM15 8.75C13.3431 8.75 12 10.0931 12 11.75C12 13.4069 13.3431 14.75 15 14.75C16.6569 14.75 18 13.4069 18 11.75C18 10.0931 16.6569 8.75 15 8.75ZM15 13C15.6904 13 16.25 12.4404 16.25 11.75C16.25 11.0596 15.6904 10.5 15 10.5C14.3096 10.5 13.75 11.0596 13.75 11.75C13.75 12.4404 14.3096 13 15 13Z" fill="#939598"/>
</svg>
