<svg width="30" height="30" viewBox="0 0 30 30" fill="none" xmlns="http://www.w3.org/2000/svg">
<ellipse cx="14.6543" cy="14.6543" rx="12.5469" ry="12.5469" fill="white"/>
<path fill-rule="evenodd" clip-rule="evenodd" d="M24.5928 13.845C24.5928 19.7809 19.7809 24.5928 13.845 24.5928C7.90911 24.5928 3.09714 19.7809 3.09714 13.845C3.09714 7.90911 7.90911 3.09714 13.845 3.09714C19.7809 3.09714 24.5928 7.90911 24.5928 13.845ZM21.7643 23.9589C19.5823 25.6699 16.8328 26.69 13.845 26.69C6.7509 26.69 1 20.9391 1 13.845C1 6.7509 6.7509 1 13.845 1C20.9391 1 26.69 6.7509 26.69 13.845C26.69 17.1712 25.4257 20.2022 23.3514 22.4835L28.95 28.082L27.4187 29.6133L21.7643 23.9589Z" fill="#BABABA"/>
<path d="M21.7643 23.9589L21.9411 23.7821L21.7844 23.6255L21.6101 23.7622L21.7643 23.9589ZM23.3514 22.4835L23.1665 22.3153L23.0061 22.4917L23.1747 22.6602L23.3514 22.4835ZM28.95 28.082L29.1267 28.2588L29.3035 28.082L29.1267 27.9052L28.95 28.082ZM27.4187 29.6133L27.2419 29.79L27.4187 29.9668L27.5955 29.79L27.4187 29.6133ZM13.845 24.8428C19.9189 24.8428 24.8428 19.9189 24.8428 13.845H24.3428C24.3428 19.6428 19.6428 24.3428 13.845 24.3428V24.8428ZM2.84714 13.845C2.84714 19.9189 7.77104 24.8428 13.845 24.8428V24.3428C8.04719 24.3428 3.34714 19.6428 3.34714 13.845H2.84714ZM13.845 2.84714C7.77104 2.84714 2.84714 7.77104 2.84714 13.845H3.34714C3.34714 8.04718 8.04719 3.34714 13.845 3.34714V2.84714ZM24.8428 13.845C24.8428 7.77104 19.9189 2.84714 13.845 2.84714V3.34714C19.6428 3.34714 24.3428 8.04718 24.3428 13.845H24.8428ZM13.845 26.94C16.8907 26.94 19.6942 25.8999 21.9186 24.1557L21.6101 23.7622C19.4705 25.4398 16.7749 26.44 13.845 26.44V26.94ZM0.75 13.845C0.75 21.0771 6.61282 26.94 13.845 26.94V26.44C6.88897 26.44 1.25 20.801 1.25 13.845H0.75ZM13.845 0.75C6.61282 0.75 0.75 6.61282 0.75 13.845H1.25C1.25 6.88897 6.88897 1.25 13.845 1.25V0.75ZM26.94 13.845C26.94 6.61282 21.0771 0.75 13.845 0.75V1.25C20.801 1.25 26.44 6.88897 26.44 13.845H26.94ZM23.5364 22.6516C25.6509 20.3261 26.94 17.2358 26.94 13.845H26.44C26.44 17.1066 25.2005 20.0782 23.1665 22.3153L23.5364 22.6516ZM23.1747 22.6602L28.7732 28.2588L29.1267 27.9052L23.5282 22.3067L23.1747 22.6602ZM28.7732 27.9052L27.2419 29.4365L27.5955 29.79L29.1267 28.2588L28.7732 27.9052ZM27.5955 29.4365L21.9411 23.7821L21.5876 24.1357L27.2419 29.79L27.5955 29.4365Z" fill="#BABABA"/>
<path d="M16.9405 8.4797C14.9562 7.81754 13.9015 6.60059 13.9015 6.60059C13.9015 6.60059 12.8289 7.81754 10.8625 8.4797C9.05701 9.07028 7.16211 8.9987 7.16211 8.9987C7.16211 8.9987 7.16211 15.4593 9.37879 18.0543C11.4525 20.4882 13.8837 20.9177 13.8837 20.9177C13.8837 20.9177 16.3148 20.4882 18.3885 18.0543C20.6052 15.4593 20.6052 8.9987 20.6052 8.9987C20.6052 8.9987 18.7103 9.07028 16.9405 8.4797Z" fill="#BABABA"/>
<path d="M13.6694 19.8975C13.1152 19.7543 11.417 19.1637 9.91533 17.4099C8.55672 15.7992 8.09193 12.1126 7.9668 9.98291C8.75336 9.92922 9.8617 9.80394 10.9343 9.44602C12.1678 9.0344 13.0795 8.44382 13.6694 7.97852C14.2593 8.44382 15.171 9.0523 16.4045 9.44602C17.4771 9.80394 18.5854 9.94711 19.372 9.98291C19.2647 12.1126 18.7999 15.7992 17.4234 17.4099C15.9218 19.1637 14.2057 19.7543 13.6694 19.8975Z" fill="#BABABA"/>
<path d="M13.6693 19.5576C13.0794 19.3965 11.542 18.8239 10.1655 17.1953C8.91414 15.7278 8.44935 12.3812 8.32422 10.2694C9.09291 10.1978 10.0761 10.0546 11.0414 9.73251C12.1855 9.35669 13.0615 8.8198 13.6693 8.35449C14.2771 8.8019 15.153 9.33879 16.2971 9.73251C17.2624 10.0546 18.2456 10.1978 19.0143 10.2694C18.8892 12.3812 18.4244 15.7278 17.1731 17.1953C15.7787 18.8239 14.2413 19.3965 13.6693 19.5576Z" fill="#BABABA"/>
<path d="M14.7944 12.6148C14.7944 13.2411 14.2939 13.7422 13.6682 13.7422C13.0425 13.7422 12.542 13.2411 12.542 12.6148C12.542 11.9884 13.0425 11.4873 13.6682 11.4873C14.276 11.4873 14.7944 11.9884 14.7944 12.6148Z" fill="white"/>
<path d="M13.6682 16.1219C13.4001 16.1219 13.1855 15.9072 13.1855 15.6387V13.0437C13.1855 12.7753 13.4001 12.5605 13.6682 12.5605C13.9364 12.5605 14.1509 12.7753 14.1509 13.0437V15.6566C14.133 15.9072 13.9185 16.1219 13.6682 16.1219Z" fill="white"/>
</svg>
