<svg width="30" height="30" viewBox="0 0 30 30" fill="none" xmlns="http://www.w3.org/2000/svg">
<path fill-rule="evenodd" clip-rule="evenodd" d="M24.5942 13.8457C24.5942 19.782 19.782 24.5942 13.8457 24.5942C7.90952 24.5942 3.09726 19.782 3.09726 13.8457C3.09726 7.90952 7.90952 3.09726 13.8457 3.09726C19.782 3.09726 24.5942 7.90952 24.5942 13.8457ZM21.8194 23.9179C19.6287 25.6544 16.8583 26.6915 13.8457 26.6915C6.75124 26.6915 1 20.9403 1 13.8457C1 6.75124 6.75124 1 13.8457 1C20.9403 1 26.6915 6.75124 26.6915 13.8457C26.6915 17.1723 25.427 20.2035 23.3525 22.485L28.9499 28.0824L27.4669 29.5654L21.8194 23.9179Z" fill="#BABABA"/>
<path d="M21.8194 23.9179L21.9961 23.7411L21.8386 23.5836L21.6641 23.722L21.8194 23.9179ZM23.3525 22.485L23.1675 22.3168L23.0071 22.4932L23.1757 22.6618L23.3525 22.485ZM28.9499 28.0824L29.1267 28.2592L29.3035 28.0824L29.1267 27.9057L28.9499 28.0824ZM27.4669 29.5654L27.2901 29.7422L27.4669 29.919L27.6437 29.7422L27.4669 29.5654ZM13.8457 24.8442C19.92 24.8442 24.8442 19.92 24.8442 13.8457H24.3442C24.3442 19.6439 19.6439 24.3442 13.8457 24.3442V24.8442ZM2.84726 13.8457C2.84726 19.92 7.77145 24.8442 13.8457 24.8442V24.3442C8.04759 24.3442 3.34726 19.6439 3.34726 13.8457H2.84726ZM13.8457 2.84726C7.77145 2.84726 2.84726 7.77145 2.84726 13.8457H3.34726C3.34726 8.04759 8.04759 3.34726 13.8457 3.34726V2.84726ZM24.8442 13.8457C24.8442 7.77145 19.92 2.84726 13.8457 2.84726V3.34726C19.6439 3.34726 24.3442 8.04759 24.3442 13.8457H24.8442ZM13.8457 26.9415C16.9167 26.9415 19.7414 25.8841 21.9747 24.1138L21.6641 23.722C19.516 25.4248 16.8 26.4415 13.8457 26.4415V26.9415ZM0.75 13.8457C0.75 21.0783 6.61316 26.9415 13.8457 26.9415V26.4415C6.88931 26.4415 1.25 20.8022 1.25 13.8457H0.75ZM13.8457 0.75C6.61316 0.75 0.75 6.61316 0.75 13.8457H1.25C1.25 6.88931 6.88931 1.25 13.8457 1.25V0.75ZM26.9415 13.8457C26.9415 6.61316 21.0783 0.75 13.8457 0.75V1.25C20.8022 1.25 26.4415 6.88931 26.4415 13.8457H26.9415ZM23.5375 22.6532C25.6522 20.3275 26.9415 17.2369 26.9415 13.8457H26.4415C26.4415 17.1077 25.2018 20.0796 23.1675 22.3168L23.5375 22.6532ZM23.1757 22.6618L28.7731 28.2592L29.1267 27.9057L23.5293 22.3083L23.1757 22.6618ZM28.7731 27.9057L27.2901 29.3887L27.6437 29.7422L29.1267 28.2592L28.7731 27.9057ZM27.6437 29.3887L21.9961 23.7411L21.6426 24.0947L27.2901 29.7422L27.6437 29.3887Z" fill="#BABABA"/>
<path d="M11.3724 10.8358C11.3724 9.3701 12.5605 8.18192 14.0262 8.18192C15.4919 8.18192 16.6801 9.3701 16.6801 10.8358V12.958H11.3724V10.8358Z" stroke="#BFBFBF" stroke-width="1.60408"/>
<rect x="8.44336" y="12.6963" width="11.1652" height="6.91182" fill="#BFBFBF"/>
</svg>
