<svg width="36" height="32" viewBox="0 0 36 32" fill="none" xmlns="http://www.w3.org/2000/svg">
<path fill-rule="evenodd" clip-rule="evenodd" d="M16.2568 3.09894C17.0215 1.73964 18.9785 1.73963 19.7432 3.09894L34.3235 29.0195C35.0734 30.3527 34.11 32 32.5803 32H3.41969C1.89004 32 0.926614 30.3527 1.67654 29.0195L16.2568 3.09894Z" fill="#BF1516"/>
<path fill-rule="evenodd" clip-rule="evenodd" d="M16.8388 23.528H19.0546L19.5452 10.9844H16.5244L16.8388 23.528Z" fill="white"/>
<path fill-rule="evenodd" clip-rule="evenodd" d="M18.1188 28.2372C18.9994 28.2372 19.7132 27.53 19.7132 26.6577C19.7132 25.7853 18.9994 25.0781 18.1188 25.0781C17.2383 25.0781 16.5244 25.7853 16.5244 26.6577C16.5244 27.53 17.2383 28.2372 18.1188 28.2372Z" fill="white"/>
</svg>
