<svg width="74" height="74" viewBox="0 0 74 74" fill="none" xmlns="http://www.w3.org/2000/svg">
<rect width="74" height="74" fill="#D1D5DF"/>
<rect x="2" y="4" width="69" height="67" fill="white"/>
<path d="M67.3061 0H6.6939C2.997 0 0 2.997 0 6.6939V67.3059C0 71.003 2.997 74 6.6939 74H67.3059C71.003 74 74 71.003 74 67.3059V6.6939C74 2.997 71.003 0 67.3061 0ZM22.8987 63.8965C22.8987 64.9724 22.0266 65.8445 20.9507 65.8445H12.6585C11.5825 65.8445 10.7104 64.9724 10.7104 63.8965V29.1357C10.7104 28.0598 11.5825 27.1876 12.6585 27.1876H20.9507C22.0266 27.1876 22.8987 28.0598 22.8987 29.1357V63.8965ZM16.8046 23.9109C12.4539 23.9109 8.92688 20.3839 8.92688 16.0332C8.92688 11.6825 12.4539 8.1555 16.8046 8.1555C21.1553 8.1555 24.6823 11.6825 24.6823 16.0332C24.6823 20.3839 21.1555 23.9109 16.8046 23.9109ZM66.2339 64.0534C66.2339 65.0425 65.4319 65.8445 64.4428 65.8445H55.5446C54.5554 65.8445 53.7534 65.0425 53.7534 64.0534V47.7486C53.7534 45.3163 54.4669 37.0901 47.397 37.0901C41.9131 37.0901 40.8007 42.7207 40.5774 45.2475V64.0534C40.5774 65.0425 39.7756 65.8445 38.7863 65.8445H30.1802C29.1911 65.8445 28.3891 65.0425 28.3891 64.0534V28.9787C28.3891 27.9896 29.1911 27.1876 30.1802 27.1876H38.7863C39.7754 27.1876 40.5774 27.9896 40.5774 28.9787V32.0114C42.6108 28.9598 45.6328 26.6044 52.0671 26.6044C66.3154 26.6044 66.2339 39.9158 66.2339 47.2298V64.0534Z" fill="#D1D5DF"/>
</svg>
