<svg opacity="0.5" width="74" height="74" viewBox="0 0 74 74" fill="none" xmlns="http://www.w3.org/2000/svg">
<path d="M72.4443 19.0904C71.6034 15.895 69.0807 13.3722 65.8852 12.4893C60.125 10.9336 37 10.9336 37 10.9336C37 10.9336 13.875 10.9336 8.07273 12.4893C4.87727 13.3302 2.39659 15.8529 1.51364 19.0904C0 24.8927 0 37.0018 0 37.0018C0 37.0018 0 49.1109 1.55568 54.9131C2.39659 58.1086 4.91932 60.6313 8.11477 61.5143C13.875 63.07 37 63.07 37 63.07C37 63.07 60.125 63.07 65.9273 61.5143C69.1227 60.6734 71.6034 58.1506 72.4864 54.9131C74 49.1109 74 37.0018 74 37.0018C74 37.0018 74 24.8927 72.4443 19.0904Z" fill="#FF0000"/>
<path d="M29.4318 48.0162L48.7727 37.0003L29.4318 25.9844V48.0162Z" fill="white"/>
</svg>
