<svg width="151" height="108" viewBox="0 0 151 108" fill="none" xmlns="http://www.w3.org/2000/svg">
<g clip-path="url(#clip0)">
<path d="M122.057 100.125H10C4.47715 100.125 0 95.6479 0 90.125V7.01811C0 3.11916 3.11569 0 7.0103 0H114.969C118.864 0 121.979 3.11916 121.979 7.01811V100.047C121.979 100.09 122.014 100.125 122.057 100.125Z" fill="white"/>
<path opacity="0.55" d="M47.9038 92.5611H10.5156C9.65874 92.5611 8.87982 91.8592 8.87982 90.9235V73.9241C8.87982 73.0663 9.58085 72.2865 10.5156 72.2865H47.9817C48.8385 72.2865 49.6175 72.9883 49.6175 73.9241V90.9235C49.5396 91.7813 48.8385 92.5611 47.9038 92.5611Z" fill="#DBE0FE"/>
<path opacity="0.55" d="M80.6965 18.9489H9.81453C9.34718 18.9489 8.87982 18.559 8.87982 18.0131V16.2196C8.87982 15.7517 9.26928 15.2839 9.81453 15.2839H80.7744C81.2417 15.2839 81.7091 15.6738 81.7091 16.2196V18.0131C81.6312 18.559 81.2417 18.9489 80.6965 18.9489Z" fill="#DBE0FE"/>
<path opacity="0.55" d="M80.6965 26.4349H9.81453C9.34718 26.4349 8.87982 26.045 8.87982 25.4991V23.7056C8.87982 23.2377 9.26928 22.7699 9.81453 22.7699H80.7744C81.2417 22.7699 81.7091 23.1598 81.7091 23.7056V25.4991C81.6312 26.045 81.2417 26.4349 80.6965 26.4349Z" fill="#DBE0FE"/>
<path opacity="0.55" d="M80.6965 33.9209H9.81453C9.34718 33.9209 8.87982 33.531 8.87982 32.9851V31.1916C8.87982 30.7237 9.26928 30.2558 9.81453 30.2558H80.7744C81.2417 30.2558 81.7091 30.6457 81.7091 31.1916V32.9851C81.6312 33.531 81.2417 33.9209 80.6965 33.9209Z" fill="#DBE0FE"/>
<path opacity="0.55" d="M80.6965 41.4068H9.81453C9.34718 41.4068 8.87982 41.0169 8.87982 40.4711V38.6776C8.87982 38.2097 9.26928 37.7418 9.81453 37.7418H80.7744C81.2417 37.7418 81.7091 38.1317 81.7091 38.6776V40.5491C81.6312 41.0169 81.2417 41.4068 80.6965 41.4068Z" fill="#DBE0FE"/>
<path opacity="0.55" d="M80.6965 48.8928H9.81453C9.34718 48.8928 8.87982 48.5029 8.87982 47.9571V46.1635C8.87982 45.6957 9.26928 45.2278 9.81453 45.2278H80.7744C81.2417 45.2278 81.7091 45.6177 81.7091 46.1635V47.9571C81.6312 48.5029 81.2417 48.8928 80.6965 48.8928Z" fill="#DBE0FE"/>
<path opacity="0.55" d="M80.6965 56.3788H9.81453C9.34718 56.3788 8.87982 55.9889 8.87982 55.443V53.6495C8.87982 53.1817 9.26928 52.7138 9.81453 52.7138H80.7744C81.2417 52.7138 81.7091 53.1037 81.7091 53.6495V55.443C81.6312 55.9889 81.2417 56.3788 80.6965 56.3788Z" fill="#DBE0FE"/>
<path d="M115.047 0H7.0103C3.11569 0 0 3.11916 0 7.01811V10.3712H122.057V7.01811C122.057 3.11916 118.941 0 115.047 0Z" fill="url(#paint0_linear)"/>
<path d="M103.986 5.22458C103.986 5.84841 103.519 6.31629 102.896 6.31629C102.273 6.31629 101.805 5.84841 101.805 5.22458C101.805 4.60075 102.273 4.13288 102.896 4.13288C103.441 4.0549 103.986 4.60075 103.986 5.22458Z" fill="white"/>
<path d="M109.594 5.22458C109.594 5.84841 109.127 6.31629 108.504 6.31629C107.881 6.31629 107.414 5.84841 107.414 5.22458C107.414 4.60075 107.881 4.13288 108.504 4.13288C109.049 4.0549 109.594 4.60075 109.594 5.22458Z" fill="white"/>
<path d="M115.203 5.22458C115.203 5.84841 114.735 6.31629 114.112 6.31629C113.489 6.31629 113.022 5.84841 113.022 5.22458C113.022 4.60075 113.489 4.13288 114.112 4.13288C114.658 4.0549 115.203 4.60075 115.203 5.22458Z" fill="white"/>
</g>
<path d="M75.3219 30.7237C66.6758 27.8385 62.0802 22.5359 62.0802 22.5359C62.0802 22.5359 57.4067 27.8385 48.8385 30.7237C40.9714 33.297 32.7148 32.9851 32.7148 32.9851C32.7148 32.9851 32.7148 61.1355 42.3735 72.4425C51.409 83.0476 62.0023 84.9191 62.0023 84.9191C62.0023 84.9191 72.5957 83.0476 81.6312 72.4425C91.2898 61.1355 91.2898 32.9851 91.2898 32.9851C91.2898 32.9851 83.0332 33.297 75.3219 30.7237Z" fill="#C01818"/>
<path d="M61.0676 80.4743C58.6529 79.8505 51.2532 77.2772 44.7102 69.6353C38.7904 62.6171 36.7652 46.5535 36.22 37.274C39.6472 37.04 44.4765 36.4942 49.1501 34.9346C54.5246 33.1411 58.4972 30.5678 61.0676 28.5403C63.638 30.5678 67.6105 33.2191 72.9851 34.9346C77.6586 36.4942 82.488 37.118 85.9152 37.274C85.4479 46.5535 83.4227 62.6171 77.425 69.6353C70.882 77.2772 63.4044 79.8505 61.0676 80.4743Z" fill="#75160D"/>
<path d="M61.0676 78.9927C58.4972 78.2909 51.7984 75.7956 45.8007 68.6995C40.3483 62.3052 38.3231 47.7232 37.7778 38.5216C41.1272 38.2097 45.4113 37.5859 49.6175 36.1823C54.6026 34.5447 58.4193 32.2053 61.0676 30.1779C63.716 32.1274 67.5327 34.4667 72.5178 36.1823C76.724 37.5859 81.008 38.2097 84.3574 38.5216C83.8122 47.7232 81.787 62.3052 76.3345 68.6995C70.2589 75.7956 63.5602 78.2909 61.0676 78.9927Z" fill="url(#paint1_linear)"/>
<path d="M65.9748 48.7369C65.9748 51.4661 63.7938 53.6496 61.0676 53.6496C58.3413 53.6496 56.1603 51.4661 56.1603 48.7369C56.1603 46.0076 58.3413 43.8242 61.0676 43.8242C63.7159 43.8242 65.9748 46.0076 65.9748 48.7369Z" fill="white"/>
<path d="M61.0675 64.0207C59.8991 64.0207 58.9644 63.085 58.9644 61.9153V50.6084C58.9644 49.4387 59.8991 48.5029 61.0675 48.5029C62.2359 48.5029 63.1706 49.4387 63.1706 50.6084V61.9933C63.0927 63.085 62.158 64.0207 61.0675 64.0207Z" fill="white"/>
<path d="M111 65.5C111 62.4624 113.462 60 116.5 60C119.538 60 122 62.4624 122 65.5V70H111V65.5Z" stroke="black" stroke-width="2"/>
<rect x="106" y="69" width="21" height="13" fill="#C01818"/>
<path fill-rule="evenodd" clip-rule="evenodd" d="M136.377 71.1607C136.377 82.3258 127.326 91.3769 116.161 91.3769C104.996 91.3769 95.9446 82.3258 95.9446 71.1607C95.9446 59.9957 104.996 50.9446 116.161 50.9446C127.326 50.9446 136.377 59.9957 136.377 71.1607ZM131.159 90.1037C127.039 93.3706 121.828 95.3215 116.161 95.3215C102.817 95.3215 92 84.5044 92 71.1607C92 57.8171 102.817 47 116.161 47C129.504 47 140.321 57.8171 140.321 71.1607C140.321 77.4169 137.944 83.1176 134.043 87.4086L151 104.366L148.211 107.155L131.159 90.1037Z" fill="#C01818"/>
<defs>
<linearGradient id="paint0_linear" x1="0" y1="5.2033" x2="122.071" y2="5.2033" gradientUnits="userSpaceOnUse">
<stop stop-color="#F84E49"/>
<stop offset="1" stop-color="#C01818"/>
</linearGradient>
<linearGradient id="paint1_linear" x1="37.6997" y1="54.6316" x2="84.3717" y2="54.6316" gradientUnits="userSpaceOnUse">
<stop stop-color="#F1342F"/>
<stop offset="1" stop-color="#C01818"/>
</linearGradient>
<clipPath id="clip0">
<rect width="122.057" height="100.125" fill="white"/>
</clipPath>
</defs>
</svg>
