<?xml version="1.0" encoding="UTF-8"?>
<svg width="134px" height="121px" viewBox="0 0 134 121" version="1.1" xmlns="http://www.w3.org/2000/svg" xmlns:xlink="http://www.w3.org/1999/xlink">
    <!-- Generator: Sketch 47.1 (45422) - http://www.bohemiancoding.com/sketch -->
    <title>danger-icon</title>
    <desc>Created with Sketch.</desc>
    <defs></defs>
    <g id="View-site-report" stroke="none" stroke-width="1" fill="none" fill-rule="evenodd">
        <g id="WA-site-report-risky" transform="translate(-204.000000, -250.000000)" fill="#FFFFFF">
            <g id="danger-icon" transform="translate(204.000000, 250.000000)">
                <path d="M0.695336301,118.032861 L65.2491305,1.18442056 L65.2491305,1.18442056 C65.7832665,0.217584204 67.000045,-0.133188767 67.9668814,0.400947205 C68.2966118,0.583109271 68.5681926,0.854690084 68.7503547,1.18442056 L133.304149,118.032861 L133.304149,118.032861 C133.838285,118.999698 133.487512,120.216476 132.520676,120.750612 C132.224575,120.914195 131.891819,121 131.553537,121 L2.44594839,121 L2.44594839,121 C1.34137889,121 0.445948388,120.104569 0.445948388,119 C0.445948388,118.661717 0.531753199,118.328962 0.695336301,118.032861 Z M63.0765943,42.7910766 L75.063796,42.7910766 L73.4655057,86.4664768 L63.0765943,86.4664768 L63.0765943,42.7910766 Z M63.0765943,94.5120264 L73.4655057,94.5120264 L73.4655057,104.08988 L63.0765943,104.08988 L63.0765943,94.5120264 Z" id="Fill-27"></path>
            </g>
        </g>
    </g>
</svg>