<svg width="92" height="18" viewBox="0 0 92 18" fill="none" xmlns="http://www.w3.org/2000/svg">
<path fill-rule="evenodd" clip-rule="evenodd" d="M45.7346 11.6263L43.3452 10.2065L43.1676 10.4846C42.623 11.3402 41.8786 11.7744 40.9562 11.7736C39.3759 11.7728 38.1846 10.5803 38.1854 8.99969C38.1866 7.41945 39.3787 6.22852 40.9594 6.22932C41.8949 6.23011 42.5976 6.64086 43.1712 7.52313L43.3496 7.79723L45.7501 6.37431L45.5427 6.07399C44.3959 4.41273 42.8971 3.60513 40.9609 3.60394C37.3007 3.60235 35.3241 6.38146 35.3229 8.9977C35.3213 11.6143 37.2944 14.3962 40.9546 14.3982C42.8196 14.399 44.579 13.4508 45.5471 11.9226L45.7346 11.6263Z" fill="#C01818"/>
<path fill-rule="evenodd" clip-rule="evenodd" d="M52.4011 5.7404L53.7383 9.0979L51.0453 9.09591L52.4011 5.7404ZM45.6152 14.3998L48.9186 14.4018L49.9002 11.96L54.8582 11.9623L55.837 14.4054L59.1548 14.4074L53.2367 0.0959093L50.2899 0.0943203L51.0745 1.99155L45.6152 14.3998Z" fill="#C01818"/>
<path fill-rule="evenodd" clip-rule="evenodd" d="M60.5225 14.4086L63.4215 14.4102L63.4251 7.98717L65.3152 7.98876L65.3168 5.29427L63.4267 5.29308L63.4271 4.01952C63.4271 3.47291 63.7934 2.89254 64.4715 2.89294C64.8441 2.89333 65.0689 2.95689 65.2933 3.05302L65.6159 3.19206L66.8203 0.562711L66.4732 0.420896C65.9345 0.200029 65.1841 0.12058 64.6609 0.120183C63.3461 0.119389 62.2628 0.549205 61.5263 1.36276C60.8836 2.07303 60.5292 3.06097 60.5284 4.14385L60.5276 5.29109L59.2477 5.29069L59.2461 7.98559L60.5264 7.98598L60.5225 14.4086Z" fill="#C01818"/>
<path fill-rule="evenodd" clip-rule="evenodd" d="M21.656 0.0121708V14.3868L24.8057 14.3888L24.8105 6.17062L27.8633 8.44523L30.9189 6.17062V14.3924L34.0642 14.3939L34.0722 0.0121708L27.8657 4.70202L21.656 0.0121708Z" fill="#C01818"/>
<path fill-rule="evenodd" clip-rule="evenodd" d="M69.3155 7.70328C69.694 6.72289 70.5108 6.15046 71.5658 6.15086C72.632 6.15125 73.4643 6.71216 73.9056 7.70566L69.3155 7.70328ZM71.8439 3.65262C68.1953 3.65064 66.2242 6.42259 66.2226 9.03089C66.2214 11.64 68.1889 14.4131 71.838 14.4151H71.8396H71.842C73.5151 14.3972 75.0843 13.6345 76.299 12.2597L73.9346 10.9698C73.3284 11.5907 72.5923 11.9173 71.7796 11.9169C70.5891 11.9161 69.5332 11.1224 69.2571 10.0848L77.1416 10.0891L77.142 9.37291C77.1444 5.42949 74.0455 3.65421 71.8439 3.65262Z" fill="#C01818"/>
<path fill-rule="evenodd" clip-rule="evenodd" d="M81.1665 7.71108C81.5446 6.73029 82.361 6.15786 83.4165 6.15826C84.4831 6.15905 85.3153 6.71956 85.7566 7.71346L81.1665 7.71108ZM83.6946 3.66023C80.0455 3.65824 78.0752 6.4298 78.0736 9.0381C78.072 11.6472 80.0392 14.4203 83.689 14.4227H83.6906H83.6922C85.3662 14.4044 86.9353 13.6417 88.1497 12.2669L85.7853 10.9774C85.1787 11.5983 84.443 11.9249 83.6306 11.9245C82.4397 11.9237 81.3838 11.13 81.1081 10.0924L88.9922 10.0964L88.993 9.38052C88.9954 5.43709 85.8961 3.66142 83.6946 3.66023Z" fill="#C01818"/>
<path fill-rule="evenodd" clip-rule="evenodd" d="M88.6223 3.1H89.8497V3.32921H89.3675V4.61588H89.1025V3.32921H88.6223V3.1Z" fill="#C01818"/>
<path fill-rule="evenodd" clip-rule="evenodd" d="M90.2 3.1H90.5734L90.9917 4.28696H90.9961L91.4037 3.1H91.7731V4.61588H91.5204V3.446H91.5161L91.0962 4.61588H90.8773L90.4566 3.446H90.4527V4.61588H90.2V3.1Z" fill="#C01818"/>
<path fill-rule="evenodd" clip-rule="evenodd" d="M3.19145 12.2739V4.99003L7.78635 7.11488V3.60048L0 -0.0001297V14.3109L7.78635 17.9147V14.3999L3.19145 12.2739Z" fill="#C01818"/>
<path fill-rule="evenodd" clip-rule="evenodd" d="M12.3813 12.2739V4.99003L7.78635 7.11488V3.60048L15.5727 -0.0001297V14.3109L7.78635 17.9147V14.3999L12.3813 12.2739Z" fill="#75160D"/>
</svg>
