<svg width="350" height="140" viewBox="0 0 350 140" fill="none" xmlns="http://www.w3.org/2000/svg">
<g clip-path="url(#clip0)">
<rect x="21.1201" y="-44.4829" width="416.88" height="326.285" fill="url(#paint0_linear)"/>
<path d="M635 -68.2696C635 -68.2696 489.964 -96.1959 490.953 -45.8915C491.943 4.22785 452.927 32.1541 394.262 11.8105C335.598 -8.71812 259.121 -30.9112 255.446 9.96106C251.77 50.8333 166.813 37.8874 112.671 4.41279C58.53 -29.0618 -67.7053 3.48807 -47.9147 92.2604V206H635V-68.2696Z" fill="url(#paint1_linear)"/>
<path d="M-66.4422 128.998C-66.4422 128.998 -1.71332 49.2886 85.951 49.2886C173.615 49.2886 229.782 111.852 281.055 118.966C332.431 126.262 412.552 83.3975 412.552 83.3975V330.368H-66.4422V128.998Z" fill="url(#paint2_linear)"/>
<mask id="mask0" mask-type="alpha" maskUnits="userSpaceOnUse" x="48" y="-38" width="242" height="194">
<rect x="48.0859" y="-37.5562" width="241.028" height="192.998" fill="#C4C4C4"/>
</mask>
<g mask="url(#mask0)">
<path d="M148.466 104.928C136.892 86.0146 110.399 59.8853 101.552 54.0172L101.716 53.7749C110.582 59.6548 137.126 85.8322 148.72 104.777L148.466 104.928Z" fill="#A1CCB8"/>
<path d="M97.1796 48.9746C96.1934 48.0016 95.1874 47.0139 93.9534 46.3764C93.2081 45.991 91.6787 45.5526 91.0245 46.3656C89.0799 48.7794 96.7643 52.0798 98.0201 52.5319C99.5306 53.0753 102.45 54.4082 102.45 54.4082C102.45 54.4082 98.9349 50.7066 97.1796 48.9746Z" fill="#A1CCB8"/>
<path d="M100.708 56.6881C99.6359 56.5469 98.5437 56.4066 97.4772 56.5881C96.833 56.6979 95.6793 57.1403 95.6624 57.9484C95.6109 60.3465 101.931 58.7998 102.922 58.4928C104.113 58.124 106.551 57.5855 106.551 57.5855C106.551 57.5855 102.618 56.9392 100.708 56.6881Z" fill="#A1CCB8"/>
<path d="M106.427 51.7341C106.38 50.664 106.329 49.5753 105.963 48.5681C105.741 47.96 105.1 46.9125 104.294 47.037C101.898 47.4048 104.538 53.2935 105.016 54.2057C105.591 55.3022 106.551 57.5845 106.551 57.5845C106.551 57.5845 106.509 53.6398 106.427 51.7341Z" fill="#A1CCB8"/>
<path d="M106.191 61.261C105.128 61.0619 104.046 60.8628 102.971 60.9864C102.322 61.061 101.145 61.4405 101.084 62.2458C100.901 64.6379 107.296 63.4355 108.302 63.1824C109.513 62.8784 111.977 62.4723 111.977 62.4723C111.977 62.4723 108.084 61.6151 106.191 61.261Z" fill="#A1CCB8"/>
<path d="M112.176 56.6236C112.189 55.5536 112.199 54.4629 111.888 53.438C111.701 52.8181 111.118 51.7383 110.306 51.8187C107.894 52.0561 110.204 58.0791 110.632 59.0158C111.145 60.1417 111.979 62.4731 111.979 62.4731C111.979 62.4731 112.153 58.5303 112.176 56.6236Z" fill="#A1CCB8"/>
<path d="M111.716 67.1378C110.496 66.8907 109.253 66.6425 108.015 66.7681C107.267 66.8436 105.907 67.2594 105.822 68.1863C105.569 70.9355 112.95 69.6604 114.113 69.3858C115.51 69.0563 118.354 68.6306 118.354 68.6306C118.354 68.6306 113.889 67.5772 111.716 67.1378Z" fill="#A1CCB8"/>
<path d="M118.681 61.9035C118.714 60.6716 118.745 59.4182 118.405 58.2324C118.2 57.5164 117.549 56.2639 116.612 56.3424C113.832 56.5758 116.387 63.5453 116.862 64.6301C117.433 65.9346 118.351 68.6308 118.351 68.6308C118.351 68.6308 118.623 64.0975 118.681 61.9035Z" fill="#A1CCB8"/>
<path d="M118.079 73.2884C116.871 72.9912 115.64 72.6911 114.397 72.7647C113.647 72.8088 112.27 73.1678 112.145 74.0897C111.776 76.8261 119.204 75.8591 120.378 75.6335C121.788 75.3628 124.647 75.0558 124.647 75.0558C124.647 75.0558 120.231 73.818 118.079 73.2884Z" fill="#A1CCB8"/>
<path d="M125.261 68.3485C125.346 67.1195 125.43 65.868 125.141 64.6695C124.966 63.9457 124.369 62.6667 123.43 62.706C120.643 62.8227 122.899 69.8932 123.328 70.9966C123.843 72.3236 124.646 75.0561 124.646 75.0561C124.646 75.0561 125.109 70.5376 125.261 68.3485Z" fill="#A1CCB8"/>
<path d="M124.462 80.5496C123.092 80.1367 121.697 79.7199 120.264 79.7297C119.399 79.7355 117.796 80.0671 117.598 81.1185C117.009 84.2394 125.6 83.5685 126.961 83.3782C128.597 83.1507 131.9 82.9673 131.9 82.9673C131.9 82.9673 126.901 81.2852 124.462 80.5496Z" fill="#A1CCB8"/>
<path d="M133.01 75.3C133.182 73.8935 133.354 72.4606 133.094 71.0669C132.937 70.2254 132.328 68.7208 131.247 68.711C128.039 68.6806 130.204 76.934 130.629 78.2277C131.14 79.7832 131.899 82.9679 131.899 82.9679C131.899 82.9679 132.703 77.8059 133.01 75.3Z" fill="#A1CCB8"/>
<path d="M131.385 87.9357C130.051 87.4198 128.692 86.897 127.264 86.7979C126.402 86.7381 124.777 86.946 124.498 87.9788C123.667 91.0458 132.284 91.032 133.656 90.9477C135.305 90.8457 138.612 90.9153 138.612 90.9153C138.612 90.9153 133.761 88.8556 131.385 87.9357Z" fill="#A1CCB8"/>
<path d="M140.317 83.3559C140.599 81.9661 140.882 80.5508 140.731 79.1414C140.641 78.2901 140.151 76.7443 139.074 76.6512C135.878 76.3756 137.392 84.7702 137.715 86.0923C138.104 87.6822 138.611 90.9159 138.611 90.9159C138.611 90.9159 139.816 85.8304 140.317 83.3559Z" fill="#A1CCB8"/>
<path d="M231.898 107.888L240.54 110.23C255.41 100.743 268.494 89.131 275.884 85.4628C274.012 85.2971 252.646 84.0387 239.009 85.0166L236.29 90.87L236.218 85.2618C234.78 85.4138 233.471 85.5992 232.336 85.8238C216.084 89.0349 195.879 97.3373 191.19 114.86C189.222 122.219 197.53 123.558 203.019 123.753C214.164 124.149 226.048 119.024 237.131 112.346L231.898 107.888Z" fill="#A1CCB8"/>
<path d="M210.773 101.348C206.235 101.75 198.911 102.529 195.675 98.4885C194.64 97.1968 194.173 95.553 193.856 93.9347C193.043 89.7879 193.067 85.4822 193.923 81.3442C194.183 80.0907 194.542 78.8059 195.378 77.83C196.215 76.8541 197.65 76.2754 198.841 76.7727C200.032 77.2709 200.793 78.2429 202.042 77.1189C204.278 75.1053 204.801 71.3675 205.925 68.7341C206.742 66.8215 208.786 63.1543 211.4 63.579C213.181 63.8684 213.765 66.5773 215.697 66.4508C216.384 66.4057 216.951 65.8947 217.339 65.3317C219.696 61.9225 221.209 55.7768 225.795 54.6714C226.768 54.437 227.895 54.5773 228.605 55.2776C229.349 56.0122 229.49 57.1832 230.202 57.9483C231.048 58.8545 232.513 58.9477 233.678 58.5103C234.844 58.0728 235.786 57.2107 236.71 56.3839C239.016 54.3242 241.499 52.3205 244.463 51.4044C249.242 49.9283 255.503 52.4695 252.994 58.3259C252.017 60.6062 249.488 61.7763 247.131 62.611C244.952 63.3829 238.266 65.5396 241.385 68.7213C241.982 69.3314 242.722 69.8208 243.178 70.5417C244.095 71.9933 243.539 74.0196 242.29 75.2054C241.042 76.3912 239.278 76.8835 237.562 77.0993C235.845 77.3151 234.097 77.2984 232.406 77.6652C231.156 77.9359 229.727 78.7323 229.788 79.9966C229.851 81.3128 231.449 81.968 232.101 83.1175C232.836 84.4131 232.177 86.1314 231.021 87.0799C229.865 88.0273 228.345 88.3912 226.883 88.7276C225.433 89.0611 223.982 89.3946 222.532 89.729C220.978 90.087 219.151 90.6961 218.764 92.2281C218.53 93.1618 218.939 94.124 219.011 95.0832C219.155 96.9849 217.913 98.7935 216.283 99.8096C214.652 100.828 212.692 101.178 210.773 101.348Z" fill="#008890"/>
<path d="M198.558 99.8426L198.266 99.7984C201.611 77.9002 215.951 43.6381 221.853 34.8384L222.098 35.0002C216.21 43.7823 201.899 77.9807 198.558 99.8426Z" fill="#A1CCB8"/>
<path d="M224.177 28.6816C224.709 27.4085 225.254 26.1138 226.146 25.0556C226.684 24.4171 227.926 23.4304 228.846 23.9316C231.579 25.4204 225.766 31.3895 224.782 32.284C223.599 33.36 221.422 35.7001 221.422 35.7001C221.422 35.7001 223.228 30.9492 224.177 28.6816Z" fill="#A1CCB8"/>
<path d="M223.915 37.1452C224.851 36.6067 225.804 36.0614 226.859 35.824C227.496 35.6808 228.733 35.6504 229.062 36.389C230.04 38.584 223.606 39.5589 222.571 39.6531C221.327 39.7658 218.867 40.1954 218.867 40.1954C218.867 40.1954 222.249 38.1034 223.915 37.1452Z" fill="#A1CCB8"/>
<path d="M216.711 34.7469C216.339 33.7416 215.962 32.7177 215.91 31.6486C215.878 31.0032 216.063 29.7919 216.856 29.5997C219.21 29.0289 219.06 35.4688 218.973 36.4927C218.868 37.7236 218.868 40.1962 218.868 40.1962C218.868 40.1962 217.375 36.5369 216.711 34.7469Z" fill="#A1CCB8"/>
<path d="M220.629 43.4521C221.533 42.8646 222.456 42.2682 223.495 41.974C224.124 41.7965 225.357 41.6994 225.726 42.4193C226.825 44.5574 220.453 45.8805 219.426 46.0296C218.191 46.2091 215.757 46.7721 215.757 46.7721C215.757 46.7721 219.019 44.4996 220.629 43.4521Z" fill="#A1CCB8"/>
<path d="M213.304 41.4465C212.877 40.4627 212.444 39.4604 212.333 38.3962C212.265 37.7528 212.383 36.5347 213.164 36.2993C215.484 35.6019 215.69 42.0399 215.659 43.0677C215.622 44.3026 215.758 46.7712 215.758 46.7712C215.758 46.7712 214.065 43.1982 213.304 41.4465Z" fill="#A1CCB8"/>
<path d="M217.812 50.979C218.843 50.2875 219.894 49.5853 221.085 49.2293C221.804 49.0145 223.223 48.8811 223.661 49.704C224.961 52.1461 217.653 53.7752 216.473 53.9645C215.055 54.1921 212.265 54.8806 212.265 54.8806C212.265 54.8806 215.977 52.2109 217.812 50.979Z" fill="#A1CCB8"/>
<path d="M209.348 48.7948C208.839 47.6698 208.324 46.5243 208.177 45.3002C208.089 44.5617 208.203 43.1572 209.098 42.8737C211.755 42.0312 212.103 49.4372 212.085 50.6201C212.064 52.0422 212.263 54.8806 212.263 54.8806C212.263 54.8806 210.253 50.7976 209.348 48.7948Z" fill="#A1CCB8"/>
<path d="M214.326 59.0762C215.326 58.3426 216.346 57.5972 217.522 57.1921C218.231 56.9469 219.643 56.7556 220.116 57.5589C221.519 59.9452 214.286 61.8773 213.115 62.1147C211.708 62.4011 208.949 63.2053 208.949 63.2053C208.949 63.2053 212.545 60.3836 214.326 59.0762Z" fill="#A1CCB8"/>
<path d="M205.777 57.2477C205.221 56.1453 204.657 55.0213 204.458 53.8051C204.338 53.0705 204.393 51.6621 205.275 51.3423C207.894 50.39 208.557 57.7754 208.589 58.9572C208.629 60.3784 208.948 63.206 208.948 63.206C208.948 63.206 206.767 59.2112 205.777 57.2477Z" fill="#A1CCB8"/>
<path d="M211.253 68.2085C212.357 67.3062 213.484 66.3911 214.81 65.8556C215.611 65.5319 217.219 65.2289 217.811 66.1243C219.568 68.7813 211.376 71.4285 210.046 71.7718C208.446 72.1837 205.327 73.2704 205.327 73.2704C205.327 73.2704 209.286 69.8151 211.253 68.2085Z" fill="#A1CCB8"/>
<path d="M201.322 66.6117C200.617 65.3789 199.902 64.1215 199.601 62.7356C199.418 61.899 199.397 60.2787 200.391 59.858C203.341 58.6094 204.549 67.0531 204.658 68.4085C204.789 70.0386 205.327 73.2674 205.327 73.2674C205.327 73.2674 202.579 68.8087 201.322 66.6117Z" fill="#A1CCB8"/>
<path d="M207.729 77.6599C208.76 76.6762 209.812 75.6768 211.092 75.0422C211.865 74.6587 213.446 74.233 214.105 75.0804C216.064 77.5962 208.103 80.8603 206.803 81.3036C205.24 81.8371 202.215 83.1583 202.215 83.1583C202.215 83.1583 205.893 79.4126 207.729 77.6599Z" fill="#A1CCB8"/>
<path d="M197.704 76.8276C196.904 75.6516 196.093 74.4531 195.685 73.0947C195.438 72.2748 195.289 70.6604 196.248 70.1651C199.091 68.6949 200.953 77.0208 201.169 78.3645C201.427 79.9799 202.215 83.1577 202.215 83.1577C202.215 83.1577 199.128 78.9216 197.704 76.8276Z" fill="#A1CCB8"/>
<path d="M139.23 65.4811L131.129 61.5952C126.229 44.6912 124.097 27.3478 120.962 19.7388C122.488 20.8392 139.483 33.8711 149.138 43.5358L147.282 49.7413L151.085 45.5484C152.07 46.6047 152.936 47.6012 153.644 48.5143C163.786 61.5785 173.512 81.0797 165.344 97.3972C161.913 104.249 154.736 99.8237 150.457 96.3791C141.766 89.3851 136.208 77.7323 132.291 65.4291L139.23 65.4811Z" fill="#A1CCB8"/>
<path d="M130.53 118.164C134.992 117.256 142.232 115.918 144.156 111.128C144.771 109.597 144.741 107.89 144.574 106.251C144.147 102.049 142.873 97.9326 140.849 94.2145C140.237 93.0875 139.519 91.9606 138.435 91.2642C137.35 90.5679 135.807 90.4217 134.811 91.2377C133.816 92.0538 133.37 93.2013 131.848 92.4804C129.121 91.1887 127.534 87.7589 125.692 85.557C124.354 83.9573 121.331 81.0286 118.951 82.1791C117.329 82.9628 117.558 85.7227 115.671 86.1513C115 86.3034 114.309 85.9758 113.773 85.5481C110.525 82.9549 107.29 77.5007 102.577 77.7479C101.577 77.7999 100.539 78.2559 100.062 79.1279C99.5629 80.0429 99.769 81.2052 99.3081 82.1399C98.762 83.2482 97.3863 83.7543 96.1434 83.668C94.9005 83.5807 93.7478 83.0236 92.6218 82.4949C89.8159 81.1787 86.8553 79.9674 83.75 79.9341C78.7447 79.8811 73.4876 84.0966 77.593 88.9898C79.1917 90.8954 81.9531 91.2966 84.4527 91.4241C86.7641 91.5428 93.7924 91.7046 91.7318 95.6395C91.3373 96.3938 90.7713 97.0735 90.5444 97.8924C90.0874 99.5431 91.2094 101.326 92.7487 102.106C94.2889 102.886 96.1206 102.855 97.8273 102.574C99.5341 102.292 101.204 101.778 102.929 101.648C104.204 101.552 105.804 101.907 106.112 103.136C106.434 104.415 105.095 105.497 104.805 106.782C104.478 108.232 105.609 109.69 106.992 110.268C108.374 110.847 109.935 110.762 111.433 110.668C112.919 110.575 114.404 110.482 115.89 110.388C117.482 110.288 119.409 110.351 120.223 111.709C120.72 112.536 120.608 113.574 120.817 114.513C121.232 116.375 122.947 117.753 124.804 118.262C126.664 118.77 128.643 118.547 130.53 118.164Z" fill="#008890"/>
<path d="M113.852 40.6106C114.138 42.4702 116.011 44.8085 117.424 44.627C118.207 44.526 118.804 43.8139 118.977 43.0509C119.149 42.2888 118.976 41.4914 118.725 40.7499C118.199 39.1914 115.82 37.1298 114.193 38.9933C113.841 39.3974 113.755 39.9761 113.852 40.6106Z" fill="#009061"/>
<path d="M237.346 48.0888C239.152 47.5013 241.173 45.2867 240.759 43.9381C240.529 43.1907 239.72 42.7258 238.931 42.6827C238.143 42.6405 237.377 42.9416 236.68 43.3084C235.214 44.0803 233.552 46.7422 235.679 48.0221C236.14 48.2997 236.731 48.2889 237.346 48.0888Z" fill="#A1CCB8"/>
<path d="M106.636 27.0659C106.86 28.5214 108.326 30.3516 109.432 30.2094C110.045 30.1299 110.513 29.5728 110.647 28.9765C110.782 28.3802 110.646 27.7554 110.45 27.1758C110.038 25.9566 108.176 24.3423 106.903 25.8007C106.627 26.1165 106.559 26.5696 106.636 27.0659Z" fill="#A1CCB8"/>
<path d="M254.776 68.4315C256.261 68.3403 258.234 67.0603 258.19 65.9579C258.166 65.3469 257.647 64.8359 257.059 64.6496C256.47 64.4632 255.83 64.5407 255.229 64.6819C253.964 64.9791 252.173 66.669 253.527 68.0549C253.82 68.355 254.269 68.4619 254.776 68.4315Z" fill="#A1CCB8"/>
<path d="M103.788 35.193C103.944 36.2023 104.96 37.4714 105.727 37.3724C106.152 37.3174 106.476 36.931 106.569 36.5171C106.663 36.1032 106.568 35.6707 106.432 35.2686C106.147 34.4231 104.856 33.304 103.973 34.3152C103.782 34.5339 103.735 34.8488 103.788 35.193Z" fill="#A1CCB8"/>
<path d="M250.244 75.7663C251.259 75.5829 252.512 74.5413 252.39 73.7861C252.323 73.3673 251.922 73.0584 251.502 72.9769C251.082 72.8965 250.647 73.0024 250.245 73.1486C249.4 73.4556 248.307 74.7649 249.353 75.6094C249.579 75.7909 249.898 75.8281 250.244 75.7663Z" fill="#009061"/>
<path d="M216.624 21.0076C217.202 20.1621 217.325 18.5477 216.695 18.1054C216.345 17.8602 215.842 17.9269 215.489 18.1682C215.137 18.4095 214.91 18.79 214.734 19.1774C214.364 19.9905 214.546 21.6794 215.887 21.5294C216.177 21.496 216.427 21.2969 216.624 21.0076Z" fill="#009061"/>
<path d="M86.5837 72.9514C87.5164 73.3869 89.1478 73.2604 89.4927 72.5767C89.684 72.1972 89.5413 71.7156 89.246 71.4076C88.9516 71.0997 88.5363 70.9359 88.123 70.8231C87.2547 70.5857 85.5955 71.0212 85.9504 72.31C86.0287 72.5885 86.2656 72.8023 86.5837 72.9514Z" fill="#009061"/>
<path d="M237.916 35.1391C238.776 34.5762 239.515 33.1305 239.103 32.4832C238.874 32.1242 238.384 31.9957 237.965 32.0849C237.545 32.1742 237.189 32.441 236.876 32.7313C236.22 33.3423 235.736 34.9714 237.034 35.3402C237.315 35.4206 237.622 35.3314 237.916 35.1391Z" fill="#A1CCB8"/>
<ellipse cx="172.99" cy="129.209" rx="73.0962" ry="5.73053" fill="#C4C4C4" fill-opacity="0.31"/>
<g opacity="0.1">
<path opacity="0.1" d="M240.814 126.107C240.814 128.727 211.894 130.85 176.218 130.85C140.544 130.85 111.623 128.727 111.623 126.107C111.623 123.487 140.543 121.364 176.218 121.364C211.894 121.364 240.814 123.487 240.814 126.107Z" fill="#231F20"/>
</g>
<path d="M222.964 106.899C221.894 108.233 220.493 109.391 219.107 110.348C211.546 115.567 202.51 119.137 193.55 121.437C185.547 123.491 177.16 123.4 168.975 122.603C163.381 122.057 157.815 120.342 152.419 118.75C146.868 117.112 141.393 115.161 136.219 112.568C132.143 110.525 128.491 107.989 127.87 103.161C127.625 101.263 128.047 99.1598 129.516 97.872C131.286 96.3204 133.964 96.3724 136.35 96.5558C149.87 97.5915 162.965 102.098 176.578 102.182C184.176 102.228 191.261 100.273 198.562 98.5046C204.194 97.1404 210.447 95.6407 216.311 95.9271C221.629 96.1851 226.886 102.006 222.964 106.899Z" fill="#0B2D4E"/>
<path d="M158.914 95.597C158.766 95.2645 158.615 94.9242 158.458 94.5751C156.808 90.9265 155.6 87.0808 154.868 83.1498C154.603 81.7325 154.335 80.1819 153.24 79.2305C151.726 77.9143 148.776 78.0839 146.9 78.3321C146.024 78.4478 145.107 78.7479 144.577 79.4482C143.7 80.6095 143.787 83.2321 143.754 84.6317C143.544 93.1392 150.34 100.171 155.875 105.912C156.94 107.017 158.097 108.136 159.573 108.582C161.048 109.029 162.923 108.564 163.569 107.176C164.043 106.158 163.752 104.962 163.378 103.904C162.732 102.085 161.761 100.418 160.656 98.8366C159.911 97.7695 159.419 96.725 158.914 95.597Z" fill="#9F6349"/>
<path d="M192.324 95.597C192.473 95.2645 192.623 94.9242 192.781 94.5751C194.43 90.9265 195.638 87.0808 196.371 83.1498C196.636 81.7325 196.903 80.1819 197.999 79.2305C199.513 77.9143 202.463 78.0839 204.339 78.3321C205.215 78.4478 206.132 78.7479 206.661 79.4482C207.538 80.6095 207.451 83.2321 207.485 84.6317C207.695 93.1392 200.899 100.171 195.364 105.912C194.299 107.017 193.142 108.136 191.666 108.582C190.19 109.029 188.316 108.564 187.67 107.176C187.196 106.158 187.486 104.962 187.861 103.904C188.506 102.085 189.478 100.418 190.583 98.8366C191.328 97.7695 191.82 96.725 192.324 95.597Z" fill="#9F6349"/>
<path d="M148.671 68.181C148.144 69.4953 147.637 70.8184 147.139 72.1434C145.434 76.6776 141.378 84.371 145.952 88.5502C146.47 89.0239 147.717 88.9974 148.361 88.8719C150.201 88.511 151.127 86.8151 152.029 85.3714C154.734 81.0383 156.696 76.2912 159.304 71.8982C161.186 68.7283 162.14 64.9463 163.043 61.4135C163.64 59.0753 164.409 55.7288 162.417 53.7927C161.606 53.0051 160.427 52.605 159.299 52.7345C158.619 52.8129 157.974 53.0699 157.36 53.369C156.835 53.625 156.322 53.9153 155.876 54.292C154.77 55.2267 154.236 56.5772 153.577 57.8199C152.802 59.2822 152.009 60.7309 151.284 62.2197C150.334 64.1715 149.478 66.1665 148.671 68.181Z" fill="#9F6349"/>
<path d="M150.729 61.0232C153.258 56.435 156.545 52.3078 161.614 50.6248C163.066 50.1422 164.859 50.0235 165.947 51.0897C166.629 51.7576 166.876 52.7668 166.819 53.7143C166.735 55.0884 166.107 56.3928 165.786 57.7238C164.932 61.2684 163.636 64.7257 161.928 67.9554C161.561 68.6518 158.862 76.2118 159.079 76.3981C157.299 74.8681 154.762 72.9614 152.633 71.96C152.067 71.6942 146.907 69.0657 146.759 69.3982C147.955 66.7294 149.204 63.7919 150.729 61.0232Z" fill="#22A3CB"/>
<path d="M203.154 68.181C203.682 69.4953 204.188 70.8184 204.686 72.1434C206.392 76.6776 210.447 84.371 205.873 88.5502C205.355 89.0239 204.108 88.9974 203.465 88.8719C201.624 88.511 200.698 86.8151 199.796 85.3714C197.092 81.0383 195.129 76.2912 192.521 71.8982C190.639 68.7283 189.686 64.9463 188.783 61.4135C188.185 59.0753 187.416 55.7288 189.408 53.7927C190.219 53.0051 191.398 52.605 192.526 52.7345C193.206 52.8129 193.852 53.0699 194.465 53.369C194.99 53.625 195.504 53.9153 195.949 54.292C197.055 55.2267 197.589 56.5772 198.248 57.8199C199.023 59.2822 199.816 60.7309 200.541 62.2197C201.49 64.1715 202.347 66.1665 203.154 68.181Z" fill="#9F6349"/>
<path d="M201.072 61.0232C198.544 56.435 195.256 52.3078 190.188 50.6248C188.736 50.1422 186.943 50.0235 185.854 51.0897C185.172 51.7576 184.926 52.7668 184.983 53.7143C185.066 55.0884 185.695 56.3928 186.016 57.7238C186.87 61.2684 188.166 64.7257 189.873 67.9554C190.241 68.6518 192.94 76.2118 192.723 76.3981C194.503 74.8681 197.039 72.9614 199.168 71.96C199.734 71.6942 204.894 69.0657 205.043 69.3982C203.847 66.7294 202.598 63.7919 201.072 61.0232Z" fill="#22A3CB"/>
<path d="M193.881 96.2587C193.847 96.1224 193.814 95.9851 193.783 95.8488C192.587 90.728 192.412 85.4415 192.561 80.207C192.708 75.0745 193.864 70.0244 194.013 64.889C194.186 58.9669 193.144 50.5546 185.654 49.87C182.557 49.5876 179.442 49.257 176.322 49.2198V49.2129C176.211 49.2129 176.1 49.2158 175.989 49.2168C175.878 49.2158 175.767 49.2129 175.656 49.2129V49.2198C172.537 49.256 169.422 49.5866 166.325 49.87C158.836 50.5546 157.793 58.9669 157.965 64.889C158.115 70.0244 159.27 75.0745 159.417 80.207C159.567 85.4415 159.392 90.728 158.196 95.8488C158.164 95.9861 158.132 96.1224 158.098 96.2587C157.863 97.2209 157.484 98.1978 157.661 99.1717C158.046 101.276 163.169 102.298 164.896 102.752C168.117 103.597 171.442 103.975 174.757 104.216C175.06 104.237 175.356 104.259 175.649 104.28V104.325C175.761 104.318 175.876 104.31 175.989 104.302C176.102 104.31 176.217 104.318 176.329 104.325V104.28C176.623 104.259 176.919 104.237 177.221 104.216C180.537 103.974 183.862 103.597 187.082 102.752C188.809 102.298 193.933 101.276 194.317 99.1717C194.495 98.1978 194.116 97.2219 193.881 96.2587Z" fill="#50B1D0"/>
<path d="M171.17 54.8147C175.795 57.8355 184.796 55.4934 182.245 49.5017C181.936 48.7749 181.559 48.0707 181.353 47.3126C181.011 46.0542 181.045 44.7576 181.08 43.4767C181.121 41.982 181.133 40.4833 181.215 38.9915C179.525 38.6786 178.154 38.5217 176.358 38.5864C174.872 38.6404 173.388 38.5041 171.904 38.5806C171.784 38.5864 171.655 38.5972 171.57 38.6669C171.484 38.7365 171.468 38.8463 171.459 38.9474C171.259 40.9658 171.456 43.0088 171.299 45.0312C171.212 46.1621 171.055 47.4558 170.533 48.5052C169.73 50.1196 168.536 51.6183 169.686 53.371C170.065 53.9457 170.573 54.4243 171.17 54.8147Z" fill="#9F6349"/>
<path d="M181.286 47.041C181.02 45.8709 181.089 44.6459 181.122 43.4601C181.163 41.9654 181.175 40.4667 181.258 38.9749C179.567 38.662 178.196 38.5051 176.4 38.5698C174.914 38.6238 173.43 38.4875 171.945 38.564C171.825 38.5698 171.696 38.5806 171.611 38.6503C171.525 38.7199 171.511 38.8297 171.5 38.9308C171.3 40.9492 171.497 42.9922 171.34 45.0147C171.296 45.5933 171.213 46.173 171.09 46.7438C171.323 46.9223 171.561 47.0939 171.805 47.2518C173.639 48.4386 176.111 48.8329 178.305 48.2876C179.424 48.011 180.385 47.601 181.286 47.041Z" fill="#6D4D42"/>
<path d="M151.112 77.0948L150.689 78.0844H200.984L200.479 76.9722L151.112 77.0948Z" fill="#B8D1CE"/>
<path d="M175.473 125.958C177.352 126.391 179.352 126.554 181.107 126.858C181.898 126.995 182.69 127.132 183.489 127.218C184.757 127.353 186.036 127.354 187.312 127.356C188.239 127.357 189.167 127.359 190.094 127.36C190.599 127.361 191.126 127.356 191.574 127.124C192.11 126.848 192.434 126.301 192.73 125.78C193.318 124.748 194.027 123.768 194.506 122.678C194.819 121.964 195.148 121.265 194.725 120.521C194.518 120.156 194.204 119.863 193.883 119.59C193.471 119.241 193.036 118.912 192.552 118.67C190.959 117.876 189.336 118.343 187.712 118.757C185.992 119.196 184.276 119.684 182.505 119.878C180.599 120.088 178.682 119.95 176.775 119.851" fill="#D5EFF7"/>
<path d="M182.081 127.968C181.787 127.964 181.494 127.96 181.198 127.957C180.506 127.95 179.641 127.915 179.082 127.456C178.995 127.384 178.914 127.302 178.866 127.201C178.749 126.95 178.876 126.639 179.091 126.461C179.306 126.285 179.589 126.212 179.862 126.157C179.545 126.222 178.998 125.066 178.932 124.85C178.751 124.264 178.642 123.57 178.669 122.956C178.694 122.374 178.815 121.812 179.177 121.347C179.362 121.109 180.012 120.379 180.376 120.464C180.061 120.391 179.884 120.016 179.962 119.705C180.039 119.394 180.312 119.16 180.614 119.045C180.915 118.929 181.245 118.912 181.568 118.9C183.266 118.838 184.995 118.866 186.655 118.455C188.126 118.091 189.512 117.933 191.042 117.977C192.181 118.011 193.309 118.25 194.373 118.653C194.661 118.763 194.943 118.904 195.207 119.072C198.734 121.306 196.405 125.668 193.503 127.208C191.357 128.346 189.088 128.184 186.746 128.094C185.186 128.035 183.641 127.991 182.081 127.968Z" fill="#FCB32B"/>
<path d="M197.515 109.532H154.142L151.035 77.5788C150.979 77.006 151.427 76.5098 152 76.5098H199.658C200.231 76.5098 200.679 77.006 200.623 77.5788L197.515 109.532Z" fill="#B8D1CE"/>
<path d="M197.855 110.437H153.801L150.645 78.4841C150.589 77.9113 151.044 77.415 151.626 77.415H200.031C200.613 77.415 201.068 77.9113 201.012 78.4841L197.855 110.437Z" fill="white"/>
<path d="M197.829 110.436H153.802V112.375H197.829V110.436Z" fill="#B8D1CE"/>
<path d="M165.563 114.281C168.171 115.783 170.804 117.301 173.467 118.679C173.52 118.706 173.574 118.732 173.628 118.757C174.765 119.295 175.943 119.742 177.074 120.295C177.794 120.647 178.502 121.025 179.176 121.456C179.493 121.659 179.803 121.875 180.096 122.109C180.215 122.205 180.416 122.323 180.493 122.456C180.59 122.625 180.545 122.898 180.478 123.069C180.406 123.25 180.286 123.409 180.156 123.553C179.632 124.132 178.928 124.514 178.219 124.85C177.782 125.057 177.338 125.25 176.887 125.425C176.471 125.587 176.013 125.802 175.573 125.886C175.365 125.927 175.113 125.856 174.901 125.828C174.668 125.796 174.434 125.762 174.2 125.726C173.732 125.653 173.266 125.571 172.801 125.48C170.679 125.07 168.593 124.5 166.522 123.886C164.469 123.278 162.428 122.624 160.368 122.037C150.64 119.263 140.52 116.156 132.049 110.522C130.097 109.22 128.133 107.298 127.3 105.085C125.117 99.2657 131.365 94.7589 136.698 96.951C145.602 100.612 152.941 107.176 161.338 111.867C162.737 112.653 164.147 113.465 165.563 114.281Z" fill="#9F6349"/>
<path d="M182.447 116.379C181.043 117.171 179.63 117.945 178.21 118.68C176.757 119.432 168.177 122.364 170.523 125.427C170.984 126.028 171.856 126.1 172.618 126.107C177.002 126.148 181.264 125.051 185.463 123.797" fill="#9F6349"/>
<path d="M173.464 118.678C172.671 118.268 171.881 117.842 171.092 117.411C169.723 117.735 168.345 118.028 166.937 118.133C163.95 118.357 160.95 117.735 157.961 117.927C157.205 117.975 156.454 118.075 155.714 118.226C154.835 118.404 153.825 118.8 153.64 119.668C153.612 119.797 153.612 119.921 153.622 120.044C155.874 120.743 158.129 121.4 160.364 122.037C163.412 122.906 166.477 123.938 169.587 124.745C169.597 124.741 169.608 124.737 169.617 124.733C171.286 124.112 173.22 123.586 174.986 122.817C176.161 122.305 177.262 121.685 178.158 120.857C176.251 119.811 174.123 119.019 173.464 118.678Z" fill="#6D4D42"/>
<path d="M169.357 125.315C167.397 124.731 161.557 122.788 159.618 122.235C149.89 119.462 140.361 116.158 131.89 110.526C129.938 109.223 127.974 107.302 127.141 105.088C124.958 99.2691 131.206 94.7623 136.538 96.9544C145.443 100.616 152.351 105.747 160.748 110.438C162.15 111.221 164.639 112.81 166.056 113.627C167.272 114.328 171.408 116.373 172.636 117.065" fill="#0B2D4E"/>
<path d="M175.829 125.958C173.95 126.391 171.951 126.554 170.195 126.858C169.404 126.995 168.613 127.132 167.814 127.218C166.545 127.353 165.266 127.354 163.99 127.356C163.063 127.357 162.135 127.359 161.209 127.36C160.703 127.361 160.176 127.356 159.728 127.124C159.193 126.848 158.869 126.301 158.572 125.78C157.984 124.748 157.275 123.768 156.796 122.678C156.483 121.964 156.154 121.265 156.577 120.521C156.784 120.156 157.098 119.863 157.419 119.59C157.831 119.241 158.266 118.912 158.751 118.67C160.343 117.876 161.966 118.343 163.59 118.757C165.31 119.196 167.027 119.684 168.797 119.878C170.703 120.088 172.621 119.95 174.528 119.851" fill="#D5EFF7"/>
<path d="M174.528 119.852C176.052 119.774 178.388 119.386 179.749 120.252C180.305 120.606 181.167 121.461 181.235 122.137C181.321 122.988 180.359 123.877 179.748 124.322C178.619 125.144 177.26 125.629 175.83 125.958" fill="#9F6349"/>
<path d="M169.221 127.968C169.514 127.964 169.807 127.96 170.103 127.957C170.796 127.95 171.66 127.915 172.219 127.456C172.306 127.384 172.387 127.302 172.435 127.201C172.552 126.95 172.425 126.639 172.21 126.461C171.995 126.285 171.712 126.212 171.439 126.157C171.756 126.222 172.303 125.066 172.37 124.85C172.55 124.264 172.659 123.57 172.632 122.956C172.607 122.374 172.486 121.812 172.125 121.347C171.939 121.109 171.289 120.379 170.925 120.464C171.241 120.391 171.417 120.016 171.34 119.705C171.262 119.394 170.989 119.16 170.688 119.045C170.386 118.929 170.056 118.912 169.733 118.9C168.035 118.838 166.307 118.866 164.646 118.455C163.176 118.091 161.789 117.933 160.26 117.977C159.12 118.011 157.992 118.25 156.928 118.653C156.64 118.763 156.358 118.904 156.094 119.072C152.567 121.306 154.897 125.668 157.799 127.208C159.944 128.346 162.213 128.184 164.555 128.094C166.116 128.035 167.661 127.991 169.221 127.968Z" fill="#FCB32B"/>
<path d="M184.189 40.5351C182.788 42.2093 180.823 43.3127 178.878 44.3239C178.4 44.572 177.915 44.8192 177.39 44.9408C175.779 45.3135 174.153 44.4494 172.81 43.4941C170.954 42.175 169.272 40.6155 167.819 38.8707C166.357 37.1141 165.541 35.1947 164.587 33.1291C163.628 31.0488 163.418 28.9578 163.62 26.6833C163.828 24.3471 162.508 22.2609 163.104 19.9001C163.483 18.4005 164.406 17.0411 165.667 16.128C166.356 15.6278 167.158 15.2551 168.009 15.1639C169.911 14.9589 171.527 16.2388 173.407 16.3261C175.304 16.4144 177.128 15.7308 178.951 15.3208C180.544 14.9618 182.287 14.7647 183.867 15.3002C185.625 15.8955 186.472 17.2265 187.445 18.7683C188.276 20.0855 189.527 21.0732 190.527 22.2423C191.867 23.8086 192.289 25.8016 191.864 27.8426C191.504 29.5669 190.826 31.3382 189.939 32.8672C189.167 34.1992 188.326 35.6007 187.417 36.863C186.726 37.8232 185.966 38.5313 185.158 39.3689C184.808 39.7299 184.516 40.1438 184.189 40.5351Z" fill="#0B2D4E"/>
<path d="M185.913 32.5232C185.882 30.6067 185.597 28.7923 185.083 27.2877C182.868 20.7958 174.642 19.2678 169.745 23.9913C164.284 29.2591 166.52 41.7035 172.371 46.0248C173.935 47.1802 176.049 47.5706 177.93 47.0517C183.62 45.4815 186.009 38.509 185.913 32.5232Z" fill="#9F6349"/>
<path d="M187.255 27.2653C184.764 20.7764 175.481 19.2591 169.947 23.9885C168.653 25.0948 167.274 26.8348 166.673 28.4276C166.03 30.1342 166.198 32.0202 166.376 33.8327C166.514 32.336 167.222 30.9914 168.215 29.8743C168.705 29.324 169.255 28.8268 169.83 28.3658C170.039 28.1981 171.607 26.7877 171.458 26.5935C172.016 27.3134 172.57 28.0284 173.43 28.3903C174.505 28.8425 175.623 29.1024 176.76 29.3476C178.769 29.7801 180.342 30.3391 181.8 31.827C183.148 33.2021 184.123 34.9116 184.772 36.7094C184.977 37.2773 185.326 38.1522 186.077 37.8972C186.254 37.8364 187.8 36.6967 187.815 36.6172C188.087 35.2431 188.208 33.8465 188.185 32.5008C188.153 30.5843 187.833 28.7699 187.255 27.2653Z" fill="#6D4D42"/>
<path d="M182.813 31.2276C183.314 32.0367 183.62 32.9469 183.922 33.8483C184.4 35.2724 184.778 36.8034 185.39 38.1706C187.479 36.924 188.854 33.9826 189.805 31.8563C190.648 29.9692 190.885 28.4696 190.171 26.4913C189.709 25.2124 188.824 24.0756 187.772 23.1007C184.738 20.2868 180.188 18.8539 175.798 19.1393C174.257 19.2393 172.999 19.7768 171.552 20.1926C170.223 20.5742 169.206 20.8233 168.229 21.9061C167.36 22.8692 166.803 24.0678 166.367 25.284C165.654 27.2671 165.251 29.3111 165.408 31.4188C165.508 32.7664 165.518 34.0993 166.866 34.833C166.842 34.0307 166.818 33.2284 166.795 32.4271C166.784 32.0436 166.772 31.6562 166.839 31.2776C166.897 30.9402 167.015 30.6156 167.133 30.2929C167.493 29.3101 167.823 28.5225 168.505 27.7124C169.397 26.6531 170.573 25.6939 170.823 24.3375C172.935 26.3677 175.426 27.6398 178.2 28.5853C179.96 29.1846 181.748 29.5298 182.792 31.1932C182.8 31.205 182.807 31.2168 182.813 31.2276Z" fill="#0B2D4E"/>
<path d="M185.952 32.694C188.464 31.3022 189.276 34.7556 188.859 36.4818C188.686 37.1948 188.41 37.8912 187.97 38.4807C187.377 39.2751 185.671 40.5992 184.672 39.7469C184.219 39.3604 184.165 38.6955 184.146 38.104C184.092 36.5171 184.248 33.6375 185.952 32.694Z" fill="#9F6349"/>
<path d="M167.796 32.694C165.284 31.3022 164.472 34.7556 164.889 36.4818C165.062 37.1948 165.338 37.8912 165.778 38.4807C166.371 39.2751 168.077 40.5992 169.076 39.7469C169.529 39.3604 169.582 38.6955 169.602 38.104C169.655 36.5171 169.499 33.6375 167.796 32.694Z" fill="#9F6349"/>
<path d="M182.161 125.315C184.122 124.731 189.961 122.788 191.9 122.235C201.628 119.462 211.157 116.158 219.629 110.526C221.58 109.223 223.545 107.302 224.377 105.088C226.561 99.2691 220.312 94.7623 214.98 96.9544C206.076 100.616 199.167 105.747 190.77 110.438C189.369 111.221 186.88 112.81 185.463 113.627C184.246 114.328 180.11 116.373 178.882 117.065" fill="#0B2D4E"/>
<path fill-rule="evenodd" clip-rule="evenodd" d="M173.558 96.654V92.2576L176.41 93.5401V91.4189L171.577 89.2456V97.8836L176.41 100.059V97.9373L173.558 96.654Z" fill="#C01818"/>
<path fill-rule="evenodd" clip-rule="evenodd" d="M179.263 96.6545V92.2581L176.411 93.5406V91.4194L181.244 89.2461V97.8841L176.411 100.059V97.9378L179.263 96.6545Z" fill="#75160D"/>
</g>
</g>
<defs>
<linearGradient id="paint0_linear" x1="229.56" y1="-44.4829" x2="229.56" y2="281.802" gradientUnits="userSpaceOnUse">
<stop stop-color="#D4E3FF"/>
<stop offset="1" stop-color="#D4E3FF" stop-opacity="0"/>
</linearGradient>
<linearGradient id="paint1_linear" x1="352.614" y1="-44.675" x2="205.821" y2="210.583" gradientUnits="userSpaceOnUse">
<stop offset="0.0492388" stop-color="#E2E8F3"/>
<stop offset="1" stop-color="#DBEBFF"/>
</linearGradient>
<linearGradient id="paint2_linear" x1="173.055" y1="49.2886" x2="173.055" y2="330.368" gradientUnits="userSpaceOnUse">
<stop offset="0.03125" stop-color="#E2ECFF"/>
<stop offset="0.484375" stop-color="#AECAFF"/>
</linearGradient>
<clipPath id="clip0">
<rect width="350" height="140" fill="white"/>
</clipPath>
</defs>
</svg>
