<svg width="100" height="32" viewBox="0 0 100 32" fill="none" xmlns="http://www.w3.org/2000/svg">
<path fill-rule="evenodd" clip-rule="evenodd" d="M49.7116 12.9181L47.1144 11.3406L46.9214 11.6495C46.3295 12.6003 45.5203 13.0827 44.5177 13.0818C42.8 13.0809 41.5051 11.7559 41.506 9.99967C41.5073 8.24386 42.8031 6.9206 44.5211 6.92148C45.538 6.92236 46.3018 7.37875 46.9253 8.35906L47.1192 8.66361L49.7285 7.08258L49.5031 6.7489C48.2565 4.90305 46.6274 4.00572 44.5229 4.0044C40.5444 4.00263 38.3958 7.09053 38.3945 9.99746C38.3928 12.9048 40.5375 15.9958 44.516 15.998C46.5432 15.9989 48.4556 14.9453 49.5078 13.2473L49.7116 12.9181Z" fill="#C01818"/>
<path fill-rule="evenodd" clip-rule="evenodd" d="M56.9581 6.37819L58.4115 10.1087L55.4844 10.1065L56.9581 6.37819ZM49.582 15.9997L53.1728 16.0019L54.2397 13.2888L59.6288 13.2914L60.6927 16.0059L64.299 16.0081L57.8663 0.106502L54.6633 0.104736L55.5161 2.21277L49.582 15.9997Z" fill="#C01818"/>
<path fill-rule="evenodd" clip-rule="evenodd" d="M65.7848 16.0096L68.936 16.0113L68.9398 8.87465L70.9943 8.87641L70.996 5.88253L68.9416 5.88121L68.942 4.46614C68.942 3.8588 69.3401 3.21394 70.0772 3.21438C70.4822 3.21482 70.7266 3.28545 70.9705 3.39226L71.3211 3.54674L72.6303 0.625244L72.2529 0.467671C71.6674 0.222264 70.8518 0.133988 70.2831 0.133546C68.8539 0.132663 67.6764 0.610237 66.8759 1.51418C66.1773 2.30337 65.7921 3.40109 65.7913 4.60429L65.7904 5.879L64.3992 5.87856L64.3975 8.87288L65.7891 8.87332L65.7848 16.0096Z" fill="#C01818"/>
<path fill-rule="evenodd" clip-rule="evenodd" d="M23.5391 0.0134277V15.9852L26.9627 15.9874L26.9679 6.85615L30.2861 9.3835L33.6074 6.85615V15.9914L37.0263 15.9932L37.0349 0.0134277L30.2887 5.22437L23.5391 0.0134277Z" fill="#C01818"/>
<path fill-rule="evenodd" clip-rule="evenodd" d="M75.3432 8.55912C75.7547 7.46979 76.6424 6.83376 77.7893 6.8342C78.9482 6.83465 79.8528 7.45788 80.3325 8.56177L75.3432 8.55912ZM78.0916 4.05835C74.1257 4.05614 71.9832 7.1361 71.9814 10.0342C71.9802 12.9332 74.1188 16.0145 78.0852 16.0167H78.0869H78.0895C79.9082 15.9968 81.6137 15.1494 82.9341 13.6217L80.3641 12.1886C79.7052 12.8785 78.9051 13.2413 78.0217 13.2408C76.7276 13.24 75.5799 12.3581 75.2799 11.2052L83.8499 11.21L83.8504 10.4142C83.853 6.03265 80.4846 4.06012 78.0916 4.05835Z" fill="#C01818"/>
<path fill-rule="evenodd" clip-rule="evenodd" d="M88.2241 8.56785C88.6351 7.47808 89.5224 6.84205 90.6697 6.8425C91.829 6.84338 92.7336 7.46617 93.2133 8.5705L88.2241 8.56785ZM90.9721 4.0669C87.0057 4.06469 84.864 7.1442 84.8623 10.0423C84.8606 12.9413 86.9988 16.0226 90.966 16.0252H90.9678H90.9695C92.789 16.0049 94.4946 15.1575 95.8145 13.6298L93.2446 12.1971C92.5852 12.887 91.7856 13.2498 90.9026 13.2494C89.6081 13.2485 88.4604 12.3666 88.1607 11.2137L96.7304 11.2181L96.7312 10.4228C96.7338 6.04119 93.365 4.06822 90.9721 4.0669Z" fill="#C01818"/>
<path fill-rule="evenodd" clip-rule="evenodd" d="M96.3281 3.44434H97.6623V3.69901H97.1382V5.12864H96.8502V3.69901H96.3281V3.44434Z" fill="#C01818"/>
<path fill-rule="evenodd" clip-rule="evenodd" d="M98.043 3.44434H98.4488L98.9035 4.76318H98.9083L99.3513 3.44434H99.7528V5.12864H99.4782V3.82878H99.4735L99.0171 5.12864H98.7792L98.3219 3.82878H98.3176V5.12864H98.043V3.44434Z" fill="#C01818"/>
<path fill-rule="evenodd" clip-rule="evenodd" d="M3.46896 13.6378V5.54462L8.46343 7.90557V4.00067L0 0V15.9012L8.46343 19.9054V16L3.46896 13.6378Z" fill="#C01818"/>
<path fill-rule="evenodd" clip-rule="evenodd" d="M13.4583 13.6375V5.54438L8.46387 7.90532V4.00043L16.9273 -0.000244141V15.9009L8.46387 19.9051V15.9998L13.4583 13.6375Z" fill="#75160D"/>
<g clip-path="url(#clip0)">
<path fill-rule="evenodd" clip-rule="evenodd" d="M73.2368 22.9298H71.5865L70.6194 25.2332L69.6522 22.9298H68.002C68.6014 24.3576 69.2007 25.7855 69.8004 27.2131L69.1361 28.7952H70.7863C71.6116 26.8297 72.4168 24.8826 73.2367 22.9299L73.2368 22.9298ZM94.2212 21.0123H95.9972L94.3912 24.8929H92.6152L94.2212 21.0123ZM93.0518 25.2672C93.6047 25.2672 94.0531 25.7155 94.0531 26.2685C94.0531 26.8215 93.6048 27.2698 93.0518 27.2698C92.4987 27.2698 92.0504 26.8215 92.0504 26.2685C92.0504 25.7155 92.4987 25.2672 93.0518 25.2672ZM89.5597 22.8133C90.8033 22.8133 91.8114 23.8215 91.8114 25.065C91.8114 26.3086 90.8033 27.3167 89.5597 27.3167C88.3161 27.3167 87.308 26.3086 87.308 25.065C87.308 23.8214 88.3162 22.8133 89.5597 22.8133V22.8133ZM89.5597 24.1858C90.0453 24.1858 90.439 24.5795 90.439 25.0651C90.439 25.5506 90.0453 25.9443 89.5597 25.9443C89.0741 25.9443 88.6805 25.5506 88.6805 25.0651C88.6805 24.5795 89.0741 24.1858 89.5597 24.1858ZM84.7257 22.8133C85.9693 22.8133 86.9774 23.8215 86.9774 25.065C86.9774 26.3086 85.9693 27.3167 84.7257 27.3167C83.4821 27.3167 82.474 26.3086 82.474 25.065C82.474 23.8214 83.4822 22.8133 84.7257 22.8133V22.8133ZM84.7257 24.1858C85.2113 24.1858 85.6049 24.5795 85.6049 25.0651C85.6049 25.5506 85.2113 25.9443 84.7257 25.9443C84.2401 25.9443 83.8465 25.5506 83.8465 25.0651C83.8465 24.5795 84.2401 24.1858 84.7257 24.1858V24.1858ZM78.0781 21H79.5671V23.3149C79.5671 23.3149 79.8276 22.8133 80.6881 22.8133C81.5486 22.8133 82.1005 23.192 82.1116 24.7423V27.2698H80.6226V24.7423C80.6226 24.4508 80.3863 24.2145 80.0948 24.2145C79.7966 24.2145 79.5598 24.4597 79.5673 24.7572L79.567 27.2698H78.078V21L78.0781 21ZM76.0506 22.9298H77.5396V27.2698H76.0506V26.8607C75.7172 27.1469 75.3016 27.3168 74.851 27.3168C73.7529 27.3168 72.8627 26.3086 72.8627 25.0651C72.8627 23.8215 73.7529 22.8134 74.851 22.8134C75.3016 22.8134 75.7172 22.9833 76.0506 23.2695V22.9299V22.9298ZM75.2119 24.1858C75.6975 24.1858 76.0912 24.5795 76.0912 25.0651C76.0912 25.5506 75.6975 25.9443 75.2119 25.9443C74.7264 25.9443 74.3327 25.5506 74.3327 25.0651C74.3327 24.5795 74.7264 24.1858 75.2119 24.1858V24.1858Z" fill="#6101D1"/>
</g>
<path d="M25.5457 27.0742C25.281 27.0742 25.0385 27.026 24.8184 26.9295C24.6007 26.8305 24.4176 26.6796 24.2691 26.4768H24.2246C24.2543 26.7143 24.2691 26.9394 24.2691 27.1521V28.8258H23.6531V22.9328H24.1541L24.2395 23.4895H24.2691C24.4275 23.2668 24.6118 23.106 24.8221 23.007C25.0324 22.9081 25.2736 22.8586 25.5457 22.8586C26.085 22.8586 26.5007 23.0429 26.7926 23.4115C27.087 23.7801 27.2342 24.2972 27.2342 24.9627C27.2342 25.6307 27.0845 26.1502 26.7852 26.5213C26.4883 26.8899 26.0751 27.0742 25.5457 27.0742ZM25.4566 23.3818C25.041 23.3818 24.7404 23.4969 24.5549 23.727C24.3693 23.957 24.2741 24.3232 24.2691 24.8254V24.9627C24.2691 25.5342 24.3644 25.9436 24.5549 26.191C24.7454 26.4359 25.0509 26.5584 25.4715 26.5584C25.8228 26.5584 26.0974 26.4161 26.2953 26.1316C26.4957 25.8471 26.5959 25.455 26.5959 24.9553C26.5959 24.4481 26.4957 24.0597 26.2953 23.79C26.0974 23.5179 25.8178 23.3818 25.4566 23.3818ZM31.8246 24.9627C31.8246 25.6257 31.6576 26.144 31.3236 26.5176C30.9896 26.8887 30.5283 27.0742 29.9395 27.0742C29.5758 27.0742 29.2529 26.9889 28.9709 26.8182C28.6889 26.6475 28.4712 26.4025 28.3178 26.0834C28.1644 25.7643 28.0877 25.3907 28.0877 24.9627C28.0877 24.2997 28.2535 23.7839 28.585 23.4152C28.9165 23.0441 29.3766 22.8586 29.9654 22.8586C30.5344 22.8586 30.9859 23.0479 31.3199 23.4264C31.6564 23.8049 31.8246 24.317 31.8246 24.9627ZM28.726 24.9627C28.726 25.4822 28.8299 25.8781 29.0377 26.1502C29.2455 26.4223 29.551 26.5584 29.9543 26.5584C30.3576 26.5584 30.6631 26.4236 30.8709 26.1539C31.0812 25.8818 31.1863 25.4847 31.1863 24.9627C31.1863 24.4456 31.0812 24.0535 30.8709 23.7863C30.6631 23.5167 30.3551 23.3818 29.9469 23.3818C29.5436 23.3818 29.2393 23.5142 29.034 23.7789C28.8286 24.0436 28.726 24.4382 28.726 24.9627ZM36.2295 27L35.4836 24.6139C35.4366 24.4679 35.3488 24.1364 35.2201 23.6193H35.1904C35.0915 24.0523 35.0049 24.3863 34.9307 24.6213L34.1625 27H33.45L32.3404 22.9328H32.9861C33.2484 23.9546 33.4475 24.7326 33.5836 25.267C33.7221 25.8014 33.8013 26.1613 33.8211 26.3469H33.8508C33.878 26.2059 33.9213 26.024 33.9807 25.8014C34.0425 25.5762 34.0957 25.3981 34.1402 25.267L34.8861 22.9328H35.5541L36.2814 25.267C36.42 25.6925 36.514 26.05 36.5635 26.3395H36.5932C36.6031 26.2504 36.629 26.1131 36.6711 25.9275C36.7156 25.742 36.9742 24.7438 37.4467 22.9328H38.085L36.9605 27H36.2295ZM40.5416 27.0742C39.9404 27.0742 39.4654 26.8911 39.1166 26.525C38.7702 26.1589 38.5971 25.6505 38.5971 24.9998C38.5971 24.3442 38.7579 23.8234 39.0795 23.4375C39.4036 23.0516 39.8378 22.8586 40.382 22.8586C40.8917 22.8586 41.2949 23.0268 41.5918 23.3633C41.8887 23.6973 42.0371 24.1389 42.0371 24.6881V25.0777H39.2354C39.2477 25.5552 39.3677 25.9176 39.5953 26.165C39.8254 26.4124 40.1482 26.5361 40.5639 26.5361C41.0018 26.5361 41.4347 26.4446 41.8627 26.2615V26.8107C41.645 26.9048 41.4384 26.9715 41.243 27.0111C41.05 27.0532 40.8162 27.0742 40.5416 27.0742ZM40.3746 23.3744C40.048 23.3744 39.787 23.4808 39.5916 23.6936C39.3986 23.9063 39.2848 24.2007 39.2502 24.5768H41.3766C41.3766 24.1883 41.29 23.8915 41.1168 23.6861C40.9436 23.4783 40.6962 23.3744 40.3746 23.3744ZM44.9465 22.8586C45.1271 22.8586 45.2891 22.8734 45.4326 22.9031L45.3473 23.4746C45.179 23.4375 45.0306 23.4189 44.902 23.4189C44.5729 23.4189 44.2909 23.5525 44.0559 23.8197C43.8233 24.0869 43.707 24.4197 43.707 24.818V27H43.091V22.9328H43.5994L43.6699 23.6861H43.6996C43.8505 23.4214 44.0324 23.2173 44.2451 23.0738C44.4579 22.9303 44.6917 22.8586 44.9465 22.8586ZM47.9115 27.0742C47.3104 27.0742 46.8354 26.8911 46.4865 26.525C46.1402 26.1589 45.967 25.6505 45.967 24.9998C45.967 24.3442 46.1278 23.8234 46.4494 23.4375C46.7735 23.0516 47.2077 22.8586 47.752 22.8586C48.2616 22.8586 48.6648 23.0268 48.9617 23.3633C49.2586 23.6973 49.407 24.1389 49.407 24.6881V25.0777H46.6053C46.6176 25.5552 46.7376 25.9176 46.9652 26.165C47.1953 26.4124 47.5182 26.5361 47.9338 26.5361C48.3717 26.5361 48.8046 26.4446 49.2326 26.2615V26.8107C49.0149 26.9048 48.8083 26.9715 48.6129 27.0111C48.4199 27.0532 48.1861 27.0742 47.9115 27.0742ZM47.7445 23.3744C47.418 23.3744 47.157 23.4808 46.9615 23.6936C46.7686 23.9063 46.6548 24.2007 46.6201 24.5768H48.7465C48.7465 24.1883 48.6599 23.8915 48.4867 23.6861C48.3135 23.4783 48.0661 23.3744 47.7445 23.3744ZM53.2293 26.4545H53.1959C52.9114 26.8676 52.4859 27.0742 51.9193 27.0742C51.3874 27.0742 50.973 26.8924 50.6762 26.5287C50.3818 26.165 50.2346 25.648 50.2346 24.9775C50.2346 24.3071 50.383 23.7863 50.6799 23.4152C50.9768 23.0441 51.3899 22.8586 51.9193 22.8586C52.471 22.8586 52.8941 23.059 53.1885 23.4598H53.2367L53.2107 23.1666L53.1959 22.8809V21.2258H53.8119V27H53.3109L53.2293 26.4545ZM51.9973 26.5584C52.4178 26.5584 52.7221 26.4446 52.9102 26.217C53.1007 25.9869 53.1959 25.6171 53.1959 25.1074V24.9775C53.1959 24.4011 53.0994 23.9904 52.9064 23.7455C52.7159 23.4981 52.4104 23.3744 51.9898 23.3744C51.6286 23.3744 51.3516 23.5154 51.1586 23.7975C50.9681 24.077 50.8729 24.4729 50.8729 24.985C50.8729 25.5045 50.9681 25.8966 51.1586 26.1613C51.3491 26.426 51.6286 26.5584 51.9973 26.5584ZM58.9887 22.866C59.523 22.866 59.9374 23.0491 60.2318 23.4152C60.5287 23.7789 60.6771 24.2947 60.6771 24.9627C60.6771 25.6307 60.5275 26.1502 60.2281 26.5213C59.9312 26.8899 59.5181 27.0742 58.9887 27.0742C58.724 27.0742 58.4815 27.026 58.2613 26.9295C58.0436 26.8305 57.8605 26.6796 57.7121 26.4768H57.6676L57.5377 27H57.0961V21.2258H57.7121V22.6285C57.7121 22.9427 57.7022 23.2247 57.6824 23.4746H57.7121C57.9991 23.0689 58.4246 22.866 58.9887 22.866ZM58.8996 23.3818C58.479 23.3818 58.176 23.5031 57.9904 23.7455C57.8049 23.9855 57.7121 24.3912 57.7121 24.9627C57.7121 25.5342 57.8074 25.9436 57.9978 26.191C58.1883 26.4359 58.4939 26.5584 58.9145 26.5584C59.293 26.5584 59.575 26.4211 59.7605 26.1465C59.9461 25.8694 60.0389 25.4723 60.0389 24.9553C60.0389 24.4258 59.9461 24.0313 59.7605 23.7715C59.575 23.5117 59.288 23.3818 58.8996 23.3818ZM61.1113 22.9328H61.7719L62.6625 25.2521C62.8579 25.7816 62.9792 26.1638 63.0262 26.3988H63.0559C63.088 26.2727 63.1548 26.0574 63.2562 25.7531C63.3602 25.4464 63.6966 24.5063 64.2656 22.9328H64.9262L63.1783 27.5641C63.0051 28.0217 62.8023 28.3458 62.5697 28.5363C62.3396 28.7293 62.0564 28.8258 61.7199 28.8258C61.5319 28.8258 61.3464 28.8048 61.1633 28.7627V28.2691C61.2993 28.2988 61.4515 28.3137 61.6197 28.3137C62.0428 28.3137 62.3446 28.0762 62.5252 27.6012L62.7516 27.0223L61.1113 22.9328Z" fill="black"/>
<defs>
<clipPath id="clip0">
<rect x="68" y="21" width="28" height="7.7952" fill="white"/>
</clipPath>
</defs>
</svg>
