<svg width="100" height="20" viewBox="0 0 100 20" fill="none" xmlns="http://www.w3.org/2000/svg">
<path fill-rule="evenodd" clip-rule="evenodd" d="M49.7116 12.9181L47.1144 11.3406L46.9214 11.6495C46.3295 12.6003 45.5203 13.0827 44.5177 13.0818C42.8 13.0809 41.5051 11.7559 41.506 9.99967C41.5073 8.24386 42.8031 6.9206 44.5211 6.92148C45.538 6.92236 46.3018 7.37875 46.9253 8.35906L47.1192 8.66361L49.7285 7.08258L49.5031 6.7489C48.2565 4.90305 46.6274 4.00572 44.5229 4.0044C40.5444 4.00263 38.3958 7.09053 38.3945 9.99746C38.3928 12.9048 40.5375 15.9958 44.516 15.998C46.5432 15.9989 48.4556 14.9453 49.5078 13.2473L49.7116 12.9181Z" fill="#C01818"/>
<path fill-rule="evenodd" clip-rule="evenodd" d="M56.9576 6.37819L58.411 10.1087L55.4839 10.1065L56.9576 6.37819ZM49.5815 15.9997L53.1723 16.0019L54.2392 13.2888L59.6283 13.2914L60.6922 16.0059L64.2985 16.0081L57.8658 0.106502L54.6628 0.104736L55.5156 2.21277L49.5815 15.9997Z" fill="#C01818"/>
<path fill-rule="evenodd" clip-rule="evenodd" d="M65.7853 16.0096L68.9364 16.0113L68.9403 8.87465L70.9948 8.87641L70.9965 5.88253L68.9421 5.88121L68.9425 4.46614C68.9425 3.8588 69.3406 3.21394 70.0777 3.21438C70.4827 3.21482 70.7271 3.28545 70.971 3.39226L71.3216 3.54674L72.6308 0.625244L72.2534 0.467671C71.6679 0.222264 70.8523 0.133988 70.2836 0.133546C68.8544 0.132663 67.6769 0.610237 66.8764 1.51418C66.1778 2.30337 65.7926 3.40109 65.7918 4.60429L65.7909 5.879L64.3997 5.87856L64.3979 8.87288L65.7896 8.87332L65.7853 16.0096Z" fill="#C01818"/>
<path fill-rule="evenodd" clip-rule="evenodd" d="M23.5391 0.0134277V15.9852L26.9627 15.9874L26.9679 6.85615L30.2861 9.3835L33.6074 6.85615V15.9914L37.0263 15.9932L37.0349 0.0134277L30.2887 5.22437L23.5391 0.0134277Z" fill="#C01818"/>
<path fill-rule="evenodd" clip-rule="evenodd" d="M75.3427 8.55912C75.7542 7.46979 76.642 6.83376 77.7888 6.8342C78.9477 6.83465 79.8523 7.45788 80.332 8.56177L75.3427 8.55912ZM78.0912 4.05835C74.1252 4.05614 71.9827 7.1361 71.981 10.0342C71.9797 12.9332 74.1183 16.0145 78.0847 16.0167H78.0864H78.089C79.9077 15.9968 81.6132 15.1494 82.9336 13.6217L80.3636 12.1886C79.7047 12.8785 78.9046 13.2413 78.0212 13.2408C76.7271 13.24 75.5795 12.3581 75.2794 11.2052L83.8495 11.21L83.8499 10.4142C83.8525 6.03265 80.4841 4.06012 78.0912 4.05835Z" fill="#C01818"/>
<path fill-rule="evenodd" clip-rule="evenodd" d="M88.2245 8.56785C88.6356 7.47808 89.5229 6.84205 90.6702 6.8425C91.8295 6.84338 92.7341 7.46617 93.2138 8.5705L88.2245 8.56785ZM90.9726 4.0669C87.0062 4.06469 84.8645 7.1442 84.8628 10.0423C84.8611 12.9413 86.9993 16.0226 90.9665 16.0252H90.9682H90.97C92.7895 16.0049 94.4951 15.1575 95.815 13.6298L93.245 12.1971C92.5857 12.887 91.786 13.2498 90.903 13.2494C89.6085 13.2485 88.4609 12.3666 88.1612 11.2137L96.7308 11.2181L96.7317 10.4228C96.7343 6.04119 93.3655 4.06822 90.9726 4.0669Z" fill="#C01818"/>
<path fill-rule="evenodd" clip-rule="evenodd" d="M96.3286 3.44434H97.6628V3.69901H97.1386V5.12864H96.8506V3.69901H96.3286V3.44434Z" fill="#C01818"/>
<path fill-rule="evenodd" clip-rule="evenodd" d="M98.0435 3.44434H98.4493L98.904 4.76318H98.9088L99.3518 3.44434H99.7533V5.12864H99.4787V3.82878H99.474L99.0176 5.12864H98.7797L98.3224 3.82878H98.3181V5.12864H98.0435V3.44434Z" fill="#C01818"/>
<path fill-rule="evenodd" clip-rule="evenodd" d="M3.46896 13.6378V5.54462L8.46343 7.90557V4.00067L0 0V15.9012L8.46343 19.9054V16L3.46896 13.6378Z" fill="#C01818"/>
<path fill-rule="evenodd" clip-rule="evenodd" d="M13.4578 13.6375V5.54438L8.46338 7.90532V4.00043L16.9268 -0.000244141V15.9009L8.46338 19.9051V15.9998L13.4578 13.6375Z" fill="#75160D"/>
</svg>
