<svg width="14" height="14" viewBox="0 0 14 14" fill="none" xmlns="http://www.w3.org/2000/svg">
<path d="M9.53401 4.98342C9.23691 2.7673 7.19953 1.21163 4.98342 1.50874C2.7673 1.80585 1.21163 3.84322 1.50874 6.05934C1.80585 8.27545 3.84322 9.83112 6.05934 9.53401C8.27545 9.23691 9.83112 7.19953 9.53401 4.98342ZM9.02736 9.78693C8.26003 10.4188 7.31266 10.8514 6.25496 10.9932C3.23298 11.3983 0.454745 9.27694 0.0495987 6.25496C-0.355548 3.23298 1.76581 0.454745 4.78779 0.0495987C7.80977 -0.355548 10.588 1.76581 10.9932 4.78779C11.1859 6.2258 10.8066 7.60862 10.0304 8.70682L14 12.7824L12.9454 13.8096L9.02736 9.78693Z" fill="#757575"/>
</svg>
