<svg width="92" height="36" viewBox="0 0 92 36" fill="none" xmlns="http://www.w3.org/2000/svg">
<path d="M46.1797 11.8281C46.1797 12.8594 45.8073 13.6719 45.0625 14.2656C44.3229 14.8594 43.2917 15.1562 41.9688 15.1562C40.75 15.1562 39.6719 14.9271 38.7344 14.4688V12.2188C39.5052 12.5625 40.1562 12.8047 40.6875 12.9453C41.224 13.0859 41.7135 13.1562 42.1562 13.1562C42.6875 13.1562 43.0938 13.0547 43.375 12.8516C43.6615 12.6484 43.8047 12.3464 43.8047 11.9453C43.8047 11.7214 43.7422 11.5234 43.6172 11.3516C43.4922 11.1745 43.3073 11.0052 43.0625 10.8438C42.8229 10.6823 42.3307 10.4245 41.5859 10.0703C40.888 9.74219 40.3646 9.42708 40.0156 9.125C39.6667 8.82292 39.388 8.47135 39.1797 8.07031C38.9714 7.66927 38.8672 7.20052 38.8672 6.66406C38.8672 5.65365 39.2083 4.85938 39.8906 4.28125C40.5781 3.70312 41.526 3.41406 42.7344 3.41406C43.3281 3.41406 43.8932 3.48438 44.4297 3.625C44.9714 3.76562 45.5365 3.96354 46.125 4.21875L45.3438 6.10156C44.7344 5.85156 44.2292 5.67708 43.8281 5.57812C43.4323 5.47917 43.0417 5.42969 42.6562 5.42969C42.1979 5.42969 41.8464 5.53646 41.6016 5.75C41.3568 5.96354 41.2344 6.24219 41.2344 6.58594C41.2344 6.79948 41.2839 6.98698 41.3828 7.14844C41.4818 7.30469 41.638 7.45833 41.8516 7.60938C42.0703 7.75521 42.5833 8.02083 43.3906 8.40625C44.4583 8.91667 45.1901 9.42969 45.5859 9.94531C45.9818 10.4557 46.1797 11.0833 46.1797 11.8281ZM51.6797 7.79688C51.1745 7.79688 50.7786 7.95833 50.4922 8.28125C50.2057 8.59896 50.0417 9.05208 50 9.64062H53.3438C53.3333 9.05208 53.1797 8.59896 52.8828 8.28125C52.5859 7.95833 52.1849 7.79688 51.6797 7.79688ZM52.0156 15.1562C50.6094 15.1562 49.5104 14.7682 48.7188 13.9922C47.9271 13.2161 47.5312 12.1172 47.5312 10.6953C47.5312 9.23177 47.8958 8.10156 48.625 7.30469C49.3594 6.5026 50.3724 6.10156 51.6641 6.10156C52.8984 6.10156 53.8594 6.45312 54.5469 7.15625C55.2344 7.85938 55.5781 8.83073 55.5781 10.0703V11.2266H49.9453C49.9714 11.9036 50.1719 12.4323 50.5469 12.8125C50.9219 13.1927 51.4479 13.3828 52.125 13.3828C52.651 13.3828 53.1484 13.3281 53.6172 13.2188C54.0859 13.1094 54.5755 12.9349 55.0859 12.6953V14.5391C54.6693 14.7474 54.224 14.901 53.75 15C53.276 15.1042 52.6979 15.1562 52.0156 15.1562ZM61.0625 15.1562C58.3438 15.1562 56.9844 13.6641 56.9844 10.6797C56.9844 9.19531 57.3542 8.0625 58.0938 7.28125C58.8333 6.49479 59.8932 6.10156 61.2734 6.10156C62.2839 6.10156 63.1901 6.29948 63.9922 6.69531L63.2891 8.53906C62.9141 8.38802 62.5651 8.26562 62.2422 8.17188C61.9193 8.07292 61.5964 8.02344 61.2734 8.02344C60.0339 8.02344 59.4141 8.90365 59.4141 10.6641C59.4141 12.3724 60.0339 13.2266 61.2734 13.2266C61.7318 13.2266 62.1562 13.1667 62.5469 13.0469C62.9375 12.9219 63.3281 12.7292 63.7188 12.4688V14.5078C63.3333 14.7526 62.9427 14.9219 62.5469 15.0156C62.1562 15.1094 61.6615 15.1562 61.0625 15.1562ZM71.9375 15L71.6172 13.8828H71.4922C71.237 14.2891 70.875 14.6042 70.4062 14.8281C69.9375 15.0469 69.4036 15.1562 68.8047 15.1562C67.7786 15.1562 67.0052 14.8828 66.4844 14.3359C65.9635 13.7839 65.7031 12.9922 65.7031 11.9609V6.26562H68.0859V11.3672C68.0859 11.9974 68.1979 12.4714 68.4219 12.7891C68.6458 13.1016 69.0026 13.2578 69.4922 13.2578C70.1589 13.2578 70.6406 13.0365 70.9375 12.5938C71.2344 12.1458 71.3828 11.4062 71.3828 10.375V6.26562H73.7656V15H71.9375ZM81.1406 6.10156C81.4635 6.10156 81.7318 6.125 81.9453 6.17188L81.7656 8.40625C81.5729 8.35417 81.3385 8.32812 81.0625 8.32812C80.3021 8.32812 79.7083 8.52344 79.2812 8.91406C78.8594 9.30469 78.6484 9.85156 78.6484 10.5547V15H76.2656V6.26562H78.0703L78.4219 7.73438H78.5391C78.8099 7.24479 79.1745 6.85156 79.6328 6.55469C80.0964 6.2526 80.599 6.10156 81.1406 6.10156ZM87.1484 7.79688C86.6432 7.79688 86.2474 7.95833 85.9609 8.28125C85.6745 8.59896 85.5104 9.05208 85.4688 9.64062H88.8125C88.8021 9.05208 88.6484 8.59896 88.3516 8.28125C88.0547 7.95833 87.6536 7.79688 87.1484 7.79688ZM87.4844 15.1562C86.0781 15.1562 84.9792 14.7682 84.1875 13.9922C83.3958 13.2161 83 12.1172 83 10.6953C83 9.23177 83.3646 8.10156 84.0938 7.30469C84.8281 6.5026 85.8411 6.10156 87.1328 6.10156C88.3672 6.10156 89.3281 6.45312 90.0156 7.15625C90.7031 7.85938 91.0469 8.83073 91.0469 10.0703V11.2266H85.4141C85.4401 11.9036 85.6406 12.4323 86.0156 12.8125C86.3906 13.1927 86.9167 13.3828 87.5938 13.3828C88.1198 13.3828 88.6172 13.3281 89.0859 13.2188C89.5547 13.1094 90.0443 12.9349 90.5547 12.6953V14.5391C90.138 14.7474 89.6927 14.901 89.2188 15C88.7448 15.1042 88.1667 15.1562 87.4844 15.1562ZM46.0156 29.9609C46.0156 30.9661 45.651 31.75 44.9219 32.3125C44.1927 32.875 43.2031 33.1562 41.9531 33.1562C40.599 33.1562 39.5573 32.9818 38.8281 32.6328V31.3516C39.2969 31.5495 39.8073 31.7057 40.3594 31.8203C40.9115 31.9349 41.4583 31.9922 42 31.9922C42.8854 31.9922 43.5521 31.8255 44 31.4922C44.4479 31.1536 44.6719 30.6849 44.6719 30.0859C44.6719 29.6901 44.5911 29.3672 44.4297 29.1172C44.2734 28.862 44.0078 28.6276 43.6328 28.4141C43.263 28.2005 42.6979 27.9583 41.9375 27.6875C40.875 27.3073 40.1146 26.8568 39.6562 26.3359C39.2031 25.8151 38.9766 25.1354 38.9766 24.2969C38.9766 23.4167 39.3073 22.7161 39.9688 22.1953C40.6302 21.6745 41.5052 21.4141 42.5938 21.4141C43.7292 21.4141 44.7734 21.6224 45.7266 22.0391L45.3125 23.1953C44.3698 22.7995 43.4531 22.6016 42.5625 22.6016C41.8594 22.6016 41.3099 22.7526 40.9141 23.0547C40.5182 23.3568 40.3203 23.776 40.3203 24.3125C40.3203 24.7083 40.3932 25.0339 40.5391 25.2891C40.6849 25.5391 40.9297 25.7708 41.2734 25.9844C41.6224 26.1927 42.1536 26.4245 42.8672 26.6797C44.0651 27.1068 44.888 27.5651 45.3359 28.0547C45.7891 28.5443 46.0156 29.1797 46.0156 29.9609ZM51.7734 33.1562C50.5078 33.1562 49.5078 32.7708 48.7734 32C48.0443 31.2292 47.6797 30.1589 47.6797 28.7891C47.6797 27.4089 48.0182 26.3125 48.6953 25.5C49.3776 24.6875 50.2917 24.2812 51.4375 24.2812C52.5104 24.2812 53.3594 24.6354 53.9844 25.3438C54.6094 26.0469 54.9219 26.9766 54.9219 28.1328V28.9531H49.0234C49.0495 29.9583 49.3021 30.7214 49.7812 31.2422C50.2656 31.763 50.9453 32.0234 51.8203 32.0234C52.7422 32.0234 53.6536 31.8307 54.5547 31.4453V32.6016C54.0964 32.7995 53.6615 32.9401 53.25 33.0234C52.8438 33.112 52.3516 33.1562 51.7734 33.1562ZM51.4219 25.3672C50.7344 25.3672 50.1849 25.5911 49.7734 26.0391C49.3672 26.487 49.1276 27.1068 49.0547 27.8984H53.5312C53.5312 27.0807 53.349 26.4557 52.9844 26.0234C52.6198 25.5859 52.099 25.3672 51.4219 25.3672ZM62.4062 33L62.1484 31.7812H62.0859C61.6589 32.3177 61.2318 32.6823 60.8047 32.875C60.3828 33.0625 59.8542 33.1562 59.2188 33.1562C58.3698 33.1562 57.7031 32.9375 57.2188 32.5C56.7396 32.0625 56.5 31.4401 56.5 30.6328C56.5 28.9036 57.8828 27.9974 60.6484 27.9141L62.1016 27.8672V27.3359C62.1016 26.6641 61.9557 26.1693 61.6641 25.8516C61.3776 25.5286 60.9167 25.3672 60.2812 25.3672C59.5677 25.3672 58.7604 25.5859 57.8594 26.0234L57.4609 25.0312C57.8828 24.8021 58.3438 24.6224 58.8438 24.4922C59.349 24.362 59.8542 24.2969 60.3594 24.2969C61.3802 24.2969 62.1354 24.5234 62.625 24.9766C63.1198 25.4297 63.3672 26.1562 63.3672 27.1562V33H62.4062ZM59.4766 32.0859C60.2839 32.0859 60.9167 31.8646 61.375 31.4219C61.8385 30.9792 62.0703 30.3594 62.0703 29.5625V28.7891L60.7734 28.8438C59.7422 28.8802 58.9974 29.0417 58.5391 29.3281C58.0859 29.6094 57.8594 30.0495 57.8594 30.6484C57.8594 31.1172 58 31.474 58.2812 31.7188C58.5677 31.9635 58.9661 32.0859 59.4766 32.0859ZM69.9531 24.2812C70.3333 24.2812 70.6745 24.3125 70.9766 24.375L70.7969 25.5781C70.4427 25.5 70.1302 25.4609 69.8594 25.4609C69.1667 25.4609 68.5729 25.7422 68.0781 26.3047C67.5885 26.8672 67.3438 27.5677 67.3438 28.4062V33H66.0469V24.4375H67.1172L67.2656 26.0234H67.3281C67.6458 25.4661 68.0286 25.0365 68.4766 24.7344C68.9245 24.4323 69.4167 24.2812 69.9531 24.2812ZM76 33.1562C74.7604 33.1562 73.7995 32.776 73.1172 32.0156C72.4401 31.25 72.1016 30.1693 72.1016 28.7734C72.1016 27.3411 72.4453 26.2344 73.1328 25.4531C73.8255 24.6719 74.8099 24.2812 76.0859 24.2812C76.4974 24.2812 76.9089 24.3255 77.3203 24.4141C77.7318 24.5026 78.0547 24.6068 78.2891 24.7266L77.8906 25.8281C77.6042 25.7135 77.2917 25.6198 76.9531 25.5469C76.6146 25.4688 76.3151 25.4297 76.0547 25.4297C74.3151 25.4297 73.4453 26.5391 73.4453 28.7578C73.4453 29.8099 73.6562 30.6172 74.0781 31.1797C74.5052 31.7422 75.1354 32.0234 75.9688 32.0234C76.6823 32.0234 77.4141 31.8698 78.1641 31.5625V32.7109C77.5911 33.0078 76.8698 33.1562 76 33.1562ZM86.0625 33V27.4609C86.0625 26.763 85.9036 26.2422 85.5859 25.8984C85.2682 25.5547 84.7708 25.3828 84.0938 25.3828C83.1927 25.3828 82.5339 25.6276 82.1172 26.1172C81.7057 26.6068 81.5 27.4089 81.5 28.5234V33H80.2031V20.8438H81.5V24.5234C81.5 24.9661 81.4792 25.3333 81.4375 25.625H81.5156C81.7708 25.2135 82.1328 24.8906 82.6016 24.6562C83.0755 24.4167 83.6146 24.2969 84.2188 24.2969C85.2656 24.2969 86.0495 24.5469 86.5703 25.0469C87.0964 25.5417 87.3594 26.3307 87.3594 27.4141V33H86.0625Z" fill="black"/>
<path fill-rule="evenodd" clip-rule="evenodd" d="M5.16106 16.6847C5.16106 23.2178 10.5221 28.514 17.1353 28.514C23.7486 28.514 29.1097 23.2178 29.1097 16.6847C29.1097 10.1515 23.7486 4.85536 17.1353 4.85536C10.5221 4.85536 5.16106 10.1515 5.16106 16.6847ZM7.91298 28.2021C10.4472 30.1852 13.6513 31.3693 17.1353 31.3693C25.3449 31.3693 32.0001 24.7948 32.0001 16.6847C32.0001 8.57455 25.3449 2 17.1353 2C8.92584 2 2.27071 8.57455 2.27071 16.6847C2.27071 20.3245 3.6112 23.6551 5.83108 26.2207L0 31.9812L2.04379 34.0002L7.91298 28.2021Z" fill="#ABB2C3"/>
<path fill-rule="evenodd" clip-rule="evenodd" d="M20.4796 13.8401H19.8396V12.5601C19.8396 10.7937 18.406 9.36011 16.6396 9.36011C14.8732 9.36011 13.4395 10.7937 13.4395 12.5601V13.8401H12.7995C12.0955 13.8401 11.5195 14.4161 11.5195 15.1202V21.5202C11.5195 22.2242 12.0955 22.8002 12.7995 22.8002H20.4796C21.1836 22.8002 21.7596 22.2242 21.7596 21.5202V15.1202C21.7596 14.4161 21.1836 13.8401 20.4796 13.8401ZM16.64 19.6002C15.936 19.6002 15.36 19.0242 15.36 18.3202C15.36 17.6162 15.936 17.0402 16.64 17.0402C17.344 17.0402 17.92 17.6162 17.92 18.3202C17.92 19.0242 17.344 19.6002 16.64 19.6002ZM14.72 12.5602V13.8402H18.56V12.5602C18.56 11.4978 17.7024 10.6402 16.64 10.6402C15.5776 10.6402 14.72 11.4978 14.72 12.5602Z" fill="#C01818"/>
</svg>
