<svg width="14" height="14" viewBox="0 0 14 14" fill="none" xmlns="http://www.w3.org/2000/svg">
<path fill-rule="evenodd" clip-rule="evenodd" d="M2.25795 6.42473C2.25795 9.28297 4.6034 11.6 7.49664 11.6C10.3899 11.6 12.7354 9.28297 12.7354 6.42473C12.7354 3.56651 10.3899 1.24945 7.49664 1.24945C4.6034 1.24945 2.25795 3.56651 2.25795 6.42473ZM3.4619 11.4636C4.57063 12.3312 5.97238 12.8492 7.49664 12.8492C11.0883 12.8492 13.9999 9.97289 13.9999 6.42473C13.9999 2.87659 11.0883 0.000244141 7.49664 0.000244141C3.90502 0.000244141 0.993427 2.87659 0.993427 6.42473C0.993427 8.01715 1.57989 9.47427 2.55108 10.5967L0 13.1169L0.89415 14.0002L3.4619 11.4636Z" fill="#ABB2C3"/>
<path fill-rule="evenodd" clip-rule="evenodd" d="M8.96004 5.17997H8.68004V4.61997C8.68004 3.84717 8.05284 3.21997 7.28004 3.21997C6.50724 3.21997 5.88004 3.84717 5.88004 4.61997V5.17997H5.60004C5.29204 5.17997 5.04004 5.43197 5.04004 5.73997V8.53997C5.04004 8.84797 5.29204 9.09997 5.60004 9.09997H8.96004C9.26804 9.09997 9.52004 8.84797 9.52004 8.53997V5.73997C9.52004 5.43197 9.26804 5.17997 8.96004 5.17997ZM7.27992 7.70005C6.97192 7.70005 6.71992 7.44805 6.71992 7.14005C6.71992 6.83205 6.97192 6.58005 7.27992 6.58005C7.58792 6.58005 7.83992 6.83205 7.83992 7.14005C7.83992 7.44805 7.58792 7.70005 7.27992 7.70005ZM6.43992 4.62005V5.18005H8.11992V4.62005C8.11992 4.15525 7.74472 3.78005 7.27992 3.78005C6.81512 3.78005 6.43992 4.15525 6.43992 4.62005Z" fill="#C01818"/>
</svg>
