<svg width="44" height="44" viewBox="0 0 44 44" fill="none" xmlns="http://www.w3.org/2000/svg">
<g clip-path="url(#clip0)">
<path d="M25.8813 18.6992C25.4777 15.6886 22.7099 13.5752 19.6992 13.9788C16.6886 14.3825 14.5752 17.1503 14.9788 20.1609C15.3825 23.1715 18.1503 25.2849 21.1609 24.8813C24.1715 24.4777 26.2849 21.7099 25.8813 18.6992ZM25.193 25.2249C24.1506 26.0834 22.8636 26.6709 21.4267 26.8636C17.3213 27.414 13.547 24.5321 12.9966 20.4267C12.4462 16.3213 15.3281 12.547 19.4335 11.9966C23.5389 11.4462 27.3132 14.3281 27.8636 18.4335C28.1255 20.3871 27.6102 22.2656 26.5557 23.7575L31.9484 29.2943L30.5157 30.6898L25.193 25.2249Z" fill="#ABB2C3"/>
</g>
<defs>
<clipPath id="clip0">
<rect width="24" height="44" fill="white" transform="translate(10)"/>
</clipPath>
</defs>
</svg>
