<svg width="24" height="24" viewBox="0 0 24 24" fill="none" xmlns="http://www.w3.org/2000/svg">
<path fill-rule="evenodd" clip-rule="evenodd" d="M18 0.998535V4.99334H23L21.35 21.5019C21.25 22.3208 20.56 22.9699 19.72 22.9699H18V20.9725H19.39L20.79 6.99074H11.23L11 4.99334H16V0.998535H18ZM8.5 8.97815C4.75 8.97815 1 10.9855 1 14.9803H16C16 10.9855 12.25 8.97815 8.5 8.97815ZM1 21.9513C1 22.5105 1.45 22.96 2.01 22.96H15C15.56 22.96 16.01 22.5105 16.01 21.9513V20.9725H1V21.9513ZM8.5 10.9756C7.09 10.9756 4.73 11.435 3.62 12.9829H13.38C12.27 11.435 9.91 10.9756 8.5 10.9756ZM1 16.9777H16V18.9751H1V16.9777Z" fill="#1671EE"/>
</svg>
