<svg width="53" height="41" viewBox="0 0 53 41" fill="none" xmlns="http://www.w3.org/2000/svg">
<g clip-path="url(#clip0)">
<path d="M49.5847 40.028H3.34889C2.47299 40.028 1.63297 39.6806 1.01362 39.0622C0.394273 38.4439 0.0463257 37.6052 0.0463257 36.7307V3.75836C0.0463257 2.88388 0.394273 2.04521 1.01362 1.42686C1.63297 0.808507 2.47299 0.461121 3.34889 0.461121H49.5847C50.4606 0.461121 51.3006 0.808507 51.92 1.42686C52.5393 2.04521 52.8873 2.88388 52.8873 3.75836V36.7307C52.8873 37.6052 52.5393 38.4439 51.92 39.0622C51.3006 39.6806 50.4606 40.028 49.5847 40.028Z" fill="#EAEAEA"/>
<path d="M6.65146 40.028H3.34889C2.473 40.028 1.63298 39.6806 1.01362 39.0622C0.394273 38.4439 0.0463257 37.6052 0.0463257 36.7307V3.75836C0.0463257 3.32536 0.131749 2.8966 0.297718 2.49656C0.463688 2.09652 0.706953 1.73304 1.01362 1.42686C1.3203 1.12068 1.68437 0.877809 2.08505 0.712108C2.48574 0.546406 2.91519 0.461121 3.34889 0.461121C3.78259 0.461121 4.21204 0.546406 4.61273 0.712108C5.01341 0.877809 5.37749 1.12068 5.68416 1.42686C5.99083 1.73304 6.23409 2.09652 6.40006 2.49656C6.56603 2.8966 6.65146 3.32536 6.65146 3.75836V40.028Z" fill="#D54C3F"/>
<path d="M46.2822 40.028H49.5847C50.4606 40.028 51.3006 39.6806 51.92 39.0622C52.5393 38.4439 52.8873 37.6052 52.8873 36.7307V3.75836C52.8873 2.88388 52.5393 2.04521 51.92 1.42686C51.3006 0.808507 50.4606 0.461121 49.5847 0.461121C48.7088 0.461121 47.8688 0.808507 47.2495 1.42686C46.6301 2.04521 46.2822 2.88388 46.2822 3.75836V40.028Z" fill="#B63524"/>
<path d="M51.4761 6.46206C51.8317 6.2141 52.135 5.89863 52.3685 5.53367C52.602 5.1687 52.7612 4.76139 52.8371 4.33499C52.9129 3.90859 52.9039 3.47144 52.8106 3.04852C52.7172 2.6256 52.5413 2.22517 52.293 1.87011C52.0446 1.51506 51.7286 1.21231 51.3631 0.979173C50.9975 0.746033 50.5895 0.587061 50.1624 0.511333C49.7353 0.435605 49.2975 0.444605 48.8739 0.537819C48.4503 0.631033 48.0492 0.806635 47.6936 1.0546L26.4691 16.4824L26.4669 16.4835L26.4647 16.4824L5.2402 1.0546C4.52197 0.553813 3.63389 0.358394 2.77134 0.511333C1.90879 0.664272 1.14242 1.15304 0.640825 1.87011C0.13923 2.58719 -0.056505 3.47383 0.0966812 4.33499C0.249867 5.19615 0.739426 5.96128 1.45766 6.46206L1.36959 6.39722L26.4669 24.6408L51.4761 6.46206ZM51.5653 6.39722L26.4669 24.6408L51.5653 6.39722Z" fill="#DE5145"/>
<path d="M49.5848 0.461125C48.8814 0.461125 48.2286 0.68094 47.6936 1.05463L26.4691 16.4824L26.4669 16.4835L26.4647 16.4824L5.24021 1.05463C4.68592 0.667316 4.02549 0.460066 3.34894 0.461125H49.5848Z" fill="#EFEFEF"/>
<path d="M6.65259 11.6585L1.08667 6.15436L1.08447 6.15875C1.20116 6.26866 1.32556 6.36978 1.45766 6.4621L1.36959 6.39725L6.65369 10.2385L6.65259 11.6981" fill="#C64132"/>
<path d="M22.7988 27.4886L6.65149 40.028L6.65259 11.5212L22.7955 27.4842" fill="#E3E3E3"/>
<path d="M22.7988 27.4886L26.4669 24.6408L6.65259 10.2385V11.5211L22.7955 27.4842L22.7988 27.4886Z" fill="url(#paint0_linear)"/>
<path d="M35.3409 40.028H46.2823V10.2374L26.4669 24.6409L22.7955 27.4842L35.3409 40.028Z" fill="url(#paint1_linear)"/>
</g>
<defs>
<linearGradient id="paint0_linear" x1="6.65259" y1="18.8641" x2="26.4669" y2="18.8641" gradientUnits="userSpaceOnUse">
<stop stop-color="#C8C8C8"/>
<stop offset="1" stop-color="#CDCDCD"/>
</linearGradient>
<linearGradient id="paint1_linear" x1="22.7955" y1="25.1322" x2="46.2823" y2="25.1322" gradientUnits="userSpaceOnUse">
<stop stop-color="#D9D9D9"/>
<stop offset="1" stop-color="#E2E2E2"/>
</linearGradient>
<clipPath id="clip0">
<rect width="53" height="40.028" fill="white"/>
</clipPath>
</defs>
</svg>
