<svg width="22" height="22" viewBox="0 0 22 22" fill="none" xmlns="http://www.w3.org/2000/svg">
<path d="M3.00004 5.66668C4.46671 5.66668 5.66671 4.46668 5.66671 3.00001C5.66671 1.53334 4.46671 0.333344 3.00004 0.333344C1.53337 0.333344 0.333374 1.53334 0.333374 3.00001C0.333374 4.46668 1.53337 5.66668 3.00004 5.66668ZM11 21.6667C12.4667 21.6667 13.6667 20.4667 13.6667 19C13.6667 17.5333 12.4667 16.3333 11 16.3333C9.53337 16.3333 8.33337 17.5333 8.33337 19C8.33337 20.4667 9.53337 21.6667 11 21.6667ZM3.00004 21.6667C4.46671 21.6667 5.66671 20.4667 5.66671 19C5.66671 17.5333 4.46671 16.3333 3.00004 16.3333C1.53337 16.3333 0.333374 17.5333 0.333374 19C0.333374 20.4667 1.53337 21.6667 3.00004 21.6667ZM3.00004 13.6667C4.46671 13.6667 5.66671 12.4667 5.66671 11C5.66671 9.53334 4.46671 8.33334 3.00004 8.33334C1.53337 8.33334 0.333374 9.53334 0.333374 11C0.333374 12.4667 1.53337 13.6667 3.00004 13.6667ZM11 13.6667C12.4667 13.6667 13.6667 12.4667 13.6667 11C13.6667 9.53334 12.4667 8.33334 11 8.33334C9.53337 8.33334 8.33337 9.53334 8.33337 11C8.33337 12.4667 9.53337 13.6667 11 13.6667ZM16.3334 3.00001C16.3334 4.46668 17.5334 5.66668 19 5.66668C20.4667 5.66668 21.6667 4.46668 21.6667 3.00001C21.6667 1.53334 20.4667 0.333344 19 0.333344C17.5334 0.333344 16.3334 1.53334 16.3334 3.00001ZM11 5.66668C12.4667 5.66668 13.6667 4.46668 13.6667 3.00001C13.6667 1.53334 12.4667 0.333344 11 0.333344C9.53337 0.333344 8.33337 1.53334 8.33337 3.00001C8.33337 4.46668 9.53337 5.66668 11 5.66668ZM19 13.6667C20.4667 13.6667 21.6667 12.4667 21.6667 11C21.6667 9.53334 20.4667 8.33334 19 8.33334C17.5334 8.33334 16.3334 9.53334 16.3334 11C16.3334 12.4667 17.5334 13.6667 19 13.6667ZM19 21.6667C20.4667 21.6667 21.6667 20.4667 21.6667 19C21.6667 17.5333 20.4667 16.3333 19 16.3333C17.5334 16.3333 16.3334 17.5333 16.3334 19C16.3334 20.4667 17.5334 21.6667 19 21.6667Z" fill="#757575"/>
</svg>
