<svg width="14" height="14" viewBox="0 0 14 14" fill="none" xmlns="http://www.w3.org/2000/svg">
<path fill-rule="evenodd" clip-rule="evenodd" d="M6.99996 1.16675C4.74246 1.16675 2.91663 2.99258 2.91663 5.25008C2.91663 8.31258 6.99996 12.8334 6.99996 12.8334C6.99996 12.8334 11.0833 8.31258 11.0833 5.25008C11.0833 2.99258 9.25746 1.16675 6.99996 1.16675ZM4.08333 5.25C4.08333 3.64 5.39 2.33333 7 2.33333C8.61 2.33333 9.91667 3.64 9.91667 5.25C9.91667 6.93 8.23667 9.44417 7 11.0133C5.78667 9.45583 4.08333 6.9125 4.08333 5.25ZM5.54167 5.25C5.54167 4.44459 6.19459 3.79167 7 3.79167C7.52101 3.79167 8.00245 4.06962 8.26295 4.52083C8.52346 4.97204 8.52346 5.52796 8.26295 5.97917C8.00245 6.43038 7.52101 6.70833 7 6.70833C6.19459 6.70833 5.54167 6.05542 5.54167 5.25Z" fill="#757575"/>
</svg>
