<svg width="111" height="11" viewBox="0 0 111 11" fill="none" xmlns="http://www.w3.org/2000/svg">
<path fill-rule="evenodd" clip-rule="evenodd" d="M26.9319 7.13849L25.5249 6.26669L25.4202 6.43758C25.0995 6.963 24.6613 7.22939 24.118 7.22887C23.1873 7.22847 22.486 6.49638 22.4865 5.52566C22.4868 4.55546 23.1892 3.82429 24.1198 3.82469C24.6707 3.82521 25.0846 4.07753 25.4223 4.61913L25.5273 4.78739L26.9409 3.91375L26.8188 3.72931C26.1436 2.70926 25.2609 2.21344 24.1208 2.21265C21.9654 2.21159 20.8014 3.91822 20.8007 5.52461C20.7998 7.13125 21.9617 8.83946 24.117 8.84051C25.2151 8.84117 26.2513 8.25879 26.8215 7.32043L26.9319 7.13849Z" fill="white"/>
<path fill-rule="evenodd" clip-rule="evenodd" d="M30.8576 3.52486L31.645 5.58629L30.0593 5.58536L30.8576 3.52486ZM26.8613 8.8422L28.8069 8.84326L29.3849 7.34409L32.3044 7.34553L32.8808 8.84562L34.8347 8.84694L31.3495 0.059381L29.6142 0.058197L30.0764 1.22322L26.8613 8.8422Z" fill="white"/>
<path fill-rule="evenodd" clip-rule="evenodd" d="M35.64 8.84714L37.3471 8.84819L37.3493 4.90439L38.4624 4.90518L38.4633 3.25065L37.3502 3.24999L37.3505 2.46804C37.3507 2.13245 37.5661 1.77608 37.9656 1.77634C38.1849 1.77647 38.3173 1.81554 38.4493 1.87448L38.6393 1.95986L39.3486 0.345447L39.1442 0.25836C38.827 0.122729 38.3851 0.0740551 38.0769 0.0737919C37.3028 0.0733973 36.6647 0.337291 36.2311 0.836795C35.8526 1.27289 35.6438 1.87948 35.6433 2.54421L35.6429 3.24894L34.8892 3.24854L34.8883 4.90321L35.6421 4.90334L35.64 8.84714Z" fill="white"/>
<path fill-rule="evenodd" clip-rule="evenodd" d="M12.7527 0.00714111V8.83337L14.6076 8.83469L14.6103 3.78861L16.4082 5.18517L18.2074 3.78861V8.8368L20.0595 8.83772L20.0643 0.00714111L16.4093 2.88682L12.7527 0.00714111Z" fill="white"/>
<path fill-rule="evenodd" clip-rule="evenodd" d="M40.8181 4.73067C41.0411 4.12855 41.5218 3.77704 42.1431 3.77731C42.771 3.7777 43.2612 4.12197 43.5211 4.73224L40.8181 4.73067ZM42.307 2.24301C40.1583 2.24183 38.9976 3.94372 38.9966 5.54524C38.996 7.14728 40.1546 8.84996 42.3035 8.85127H42.3045H42.3059C43.2912 8.84022 44.2152 8.37203 44.9305 7.52773L43.5381 6.73591C43.1812 7.11715 42.7476 7.31764 42.2692 7.31738C41.5679 7.31685 40.9463 6.82971 40.7837 6.19247L45.4267 6.19497L45.4269 5.75546C45.4283 3.33411 43.6033 2.2438 42.307 2.24301Z" fill="white"/>
<path fill-rule="evenodd" clip-rule="evenodd" d="M47.7968 4.73475C48.0196 4.13264 48.5 3.781 49.1218 3.7814C49.7497 3.78179 50.2398 4.12606 50.4997 4.73633L47.7968 4.73475ZM49.2855 2.2471C47.1366 2.24579 45.9762 3.94768 45.9752 5.54933C45.9745 7.15137 47.1329 8.85405 49.282 8.85536H49.283H49.2841C50.2699 8.84431 51.1939 8.37586 51.909 7.53182L50.5166 6.74C50.1595 7.12124 49.7261 7.32173 49.2478 7.32147C48.5464 7.32094 47.9247 6.8338 47.7622 6.19656L52.4052 6.19906L52.4056 5.75955C52.4069 3.33806 50.5819 2.24789 49.2855 2.2471Z" fill="white"/>
<path fill-rule="evenodd" clip-rule="evenodd" d="M52.2791 0.641327H53.7244V0.922849H53.1566V2.50279H52.8443V0.922849H52.2791V0.641327Z" fill="white"/>
<path fill-rule="evenodd" clip-rule="evenodd" d="M53.9269 0.641327H54.3669L54.8595 2.09893H54.8645L55.3447 0.641327H55.7797V2.50279H55.4822V1.06624H55.4769L54.9824 2.50279H54.7245L54.2292 1.06624H54.2244V2.50279H53.9269V0.641327Z" fill="white"/>
<path fill-rule="evenodd" clip-rule="evenodd" d="M1.87934 7.53649V3.06385L4.58519 4.36872V2.21087L0 0V8.78729L4.58519 11V8.84189L1.87934 7.53649Z" fill="white"/>
<path fill-rule="evenodd" clip-rule="evenodd" d="M7.29105 7.53649V3.06385L4.58521 4.36872V2.21087L9.17039 0V8.78729L4.58521 11V8.84189L7.29105 7.53649Z" fill="white"/>
<path fill-rule="evenodd" clip-rule="evenodd" d="M1.87934 7.53649V3.06385L4.58519 4.36872V2.21087L0 0V8.78729L4.58519 11V8.84189L1.87934 7.53649Z" fill="white"/>
<path fill-rule="evenodd" clip-rule="evenodd" d="M7.29105 7.53649V3.06385L4.58521 4.36872V2.21087L9.17039 0V8.78729L4.58521 11V8.84189L7.29105 7.53649Z" fill="white"/>
<path d="M59.2279 1.55347V10.121" stroke="white" stroke-linecap="square"/>
<path fill-rule="evenodd" clip-rule="evenodd" d="M69.8465 8.75038H68.7976L67.7971 5.081C67.7541 4.9211 67.7003 4.69036 67.6357 4.38878C67.5712 4.08721 67.5322 3.87751 67.5187 3.75969C67.4918 3.93923 67.4481 4.17207 67.3876 4.45822C67.3271 4.74436 67.2767 4.95757 67.2363 5.09783L66.26 8.75038H65.2111L64.4487 5.67012L63.6741 2.59828H64.6584L65.5016 6.1835C65.6334 6.75859 65.7275 7.26636 65.784 7.70679C65.8136 7.46834 65.858 7.20184 65.9171 6.90727C65.9763 6.61271 66.0301 6.37426 66.0785 6.19191L67.0386 2.59828H67.9948L68.9791 6.20875C69.0733 6.54258 69.1728 7.04193 69.2777 7.70679C69.318 7.30563 69.4148 6.79506 69.5681 6.17508L70.4073 2.59828H71.3835L69.8465 8.75038ZM73.9009 8.83454C73.207 8.83454 72.6644 8.62344 72.2731 8.20124C71.8818 7.77903 71.6861 7.19763 71.6861 6.45702C71.6861 5.69677 71.8677 5.09924 72.2307 4.66441C72.5938 4.22958 73.0927 4.01217 73.7275 4.01217C74.3165 4.01217 74.7817 4.19872 75.1233 4.57183C75.4649 4.94495 75.6357 5.45832 75.6357 6.11196V6.64638H72.6624C72.6759 7.09804 72.7928 7.4452 73.0134 7.68786C73.2339 7.93052 73.5446 8.05185 73.9453 8.05185C74.2089 8.05185 74.4543 8.0259 74.6816 7.974C74.9088 7.9221 75.1529 7.83584 75.4138 7.71521V8.51894C75.1825 8.63396 74.9485 8.71531 74.7118 8.763C74.4751 8.8107 74.2048 8.83454 73.9009 8.83454ZM73.7275 4.76119C73.4262 4.76119 73.1848 4.86078 73.0033 5.05996C72.8218 5.25914 72.7135 5.54949 72.6785 5.93102H74.7037C74.6984 5.54669 74.6096 5.25564 74.4375 5.05786C74.2654 4.86008 74.0287 4.76119 73.7275 4.76119ZM78.9922 4.01217C79.5489 4.01217 79.9826 4.22257 80.2932 4.64337C80.6039 5.06417 80.7592 5.65469 80.7592 6.41494C80.7592 7.17799 80.6018 7.77202 80.2872 8.19703C79.9725 8.62204 79.5355 8.83454 78.976 8.83454C78.4112 8.83454 77.9728 8.62274 77.6609 8.19913H77.5963L77.4228 8.75038H76.7128V2.20273H77.6609V3.75969C77.6609 3.87471 77.6555 4.04583 77.6447 4.27307C77.634 4.5003 77.6259 4.64477 77.6205 4.70649H77.6609C77.9621 4.24361 78.4059 4.01217 78.9922 4.01217ZM78.7461 4.8201C78.3642 4.8201 78.0892 4.93723 77.9211 5.17147C77.753 5.40572 77.6662 5.79776 77.6609 6.34761V6.41494C77.6609 6.98162 77.7469 7.39189 77.9191 7.64578C78.0912 7.89966 78.3722 8.0266 78.7622 8.0266C79.0984 8.0266 79.3532 7.88774 79.5267 7.61001C79.7002 7.33228 79.7869 6.93112 79.7869 6.40652C79.7869 5.34891 79.44 4.8201 78.7461 4.8201ZM85.6204 8.75038L85.0314 7.04193H82.7763L82.1994 8.75038H81.1828L83.3895 2.57303H84.4384L86.6451 8.75038H85.6204ZM84.7773 6.17508L84.2246 4.5003C84.1843 4.38808 84.1284 4.21135 84.0572 3.97009C83.9859 3.72883 83.9368 3.55209 83.9099 3.43988C83.8373 3.78494 83.7311 4.16225 83.5912 4.57183L83.0587 6.17508H84.7773ZM88.8277 8.83454C88.271 8.83454 87.8366 8.62414 87.5246 8.20334C87.2126 7.78254 87.0566 7.19202 87.0566 6.43177C87.0566 5.66872 87.2146 5.07469 87.5307 4.64968C87.8467 4.22467 88.2844 4.01217 88.8438 4.01217C89.4301 4.01217 89.8766 4.238 90.1832 4.68966H90.2316C90.1859 4.35582 90.163 4.09212 90.163 3.89855V2.20273H91.1151V8.75038H90.3728L90.2074 8.14022H90.163C89.8591 8.6031 89.414 8.83454 88.8277 8.83454ZM89.0818 8.03502C89.4718 8.03502 89.7556 7.9207 89.9331 7.69207C90.1106 7.46343 90.202 7.09243 90.2074 6.57905V6.44019C90.2074 5.85387 90.116 5.43728 89.9331 5.19041C89.7502 4.94354 89.4638 4.8201 89.0738 4.8201C88.7403 4.8201 88.4834 4.96107 88.3032 5.24301C88.123 5.52495 88.0329 5.92681 88.0329 6.4486C88.0329 6.96479 88.1204 7.35823 88.2952 7.62895C88.47 7.89966 88.7322 8.03502 89.0818 8.03502ZM93.4873 8.75038L91.7929 4.09633H92.7934L93.7011 6.80208C93.8571 7.25654 93.9512 7.62404 93.9835 7.90457H94.0157C94.04 7.70259 94.1341 7.33509 94.2981 6.80208L95.2059 4.09633H96.2144L94.512 8.75038H93.4873ZM97.8402 8.75038H96.8922V4.09633H97.8402V8.75038ZM96.8357 2.86338C96.8357 2.68665 96.8821 2.55059 96.9749 2.45521C97.0677 2.35983 97.2001 2.31213 97.3723 2.31213C97.539 2.31213 97.6688 2.35983 97.7616 2.45521C97.8543 2.55059 97.9007 2.68665 97.9007 2.86338C97.9007 3.0317 97.8543 3.16425 97.7616 3.26104C97.6688 3.35782 97.539 3.40621 97.3723 3.40621C97.2001 3.40621 97.0677 3.35782 96.9749 3.26104C96.8821 3.16425 96.8357 3.0317 96.8357 2.86338ZM102.193 7.42486C102.193 7.87933 102.035 8.22789 101.717 8.47055C101.4 8.71321 100.945 8.83454 100.354 8.83454C99.7592 8.83454 99.2818 8.74056 98.9214 8.5526V7.69838C99.4459 7.95086 99.934 8.0771 100.386 8.0771C100.969 8.0771 101.261 7.89335 101.261 7.52585C101.261 7.40803 101.229 7.30984 101.164 7.23129C101.1 7.15274 100.994 7.07139 100.846 6.98723C100.698 6.90307 100.492 6.80769 100.229 6.70108C99.7148 6.49349 99.3672 6.28589 99.1857 6.0783C99.0041 5.8707 98.9133 5.60139 98.9133 5.27036C98.9133 4.872 99.0673 4.56272 99.3753 4.3425C99.6832 4.12228 100.102 4.01217 100.632 4.01217C101.156 4.01217 101.653 4.12298 102.121 4.3446L101.814 5.08942C101.333 4.88182 100.928 4.77803 100.6 4.77803C100.099 4.77803 99.8493 4.92671 99.8493 5.22407C99.8493 5.36995 99.9145 5.49339 100.045 5.59438C100.175 5.69537 100.46 5.83423 100.898 6.01097C101.267 6.15965 101.534 6.29571 101.701 6.41915C101.868 6.54258 101.991 6.68495 102.072 6.84626C102.153 7.00757 102.193 7.20043 102.193 7.42486ZM107.176 6.41494C107.176 7.17519 106.989 7.76851 106.615 8.19492C106.241 8.62134 105.72 8.83454 105.053 8.83454C104.637 8.83454 104.268 8.73635 103.948 8.53998C103.628 8.34361 103.382 8.06167 103.21 7.69417C103.038 7.32667 102.952 6.90026 102.952 6.41494C102.952 5.6603 103.137 5.07119 103.508 4.64758C103.88 4.22397 104.403 4.01217 105.078 4.01217C105.723 4.01217 106.234 4.22888 106.611 4.66231C106.987 5.09573 107.176 5.67994 107.176 6.41494ZM103.928 6.41494C103.928 7.48939 104.308 8.0266 105.07 8.0266C105.823 8.0266 106.199 7.48939 106.199 6.41494C106.199 5.35171 105.82 4.8201 105.062 4.8201C104.664 4.8201 104.375 4.95756 104.196 5.23249C104.017 5.50741 103.928 5.90156 103.928 6.41494ZM110.528 4.01217C110.719 4.01217 110.876 4.0262 111 4.05425L110.907 4.9758C110.773 4.94214 110.633 4.92531 110.488 4.92531C110.108 4.92531 109.801 5.05435 109.566 5.31244C109.33 5.57053 109.213 5.90577 109.213 6.31815V8.75038H108.265V4.09633H109.007L109.132 4.91689H109.181C109.328 4.63916 109.521 4.41894 109.759 4.25623C109.997 4.09352 110.254 4.01217 110.528 4.01217Z" fill="white"/>
</svg>
