<svg width="100" height="33" viewBox="0 0 100 33" fill="none" xmlns="http://www.w3.org/2000/svg">
<path fill-rule="evenodd" clip-rule="evenodd" d="M49.7116 12.9181L47.1144 11.3406L46.9214 11.6495C46.3295 12.6003 45.5203 13.0827 44.5177 13.0818C42.8 13.0809 41.5051 11.7559 41.506 9.99967C41.5073 8.24386 42.8031 6.9206 44.5211 6.92148C45.538 6.92236 46.3018 7.37875 46.9253 8.35906L47.1192 8.66361L49.7285 7.08258L49.5031 6.7489C48.2565 4.90305 46.6274 4.00572 44.5229 4.0044C40.5444 4.00263 38.3958 7.09053 38.3945 9.99746C38.3928 12.9048 40.5375 15.9958 44.516 15.998C46.5432 15.9989 48.4556 14.9453 49.5078 13.2473L49.7116 12.9181Z" fill="#C01818"/>
<path fill-rule="evenodd" clip-rule="evenodd" d="M56.9581 6.37819L58.4115 10.1087L55.4844 10.1065L56.9581 6.37819ZM49.582 15.9997L53.1728 16.0019L54.2397 13.2888L59.6288 13.2914L60.6927 16.0059L64.299 16.0081L57.8663 0.106502L54.6633 0.104736L55.5161 2.21277L49.582 15.9997Z" fill="#C01818"/>
<path fill-rule="evenodd" clip-rule="evenodd" d="M65.7848 16.0096L68.936 16.0113L68.9398 8.87465L70.9943 8.87641L70.996 5.88253L68.9416 5.88121L68.942 4.46614C68.942 3.8588 69.3401 3.21394 70.0772 3.21438C70.4822 3.21482 70.7266 3.28545 70.9705 3.39226L71.3211 3.54674L72.6303 0.625244L72.2529 0.467671C71.6674 0.222264 70.8518 0.133988 70.2831 0.133546C68.8539 0.132663 67.6764 0.610237 66.8759 1.51418C66.1773 2.30337 65.7921 3.40109 65.7913 4.60429L65.7904 5.879L64.3992 5.87856L64.3975 8.87288L65.7891 8.87332L65.7848 16.0096Z" fill="#C01818"/>
<path fill-rule="evenodd" clip-rule="evenodd" d="M23.5391 0.0134277V15.9852L26.9627 15.9874L26.9679 6.85615L30.2861 9.3835L33.6074 6.85615V15.9914L37.0263 15.9932L37.0349 0.0134277L30.2887 5.22437L23.5391 0.0134277Z" fill="#C01818"/>
<path fill-rule="evenodd" clip-rule="evenodd" d="M75.3432 8.55912C75.7547 7.46979 76.6424 6.83376 77.7893 6.8342C78.9482 6.83465 79.8528 7.45788 80.3325 8.56177L75.3432 8.55912ZM78.0916 4.05835C74.1257 4.05614 71.9832 7.1361 71.9814 10.0342C71.9802 12.9332 74.1188 16.0145 78.0852 16.0167H78.0869H78.0895C79.9082 15.9968 81.6137 15.1494 82.9341 13.6217L80.3641 12.1886C79.7052 12.8785 78.9051 13.2413 78.0217 13.2408C76.7276 13.24 75.5799 12.3581 75.2799 11.2052L83.8499 11.21L83.8504 10.4142C83.853 6.03265 80.4846 4.06012 78.0916 4.05835Z" fill="#C01818"/>
<path fill-rule="evenodd" clip-rule="evenodd" d="M88.2241 8.56785C88.6351 7.47808 89.5224 6.84205 90.6697 6.8425C91.829 6.84338 92.7336 7.46617 93.2133 8.5705L88.2241 8.56785ZM90.9721 4.0669C87.0057 4.06469 84.864 7.1442 84.8623 10.0423C84.8606 12.9413 86.9988 16.0226 90.966 16.0252H90.9678H90.9695C92.789 16.0049 94.4946 15.1575 95.8145 13.6298L93.2446 12.1971C92.5852 12.887 91.7856 13.2498 90.9026 13.2494C89.6081 13.2485 88.4604 12.3666 88.1607 11.2137L96.7304 11.2181L96.7312 10.4228C96.7338 6.04119 93.365 4.06822 90.9721 4.0669Z" fill="#C01818"/>
<path fill-rule="evenodd" clip-rule="evenodd" d="M96.3281 3.44434H97.6623V3.69901H97.1382V5.12864H96.8502V3.69901H96.3281V3.44434Z" fill="#C01818"/>
<path fill-rule="evenodd" clip-rule="evenodd" d="M98.043 3.44434H98.4488L98.9035 4.76318H98.9083L99.3513 3.44434H99.7528V5.12864H99.4782V3.82878H99.4735L99.0171 5.12864H98.7792L98.3219 3.82878H98.3176V5.12864H98.043V3.44434Z" fill="#C01818"/>
<path fill-rule="evenodd" clip-rule="evenodd" d="M3.46896 13.6378V5.54462L8.46343 7.90557V4.00067L0 0V15.9012L8.46343 19.9054V16L3.46896 13.6378Z" fill="#C01818"/>
<path fill-rule="evenodd" clip-rule="evenodd" d="M13.4583 13.6375V5.54438L8.46387 7.90532V4.00043L16.9273 -0.000244141V15.9009L8.46387 19.9051V15.9998L13.4583 13.6375Z" fill="#75160D"/>
<path d="M28.9473 26.9106C28.9473 27.6017 28.6966 28.1406 28.1953 28.5273C27.694 28.9141 27.0137 29.1074 26.1543 29.1074C25.2233 29.1074 24.5072 28.9875 24.0059 28.7476V27.8667C24.3281 28.0028 24.679 28.1102 25.0586 28.189C25.4382 28.2677 25.8141 28.3071 26.1865 28.3071C26.7952 28.3071 27.2536 28.1925 27.5615 27.9634C27.8695 27.7306 28.0234 27.4084 28.0234 26.9966C28.0234 26.7244 27.9679 26.5024 27.8569 26.3306C27.7495 26.1551 27.5669 25.994 27.3091 25.8472C27.0549 25.7004 26.6663 25.5339 26.1436 25.3477C25.4131 25.0863 24.8903 24.7765 24.5752 24.4185C24.2637 24.0604 24.1079 23.5931 24.1079 23.0166C24.1079 22.4115 24.3353 21.9299 24.79 21.5718C25.2448 21.2137 25.8464 21.0347 26.5947 21.0347C27.3753 21.0347 28.0933 21.1779 28.7485 21.4644L28.4639 22.2593C27.8158 21.9871 27.1855 21.8511 26.5732 21.8511C26.0898 21.8511 25.7121 21.9549 25.4399 22.1626C25.1678 22.3703 25.0317 22.6585 25.0317 23.0273C25.0317 23.2995 25.0819 23.5233 25.1821 23.6987C25.2824 23.8706 25.4507 24.0299 25.687 24.1768C25.9269 24.32 26.2922 24.4793 26.7827 24.6548C27.6063 24.9484 28.172 25.2635 28.48 25.6001C28.7915 25.9367 28.9473 26.3735 28.9473 26.9106ZM32.9058 29.1074C32.0356 29.1074 31.3481 28.8424 30.8433 28.3125C30.342 27.7826 30.0913 27.0467 30.0913 26.105C30.0913 25.1561 30.3241 24.4023 30.7896 23.8438C31.2586 23.2852 31.887 23.0059 32.6748 23.0059C33.4124 23.0059 33.9961 23.2493 34.4258 23.7363C34.8555 24.2197 35.0703 24.8589 35.0703 25.6538V26.2178H31.0151C31.033 26.9089 31.2067 27.4334 31.5361 27.7915C31.8691 28.1496 32.3364 28.3286 32.938 28.3286C33.5718 28.3286 34.1984 28.1961 34.8179 27.9312V28.7261C34.5028 28.8621 34.2038 28.9588 33.9209 29.0161C33.6416 29.077 33.3032 29.1074 32.9058 29.1074ZM32.6641 23.7524C32.1914 23.7524 31.8136 23.9064 31.5308 24.2144C31.2515 24.5223 31.0868 24.9484 31.0366 25.4927H34.1143C34.1143 24.9305 33.9889 24.5008 33.7383 24.2036C33.4876 23.9028 33.1296 23.7524 32.6641 23.7524ZM38.9482 29.1074C38.096 29.1074 37.4354 28.846 36.9663 28.3232C36.5008 27.7969 36.2681 27.0539 36.2681 26.0942C36.2681 25.1095 36.5044 24.3486 36.9771 23.8115C37.4533 23.2744 38.13 23.0059 39.0073 23.0059C39.2902 23.0059 39.5731 23.0363 39.856 23.0972C40.1388 23.158 40.3608 23.2297 40.522 23.312L40.248 24.0693C40.0511 23.9906 39.8363 23.9261 39.6035 23.876C39.3708 23.8223 39.1649 23.7954 38.9858 23.7954C37.7899 23.7954 37.1919 24.5581 37.1919 26.0835C37.1919 26.8068 37.3369 27.3618 37.627 27.7485C37.9206 28.1353 38.3538 28.3286 38.9268 28.3286C39.4173 28.3286 39.9204 28.223 40.436 28.0117V28.8013C40.0422 29.0054 39.5462 29.1074 38.9482 29.1074ZM42.6758 23.1133V26.9321C42.6758 27.4119 42.785 27.77 43.0034 28.0063C43.2218 28.2427 43.5638 28.3608 44.0293 28.3608C44.6452 28.3608 45.0946 28.1925 45.3774 27.856C45.6639 27.5194 45.8071 26.9697 45.8071 26.207V23.1133H46.6987V29H45.9629L45.834 28.2104H45.7856C45.603 28.5005 45.3488 28.7225 45.0229 28.8765C44.7007 29.0304 44.3319 29.1074 43.9165 29.1074C43.2004 29.1074 42.6632 28.9373 42.3052 28.5972C41.9507 28.257 41.7734 27.7127 41.7734 26.9644V23.1133H42.6758ZM51.2803 23.0059C51.5417 23.0059 51.7762 23.0273 51.9839 23.0703L51.8604 23.8975C51.6169 23.8438 51.402 23.8169 51.2158 23.8169C50.7396 23.8169 50.3314 24.0103 49.9912 24.397C49.6546 24.7837 49.4863 25.2653 49.4863 25.8418V29H48.5947V23.1133H49.3306L49.4326 24.2036H49.4756C49.694 23.8205 49.9572 23.5251 50.2651 23.3174C50.5731 23.1097 50.9115 23.0059 51.2803 23.0059ZM55.5718 29.1074C54.7017 29.1074 54.0142 28.8424 53.5093 28.3125C53.008 27.7826 52.7573 27.0467 52.7573 26.105C52.7573 25.1561 52.9901 24.4023 53.4556 23.8438C53.9246 23.2852 54.5531 23.0059 55.3408 23.0059C56.0785 23.0059 56.6621 23.2493 57.0918 23.7363C57.5215 24.2197 57.7363 24.8589 57.7363 25.6538V26.2178H53.6812C53.6991 26.9089 53.8727 27.4334 54.2021 27.7915C54.5352 28.1496 55.0024 28.3286 55.604 28.3286C56.2378 28.3286 56.8644 28.1961 57.4839 27.9312V28.7261C57.1688 28.8621 56.8698 28.9588 56.5869 29.0161C56.3076 29.077 55.9692 29.1074 55.5718 29.1074ZM55.3301 23.7524C54.8574 23.7524 54.4797 23.9064 54.1968 24.2144C53.9175 24.5223 53.7528 24.9484 53.7026 25.4927H56.7803C56.7803 24.9305 56.6549 24.5008 56.4043 24.2036C56.1536 23.9028 55.7956 23.7524 55.3301 23.7524ZM66.6846 26.9106C66.6846 27.6017 66.4339 28.1406 65.9326 28.5273C65.4313 28.9141 64.751 29.1074 63.8916 29.1074C62.9606 29.1074 62.2445 28.9875 61.7432 28.7476V27.8667C62.0654 28.0028 62.4163 28.1102 62.7959 28.189C63.1755 28.2677 63.5514 28.3071 63.9238 28.3071C64.5326 28.3071 64.9909 28.1925 65.2988 27.9634C65.6068 27.7306 65.7607 27.4084 65.7607 26.9966C65.7607 26.7244 65.7052 26.5024 65.5942 26.3306C65.4868 26.1551 65.3042 25.994 65.0464 25.8472C64.7922 25.7004 64.4036 25.5339 63.8809 25.3477C63.1504 25.0863 62.6276 24.7765 62.3125 24.4185C62.001 24.0604 61.8452 23.5931 61.8452 23.0166C61.8452 22.4115 62.0726 21.9299 62.5273 21.5718C62.9821 21.2137 63.5837 21.0347 64.332 21.0347C65.1126 21.0347 65.8306 21.1779 66.4858 21.4644L66.2012 22.2593C65.5531 21.9871 64.9229 21.8511 64.3105 21.8511C63.8271 21.8511 63.4494 21.9549 63.1772 22.1626C62.9051 22.3703 62.769 22.6585 62.769 23.0273C62.769 23.2995 62.8192 23.5233 62.9194 23.6987C63.0197 23.8706 63.188 24.0299 63.4243 24.1768C63.6642 24.32 64.0295 24.4793 64.52 24.6548C65.3436 24.9484 65.9093 25.2635 66.2173 25.6001C66.5288 25.9367 66.6846 26.3735 66.6846 26.9106ZM70.6431 29.1074C69.7729 29.1074 69.0854 28.8424 68.5806 28.3125C68.0793 27.7826 67.8286 27.0467 67.8286 26.105C67.8286 25.1561 68.0614 24.4023 68.5269 23.8438C68.9959 23.2852 69.6243 23.0059 70.4121 23.0059C71.1497 23.0059 71.7334 23.2493 72.1631 23.7363C72.5928 24.2197 72.8076 24.8589 72.8076 25.6538V26.2178H68.7524C68.7703 26.9089 68.944 27.4334 69.2734 27.7915C69.6064 28.1496 70.0737 28.3286 70.6753 28.3286C71.3091 28.3286 71.9357 28.1961 72.5552 27.9312V28.7261C72.2401 28.8621 71.9411 28.9588 71.6582 29.0161C71.3789 29.077 71.0405 29.1074 70.6431 29.1074ZM70.4014 23.7524C69.9287 23.7524 69.5509 23.9064 69.2681 24.2144C68.9888 24.5223 68.8241 24.9484 68.7739 25.4927H71.8516C71.8516 24.9305 71.7262 24.5008 71.4756 24.2036C71.2249 23.9028 70.8669 23.7524 70.4014 23.7524ZM77.9531 29L77.7759 28.1621H77.7329C77.4393 28.5309 77.1457 28.7816 76.8521 28.9141C76.562 29.043 76.1986 29.1074 75.7617 29.1074C75.1781 29.1074 74.7197 28.957 74.3867 28.6562C74.0573 28.3555 73.8926 27.9276 73.8926 27.3726C73.8926 26.1838 74.8433 25.5607 76.7446 25.5034L77.7437 25.4712V25.106C77.7437 24.644 77.6434 24.3039 77.4429 24.0854C77.2459 23.8634 76.929 23.7524 76.4922 23.7524C76.0016 23.7524 75.4466 23.9028 74.8271 24.2036L74.5532 23.5215C74.8433 23.3639 75.1602 23.2404 75.5039 23.1509C75.8512 23.0614 76.1986 23.0166 76.5459 23.0166C77.2477 23.0166 77.7669 23.1724 78.1035 23.4839C78.4437 23.7954 78.6138 24.2949 78.6138 24.9824V29H77.9531ZM75.939 28.3716C76.494 28.3716 76.929 28.2194 77.2441 27.915C77.5628 27.6107 77.7222 27.1846 77.7222 26.6367V26.105L76.8306 26.1426C76.1216 26.1676 75.6095 26.2786 75.2944 26.4756C74.9829 26.6689 74.8271 26.9715 74.8271 27.3833C74.8271 27.7056 74.9238 27.9508 75.1172 28.1191C75.3141 28.2874 75.5881 28.3716 75.939 28.3716ZM83.1416 23.0059C83.403 23.0059 83.6375 23.0273 83.8452 23.0703L83.7217 23.8975C83.4782 23.8438 83.2633 23.8169 83.0771 23.8169C82.6009 23.8169 82.1927 24.0103 81.8525 24.397C81.516 24.7837 81.3477 25.2653 81.3477 25.8418V29H80.4561V23.1133H81.1919L81.2939 24.2036H81.3369C81.5553 23.8205 81.8185 23.5251 82.1265 23.3174C82.4344 23.1097 82.7728 23.0059 83.1416 23.0059ZM87.2988 29.1074C86.4466 29.1074 85.786 28.846 85.3169 28.3232C84.8514 27.7969 84.6187 27.0539 84.6187 26.0942C84.6187 25.1095 84.855 24.3486 85.3276 23.8115C85.8039 23.2744 86.4806 23.0059 87.3579 23.0059C87.6408 23.0059 87.9237 23.0363 88.2065 23.0972C88.4894 23.158 88.7114 23.2297 88.8726 23.312L88.5986 24.0693C88.4017 23.9906 88.1868 23.9261 87.9541 23.876C87.7214 23.8223 87.5155 23.7954 87.3364 23.7954C86.1405 23.7954 85.5425 24.5581 85.5425 26.0835C85.5425 26.8068 85.6875 27.3618 85.9775 27.7485C86.2712 28.1353 86.7044 28.3286 87.2773 28.3286C87.7679 28.3286 88.271 28.223 88.7866 28.0117V28.8013C88.3927 29.0054 87.8968 29.1074 87.2988 29.1074ZM94.2168 29V25.1919C94.2168 24.7121 94.1076 24.354 93.8892 24.1177C93.6707 23.8813 93.3288 23.7632 92.8633 23.7632C92.2438 23.7632 91.7909 23.9315 91.5044 24.2681C91.2215 24.6047 91.0801 25.1561 91.0801 25.9224V29H90.1885V20.6426H91.0801V23.1724C91.0801 23.4767 91.0658 23.7292 91.0371 23.9297H91.0908C91.2663 23.6468 91.5151 23.4248 91.8374 23.2637C92.1632 23.099 92.5339 23.0166 92.9492 23.0166C93.6689 23.0166 94.2078 23.1885 94.5659 23.5322C94.9276 23.8724 95.1084 24.4149 95.1084 25.1597V29H94.2168Z" fill="black"/>
</svg>
