<svg width="163" height="19" viewBox="0 0 163 19" fill="none" xmlns="http://www.w3.org/2000/svg">
<path fill-rule="evenodd" clip-rule="evenodd" d="M111.075 11.0919L109.295 9.9815L109.162 10.1991C108.756 10.8683 108.202 11.2076 107.515 11.207C106.337 11.2065 105.45 10.274 105.45 9.03769C105.451 7.80202 106.339 6.87077 107.517 6.87128C108.214 6.87195 108.738 7.19331 109.165 7.88311L109.298 8.09741L111.086 6.98471L110.932 6.7498C110.077 5.45062 108.961 4.81913 107.518 4.81812C104.791 4.81678 103.318 6.99041 103.317 9.03635C103.316 11.0826 104.786 13.2583 107.513 13.2596C108.903 13.2604 110.214 12.5187 110.935 11.3236L111.075 11.0919Z" fill="#C01818"/>
<path fill-rule="evenodd" clip-rule="evenodd" d="M116.042 6.4894L117.038 9.1149L115.032 9.11373L116.042 6.4894ZM110.986 13.2618L113.447 13.2631L114.179 11.3537L117.872 11.3555L118.602 13.2661L121.074 13.2678L116.664 2.07564L114.469 2.07413L115.053 3.55795L110.986 13.2618Z" fill="#C01818"/>
<path fill-rule="evenodd" clip-rule="evenodd" d="M122.093 13.268L124.253 13.2694L124.255 8.2464L125.664 8.24741L125.665 6.14014L124.256 6.1393L124.257 5.14338C124.257 4.71596 124.53 4.26207 125.035 4.26241C125.312 4.26257 125.48 4.31234 125.647 4.3874L125.887 4.49614L126.785 2.43997L126.526 2.32905C126.125 2.15631 125.566 2.09431 125.176 2.09398C124.197 2.09348 123.389 2.42958 122.841 3.06577C122.362 3.62119 122.097 4.39377 122.097 5.2404L122.096 6.13796L121.143 6.13746L121.142 8.2449L122.095 8.24506L122.093 13.268Z" fill="#C01818"/>
<path fill-rule="evenodd" clip-rule="evenodd" d="M93.1349 2.00911V13.2505L95.4818 13.2522L95.4853 6.82533L97.76 8.60403L100.036 6.82533V13.2549L102.38 13.2561L102.386 2.00911L97.7614 5.67677L93.1349 2.00911Z" fill="#C01818"/>
<path fill-rule="evenodd" clip-rule="evenodd" d="M128.644 8.02515C128.926 7.25828 129.534 6.81059 130.321 6.81092C131.115 6.81143 131.735 7.2499 132.064 8.02717L128.644 8.02515ZM130.528 4.85679C127.809 4.85528 126.341 7.02287 126.339 9.06262C126.339 11.103 127.805 13.2716 130.523 13.2733H130.525H130.526C131.773 13.2592 132.942 12.6629 133.847 11.5876L132.086 10.5791C131.634 11.0647 131.085 11.32 130.48 11.3197C129.593 11.319 128.806 10.6986 128.601 9.88697L134.475 9.89015L134.475 9.33037C134.477 6.24645 132.168 4.85779 130.528 4.85679Z" fill="#C01818"/>
<path fill-rule="evenodd" clip-rule="evenodd" d="M137.474 8.03038C137.756 7.26351 138.363 6.81565 139.15 6.81615C139.944 6.81665 140.565 7.25513 140.893 8.03239L137.474 8.03038ZM139.357 4.86202C136.638 4.86034 135.17 7.02793 135.169 9.06785C135.168 11.1083 136.634 13.2769 139.353 13.2785H139.354H139.355C140.603 13.2645 141.772 12.6678 142.677 11.5928L140.915 10.5843C140.463 11.0699 139.915 11.3252 139.309 11.3249C138.422 11.3242 137.635 10.7038 137.43 9.89219L143.304 9.89538L143.305 9.33559C143.307 6.25151 140.997 4.86302 139.357 4.86202Z" fill="#C01818"/>
<path fill-rule="evenodd" clip-rule="evenodd" d="M143.145 2.81685H144.973V3.17541H144.255V5.18768H143.86V3.17541H143.145V2.81685Z" fill="#C01818"/>
<path fill-rule="evenodd" clip-rule="evenodd" d="M145.23 2.81685H145.786L146.41 4.6733H146.416L147.023 2.81685H147.574V5.18768H147.197V3.35803H147.191L146.565 5.18768H146.239L145.612 3.35803H145.606V5.18768H145.23V2.81685Z" fill="#C01818"/>
<path fill-rule="evenodd" clip-rule="evenodd" d="M79.3778 11.5988V5.90223L82.8013 7.56416V4.81584L77 2V13.1918L82.8013 16.01V13.2613L79.3778 11.5988Z" fill="#BD2E2B"/>
<path fill-rule="evenodd" clip-rule="evenodd" d="M86.2249 11.5988V5.90223L82.8014 7.56416V4.81584L88.6027 2V13.1918L82.8014 16.01V13.2613L86.2249 11.5988Z" fill="#75160D"/>
<path fill-rule="evenodd" clip-rule="evenodd" d="M79.3778 11.5988V5.90223L82.8013 7.56416V4.81584L77 2V13.1918L82.8013 16.01V13.2613L79.3778 11.5988Z" fill="#BD2E2B"/>
<path fill-rule="evenodd" clip-rule="evenodd" d="M86.2249 11.5988V5.90223L82.8014 7.56416V4.81584L88.6027 2V13.1918L82.8014 16.01V13.2613L86.2249 11.5988Z" fill="#75160D"/>
<path d="M5.41406 14.1172C4.99609 14.1172 4.61328 14.041 4.26562 13.8887C3.92188 13.7324 3.63281 13.4941 3.39844 13.1738H3.32812C3.375 13.5488 3.39844 13.9043 3.39844 14.2402V16.8828H2.42578V7.57812H3.2168L3.35156 8.45703H3.39844C3.64844 8.10547 3.93945 7.85156 4.27148 7.69531C4.60352 7.53906 4.98438 7.46094 5.41406 7.46094C6.26562 7.46094 6.92188 7.75195 7.38281 8.33398C7.84766 8.91602 8.08008 9.73242 8.08008 10.7832C8.08008 11.8379 7.84375 12.6582 7.37109 13.2441C6.90234 13.8262 6.25 14.1172 5.41406 14.1172ZM5.27344 8.28711C4.61719 8.28711 4.14258 8.46875 3.84961 8.83203C3.55664 9.19531 3.40625 9.77344 3.39844 10.5664V10.7832C3.39844 11.6855 3.54883 12.332 3.84961 12.7227C4.15039 13.1094 4.63281 13.3027 5.29688 13.3027C5.85156 13.3027 6.28516 13.0781 6.59766 12.6289C6.91406 12.1797 7.07227 11.5605 7.07227 10.7715C7.07227 9.9707 6.91406 9.35742 6.59766 8.93164C6.28516 8.50195 5.84375 8.28711 5.27344 8.28711ZM15.3281 10.7832C15.3281 11.8301 15.0645 12.6484 14.5371 13.2383C14.0098 13.8242 13.2812 14.1172 12.3516 14.1172C11.7773 14.1172 11.2676 13.9824 10.8223 13.7129C10.377 13.4434 10.0332 13.0566 9.79102 12.5527C9.54883 12.0488 9.42773 11.459 9.42773 10.7832C9.42773 9.73633 9.68945 8.92188 10.2129 8.33984C10.7363 7.75391 11.4629 7.46094 12.3926 7.46094C13.291 7.46094 14.0039 7.75977 14.5312 8.35742C15.0625 8.95508 15.3281 9.76367 15.3281 10.7832ZM10.4355 10.7832C10.4355 11.6035 10.5996 12.2285 10.9277 12.6582C11.2559 13.0879 11.7383 13.3027 12.375 13.3027C13.0117 13.3027 13.4941 13.0898 13.8223 12.6641C14.1543 12.2344 14.3203 11.6074 14.3203 10.7832C14.3203 9.9668 14.1543 9.34766 13.8223 8.92578C13.4941 8.5 13.0078 8.28711 12.3633 8.28711C11.7266 8.28711 11.2461 8.49609 10.9219 8.91406C10.5977 9.33203 10.4355 9.95508 10.4355 10.7832ZM22.2832 14L21.1055 10.2324C21.0312 10.002 20.8926 9.47852 20.6895 8.66211H20.6426C20.4863 9.3457 20.3496 9.87305 20.2324 10.2441L19.0195 14H17.8945L16.1426 7.57812H17.1621C17.5762 9.19141 17.8906 10.4199 18.1055 11.2637C18.3242 12.1074 18.4492 12.6758 18.4805 12.9688H18.5273C18.5703 12.7461 18.6387 12.459 18.7324 12.1074C18.8301 11.752 18.9141 11.4707 18.9844 11.2637L20.1621 7.57812H21.2168L22.3652 11.2637C22.584 11.9355 22.7324 12.5 22.8105 12.957H22.8574C22.873 12.8164 22.9141 12.5996 22.9805 12.3066C23.0508 12.0137 23.459 10.4375 24.2051 7.57812H25.2129L23.4375 14H22.2832ZM29.0918 14.1172C28.1426 14.1172 27.3926 13.8281 26.8418 13.25C26.2949 12.6719 26.0215 11.8691 26.0215 10.8418C26.0215 9.80664 26.2754 8.98438 26.7832 8.375C27.2949 7.76562 27.9805 7.46094 28.8398 7.46094C29.6445 7.46094 30.2812 7.72656 30.75 8.25781C31.2188 8.78516 31.4531 9.48242 31.4531 10.3496V10.9648H27.0293C27.0488 11.7188 27.2383 12.291 27.5977 12.6816C27.9609 13.0723 28.4707 13.2676 29.127 13.2676C29.8184 13.2676 30.502 13.123 31.1777 12.834V13.7012C30.834 13.8496 30.5078 13.9551 30.1992 14.0176C29.8945 14.084 29.5254 14.1172 29.0918 14.1172ZM28.8281 8.27539C28.3125 8.27539 27.9004 8.44336 27.5918 8.7793C27.2871 9.11523 27.1074 9.58008 27.0527 10.1738H30.4102C30.4102 9.56055 30.2734 9.0918 30 8.76758C29.7266 8.43945 29.3359 8.27539 28.8281 8.27539ZM36.0469 7.46094C36.332 7.46094 36.5879 7.48438 36.8145 7.53125L36.6797 8.43359C36.4141 8.375 36.1797 8.3457 35.9766 8.3457C35.457 8.3457 35.0117 8.55664 34.6406 8.97852C34.2734 9.40039 34.0898 9.92578 34.0898 10.5547V14H33.1172V7.57812H33.9199L34.0312 8.76758H34.0781C34.3164 8.34961 34.6035 8.02734 34.9395 7.80078C35.2754 7.57422 35.6445 7.46094 36.0469 7.46094ZM40.7285 14.1172C39.7793 14.1172 39.0293 13.8281 38.4785 13.25C37.9316 12.6719 37.6582 11.8691 37.6582 10.8418C37.6582 9.80664 37.9121 8.98438 38.4199 8.375C38.9316 7.76562 39.6172 7.46094 40.4766 7.46094C41.2812 7.46094 41.918 7.72656 42.3867 8.25781C42.8555 8.78516 43.0898 9.48242 43.0898 10.3496V10.9648H38.666C38.6855 11.7188 38.875 12.291 39.2344 12.6816C39.5977 13.0723 40.1074 13.2676 40.7637 13.2676C41.4551 13.2676 42.1387 13.123 42.8145 12.834V13.7012C42.4707 13.8496 42.1445 13.9551 41.8359 14.0176C41.5312 14.084 41.1621 14.1172 40.7285 14.1172ZM40.4648 8.27539C39.9492 8.27539 39.5371 8.44336 39.2285 8.7793C38.9238 9.11523 38.7441 9.58008 38.6895 10.1738H42.0469C42.0469 9.56055 41.9102 9.0918 41.6367 8.76758C41.3633 8.43945 40.9727 8.27539 40.4648 8.27539ZM49.125 13.1387H49.0723C48.623 13.791 47.9512 14.1172 47.0566 14.1172C46.2168 14.1172 45.5625 13.8301 45.0938 13.2559C44.6289 12.6816 44.3965 11.8652 44.3965 10.8066C44.3965 9.74805 44.6309 8.92578 45.0996 8.33984C45.5684 7.75391 46.2207 7.46094 47.0566 7.46094C47.9277 7.46094 48.5957 7.77734 49.0605 8.41016H49.1367L49.0957 7.94727L49.0723 7.49609V4.88281H50.0449V14H49.2539L49.125 13.1387ZM47.1797 13.3027C47.8438 13.3027 48.3242 13.123 48.6211 12.7637C48.9219 12.4004 49.0723 11.8164 49.0723 11.0117V10.8066C49.0723 9.89648 48.9199 9.24805 48.6152 8.86133C48.3145 8.4707 47.832 8.27539 47.168 8.27539C46.5977 8.27539 46.1602 8.49805 45.8555 8.94336C45.5547 9.38477 45.4043 10.0098 45.4043 10.8184C45.4043 11.6387 45.5547 12.2578 45.8555 12.6758C46.1562 13.0938 46.5977 13.3027 47.1797 13.3027ZM58.2188 7.47266C59.0625 7.47266 59.7168 7.76172 60.1816 8.33984C60.6504 8.91406 60.8848 9.72852 60.8848 10.7832C60.8848 11.8379 60.6484 12.6582 60.1758 13.2441C59.707 13.8262 59.0547 14.1172 58.2188 14.1172C57.8008 14.1172 57.418 14.041 57.0703 13.8887C56.7266 13.7324 56.4375 13.4941 56.2031 13.1738H56.1328L55.9277 14H55.2305V4.88281H56.2031V7.09766C56.2031 7.59375 56.1875 8.03906 56.1562 8.43359H56.2031C56.6562 7.79297 57.3281 7.47266 58.2188 7.47266ZM58.0781 8.28711C57.4141 8.28711 56.9355 8.47852 56.6426 8.86133C56.3496 9.24023 56.2031 9.88086 56.2031 10.7832C56.2031 11.6855 56.3535 12.332 56.6543 12.7227C56.9551 13.1094 57.4375 13.3027 58.1016 13.3027C58.6992 13.3027 59.1445 13.0859 59.4375 12.6523C59.7305 12.2148 59.877 11.5879 59.877 10.7715C59.877 9.93555 59.7305 9.3125 59.4375 8.90234C59.1445 8.49219 58.6914 8.28711 58.0781 8.28711ZM61.5703 7.57812H62.6133L64.0195 11.2402C64.3281 12.0762 64.5195 12.6797 64.5938 13.0508H64.6406C64.6914 12.8516 64.7969 12.5117 64.957 12.0312C65.1211 11.5469 65.6523 10.0625 66.5508 7.57812H67.5938L64.834 14.8906C64.5605 15.6133 64.2402 16.125 63.873 16.4258C63.5098 16.7305 63.0625 16.8828 62.5312 16.8828C62.2344 16.8828 61.9414 16.8496 61.6523 16.7832V16.0039C61.8672 16.0508 62.1074 16.0742 62.373 16.0742C63.041 16.0742 63.5176 15.6992 63.8027 14.9492L64.1602 14.0352L61.5703 7.57812Z" fill="#5A6175"/>
</svg>
