<svg width="14" height="14" viewBox="0 0 14 14" fill="none" xmlns="http://www.w3.org/2000/svg">
<path fill-rule="evenodd" clip-rule="evenodd" d="M1.51087 6.75508L6.76087 1.50508C6.97087 1.29508 7.26254 1.16675 7.58337 1.16675H11.6667C12.3084 1.16675 12.8334 1.69175 12.8334 2.33341V6.41675C12.8334 6.73758 12.705 7.02925 12.4892 7.24508L7.23921 12.4951C7.02921 12.7051 6.73754 12.8334 6.41671 12.8334C6.09587 12.8334 5.80421 12.7051 5.59421 12.4892L1.51087 8.40592C1.29504 8.19592 1.16671 7.90425 1.16671 7.58342C1.16671 7.26258 1.30087 6.96508 1.51087 6.75508ZM6.41667 11.6725L11.6667 6.41666V2.33333H7.58333V2.32749L2.33333 7.57749L6.41667 11.6725ZM11.0833 3.79167C11.0833 3.30842 10.6916 2.91667 10.2083 2.91667C9.72508 2.91667 9.33333 3.30842 9.33333 3.79167C9.33333 4.27492 9.72508 4.66667 10.2083 4.66667C10.6916 4.66667 11.0833 4.27492 11.0833 3.79167Z" fill="#757575"/>
</svg>
