<svg width="96" height="35" viewBox="0 0 96 35" fill="none" xmlns="http://www.w3.org/2000/svg">
<path fill-rule="evenodd" clip-rule="evenodd" d="M65.8264 30.7508L64.2681 29.8043L64.1523 29.9897C63.7971 30.5601 63.3116 30.8496 62.71 30.8491C61.6794 30.8485 60.9025 30.0535 60.903 28.9998C60.9038 27.9463 61.6813 27.1523 62.7121 27.1528C63.3222 27.1534 63.7805 27.4272 64.1546 28.0154L64.2709 28.1981L65.8365 27.2495L65.7013 27.0493C64.9533 25.9418 63.9758 25.4034 62.7131 25.4026C60.326 25.4015 59.0369 27.2543 59.0361 28.9984C59.0351 30.7429 60.3219 32.5974 62.709 32.5988C63.9253 32.5993 65.0728 31.9672 65.7041 30.9484L65.8264 30.7508Z" fill="#C01818"/>
<path fill-rule="evenodd" clip-rule="evenodd" d="M70.1746 26.8271L71.0467 29.0654L69.2904 29.0641L70.1746 26.8271ZM65.749 32.6L67.9035 32.6013L68.5436 30.9734L71.7771 30.975L72.4154 32.6037L74.5792 32.605L70.7196 23.064L68.7978 23.063L69.3094 24.3278L65.749 32.6Z" fill="#C01818"/>
<path fill-rule="evenodd" clip-rule="evenodd" d="M75.4711 32.6057L77.3618 32.6068L77.3641 28.3247L78.5968 28.3258L78.5978 26.5295L77.3651 26.5287L77.3654 25.6796C77.3654 25.3152 77.6043 24.9283 78.0465 24.9286C78.2895 24.9288 78.4361 24.9712 78.5825 25.0353L78.7929 25.128L79.5784 23.3751L79.352 23.2806C79.0007 23.1333 78.5113 23.0803 78.1701 23.0801C77.3125 23.0795 76.6061 23.3661 76.1257 23.9085C75.7066 24.382 75.4755 25.0406 75.475 25.7625L75.4744 26.5274L74.6397 26.5271L74.6387 28.3237L75.4737 28.3239L75.4711 32.6057Z" fill="#C01818"/>
<path fill-rule="evenodd" clip-rule="evenodd" d="M50.123 23.0081V32.5911L52.1772 32.5925L52.1803 27.1137L54.1713 28.6301L56.1641 27.1137V32.5948L58.2154 32.5959L58.2206 23.0081L54.1728 26.1346L50.123 23.0081Z" fill="#C01818"/>
<path fill-rule="evenodd" clip-rule="evenodd" d="M81.2055 28.1355C81.4524 27.4819 81.9851 27.1003 82.6732 27.1006C83.3685 27.1008 83.9113 27.4748 84.1991 28.1371L81.2055 28.1355ZM82.8546 25.4351C80.475 25.4337 79.1895 27.2817 79.1885 29.0206C79.1877 30.76 80.4709 32.6087 82.8507 32.6101H82.8517H82.8533C83.9445 32.5981 84.9678 32.0897 85.7601 31.1731L84.2181 30.3132C83.8227 30.7271 83.3427 30.9448 82.8126 30.9445C82.0362 30.944 81.3476 30.4149 81.1675 29.7232L86.3096 29.7261L86.3098 29.2486C86.3114 26.6196 84.2904 25.4361 82.8546 25.4351Z" fill="#C01818"/>
<path fill-rule="evenodd" clip-rule="evenodd" d="M88.935 28.1408C89.1817 27.4869 89.714 27.1053 90.4024 27.1055C91.098 27.1061 91.6408 27.4797 91.9286 28.1423L88.935 28.1408ZM90.5838 25.4402C88.204 25.4389 86.919 27.2866 86.918 29.0254C86.9169 30.7648 88.1999 32.6136 90.5802 32.6152H90.5812H90.5823C91.674 32.603 92.6973 32.0945 93.4893 31.178L91.9473 30.3183C91.5517 30.7323 91.0719 30.9499 90.5421 30.9497C89.7654 30.9491 89.0768 30.42 88.897 29.7283L94.0388 29.7309L94.0393 29.2537C94.0409 26.6248 92.0196 25.441 90.5838 25.4402Z" fill="#C01818"/>
<path fill-rule="evenodd" clip-rule="evenodd" d="M93.7969 25.0667H94.5974V25.2195H94.2829V26.0772H94.1101V25.2195H93.7969V25.0667Z" fill="#C01818"/>
<path fill-rule="evenodd" clip-rule="evenodd" d="M94.8262 25.0667H95.0697L95.3425 25.858H95.3454L95.6112 25.0667H95.8521V26.0772H95.6873V25.2973H95.6845L95.4106 26.0772H95.2679L94.9935 25.2973H94.9909V26.0772H94.8262V25.0667Z" fill="#C01818"/>
<path fill-rule="evenodd" clip-rule="evenodd" d="M38.0814 31.1827V26.3268L41.0781 27.7433V25.4004L36 23V32.5407L41.0781 34.9432V32.6L38.0814 31.1827Z" fill="#C01818"/>
<path fill-rule="evenodd" clip-rule="evenodd" d="M44.0748 31.1827V26.3268L41.0781 27.7433V25.4004L46.1562 23V32.5407L41.0781 34.9432V32.6L44.0748 31.1827Z" fill="#75160D"/>
<path d="M8.00781 10.2861C8.00781 11.1748 7.68652 11.8721 7.04395 12.3779C6.40137 12.8838 5.51497 13.1367 4.38477 13.1367C3.25456 13.1367 2.32943 12.9613 1.60938 12.6104V11.0654C2.0651 11.2796 2.54818 11.4482 3.05859 11.5713C3.57357 11.6943 4.05208 11.7559 4.49414 11.7559C5.14128 11.7559 5.61751 11.6328 5.92285 11.3867C6.23275 11.1406 6.3877 10.8102 6.3877 10.3955C6.3877 10.0218 6.24642 9.70508 5.96387 9.44531C5.68132 9.18555 5.09798 8.87793 4.21387 8.52246C3.30241 8.15332 2.65983 7.73177 2.28613 7.25781C1.91243 6.78385 1.72559 6.21419 1.72559 5.54883C1.72559 4.71484 2.02181 4.05859 2.61426 3.58008C3.20671 3.10156 4.00195 2.8623 5 2.8623C5.95703 2.8623 6.90951 3.07194 7.85742 3.49121L7.33789 4.82422C6.44922 4.45052 5.65625 4.26367 4.95898 4.26367C4.43034 4.26367 4.0293 4.37988 3.75586 4.6123C3.48242 4.84017 3.3457 5.14323 3.3457 5.52148C3.3457 5.78125 3.40039 6.00456 3.50977 6.19141C3.61914 6.3737 3.79915 6.54688 4.0498 6.71094C4.30046 6.875 4.75163 7.09147 5.40332 7.36035C6.13704 7.66569 6.6748 7.95052 7.0166 8.21484C7.3584 8.47917 7.60905 8.77767 7.76855 9.11035C7.92806 9.44303 8.00781 9.83496 8.00781 10.2861ZM13.0732 13.1367C11.8975 13.1367 10.9769 12.7949 10.3115 12.1113C9.65072 11.4232 9.32031 10.4775 9.32031 9.27441C9.32031 8.03939 9.62793 7.06868 10.2432 6.3623C10.8584 5.65592 11.7038 5.30273 12.7793 5.30273C13.7773 5.30273 14.5658 5.60579 15.1445 6.21191C15.7233 6.81803 16.0127 7.65202 16.0127 8.71387V9.58203H10.9746C10.9974 10.3158 11.1956 10.8809 11.5693 11.2773C11.943 11.6693 12.4694 11.8652 13.1484 11.8652C13.5951 11.8652 14.0098 11.8242 14.3926 11.7422C14.7799 11.6556 15.1947 11.5143 15.6367 11.3184V12.624C15.2448 12.8109 14.8483 12.943 14.4473 13.0205C14.0462 13.098 13.5882 13.1367 13.0732 13.1367ZM12.7793 6.51953C12.2689 6.51953 11.8587 6.68132 11.5488 7.00488C11.2435 7.32845 11.0612 7.80013 11.002 8.41992H14.4336C14.4245 7.79557 14.2741 7.32389 13.9824 7.00488C13.6908 6.68132 13.2897 6.51953 12.7793 6.51953ZM20.8867 13.1367C19.7428 13.1367 18.8724 12.804 18.2754 12.1387C17.6829 11.4688 17.3867 10.5094 17.3867 9.26074C17.3867 7.98926 17.6966 7.01172 18.3164 6.32812C18.9408 5.64453 19.8408 5.30273 21.0166 5.30273C21.8141 5.30273 22.5319 5.45085 23.1699 5.74707L22.6846 7.03906C22.0055 6.77474 21.445 6.64258 21.0029 6.64258C19.695 6.64258 19.041 7.51074 19.041 9.24707C19.041 10.0947 19.2028 10.7327 19.5264 11.1611C19.8545 11.585 20.333 11.7969 20.9619 11.7969C21.6774 11.7969 22.3542 11.6191 22.9922 11.2637V12.665C22.7051 12.8337 22.3975 12.9544 22.0693 13.0273C21.7458 13.1003 21.3516 13.1367 20.8867 13.1367ZM30.1016 13L29.876 12.0088H29.7939C29.5706 12.3597 29.2516 12.6354 28.8369 12.8359C28.4268 13.0365 27.9574 13.1367 27.4287 13.1367C26.5127 13.1367 25.8291 12.9089 25.3779 12.4531C24.9268 11.9974 24.7012 11.307 24.7012 10.3818V5.43945H26.3213V10.1016C26.3213 10.6803 26.4398 11.1156 26.6768 11.4072C26.9137 11.6943 27.2852 11.8379 27.791 11.8379C28.4655 11.8379 28.96 11.6374 29.2744 11.2363C29.5934 10.8307 29.7529 10.154 29.7529 9.20605V5.43945H31.3662V13H30.1016ZM37.4912 5.30273C37.8148 5.30273 38.0814 5.32552 38.291 5.37109L38.1338 6.86816C37.9059 6.81348 37.6689 6.78613 37.4229 6.78613C36.7803 6.78613 36.2585 6.99577 35.8574 7.41504C35.4609 7.83431 35.2627 8.37891 35.2627 9.04883V13H33.6562V5.43945H34.9141L35.126 6.77246H35.208C35.4587 6.32129 35.7845 5.96354 36.1855 5.69922C36.5911 5.4349 37.0264 5.30273 37.4912 5.30273ZM43.001 13.1367C41.8252 13.1367 40.9046 12.7949 40.2393 12.1113C39.5785 11.4232 39.248 10.4775 39.248 9.27441C39.248 8.03939 39.5557 7.06868 40.1709 6.3623C40.7861 5.65592 41.6315 5.30273 42.707 5.30273C43.7051 5.30273 44.4935 5.60579 45.0723 6.21191C45.651 6.81803 45.9404 7.65202 45.9404 8.71387V9.58203H40.9023C40.9251 10.3158 41.1234 10.8809 41.4971 11.2773C41.8708 11.6693 42.3971 11.8652 43.0762 11.8652C43.5228 11.8652 43.9375 11.8242 44.3203 11.7422C44.7077 11.6556 45.1224 11.5143 45.5645 11.3184V12.624C45.1725 12.8109 44.776 12.943 44.375 13.0205C43.974 13.098 43.516 13.1367 43.001 13.1367ZM42.707 6.51953C42.1966 6.51953 41.7865 6.68132 41.4766 7.00488C41.1712 7.32845 40.9889 7.80013 40.9297 8.41992H44.3613C44.3522 7.79557 44.2018 7.32389 43.9102 7.00488C43.6185 6.68132 43.2174 6.51953 42.707 6.51953ZM57.3359 10.2861C57.3359 11.1748 57.0146 11.8721 56.3721 12.3779C55.7295 12.8838 54.8431 13.1367 53.7129 13.1367C52.5827 13.1367 51.6576 12.9613 50.9375 12.6104V11.0654C51.3932 11.2796 51.8763 11.4482 52.3867 11.5713C52.9017 11.6943 53.3802 11.7559 53.8223 11.7559C54.4694 11.7559 54.9456 11.6328 55.251 11.3867C55.5609 11.1406 55.7158 10.8102 55.7158 10.3955C55.7158 10.0218 55.5745 9.70508 55.292 9.44531C55.0094 9.18555 54.4261 8.87793 53.542 8.52246C52.6305 8.15332 51.988 7.73177 51.6143 7.25781C51.2406 6.78385 51.0537 6.21419 51.0537 5.54883C51.0537 4.71484 51.3499 4.05859 51.9424 3.58008C52.5348 3.10156 53.3301 2.8623 54.3281 2.8623C55.2852 2.8623 56.2376 3.07194 57.1855 3.49121L56.666 4.82422C55.7773 4.45052 54.9844 4.26367 54.2871 4.26367C53.7585 4.26367 53.3574 4.37988 53.084 4.6123C52.8105 4.84017 52.6738 5.14323 52.6738 5.52148C52.6738 5.78125 52.7285 6.00456 52.8379 6.19141C52.9473 6.3737 53.1273 6.54688 53.3779 6.71094C53.6286 6.875 54.0798 7.09147 54.7314 7.36035C55.4652 7.66569 56.0029 7.95052 56.3447 8.21484C56.6865 8.47917 56.9372 8.77767 57.0967 9.11035C57.2562 9.44303 57.3359 9.83496 57.3359 10.2861ZM62.4014 13.1367C61.2256 13.1367 60.305 12.7949 59.6396 12.1113C58.9788 11.4232 58.6484 10.4775 58.6484 9.27441C58.6484 8.03939 58.9561 7.06868 59.5713 6.3623C60.1865 5.65592 61.0319 5.30273 62.1074 5.30273C63.1055 5.30273 63.8939 5.60579 64.4727 6.21191C65.0514 6.81803 65.3408 7.65202 65.3408 8.71387V9.58203H60.3027C60.3255 10.3158 60.5238 10.8809 60.8975 11.2773C61.2712 11.6693 61.7975 11.8652 62.4766 11.8652C62.9232 11.8652 63.3379 11.8242 63.7207 11.7422C64.1081 11.6556 64.5228 11.5143 64.9648 11.3184V12.624C64.5729 12.8109 64.1764 12.943 63.7754 13.0205C63.3743 13.098 62.9163 13.1367 62.4014 13.1367ZM62.1074 6.51953C61.597 6.51953 61.1868 6.68132 60.877 7.00488C60.5716 7.32845 60.3893 7.80013 60.3301 8.41992H63.7617C63.7526 7.79557 63.6022 7.32389 63.3105 7.00488C63.0189 6.68132 62.6178 6.51953 62.1074 6.51953ZM71.8965 13L71.5752 11.9473H71.5205C71.1559 12.4076 70.7891 12.722 70.4199 12.8906C70.0508 13.0547 69.5768 13.1367 68.998 13.1367C68.2552 13.1367 67.6742 12.9362 67.2549 12.5352C66.8402 12.1341 66.6328 11.5667 66.6328 10.833C66.6328 10.0537 66.9222 9.46582 67.501 9.06934C68.0798 8.67285 68.9616 8.45638 70.1465 8.41992L71.4521 8.37891V7.97559C71.4521 7.49251 71.3382 7.13249 71.1104 6.89551C70.887 6.65397 70.5384 6.5332 70.0645 6.5332C69.6771 6.5332 69.3057 6.59017 68.9502 6.7041C68.5947 6.81803 68.2529 6.95247 67.9248 7.10742L67.4053 5.95898C67.8154 5.74479 68.2643 5.58301 68.752 5.47363C69.2396 5.3597 69.6999 5.30273 70.1328 5.30273C71.0944 5.30273 71.819 5.51237 72.3066 5.93164C72.7988 6.35091 73.0449 7.00944 73.0449 7.90723V13H71.8965ZM69.5039 11.9062C70.0872 11.9062 70.5544 11.7445 70.9053 11.4209C71.2607 11.0928 71.4385 10.6348 71.4385 10.0469V9.39062L70.4678 9.43164C69.7113 9.45898 69.1598 9.58659 68.8135 9.81445C68.4717 10.0378 68.3008 10.3818 68.3008 10.8467C68.3008 11.1839 68.401 11.446 68.6016 11.6328C68.8021 11.8151 69.1029 11.9062 69.5039 11.9062ZM79.1221 5.30273C79.4456 5.30273 79.7122 5.32552 79.9219 5.37109L79.7646 6.86816C79.5368 6.81348 79.2998 6.78613 79.0537 6.78613C78.4111 6.78613 77.8893 6.99577 77.4883 7.41504C77.0918 7.83431 76.8936 8.37891 76.8936 9.04883V13H75.2871V5.43945H76.5449L76.7568 6.77246H76.8389C77.0895 6.32129 77.4154 5.96354 77.8164 5.69922C78.222 5.4349 78.6572 5.30273 79.1221 5.30273ZM84.3789 13.1367C83.235 13.1367 82.3646 12.804 81.7676 12.1387C81.1751 11.4688 80.8789 10.5094 80.8789 9.26074C80.8789 7.98926 81.1888 7.01172 81.8086 6.32812C82.4329 5.64453 83.333 5.30273 84.5088 5.30273C85.3063 5.30273 86.0241 5.45085 86.6621 5.74707L86.1768 7.03906C85.4977 6.77474 84.9372 6.64258 84.4951 6.64258C83.1872 6.64258 82.5332 7.51074 82.5332 9.24707C82.5332 10.0947 82.695 10.7327 83.0186 11.1611C83.3467 11.585 83.8252 11.7969 84.4541 11.7969C85.1696 11.7969 85.8464 11.6191 86.4844 11.2637V12.665C86.1973 12.8337 85.8896 12.9544 85.5615 13.0273C85.238 13.1003 84.8438 13.1367 84.3789 13.1367ZM94.9131 13H93.2998V8.35156C93.2998 7.76823 93.1813 7.33301 92.9443 7.0459C92.7119 6.75879 92.3405 6.61523 91.8301 6.61523C91.1556 6.61523 90.6589 6.81803 90.3398 7.22363C90.0254 7.62467 89.8682 8.29915 89.8682 9.24707V13H88.2617V2.36328H89.8682V5.06348C89.8682 5.49642 89.8408 5.95898 89.7861 6.45117H89.8887C90.1074 6.08659 90.4105 5.80404 90.7979 5.60352C91.1898 5.40299 91.6455 5.30273 92.165 5.30273C93.9971 5.30273 94.9131 6.22559 94.9131 8.07129V13Z" fill="black"/>
</svg>
