<svg width="16" height="16" viewBox="0 0 16 16" fill="none" xmlns="http://www.w3.org/2000/svg">
<path d="M5.96235 9.99061C6.52623 10.5415 7.20545 10.8169 8 10.8169C8.79455 10.8169 9.47377 10.5415 10.0376 9.99061C10.6015 9.43975 10.8835 8.77621 10.8835 8C10.8835 7.22379 10.6015 6.56025 10.0376 6.00939C9.47377 5.45853 8.79455 5.1831 8 5.1831C7.20545 5.1831 6.52623 5.45853 5.96235 6.00939C5.39848 6.56025 5.11654 7.22379 5.11654 8C5.11654 8.77621 5.39848 9.43975 5.96235 9.99061ZM14.1129 8.78873L15.843 10.1033C16.0224 10.2285 16.0481 10.4038 15.9199 10.6291L14.2667 13.4085C14.1642 13.5837 13.9976 13.6338 13.7669 13.5587L11.7293 12.77C11.191 13.1455 10.7297 13.4085 10.3452 13.5587L10.0376 15.662C9.98638 15.8873 9.85823 16 9.65318 16H6.34682C6.14177 16 6.01362 15.8873 5.96235 15.662L5.65479 13.5587C5.1678 13.3584 4.70645 13.0955 4.27072 12.77L2.23308 13.5587C2.0024 13.6338 1.8358 13.5837 1.73328 13.4085L0.0800961 10.6291C-0.0480577 10.4038 -0.0224269 10.2285 0.156988 10.1033L1.88706 8.78873C1.86143 8.61346 1.84862 8.35055 1.84862 8C1.84862 7.64945 1.86143 7.38654 1.88706 7.21127L0.156988 5.89671C-0.0224269 5.77152 -0.0480577 5.59624 0.0800961 5.37089L1.73328 2.59155C1.8358 2.41628 2.0024 2.3662 2.23308 2.44131L4.27072 3.23005C4.80897 2.85446 5.27032 2.59155 5.65479 2.44131L5.96235 0.338028C6.01362 0.112676 6.14177 0 6.34682 0H9.65318C9.85823 0 9.98638 0.112676 10.0376 0.338028L10.3452 2.44131C10.8322 2.64163 11.2936 2.90454 11.7293 3.23005L13.7669 2.44131C13.9976 2.3662 14.1642 2.41628 14.2667 2.59155L15.9199 5.37089C16.0481 5.59624 16.0224 5.77152 15.843 5.89671L14.1129 7.21127C14.1386 7.38654 14.1514 7.64945 14.1514 8C14.1514 8.35055 14.1386 8.61346 14.1129 8.78873Z" fill="#939598"/>
</svg>
