<svg width="768" height="628" viewBox="0 0 768 628" fill="none" xmlns="http://www.w3.org/2000/svg">
<g clip-path="url(#clip0)">
<path fill-rule="evenodd" clip-rule="evenodd" d="M160.337 46.6067C220.678 15.8872 289.83 67.6678 357.498 65.7866C426.174 63.8773 492.798 9.44138 556.302 35.5987C622.926 63.0409 662.726 133.369 686.6 201.343C710.56 269.565 715.68 345.805 688.848 412.99C663.157 477.316 604.036 519.619 545.005 555.884C490.907 589.117 430.86 611.986 367.408 610.459C305.824 608.976 243.384 589.704 198.51 547.544C156.7 508.261 158.116 444.625 135.012 392.113C108.869 332.697 49.6817 284.838 54.4286 220.078C59.5037 150.84 98.4421 78.1172 160.337 46.6067Z" fill="#E6E9F0"/>
<path d="M143 155.605H622V469.002C622 486.675 607.673 501.002 590 501.002H175C157.327 501.002 143 486.675 143 469.002V155.605Z" fill="#F5F6FA"/>
<path fill-rule="evenodd" clip-rule="evenodd" d="M618 159.605H147V469.002C147 484.466 159.536 497.002 175 497.002H590C605.464 497.002 618 484.466 618 469.002V159.605ZM143 155.605V469.002C143 486.675 157.327 501.002 175 501.002H590C607.673 501.002 622 486.675 622 469.002V155.605H143Z" fill="#ABB2C3"/>
<path opacity="0.55" d="M331.386 473.674H185.079C181.726 473.674 178.678 470.52 178.678 466.316V389.938C178.678 386.084 181.422 382.58 185.079 382.58H331.691C335.044 382.58 338.092 385.733 338.092 389.938V466.316C337.787 470.17 335.044 473.674 331.386 473.674Z" fill="#DBE0FE"/>
<path opacity="0.55" d="M459.942 201.004H182.214C180.383 201.004 178.552 199.476 178.552 197.338V190.31C178.552 188.477 180.078 186.644 182.214 186.644H460.247C462.078 186.644 463.909 188.172 463.909 190.31V197.338C463.604 199.476 462.078 201.004 459.942 201.004Z" fill="#DBE0FE"/>
<path opacity="0.55" d="M459.942 230.335H182.214C180.383 230.335 178.552 228.808 178.552 226.669V219.642C178.552 217.809 180.078 215.975 182.214 215.975H460.247C462.078 215.975 463.909 217.503 463.909 219.642V226.669C463.604 228.808 462.078 230.335 459.942 230.335Z" fill="#DBE0FE"/>
<path opacity="0.55" d="M459.942 259.667H182.214C180.383 259.667 178.552 258.139 178.552 256V248.973C178.552 247.14 180.078 245.307 182.214 245.307H460.247C462.078 245.307 463.909 246.834 463.909 248.973V256C463.604 258.139 462.078 259.667 459.942 259.667Z" fill="#DBE0FE"/>
<path opacity="0.55" d="M459.942 288.998H182.214C180.383 288.998 178.552 287.471 178.552 285.332V278.304C178.552 276.471 180.078 274.638 182.214 274.638H460.247C462.078 274.638 463.909 276.166 463.909 278.304V285.637C463.604 287.471 462.078 288.998 459.942 288.998Z" fill="#DBE0FE"/>
<path opacity="0.55" d="M459.942 318.33H182.214C180.383 318.33 178.552 316.802 178.552 314.663V307.636C178.552 305.803 180.078 303.969 182.214 303.969H460.247C462.078 303.969 463.909 305.497 463.909 307.636V314.663C463.604 316.802 462.078 318.33 459.942 318.33Z" fill="#DBE0FE"/>
<path opacity="0.55" d="M459.942 347.661H182.214C180.383 347.661 178.552 346.133 178.552 343.994V336.967C178.552 335.134 180.078 333.301 182.214 333.301H460.247C462.078 333.301 463.909 334.828 463.909 336.967V343.994C463.604 346.133 462.078 347.661 459.942 347.661Z" fill="#DBE0FE"/>
<path d="M551.195 147.23C551.195 149.674 549.364 151.507 546.922 151.507C544.481 151.507 542.65 149.674 542.65 147.23C542.65 144.786 544.481 142.952 546.922 142.952C549.059 142.647 551.195 144.786 551.195 147.23Z" fill="white"/>
<path d="M573.169 147.23C573.169 149.674 571.338 151.507 568.897 151.507C566.455 151.507 564.624 149.674 564.624 147.23C564.624 144.786 566.455 142.952 568.897 142.952C571.033 142.647 573.169 144.786 573.169 147.23Z" fill="white"/>
<path d="M595.143 147.23C595.143 149.674 593.312 151.507 590.871 151.507C588.429 151.507 586.598 149.674 586.598 147.23C586.598 144.786 588.429 142.952 590.871 142.952C593.007 142.647 595.143 144.786 595.143 147.23Z" fill="white"/>
<path d="M143 150C143 136.745 153.745 126 167 126H598C611.255 126 622 136.745 622 150V167.751H143V150Z" fill="#F5A623"/>
<path d="M595.431 147.255C595.431 151.448 592.032 154.846 587.84 154.846C583.647 154.846 580.249 151.448 580.249 147.255C580.249 143.063 583.647 139.664 587.84 139.664C592.032 139.664 595.431 143.063 595.431 147.255Z" fill="white"/>
<path d="M562.03 147.255C562.03 151.448 558.631 154.846 554.439 154.846C550.247 154.846 546.848 151.448 546.848 147.255C546.848 143.063 550.247 139.664 554.439 139.664C558.631 139.664 562.03 143.063 562.03 147.255Z" fill="white"/>
<path d="M524.834 147.255C524.834 151.448 521.435 154.846 517.242 154.846C513.05 154.846 509.651 151.448 509.651 147.255C509.651 143.063 513.05 139.664 517.242 139.664C521.435 139.664 524.834 143.063 524.834 147.255Z" fill="white"/>
<path d="M382.04 425.91C372.903 423.626 344.903 414.201 320.145 386.211C297.745 360.507 290.082 301.672 288.018 267.685C300.987 266.828 319.261 264.829 336.945 259.117C357.282 252.548 372.314 243.123 382.04 235.697C391.767 243.123 406.798 252.834 427.135 259.117C444.819 264.829 463.093 267.114 476.062 267.685C474.293 301.672 466.63 360.507 443.935 386.211C419.177 414.201 390.882 423.626 382.04 425.91Z" fill="#F5A623"/>
<path fill-rule="evenodd" clip-rule="evenodd" d="M382.002 413.445C372.054 410.412 349.463 401.227 329.164 378.296C320.054 367.821 313.055 349.226 308.164 327.427C304.423 310.751 302.157 293.353 300.864 278.621C312.648 277.35 326.733 275.026 340.633 270.536C357.987 264.931 371.781 257.384 382.019 250.478C392.211 257.424 406.049 265.152 423.52 270.56C437.341 275.017 451.383 277.5 463.292 278.752C462.088 293.438 459.869 310.791 456.137 327.427C451.249 349.218 444.177 367.804 434.943 378.265C414.697 401.152 391.913 410.374 382.002 413.445ZM443.935 386.211C419.177 414.201 390.882 423.626 382.04 425.91C372.903 423.626 344.903 414.201 320.145 386.211C300.195 363.318 291.934 314.145 288.908 279.652C288.686 277.119 288.492 274.664 288.324 272.305C288.211 270.72 288.109 269.179 288.018 267.685C300.987 266.828 319.261 264.829 336.945 259.117C357.282 252.548 372.314 243.123 382.04 235.697C391.767 243.123 406.798 252.834 427.135 259.117C443.586 264.431 460.546 266.778 473.272 267.54C474.226 267.597 475.157 267.645 476.062 267.685C476.062 267.685 476.062 267.686 476.062 267.686C475.868 271.405 475.604 275.422 475.257 279.661C472.436 314.154 464.146 363.32 443.935 386.211Z" fill="#EA9201"/>
<path d="M374.466 317.679L388.762 317.679L387.751 374.925L374.477 374.925L374.466 317.679ZM391.985 297.64C391.985 300.921 391.106 303.401 389.348 305.081C387.591 306.761 385.032 307.601 381.673 307.601C378.43 307.601 375.93 306.741 374.173 305.022C372.376 303.304 371.477 300.843 371.477 297.64C371.477 294.554 372.376 292.112 374.173 290.315C375.969 288.558 378.469 287.679 381.673 287.679C384.954 287.679 387.493 288.538 389.29 290.257C391.087 292.015 391.985 294.476 391.985 297.64Z" fill="white"/>
<path fill-rule="evenodd" clip-rule="evenodd" d="M585.376 283.013C579.785 286.385 574.292 288.015 571.714 287.349C565.248 285.681 564.653 262.009 569.656 252.677C574.659 243.344 600.378 239.277 601.674 257.767C602.124 264.184 599.432 269.912 595.454 274.585L602.587 307.858H581.867L585.376 283.013Z" fill="#B28B67"/>
<path fill-rule="evenodd" clip-rule="evenodd" d="M597.046 278.747C599.646 267.168 607.055 259.276 605.923 254.1C604.792 248.925 599.892 247.664 599.892 247.664C599.892 247.664 597.358 237.403 583.545 238.936C569.733 240.468 561.303 246.208 564.943 258.84C568.29 258.84 572.33 257.629 577.916 259.705C580.575 260.692 581.72 265.831 581.72 265.831H584.244C584.244 265.831 587.92 259.733 591.492 261.349C595.065 262.965 593.116 269.201 593.116 269.201L594.36 278.747H597.046Z" fill="#191847"/>
<path fill-rule="evenodd" clip-rule="evenodd" d="M658.243 415.861C667.08 415.861 674.243 423.025 674.243 431.861V507C674.243 515.837 667.08 523 658.243 523H563.333C554.497 523 547.333 515.836 547.333 507V431.861C547.333 423.025 554.497 415.861 563.333 415.861H658.243ZM646.07 440.054C648.279 440.054 650.07 441.845 650.07 444.054V494.807C650.07 497.016 648.279 498.807 646.07 498.807H575.507C573.298 498.807 571.507 497.016 571.507 494.807V444.054C571.507 441.845 573.298 440.054 575.507 440.054H646.07Z" fill="#C5CFD6"/>
<path fill-rule="evenodd" clip-rule="evenodd" d="M461.726 518.68C478.747 497.878 490.265 482.456 496.277 472.415C506.573 455.221 514.999 439.923 517.658 434.079C523.999 420.143 503.06 413.617 498.321 420.117C491.148 429.955 475.83 460.914 452.367 512.992L461.726 518.68Z" fill="#B28B67"/>
<path fill-rule="evenodd" clip-rule="evenodd" d="M496.606 512.632L528.284 432.828C535.059 418.28 502.34 408.717 497.361 415.488C486.056 430.858 459.188 491.493 455.82 496.072L496.606 512.632Z" fill="#2F3676"/>
<path fill-rule="evenodd" clip-rule="evenodd" d="M580.976 496.626C574.806 487.618 552.362 457.312 540.137 444.772C536.624 441.169 533.196 437.711 529.954 434.488C520.317 424.908 501.125 441.012 510.744 449.737C534.698 471.467 569.65 500.8 572.57 503.415C576.663 507.081 584.854 502.287 580.976 496.626Z" fill="#B28B67"/>
<path fill-rule="evenodd" clip-rule="evenodd" d="M576.8 493.159C577.5 492.219 578.842 491.994 579.734 492.753C581.127 493.94 582.986 495.646 583.68 496.849C584.848 498.873 586.414 503.146 586.414 503.146C584.068 504.501 544.244 527.512 544.244 527.512C544.244 527.512 539.463 523.023 542.754 520.543C546.046 518.063 548.187 516.36 548.187 516.36L562.659 496.404C562.99 495.948 563.632 495.855 564.079 496.199L566.992 498.444C566.992 498.444 571.153 498.08 573.203 496.896C574.38 496.216 575.802 494.499 576.8 493.159Z" fill="#E4E4E4"/>
<path fill-rule="evenodd" clip-rule="evenodd" d="M466.381 514.725C467.457 514.261 468.732 514.738 469.125 515.841C469.739 517.566 470.497 519.974 470.497 521.363C470.497 523.7 469.719 528.184 469.719 528.184C467.01 528.184 421.025 528.184 421.025 528.184C421.025 528.184 419.127 521.904 423.216 521.403C427.306 520.903 430.011 520.499 430.011 520.499L452.514 510.459C453.029 510.229 453.632 510.47 453.846 510.991L455.247 514.393C455.247 514.393 459.033 516.161 461.4 516.161C462.758 516.161 464.847 515.385 466.381 514.725Z" fill="#E4E4E4"/>
<path fill-rule="evenodd" clip-rule="evenodd" d="M539.682 436.814C539.682 436.814 579.176 430.375 592.589 428.008C618.077 423.51 625.51 409.783 621.115 379.833L574.153 379.833C564.831 382.527 496.252 413.158 496.252 413.158C488.026 417.245 489.558 429.295 491.062 433.264C491.154 433.507 532.663 504.607 532.663 504.607L571.08 480.115L539.61 439.7C539.61 439.7 538.364 437.187 539.682 436.814Z" fill="#5C63AB"/>
<path fill-rule="evenodd" clip-rule="evenodd" d="M508.76 388.761L536.299 368.523L542.387 383.583L515.116 394.901C507.403 403.968 503.091 407.748 502.178 406.24C501.408 404.969 502.01 403.779 502.564 402.684C502.996 401.83 503.398 401.033 503.102 400.299C502.424 398.623 497.244 398.8 492.334 399.178C487.425 399.556 488.856 397.369 490.039 396.29C495.051 393.288 501.291 390.778 508.76 388.761ZM653.18 424.422C650.65 419.285 642.034 369.221 642.034 369.221L623.993 369.292C623.993 369.292 640.702 423.277 642.034 426.58C643.764 430.871 640.825 437.105 638.833 441.333C638.524 441.987 638.239 442.593 637.997 443.136C640.762 444.374 642.09 442.877 643.49 441.3C645.072 439.517 646.745 437.632 650.685 439.466C652.207 440.175 653.647 441.012 655.054 441.831C659.915 444.658 664.38 447.256 670.454 443.505C671.417 442.91 672.472 440.671 669.923 438.922C663.571 434.563 654.417 426.933 653.18 424.422Z" fill="#B28B67"/>
<path fill-rule="evenodd" clip-rule="evenodd" d="M590.763 293.457L583.298 292.175C555.599 316.122 544.223 362.127 510.271 386.497L518.443 396.635C577.343 389.336 591.942 333.222 590.763 293.457Z" fill="#E87613"/>
<path fill-rule="evenodd" clip-rule="evenodd" d="M623.307 387.348C623.307 387.348 578.407 387.348 557.252 387.348C554.233 387.348 554.802 382.987 555.238 380.785C560.274 355.383 579.932 328 579.932 291.84L598.985 288.85C614.745 314.216 620.195 345.447 623.307 387.348Z" fill="#DDE3E9"/>
<path fill-rule="evenodd" clip-rule="evenodd" d="M620.776 313.486C624.243 313.238 627.372 311.786 629.35 308.214C636.314 295.638 633.799 288.714 626.357 286.438C622.264 285.186 618.415 286.04 613.808 287.063C610.037 287.9 605.757 288.85 600.42 288.85C599.903 288.85 599.432 288.884 599.005 288.951L592.683 289.312C592.683 289.312 567.013 376.38 578.524 405.493H630.734C633.703 412.629 636.614 418.855 639.357 423.637H653.523C655.047 374.318 636.39 336.368 620.776 313.486Z" fill="#FF9B21"/>
<path fill-rule="evenodd" clip-rule="evenodd" d="M630.734 405.493C626.839 396.13 622.845 385.202 619.001 373.917C617.57 386.345 615.187 398.828 611.22 405.493H630.734Z" fill="black" fill-opacity="0.1"/>
</g>
<defs>
<clipPath id="clip0">
<rect width="768" height="628" fill="white"/>
</clipPath>
</defs>
</svg>
