<svg width="768" height="628" viewBox="0 0 768 628" fill="none" xmlns="http://www.w3.org/2000/svg">
<g clip-path="url(#clip0)">
<path fill-rule="evenodd" clip-rule="evenodd" d="M160.337 46.6067C220.678 15.8873 289.83 67.6678 357.498 65.7866C426.174 63.8774 492.798 9.44141 556.302 35.5987C622.926 63.0409 662.726 133.369 686.6 201.343C710.56 269.565 715.68 345.805 688.848 412.99C663.157 477.316 604.036 519.619 545.005 555.884C490.907 589.117 430.86 611.986 367.408 610.459C305.824 608.976 243.384 589.704 198.51 547.544C156.7 508.261 158.116 444.625 135.012 392.113C108.869 332.697 49.6817 284.838 54.4286 220.078C59.5037 150.84 98.4421 78.1172 160.337 46.6067Z" fill="#E6E9F0"/>
<g clip-path="url(#clip1)">
<path d="M589.627 477.757H144C138.477 477.757 134 473.279 134 467.757V130.198C134 115.644 145.631 104 160.169 104H563.168C577.706 104 589.336 115.644 589.336 130.198V477.466C589.336 477.626 589.466 477.757 589.627 477.757Z" fill="white"/>
<path opacity="0.55" d="M312.82 449.521H173.254C170.055 449.521 167.147 446.901 167.147 443.408V379.951C167.147 376.749 169.764 373.838 173.254 373.838H313.111C316.309 373.838 319.217 376.458 319.217 379.951V443.408C318.926 446.61 316.309 449.521 312.82 449.521Z" fill="#DBE0FE"/>
<path opacity="0.55" d="M435.232 174.734H170.637C168.892 174.734 167.147 173.279 167.147 171.241V164.546C167.147 162.8 168.601 161.053 170.637 161.053H435.523C437.267 161.053 439.012 162.509 439.012 164.546V171.241C438.721 173.279 437.267 174.734 435.232 174.734Z" fill="#DBE0FE"/>
<path opacity="0.55" d="M435.232 202.679H170.637C168.892 202.679 167.147 201.223 167.147 199.186V192.491C167.147 190.744 168.601 188.998 170.637 188.998H435.523C437.267 188.998 439.012 190.453 439.012 192.491V199.186C438.721 201.223 437.267 202.679 435.232 202.679Z" fill="#DBE0FE"/>
<path opacity="0.55" d="M270.54 231H168.348C167.674 231 167 229.511 167 227.426V220.574C167 218.787 167.561 217 168.348 217H270.652C271.326 217 272 218.489 272 220.574V227.426C271.888 229.511 271.326 231 270.54 231Z" fill="#DBE0FE"/>
<path opacity="0.55" d="M270.54 259H168.348C167.674 259 167 257.511 167 255.426V248.574C167 246.787 167.561 245 168.348 245H270.652C271.326 245 272 246.489 272 248.574V255.723C271.888 257.511 271.326 259 270.54 259Z" fill="#DBE0FE"/>
<path opacity="0.55" d="M270.54 287H168.348C167.674 287 167 285.511 167 283.426V276.574C167 274.787 167.561 273 168.348 273H270.652C271.326 273 272 274.489 272 276.574V283.426C271.888 285.511 271.326 287 270.54 287Z" fill="#DBE0FE"/>
<path opacity="0.55" d="M270.54 314H168.348C167.674 314 167 312.617 167 310.681V304.319C167 302.66 167.561 301 168.348 301H270.652C271.326 301 272 302.383 272 304.319V310.681C271.888 312.617 271.326 314 270.54 314Z" fill="#DBE0FE"/>
<path d="M563.458 104H160.169C145.631 104 134 115.644 134 130.198V142.715H589.627V130.198C589.627 115.644 577.996 104 563.458 104Z" fill="url(#paint0_linear)"/>
<path d="M522.17 123.503C522.17 125.832 520.425 127.578 518.099 127.578C515.773 127.578 514.028 125.832 514.028 123.503C514.028 121.174 515.773 119.428 518.099 119.428C520.134 119.137 522.17 121.174 522.17 123.503Z" fill="white"/>
<path d="M543.105 123.503C543.105 125.832 541.36 127.578 539.034 127.578C536.708 127.578 534.963 125.832 534.963 123.503C534.963 121.174 536.708 119.428 539.034 119.428C541.069 119.137 543.105 121.174 543.105 123.503Z" fill="white"/>
<path d="M564.04 123.503C564.04 125.832 562.295 127.578 559.969 127.578C557.643 127.578 555.899 125.832 555.899 123.503C555.899 121.174 557.643 119.428 559.969 119.428C562.005 119.137 564.04 121.174 564.04 123.503Z" fill="white"/>
</g>
<path d="M615.479 496.284C615.342 492.99 614.93 489.627 614.244 486.402L601.204 486.676C601.204 486.676 600.792 493.814 594.89 494.98L592.42 495.735C589.331 496.353 585.625 497.451 583.498 498.892C583.429 498.343 583.429 497.863 583.429 497.382C583.223 493.814 582.537 490.314 581.439 486.882L566.821 487.431C566.821 487.431 567.576 494.294 561.674 495.461L559.135 496.147C553.576 497.245 546.233 499.784 549.321 503.628C551.723 506.51 576.635 507.814 581.096 506.99C582.812 506.716 583.429 505.481 583.635 503.902C588.92 506.235 609.783 506.784 613.832 505.892C617.057 505.137 615.616 500.059 615.479 496.284Z" fill="#4B44BE"/>
<path d="M553.988 392.929C553.37 398.008 557.282 424.43 557.282 429.44C557.282 434.45 566.684 488.323 566.684 488.323L581.576 487.637C581.576 487.637 578.625 408.371 578.9 404.528C579.174 400.684 595.508 354.635 595.508 354.635C595.508 354.635 596.675 366.782 596.675 370.694C596.675 374.606 601.204 486.676 601.204 486.676H614.175L632.636 321.555L632.293 318.399L564.145 308.928C564.213 308.859 554.605 387.92 553.988 392.929Z" fill="url(#paint1_linear)"/>
<path fill-rule="evenodd" clip-rule="evenodd" d="M593.518 155.337C591.39 155.131 589.263 155.131 587.135 155.474C586.518 155.611 584.527 159.66 583.155 162.543C581.371 166.249 581.027 172.151 581.027 175.925C581.027 180.661 585.763 186.014 591.665 189.788C594.273 191.435 592.626 200.151 591.322 200.975C590.018 201.798 576.635 220.328 576.635 220.328L637.166 243.936C635.523 240.962 633.851 237.936 632.188 234.926C622.112 216.69 612.363 199.046 611.361 196.926C610.332 194.935 610.126 192.671 610.675 190.543C611.499 187.592 612.665 184.71 614.106 181.965C615.136 180.523 615.685 177.778 615.959 176.2C616.074 175.543 616.14 175.243 616.08 175.215C615.996 175.176 615.663 175.673 614.861 176.474C614.45 176.817 613.283 176.886 612.734 174.484C612.392 172.988 609.468 171.093 606.466 169.147C604.647 167.968 602.799 166.77 601.479 165.631C601.479 165.631 597.773 164.67 593.998 163.366L593.518 155.337ZM639.156 247.368L638.607 244.142L637.234 243.868L639.156 247.368ZM645.813 286.967L632.362 323.477L630.028 341.321L641.352 331.369C641.864 330.914 642.801 328.902 643.497 327.406C643.641 327.098 643.774 326.812 643.891 326.565L650.686 307.555L655.696 277.221C655.696 277.221 648.078 263.495 639.156 247.368L645.813 286.967Z" fill="#FBD89D"/>
<path d="M562.704 301.859C562.704 301.859 572.929 242.495 570.596 237.348L570.802 208.455C576.91 209.416 587.822 203.377 587.822 203.377C587.822 203.377 592.351 209.896 603.4 203.583C614.107 197.406 623.371 205.298 632.911 208.181C642.45 211.063 643.754 216.622 643.754 216.622C643.754 216.622 656.794 262.192 659.127 267.201C661.46 272.211 661.255 274.819 660.431 279.898C659.607 284.976 648.512 313.8 648.512 313.8L637.944 307.967C637.944 307.967 642.656 282.574 642.656 278.594C642.656 274.613 635.45 251.142 633.734 248.534C632.225 246.201 633.323 250.936 632.842 259.515C632.362 268.231 632.774 320.457 632.774 320.457L605.185 324.301C601.273 324.095 597.43 323.752 593.587 323.134C588.302 321.144 566.41 314.761 564.557 313.8C562.429 312.702 562.704 301.859 562.704 301.859Z" fill="#E62626"/>
<path d="M613.214 144.356C614.45 145.317 618.156 148.748 619.46 149.778C620.969 150.944 621.793 152.591 623.097 154.719C623.783 155.817 624.813 158.905 625.293 160.141C628.038 167.141 625.362 170.16 623.234 175.17C620.283 182.033 613.626 183.063 613.077 184.023C607.793 182.308 607.175 182.925 604.842 183.68C601.891 181.69 600.587 179.013 599.008 177.641C599.969 176.268 597.087 163.572 594.959 170.229C594.067 167.209 591.322 160.895 590.155 160.072C588.988 159.248 587.616 158.219 587.753 157.739C588.371 154.925 583.704 155.337 587.822 152.385C591.116 149.983 592.42 144.425 596.743 144.013C599.42 143.738 602.851 143.464 605.597 143.052C607.518 142.777 609.097 143.67 610.744 143.876C611.636 143.944 612.459 144.287 613.214 144.699" fill="black"/>
<g opacity="0.07">
<path d="M597.841 346.399C595.988 351.752 588.851 362.252 584.253 368.429C579.655 374.605 565.174 387.919 566.066 404.047C566.959 420.175 576.772 461.627 576.772 465.401C576.772 469.176 573.135 486.745 570.39 492.167C567.645 497.588 568.125 503.216 569.498 503.216C570.115 503.216 572.38 504.039 575.537 503.216C577.939 502.598 581.096 505.137 582.4 504.52C583.361 504.108 583.567 501.02 583.567 501.02C583.635 499.716 583.498 498.412 583.086 497.176C582.4 495.186 581.92 493.127 581.576 491.069C581.027 475.902 579.723 440.764 579.998 438.293C580.478 433.695 576.841 410.498 580.135 399.106C583.429 387.714 597.773 346.399 597.841 346.399Z" fill="black"/>
</g>
<g opacity="0.07">
<path d="M632.43 253.476L632.293 307.281C632.293 307.281 633.666 318.673 631.744 319.908C629.822 321.144 622.205 322.104 619.871 322.104C618.293 322.104 597.018 324.575 604.567 320.801C607.93 319.085 629.205 307.212 622.411 295.477C615.616 283.741 618.773 268.78 623.715 258.623C628.656 248.466 632.499 241.672 632.499 241.672L632.43 253.476Z" fill="black"/>
</g>
<path opacity="0.07" d="M591.528 188.69C591.528 188.69 596.537 187.729 599.008 185.808C601.479 183.886 595.92 189.445 594.135 191.641C592.351 193.837 591.528 188.69 591.528 188.69Z" fill="black"/>
<path opacity="0.07" d="M623.92 341.458C623.92 341.458 618.979 361.497 614.518 367.4C609.783 373.713 614.999 402.743 610.606 415.508C606.42 427.587 612.116 453.803 611.087 462.176C610.263 469.039 610.126 483.794 606.489 492.029C605.253 494.843 602.646 496.902 602.646 498.206C602.646 505.549 612.597 500.814 612.597 500.814L613.146 494.294L619.94 436.646L632.499 322.242L623.92 341.458Z" fill="black"/>
<path d="M533.661 335.036L549.403 314.176L538.846 310.093C529.173 317.416 510.83 332.88 514.849 336.148C518.868 339.415 529.065 336.768 533.661 335.036Z" fill="#FBD89D"/>
<path d="M533.951 315.958C533.351 320.863 540.976 322.581 544.864 322.826C551.677 312.368 566.57 287.873 571.643 273.56C576.715 259.246 565.175 262.396 558.77 265.76C550.748 280.449 534.552 311.053 533.951 315.958Z" fill="#C01818"/>
<path d="M558.703 271.025C560.05 275.779 567.745 274.407 571.424 273.127C573.651 260.845 577.885 232.492 577.013 217.332C576.141 202.171 566.724 209.548 562.124 215.131C560.422 231.782 557.355 266.271 558.703 271.025Z" fill="#C01818"/>
<path d="M370.887 408.424C360.995 405.95 330.68 395.746 303.876 365.444C279.625 337.615 271.328 273.918 269.094 237.122C283.135 236.194 302.919 234.03 322.065 227.846C344.082 220.734 360.356 210.53 370.887 202.49C381.417 210.53 397.691 221.043 419.709 227.846C438.854 234.03 458.638 236.504 472.679 237.122C470.764 273.918 462.468 337.615 437.897 365.444C411.093 395.746 380.46 405.95 370.887 408.424Z" fill="#E62626"/>
<path fill-rule="evenodd" clip-rule="evenodd" d="M370.845 394.928C360.075 391.645 335.617 381.701 313.641 356.874C303.778 345.533 296.2 325.402 290.905 301.802C286.855 283.748 284.401 264.911 283.001 248.961C295.76 247.585 311.009 245.069 326.058 240.208C344.845 234.14 359.78 225.97 370.863 218.492C381.898 226.012 396.88 234.38 415.794 240.234C430.758 245.06 445.96 247.748 458.853 249.103C457.55 265.003 455.148 283.791 451.107 301.802C445.815 325.393 438.159 345.516 428.162 356.841C406.242 381.619 381.576 391.604 370.845 394.928ZM437.897 365.444C411.093 395.746 380.46 405.95 370.887 408.424C360.995 405.95 330.68 395.746 303.876 365.444C282.277 340.659 273.334 287.422 270.058 250.078C269.817 247.335 269.607 244.678 269.425 242.124C269.302 240.408 269.192 238.739 269.094 237.122C283.135 236.194 302.919 234.03 322.065 227.846C344.082 220.734 360.356 210.53 370.887 202.49C381.417 210.53 397.691 221.043 419.709 227.846C437.519 233.598 455.881 236.14 469.658 236.965C470.692 237.027 471.699 237.079 472.679 237.122C472.679 237.122 472.679 237.123 472.679 237.123C472.469 241.15 472.183 245.499 471.808 250.088C468.753 287.431 459.779 340.661 437.897 365.444Z" fill="#C01818"/>
<path d="M377.94 319.334H363.3L360.24 257H381L377.94 319.334ZM360 341.154C360 337.581 360.9 334.88 362.7 333.051C364.5 331.222 367.12 330.308 370.56 330.308C373.88 330.308 376.44 331.243 378.24 333.115C380.08 334.986 381 337.666 381 341.154C381 344.514 380.08 347.172 378.24 349.129C376.4 351.043 373.84 352 370.56 352C367.2 352 364.6 351.064 362.76 349.193C360.92 347.279 360 344.599 360 341.154Z" fill="white"/>
<circle cx="203.438" cy="290" r="20" stroke="black" stroke-width="8"/>
<path fill-rule="evenodd" clip-rule="evenodd" d="M196.438 383.18V310H212.438V383.18C212.438 406.829 193.266 426 169.617 426C147.427 426 129.438 408.011 129.438 385.82V368.151C129.438 366.782 127.912 365.965 126.773 366.725L104.438 381.18L103 377.344L117.897 353.412C129.669 345.564 145.438 354.003 145.438 368.151V385.82C145.438 399.174 156.263 410 169.617 410C184.43 410 196.438 397.992 196.438 383.18Z" fill="#5A6175"/>
<path fill-rule="evenodd" clip-rule="evenodd" d="M194.938 83.5C194.938 59.7518 214.189 40.5 237.938 40.5C261.686 40.5 280.938 59.7518 280.938 83.5V104H263.938V83.5C263.938 69.1406 252.297 57.5 237.938 57.5C223.578 57.5 211.938 69.1406 211.938 83.5V293H194.938V83.5Z" fill="#FBD89D"/>
</g>
<defs>
<linearGradient id="paint0_linear" x1="134" y1="123.423" x2="589.679" y2="123.423" gradientUnits="userSpaceOnUse">
<stop stop-color="#F84E49"/>
<stop offset="1" stop-color="#C01818"/>
</linearGradient>
<linearGradient id="paint1_linear" x1="553.922" y1="488.323" x2="632.636" y2="488.323" gradientUnits="userSpaceOnUse">
<stop stop-color="#5ACEED"/>
<stop offset="1" stop-color="#4F68CA"/>
</linearGradient>
<clipPath id="clip0">
<rect width="768" height="628" fill="white"/>
</clipPath>
<clipPath id="clip1">
<rect width="455.627" height="373.757" fill="white" transform="translate(134 104)"/>
</clipPath>
</defs>
</svg>
