<svg width="768" height="584" viewBox="0 0 768 584" fill="none" xmlns="http://www.w3.org/2000/svg">
<path fill-rule="evenodd" clip-rule="evenodd" d="M172.126 40.9235C227.303 11.6239 291.921 58.292 354.316 55.4796C417.641 52.6254 478.237 1.34685 537.237 24.4668C599.135 48.7226 636.971 112.968 660.076 175.296C683.266 237.851 689.203 308.102 665.519 370.509C642.843 430.259 588.975 470.226 535.095 504.62C485.717 536.14 430.687 558.192 372.126 557.793C315.29 557.406 257.381 540.621 215.314 502.441C176.118 466.867 176.412 408.139 154.261 360.063C129.198 305.667 73.8354 262.458 77.1839 202.64C80.7639 138.686 115.528 70.9776 172.126 40.9235Z" fill="#E6E9F0"/>
<path d="M636.722 464.911H181.095V117.352C181.095 102.798 192.725 91.1545 207.264 91.1545H610.262C624.801 91.1545 636.431 102.798 636.431 117.352V464.62C636.431 464.781 636.561 464.911 636.722 464.911Z" fill="white"/>
<path opacity="0.55" d="M359.915 436.676H220.348C217.15 436.676 214.242 434.056 214.242 430.563V367.106C214.242 363.904 216.859 360.993 220.348 360.993H360.206C363.404 360.993 366.312 363.613 366.312 367.106V430.563C366.021 433.765 363.404 436.676 359.915 436.676Z" fill="#DBE0FE"/>
<path opacity="0.55" d="M482.327 161.889H217.732C215.987 161.889 214.242 160.434 214.242 158.396V151.701C214.242 149.954 215.696 148.208 217.732 148.208H482.617C484.362 148.208 486.107 149.663 486.107 151.701V158.396C485.816 160.434 484.362 161.889 482.327 161.889Z" fill="#DBE0FE"/>
<path opacity="0.55" d="M482.327 189.833H217.732C215.987 189.833 214.242 188.378 214.242 186.34V179.645C214.242 177.899 215.696 176.152 217.732 176.152H482.617C484.362 176.152 486.107 177.608 486.107 179.645V186.34C485.816 188.378 484.362 189.833 482.327 189.833Z" fill="#DBE0FE"/>
<path opacity="0.55" d="M317.635 218.155H215.442C214.769 218.155 214.095 216.665 214.095 214.58V207.729C214.095 205.942 214.656 204.155 215.442 204.155H317.747C318.421 204.155 319.095 205.644 319.095 207.729V214.58C318.983 216.665 318.421 218.155 317.635 218.155Z" fill="#DBE0FE"/>
<path opacity="0.55" d="M317.635 246.155H215.442C214.769 246.155 214.095 244.665 214.095 242.58V235.729C214.095 233.942 214.656 232.155 215.442 232.155H317.747C318.421 232.155 319.095 233.644 319.095 235.729V242.878C318.983 244.665 318.421 246.155 317.635 246.155Z" fill="#DBE0FE"/>
<path opacity="0.55" d="M317.635 274.155H215.442C214.769 274.155 214.095 272.665 214.095 270.58V263.729C214.095 261.942 214.656 260.155 215.442 260.155H317.747C318.421 260.155 319.095 261.644 319.095 263.729V270.58C318.983 272.665 318.421 274.155 317.635 274.155Z" fill="#DBE0FE"/>
<path opacity="0.55" d="M317.635 301.155H215.442C214.769 301.155 214.095 299.772 214.095 297.836V291.474C214.095 289.814 214.656 288.155 215.442 288.155H317.747C318.421 288.155 319.095 289.538 319.095 291.474V297.836C318.983 299.772 318.421 301.155 317.635 301.155Z" fill="#DBE0FE"/>
<path d="M610.553 91.1545H207.264C192.725 91.1545 181.095 102.798 181.095 117.352V129.869H636.722V117.352C636.722 102.798 625.091 91.1545 610.553 91.1545Z" fill="url(#paint0_linear)"/>
<circle cx="409.094" cy="287.155" r="101" stroke="#387EFE" stroke-width="12"/>
<path fill-rule="evenodd" clip-rule="evenodd" d="M444.45 294.87L412.631 326.69C410.678 328.643 407.512 328.643 405.559 326.69L373.74 294.87C371.787 292.918 371.787 289.752 373.74 287.799C375.692 285.847 378.858 285.847 380.811 287.799L404.095 311.084L404.095 253.155L414.095 253.155L414.095 311.084L437.379 287.799C439.332 285.847 442.498 285.847 444.45 287.799C446.403 289.752 446.403 292.918 444.45 294.87Z" fill="#377CFB"/>
<circle cx="490.095" cy="371.155" r="55" fill="#E62626"/>
<path fill-rule="evenodd" clip-rule="evenodd" d="M476.42 352.002C475.184 350.765 473.179 350.765 471.942 352.002C470.705 353.239 470.705 355.244 471.942 356.48L487.616 372.155L471.942 387.829C470.705 389.066 470.705 391.071 471.942 392.307C473.179 393.544 475.184 393.544 476.42 392.307L492.094 376.633L507.769 392.307C509.005 393.544 511.01 393.544 512.247 392.307C513.484 391.071 513.484 389.066 512.247 387.829L496.573 372.155L512.247 356.481C513.484 355.244 513.484 353.239 512.247 352.002C511.01 350.766 509.005 350.766 507.769 352.002L492.094 367.676L476.42 352.002Z" fill="white"/>
<defs>
<linearGradient id="paint0_linear" x1="181.095" y1="110.578" x2="636.774" y2="110.578" gradientUnits="userSpaceOnUse">
<stop stop-color="#F84E49"/>
<stop offset="1" stop-color="#C01818"/>
</linearGradient>
</defs>
</svg>
