<svg width="208" height="170" viewBox="0 0 208 170" fill="none" xmlns="http://www.w3.org/2000/svg">
<g clip-path="url(#clip0)">
<path fill-rule="evenodd" clip-rule="evenodd" d="M43.4248 5.40689C59.7671 -3.52013 78.4959 11.5272 96.8226 10.9805C115.422 10.4257 133.466 -5.39329 150.665 2.20797C168.709 10.1826 179.489 30.6199 185.954 50.373C192.444 70.1982 193.83 92.3533 186.563 111.877C179.605 130.57 163.593 142.863 147.606 153.402C132.954 163.059 116.691 169.705 99.5064 169.261C82.8275 168.831 65.9167 163.23 53.7634 150.978C42.4397 139.563 42.8234 121.07 36.5658 105.81C29.4855 88.5442 13.4557 74.6365 14.7413 55.8175C16.1158 35.697 26.6616 14.5638 43.4248 5.40689Z" fill="#E6E9F0"/>
<g clip-path="url(#clip1)">
<path d="M132.284 43.3375H117.107C116.35 36.2935 110.765 30.8037 104 30.8037C97.2355 30.8037 91.6508 36.2933 90.8937 43.3375H75.7162C69.5743 43.3375 64.5781 48.6998 64.5781 55.2897V55.903C64.5781 60.9389 67.5005 65.2492 71.6174 67.0055V123.467C71.6174 130.057 76.6141 135.419 82.7556 135.419H125.245C131.387 135.419 136.383 130.057 136.383 123.467V67.0057C140.5 65.2492 143.422 60.9389 143.422 55.9032V55.2899C143.422 48.6998 138.426 43.3375 132.284 43.3375ZM104 36.472C107.847 36.472 111.059 39.4309 111.77 43.3375H96.232C96.9424 39.4307 100.154 36.472 104 36.472ZM131.1 123.467C131.1 126.932 128.473 129.751 125.245 129.751H82.7554C79.5273 129.751 76.8999 126.932 76.8999 123.467V67.8552H131.1V123.467ZM138.139 55.903C138.139 59.3678 135.512 62.1871 132.284 62.1871H75.7162C72.488 62.1871 69.8607 59.3678 69.8607 55.903V55.2897C69.8607 51.8248 72.488 49.0056 75.7162 49.0056H132.284C135.512 49.0056 138.14 51.8248 138.14 55.2897V55.903H138.139Z" fill="#387EFE"/>
<path d="M89.8385 122.502C91.2973 122.502 92.4798 121.233 92.4798 119.669V87.7581C92.4798 86.1933 91.2971 84.9238 89.8385 84.9238C88.38 84.9238 87.1973 86.1933 87.1973 87.7581V119.669C87.1971 121.234 88.3798 122.502 89.8385 122.502Z" fill="#387EFE"/>
<path d="M104 122.502C105.459 122.502 106.642 121.233 106.642 119.669V87.7581C106.642 86.1933 105.459 84.9238 104 84.9238C102.542 84.9238 101.359 86.1933 101.359 87.7581V119.669C101.359 121.234 102.541 122.502 104 122.502Z" fill="#387EFE"/>
<path d="M118.162 122.502C119.62 122.502 120.803 121.233 120.803 119.669V87.7581C120.803 86.1933 119.62 84.9238 118.162 84.9238C116.703 84.9238 115.52 86.1933 115.52 87.7581V119.669C115.52 121.234 116.703 122.502 118.162 122.502Z" fill="#387EFE"/>
</g>
<ellipse cx="139.57" cy="129.413" rx="23.9236" ry="25.6695" fill="#0BD18A"/>
<path fill-rule="evenodd" clip-rule="evenodd" d="M152.61 120.248L135.583 139.431L126.529 129.232L128.687 127.027L135.583 134.796L150.453 118.043L152.61 120.248Z" fill="white"/>
</g>
<defs>
<clipPath id="clip0">
<path d="M0 0H208V170H0V0Z" fill="white"/>
</clipPath>
<clipPath id="clip1">
<rect x="55.25" y="30.8037" width="97.5" height="104.615" fill="white"/>
</clipPath>
</defs>
</svg>
