<svg width="230" height="175" viewBox="0 0 230 175" fill="none" xmlns="http://www.w3.org/2000/svg">
<g clip-path="url(#clip0)">
<path fill-rule="evenodd" clip-rule="evenodd" d="M54.6667 12.8309C70.9316 4.55971 89.5716 18.5016 107.811 17.9951C126.323 17.481 144.281 2.82417 161.399 9.86699C179.357 17.2558 190.085 36.1916 196.521 54.4935C202.979 72.8623 204.359 93.3897 197.127 111.479C190.202 128.799 174.266 140.189 158.354 149.953C143.772 158.901 127.586 165.059 110.483 164.648C93.8826 164.248 77.052 159.059 64.9563 147.708C53.6863 137.131 54.0682 119.997 47.8402 105.858C40.7935 89.8604 24.8396 76.9745 26.1191 59.538C27.4871 40.8957 37.983 21.3151 54.6667 12.8309Z" fill="#E6E9F0"/>
<path d="M114.401 152.564C107.724 150.745 90.3245 144.276 74.7456 125.882C60.5829 109.306 55.3225 71.5065 53.9062 47.6542C62.6062 46.8456 73.734 45.2285 84.6595 41.59C97.6082 37.3451 107.522 31.281 114.401 26.0254C121.28 31.0788 131.194 37.143 144.143 41.59C155.068 45.2285 166.196 46.8456 174.896 47.6542C173.48 71.5065 168.219 109.306 154.056 125.882C138.275 144.276 120.875 150.745 114.401 152.564Z" fill="#F5F6FA"/>
<path fill-rule="evenodd" clip-rule="evenodd" d="M144.143 41.59C131.194 37.143 121.28 31.0788 114.401 26.0254C107.522 31.281 97.6082 37.3451 84.6595 41.59C73.734 45.2285 62.6062 46.8456 53.9062 47.6542C55.3225 71.5065 60.5829 109.306 74.7456 125.882C90.3245 144.276 107.724 150.745 114.401 152.564C120.875 150.745 138.275 144.276 154.056 125.882C168.219 109.306 173.48 71.5065 174.896 47.6542C166.196 46.8456 155.068 45.2285 144.143 41.59ZM168.522 52.9817C160.64 52.0023 151.413 50.318 142.248 47.2658L142.222 47.257L142.195 47.2479C130.667 43.2888 121.422 38.1132 114.459 33.3912C107.44 38.2828 98.1348 43.4677 86.541 47.2701C77.3802 50.3196 68.1583 52.0028 60.2796 52.9817C61.1266 63.6734 62.7117 76.279 65.3899 88.1851C68.6123 102.511 73.2194 114.879 79.3014 121.998L79.3099 122.007L79.3183 122.017C92.7418 137.867 107.536 144.171 114.378 146.321C121.112 144.156 135.912 137.834 149.504 121.993C155.585 114.874 160.19 102.508 163.412 88.1851C166.09 76.279 167.675 63.6734 168.522 52.9817Z" fill="#D1D5DF"/>
<path fill-rule="evenodd" clip-rule="evenodd" d="M89.1722 37.715C90.3559 33.186 96.053 31.7076 99.2938 35.0885L125.924 62.8698C129.087 66.1695 127.53 71.6496 123.104 72.7982L86.7477 82.2325C82.3213 83.3812 78.2912 79.3508 79.4463 74.9306L89.1722 37.715ZM105.076 67.8653C105.446 69.286 104.63 70.7272 103.253 71.0844C101.877 71.4416 100.462 70.5794 100.092 69.1587C99.7226 67.7381 100.539 66.2968 101.915 65.9396C103.292 65.5825 104.707 66.4446 105.076 67.8653ZM94.2262 45.9671L98.9 44.7543C98.984 44.7325 99.0688 44.7863 99.0848 44.8715L102.467 62.9067C102.481 62.984 102.433 63.0593 102.357 63.079L100.135 63.6556C100.059 63.6753 99.9807 63.6328 99.9557 63.5583L94.1219 46.1594C94.0943 46.0772 94.1423 45.9889 94.2262 45.9671Z" fill="#F5A623"/>
<mask id="mask0" mask-type="alpha" maskUnits="userSpaceOnUse" x="26" y="10" width="176" height="158">
<path fill-rule="evenodd" clip-rule="evenodd" d="M54.6667 15.2235C70.9316 6.95228 89.5716 20.8941 107.811 20.3876C126.323 19.8736 144.281 5.21674 161.399 12.2596C179.357 19.6484 190.086 38.5842 196.521 56.8861C202.979 75.2548 204.359 95.7823 197.127 113.872C190.202 131.191 174.266 142.582 158.354 152.346C143.772 161.294 127.586 167.451 110.483 167.04C93.8827 166.641 77.052 161.452 64.9563 150.1C53.6864 139.524 54.0682 122.39 47.8403 108.251C40.7935 92.253 24.8396 79.3671 26.1191 61.9306C27.4871 43.2883 37.983 23.7076 54.6667 15.2235Z" fill="#E6E9F0"/>
</mask>
<g mask="url(#mask0)">
<path fill-rule="evenodd" clip-rule="evenodd" d="M172.501 92.614C168.463 93.1562 164.913 92.7256 163.602 91.7058C160.317 89.1498 165.856 75.4753 171.036 71.3828C176.216 67.2902 191.941 71.3418 188.091 82.2291C186.756 86.006 183.795 88.6105 180.36 90.2948L176.179 111.076L164.325 105.94L172.501 92.614Z" fill="#B28B67"/>
<path fill-rule="evenodd" clip-rule="evenodd" d="M185.245 78.0497C178.382 75.1344 173.747 72.7837 171.348 70.855C172.48 68.5913 176.029 67.0158 182.386 69.7704C189.459 72.835 191.464 78.5998 189.392 83.3667C187.499 87.7218 182.389 91.8103 180.161 91.1011C179.66 90.7403 179.477 89.8693 179.406 88.7475C180.472 88.702 181.527 87.9609 182.094 86.6565C182.638 85.4037 182.061 83.7088 180.697 83.1177C180.198 82.9018 179.664 82.8631 179.16 82.962C178.89 81.131 178.236 79.5669 176.613 79.0031L178.888 76.4687L185.031 78.5435L185.245 78.0497Z" fill="#191847"/>
<path fill-rule="evenodd" clip-rule="evenodd" d="M122.284 74.4287L138.573 88.158L130.33 94.0457L119.489 79.1762C112.866 75.8275 109.945 73.7665 110.725 72.9933C111.384 72.3414 112.193 72.5322 112.938 72.7079C113.519 72.8448 114.061 72.9725 114.462 72.6856C115.38 72.0305 114.517 68.9174 113.571 65.9982C112.626 63.079 114.16 63.6265 114.987 64.186C117.539 66.7838 119.971 70.198 122.284 74.4287ZM105.114 126.596L125.899 121.857L125.642 131.976L107.227 131.682C100.562 134.953 97.1551 136.044 97.0071 134.956C96.8823 134.038 97.5221 133.507 98.1113 133.018C98.5704 132.637 98.9988 132.282 99.0113 131.789C99.0399 130.663 96.0315 129.479 93.1285 128.477C90.2255 127.475 91.587 126.581 92.5325 126.257C96.1456 125.784 100.34 125.897 105.114 126.596Z" fill="#B28B67"/>
<path fill-rule="evenodd" clip-rule="evenodd" d="M163.909 101.33C148.379 113.604 130.643 120.487 107.116 125.435L110.593 136.064C133.921 137.308 146.478 137.401 158.249 124.547C161.203 121.32 167.368 109.626 170.915 103.605L163.909 101.33Z" fill="#C01818"/>
<path fill-rule="evenodd" clip-rule="evenodd" d="M164.753 165.008L126.716 148.526C126.716 148.526 156.757 114.734 163.416 100.175C163.643 99.6804 164.947 99.2008 165.305 99.4927C169.231 102.695 175.292 102.698 175.292 102.698C178.012 121.099 173.376 140.295 164.753 165.008Z" fill="#FDCBCB"/>
<path fill-rule="evenodd" clip-rule="evenodd" d="M156.145 120.682C139.14 143.574 130.356 164.538 143.469 170.219L163.747 179.006C176.369 158.768 180.94 125.104 179.667 106.574C179.619 105.867 179.454 104.501 177.951 103.85L172.059 101.297C172.053 101.303 172.047 101.31 172.042 101.316C170.259 100.56 168.273 99.7772 166.122 98.9289C155.076 94.5718 139.673 88.4966 124.97 75.6112L118.584 84.7991C129.7 101.399 141.983 115.848 156.145 120.682Z" fill="#E62626"/>
</g>
</g>
<defs>
<clipPath id="clip0">
<path d="M0 0H230V175H0V0Z" fill="white"/>
</clipPath>
</defs>
</svg>
