<svg width="768" height="628" viewBox="0 0 768 628" fill="none" xmlns="http://www.w3.org/2000/svg">
<g clip-path="url(#clip0)">
<path fill-rule="evenodd" clip-rule="evenodd" d="M160.337 46.6067C220.678 15.8872 289.83 67.6678 357.498 65.7866C426.174 63.8773 492.798 9.44139 556.302 35.5987C622.926 63.0409 662.726 133.369 686.6 201.343C710.56 269.565 715.68 345.805 688.848 412.99C663.157 477.316 604.036 519.619 545.005 555.884C490.907 589.117 430.86 611.986 367.408 610.459C305.824 608.976 243.384 589.704 198.51 547.544C156.7 508.261 158.116 444.625 135.012 392.113C108.869 332.697 49.6817 284.838 54.4286 220.078C59.5037 150.84 98.4421 78.1172 160.337 46.6067Z" fill="#E6E9F0"/>
<path d="M143 155.605H622V469.002C622 486.675 607.673 501.002 590 501.002H175C157.327 501.002 143 486.675 143 469.002V155.605Z" fill="#F5F6FA"/>
<path fill-rule="evenodd" clip-rule="evenodd" d="M618 159.605H147V469.002C147 484.466 159.536 497.002 175 497.002H590C605.464 497.002 618 484.466 618 469.002V159.605ZM143 155.605V469.002C143 486.675 157.327 501.002 175 501.002H590C607.673 501.002 622 486.675 622 469.002V155.605H143Z" fill="#ABB2C3"/>
<path opacity="0.55" d="M331.386 473.674H185.079C181.726 473.674 178.678 470.52 178.678 466.316V389.938C178.678 386.084 181.422 382.58 185.079 382.58H331.691C335.044 382.58 338.092 385.733 338.092 389.938V466.316C337.787 470.17 335.044 473.674 331.386 473.674Z" fill="#DBE0FE"/>
<path opacity="0.55" d="M459.942 201.004H182.214C180.383 201.004 178.552 199.476 178.552 197.338V190.31C178.552 188.477 180.078 186.644 182.214 186.644H460.247C462.078 186.644 463.909 188.172 463.909 190.31V197.338C463.604 199.476 462.078 201.004 459.942 201.004Z" fill="#DBE0FE"/>
<path opacity="0.55" d="M459.942 230.335H182.214C180.383 230.335 178.552 228.808 178.552 226.669V219.642C178.552 217.809 180.078 215.975 182.214 215.975H460.247C462.078 215.975 463.909 217.503 463.909 219.642V226.669C463.604 228.808 462.078 230.335 459.942 230.335Z" fill="#DBE0FE"/>
<path opacity="0.55" d="M459.942 259.667H182.214C180.383 259.667 178.552 258.139 178.552 256V248.973C178.552 247.14 180.078 245.307 182.214 245.307H460.247C462.078 245.307 463.909 246.834 463.909 248.973V256C463.604 258.139 462.078 259.667 459.942 259.667Z" fill="#DBE0FE"/>
<path opacity="0.55" d="M459.942 288.998H182.214C180.383 288.998 178.552 287.471 178.552 285.332V278.304C178.552 276.471 180.078 274.638 182.214 274.638H460.247C462.078 274.638 463.909 276.166 463.909 278.304V285.637C463.604 287.471 462.078 288.998 459.942 288.998Z" fill="#DBE0FE"/>
<path opacity="0.55" d="M459.942 318.33H182.214C180.383 318.33 178.552 316.802 178.552 314.663V307.636C178.552 305.803 180.078 303.969 182.214 303.969H460.247C462.078 303.969 463.909 305.497 463.909 307.636V314.663C463.604 316.802 462.078 318.33 459.942 318.33Z" fill="#DBE0FE"/>
<path opacity="0.55" d="M459.942 347.661H182.214C180.383 347.661 178.552 346.133 178.552 343.995V336.967C178.552 335.134 180.078 333.301 182.214 333.301H460.247C462.078 333.301 463.909 334.828 463.909 336.967V343.995C463.604 346.133 462.078 347.661 459.942 347.661Z" fill="#DBE0FE"/>
<path d="M551.195 147.23C551.195 149.674 549.364 151.507 546.922 151.507C544.481 151.507 542.65 149.674 542.65 147.23C542.65 144.786 544.481 142.952 546.922 142.952C549.059 142.647 551.195 144.786 551.195 147.23Z" fill="white"/>
<path d="M573.169 147.23C573.169 149.674 571.338 151.507 568.897 151.507C566.455 151.507 564.624 149.674 564.624 147.23C564.624 144.786 566.455 142.952 568.897 142.952C571.033 142.647 573.169 144.786 573.169 147.23Z" fill="white"/>
<path d="M595.143 147.23C595.143 149.674 593.312 151.507 590.871 151.507C588.429 151.507 586.598 149.674 586.598 147.23C586.598 144.786 588.429 142.952 590.871 142.952C593.007 142.647 595.143 144.786 595.143 147.23Z" fill="white"/>
<path d="M143 150C143 136.745 153.745 126 167 126H598C611.255 126 622 136.745 622 150V167.751H143V150Z" fill="#E62626"/>
<path d="M595.431 147.255C595.431 151.448 592.032 154.846 587.84 154.846C583.647 154.846 580.249 151.448 580.249 147.255C580.249 143.063 583.647 139.664 587.84 139.664C592.032 139.664 595.431 143.063 595.431 147.255Z" fill="white"/>
<path d="M562.03 147.255C562.03 151.448 558.631 154.846 554.439 154.846C550.247 154.846 546.848 151.448 546.848 147.255C546.848 143.063 550.247 139.664 554.439 139.664C558.631 139.664 562.03 143.063 562.03 147.255Z" fill="white"/>
<path d="M524.834 147.255C524.834 151.448 521.435 154.846 517.242 154.846C513.05 154.846 509.651 151.448 509.651 147.255C509.651 143.063 513.05 139.664 517.242 139.664C521.435 139.664 524.834 143.063 524.834 147.255Z" fill="white"/>
<path d="M382.04 425.91C372.903 423.626 344.903 414.201 320.145 386.211C297.745 360.507 290.082 301.672 288.018 267.685C300.987 266.828 319.261 264.829 336.945 259.117C357.282 252.548 372.314 243.123 382.04 235.697C391.767 243.123 406.798 252.834 427.135 259.117C444.819 264.829 463.093 267.114 476.062 267.685C474.293 301.672 466.63 360.507 443.935 386.211C419.177 414.201 390.882 423.626 382.04 425.91Z" fill="#E62626"/>
<path fill-rule="evenodd" clip-rule="evenodd" d="M382.002 413.445C372.054 410.412 349.463 401.227 329.164 378.296C320.054 367.821 313.055 349.227 308.164 327.427C304.423 310.751 302.157 293.353 300.864 278.621C312.648 277.35 326.733 275.026 340.633 270.536C357.987 264.931 371.781 257.384 382.019 250.478C392.211 257.424 406.049 265.152 423.52 270.56C437.341 275.017 451.383 277.5 463.292 278.752C462.088 293.438 459.869 310.791 456.137 327.427C451.249 349.218 444.177 367.804 434.943 378.265C414.697 401.152 391.913 410.374 382.002 413.445ZM443.935 386.211C419.177 414.201 390.882 423.626 382.04 425.91C372.903 423.626 344.903 414.201 320.145 386.211C300.195 363.318 291.934 314.145 288.908 279.652C288.686 277.119 288.492 274.664 288.324 272.305C288.211 270.721 288.109 269.179 288.018 267.685C300.987 266.828 319.261 264.829 336.945 259.117C357.282 252.548 372.314 243.123 382.04 235.697C391.767 243.123 406.798 252.834 427.135 259.117C443.586 264.431 460.546 266.778 473.272 267.54C474.226 267.597 475.157 267.645 476.062 267.685C476.062 267.685 476.062 267.686 476.062 267.686C475.868 271.406 475.604 275.423 475.257 279.661C472.436 314.154 464.146 363.32 443.935 386.211Z" fill="#C01818"/>
<path d="M388.997 344.925H374.7L371.712 287.679H391.985L388.997 344.925ZM371.477 364.964C371.477 361.683 372.356 359.202 374.114 357.522C375.872 355.843 378.43 355.003 381.79 355.003C385.032 355.003 387.532 355.862 389.29 357.581C391.087 359.3 391.985 361.761 391.985 364.964C391.985 368.05 391.087 370.491 389.29 372.288C387.493 374.046 384.993 374.925 381.79 374.925C378.509 374.925 375.969 374.065 374.173 372.347C372.376 370.589 371.477 368.128 371.477 364.964Z" fill="white"/>
<path fill-rule="evenodd" clip-rule="evenodd" d="M156.457 229.391C153.945 224.107 152.877 218.17 154.874 212.374C160.628 195.672 183.318 205.767 185.625 215.593C187.932 225.419 181.547 247.064 175.179 247.003C172.64 246.979 167.981 244.122 163.663 239.638L160.769 263.376L141.681 258.26L156.457 229.391Z" fill="#D4A181"/>
<path fill-rule="evenodd" clip-rule="evenodd" d="M163.385 229.965C159.801 233.874 155.611 236.419 152.34 235.542C146.129 233.877 143.937 224.388 146.329 215.458C146.413 215.144 146.503 214.834 146.598 214.528C138.819 217.276 131.373 224.808 122.679 222.478C110.85 219.308 112.545 194.188 129.071 198.617C140.31 201.629 145.4 204.75 149.515 208.45C151.165 206.052 153.195 204.209 155.363 203.123C155.912 202.761 156.68 202.48 157.626 202.283C158.211 202.141 158.799 202.055 159.387 202.029C162.543 201.743 166.905 202.114 171.597 203.197C172.474 203.4 173.329 203.619 174.157 203.853C175.345 199.476 179.85 196.881 184.234 198.056C188.627 199.234 191.233 203.749 190.057 208.141C188.919 212.39 184.659 214.967 180.407 214.068C177.811 214.165 174.584 213.883 171.106 213.196C171.103 214.533 170.904 215.998 170.475 217.6C170.096 219.014 169.538 220.472 168.843 221.918C168.338 220.839 167.501 219.998 166.495 219.729C163.682 218.975 161.103 220.764 160.445 223.222C159.609 226.341 160.805 229.08 163.385 229.965Z" fill="#191847"/>
<path fill-rule="evenodd" clip-rule="evenodd" d="M117.335 331.056L147.494 434.998L161.68 513.039H175.918L161.705 331.056H117.335Z" fill="#BA8B72"/>
<path fill-rule="evenodd" clip-rule="evenodd" d="M103.781 331.056C105.885 385.053 105.055 414.505 104.584 419.411C104.113 424.316 101.439 457.173 83.2185 514.686H98.0273C122.158 459.512 130.581 426.656 133.349 419.411C136.116 412.166 144.29 382.714 156.224 331.056H103.781Z" fill="#D4A181"/>
<path fill-rule="evenodd" clip-rule="evenodd" d="M116.687 331.056C124.532 366.822 138.101 423.915 157.393 502.334H178.217C179.755 421.845 173.212 368.869 161.881 331.056H116.687Z" fill="#5A6175"/>
<path fill-rule="evenodd" clip-rule="evenodd" d="M103.675 331.056C105.736 385.053 100.395 438.251 83.8499 503.175H106.069C130.243 448.824 147.57 395.889 159.412 331.056H103.675Z" fill="#4A4F5D"/>
<path fill-rule="evenodd" clip-rule="evenodd" d="M81.1078 525.391L81.9249 512.215C86.7089 513.615 92.701 513.066 99.9011 510.569C107.643 516.053 117.389 519.798 129.139 521.804L129.139 521.804C130.036 521.957 130.638 522.808 130.485 523.704C130.475 523.762 130.462 523.82 130.446 523.877L129.317 527.861H99.9011H82.742L81.1078 525.391Z" fill="#191847"/>
<path fill-rule="evenodd" clip-rule="evenodd" d="M158.502 525.391L159.319 512.215C164.103 513.615 170.095 513.066 177.295 510.569C185.037 516.053 194.783 519.798 206.533 521.804L206.533 521.804C207.429 521.957 208.032 522.808 207.879 523.704C207.869 523.762 207.856 523.82 207.84 523.877L206.71 527.861H177.295H160.136L158.502 525.391Z" fill="#191847"/>
<path fill-rule="evenodd" clip-rule="evenodd" d="M176.245 284.763L207.107 274.311C212.767 269.578 218.139 266.075 223.224 263.801C224.714 263.466 227.203 263.543 224.223 267.172C221.243 270.801 218.271 274.752 219.209 276.198C220.146 277.643 223.336 276.418 224.352 278.723C225.029 280.261 219.719 281.564 208.423 282.633L184.672 297.753L176.245 284.763ZM218.031 305.544L231.591 300.933C234.489 294.638 237.148 291.682 239.568 292.066C241.573 291.531 236.876 299.302 240.516 299.199C244.157 299.095 253.856 294.229 255.105 295.785C256.953 298.086 253.967 303.625 251.155 306.146C245.899 310.859 242.016 312.102 232.801 313.003C227.983 313.473 222.565 315.164 216.548 318.076L218.031 305.544Z" fill="#D4A181"/>
<path fill-rule="evenodd" clip-rule="evenodd" d="M163.145 278.913C173.021 280.547 186.533 280.783 202.129 274.353L205.472 287.61C194.104 295.506 179.109 300.996 167.273 298.564C157.946 296.648 155.154 284.463 163.145 278.913Z" fill="#F26363"/>
<path fill-rule="evenodd" clip-rule="evenodd" d="M172.945 300.956C182.95 305.412 201.042 305.429 227.222 301.007C231.104 314.727 232.34 324.239 230.929 329.541C207.851 336.854 188.87 338.582 173.891 336.275C172.804 345.214 170.241 353.449 165.263 360.51C155.03 375.025 114.032 352.68 98.8692 352.981C94.9468 321.557 114.825 312.574 118.202 293.505C121.899 272.623 144.334 243.433 146.801 243.868L169.3 247.836C167.729 264.005 170.878 282.686 172.945 300.956Z" fill="#E62626"/>
<g filter="url(#filter0_d)">
<path d="M578.654 228.473L481.86 241.683C478.145 242.189 475.557 245.561 476.063 249.271L490.357 353.826C490.864 357.536 494.24 360.121 497.954 359.616L594.749 346.406C598.463 345.9 601.052 342.527 600.545 338.817L586.251 234.263C585.745 230.609 582.368 227.967 578.654 228.473Z" fill="white"/>
<path d="M482.062 243.169L482.062 243.169C479.16 243.564 477.156 246.188 477.549 249.068C477.549 249.068 477.549 249.068 477.549 249.068L491.843 353.623L491.843 353.623C492.239 356.518 494.864 358.523 497.752 358.129L594.546 344.92L594.547 344.919C597.449 344.524 599.452 341.9 599.059 339.02L584.766 234.469C584.765 234.468 584.765 234.468 584.765 234.467C584.369 231.616 581.733 229.567 578.857 229.959C578.857 229.959 578.857 229.959 578.856 229.959L482.062 243.169Z" stroke="#ABB2C3" stroke-width="3"/>
</g>
<path fill-rule="evenodd" clip-rule="evenodd" d="M550.291 285.548C551.569 295.081 544.876 303.846 535.343 305.124C525.809 306.402 517.044 299.71 515.766 290.176C514.488 280.643 521.181 271.878 530.714 270.6C540.248 269.322 549.013 276.014 550.291 285.548ZM548.111 306.212C544.81 308.931 540.735 310.791 536.184 311.401C523.184 313.144 511.232 304.018 509.489 291.018C507.746 278.017 516.872 266.065 529.873 264.323C542.873 262.58 554.825 271.706 556.568 284.706C557.397 290.892 555.766 296.841 552.426 301.565L569.503 319.099L564.966 323.517L548.111 306.212Z" fill="#E62626"/>
<path fill-rule="evenodd" clip-rule="evenodd" d="M534.22 312.068C534.202 312.068 534.188 312.054 534.188 312.036C534.188 312.018 534.202 312.004 534.22 312.004C534.238 312.004 534.252 312.018 534.252 312.036C534.252 312.054 534.238 312.068 534.22 312.068Z" stroke="#C1272D" stroke-width="0.873311"/>
<path d="M624.519 514.03C627.389 514.592 637.406 511.501 639.094 509.927C639.657 509.421 640.107 507.959 640.557 507.341C640.951 505.373 641.908 506.385 642.865 506.217C645.735 505.598 653.501 503.575 657.159 505.542C657.834 507.06 657.89 508.521 658.341 509.365C659.297 513.187 659.916 517.122 660.31 521.057C660.592 523.474 658.847 525.61 656.484 525.891C656.484 525.891 656.484 525.891 656.427 525.891H656.371C655.583 525.947 654.739 525.891 653.895 525.778C647.704 524.261 635.155 523.867 630.315 521.956C622.212 519.82 617.597 515.548 624.519 514.03Z" fill="#212934"/>
<path d="M528.231 518.583C531.045 519.314 541.287 516.841 543.031 515.379C543.65 514.93 544.157 513.524 544.663 512.906C545.17 510.995 546.07 512.006 547.027 511.894C549.953 511.444 557.832 509.87 561.377 512.063C561.996 513.58 561.884 515.098 562.278 515.941C562.953 519.82 563.403 523.811 563.516 527.746C563.628 530.163 561.771 532.187 559.351 532.355C559.351 532.355 559.351 532.355 559.295 532.355H559.239C558.451 532.411 557.607 532.299 556.819 532.13C550.741 530.219 538.248 529.095 533.521 526.846C525.586 524.204 521.196 519.651 528.231 518.583Z" fill="#212934"/>
<path d="M657.497 505.654C652.601 506.329 640.839 506.498 640.839 506.498C640.839 506.498 640.107 500.764 636.506 489.746C632.848 478.56 614.446 443.484 614.446 443.484C610.675 437.75 606.736 425.89 606.736 425.89L601.221 380.47C601.221 380.47 572.126 425.833 572.52 436.12C572.914 446.407 565.711 486.655 565.711 486.655C564.979 492.669 561.377 512.569 561.377 512.569C555.975 511.894 550.516 511.782 545.057 512.119C545.789 503.856 548.772 469.96 548.772 469.96C548.772 469.96 550.629 443.653 551.023 427.632C551.417 411.612 562.841 377.828 570.55 362.37C571.563 359.728 572.408 357.086 573.083 354.332L641.12 362.932C639.601 367.26 638.363 371.645 637.462 376.142C633.467 396.21 630.653 429.937 630.653 429.937C641.289 441.966 647.986 464.62 647.986 464.62C652.319 478.223 657.497 505.654 657.497 505.654Z" fill="#5A6175"/>
<path d="M581.862 227.292C592.329 225.325 603.078 229.035 603.078 229.035L604.878 229.597L616.021 243.875L605.723 241.121C602.965 240.165 597.563 238.703 595.087 238.872C593.229 238.76 588.84 239.659 586.758 237.973C585.182 237.242 584.901 235.949 581.693 232.801C579.386 230.272 580.061 229.541 579.16 229.204C577.979 228.698 578.992 227.517 581.862 227.292Z" fill="#FBD89D"/>
<path d="M544.889 354.107C545.001 353.545 547.027 353.882 547.365 353.376C549.56 350.284 552.148 346.349 557.663 344.494C559.239 343.989 560.871 343.651 562.503 343.483L566.217 349.947C565.767 351.071 565.148 352.139 564.473 353.095C562.222 356.13 557.494 360.234 548.828 359.11C546.802 358.885 544.607 356.187 544.889 354.107Z" fill="#FBD89D"/>
<path d="M622.268 210.372C623.506 210.372 649.618 230.496 649.843 232.745C649.899 233.925 649.956 239.041 650.856 242.413C651.7 245.561 654.233 250.058 654.233 250.058C654.233 250.058 651.982 254.274 646.129 255.117C640.501 255.904 632.96 254.049 632.96 254.049C632.96 254.049 634.705 242.919 632.566 241.683C630.709 240.615 630.146 241.739 623.731 236.342C617.316 230.946 619.398 217.343 619.567 216.443C619.735 215.544 621.03 210.372 622.268 210.372Z" fill="#FBD89D"/>
<path d="M592.442 304.528C600.939 296.827 606.342 272.824 609.043 266.809C611.744 260.795 616.078 259.108 617.766 258.434C618.61 258.097 623.281 256.804 626.77 255.792L601.446 239.884C598.013 233.419 604.766 229.541 604.766 229.541L633.579 243.819V253.543L642.921 252.026L654.064 249.833C657.497 249.046 660.986 248.484 664.475 248.203C665.938 248.091 667.401 248.259 668.808 248.765L669.54 249.046C671.284 249.665 672.747 250.901 673.591 252.588C675.392 256.523 676.63 260.739 677.193 265.011C678.262 271.925 672.916 287.608 667.457 299.019C665.094 303.853 655.865 328.699 653.557 334.938C642.302 361.021 641.514 363.044 641.514 363.044C606.961 362.707 573.308 355.006 573.308 355.006C571.732 352.139 577.416 343.82 577.416 343.82L566.949 352.477C562.39 353.938 558.62 343.764 558.62 343.764C558.62 343.764 585.295 310.992 592.442 304.528Z" fill="#E62626"/>
<path d="M654.739 211.553C654.176 210.541 652.938 208.236 652.207 207.393C650.969 206.1 649.618 204.864 648.211 203.683C646.917 202.896 643.709 201.266 642.471 200.592C638.081 199.243 632.229 200.592 627.952 200.816C624.069 200.535 621.199 205.37 619.679 208.574C618.16 211.778 621.086 211.384 620.805 213.858C620.748 214.307 622.043 214.982 623.168 215.6C624.294 216.219 627.502 221.334 628.627 223.751C629.809 217.849 633.748 228.36 633.017 229.653C634.592 230.665 636.506 234.937 639.319 236.286C641.289 235.443 644.947 232.183 649.843 233.082C650.181 232.183 655.02 228.585 655.527 222.514C655.921 220.716 656.315 214.251 654.739 211.553Z" fill="#212934"/>
<path opacity="0.07" d="M639.826 238.085C639.826 238.085 635.436 242.02 632.791 241.907L633.467 245.224L633.298 250.002C633.298 250.002 634.986 247.304 637.125 244.549C638.475 242.638 639.432 240.446 639.826 238.085Z" fill="black"/>
<path opacity="0.07" d="M623.9 286.371C623.9 286.371 618.385 302.954 601.39 320.211C584.394 337.468 580.286 341.066 580.286 341.066C580.286 341.066 576.797 345.45 577.923 348.373C579.048 351.296 586.476 341.515 603.134 333.927C612.645 329.598 615.909 322.122 620.298 311.667C625.813 298.457 627.051 295.646 627.783 290.924C629.64 278.558 623.9 286.371 623.9 286.371Z" fill="black"/>
<path opacity="0.07" d="M601.277 380.414C601.277 380.414 609.324 397.784 611.632 406.272C613.995 415.041 613.995 427.801 621.086 433.984C629.133 441.011 638.588 464.62 640.783 469.623C643.878 476.762 650.237 516.11 648.38 518.864C646.579 521.563 639.319 517.515 639.319 517.515C639.319 517.515 641.964 507.51 639.713 498.459C637.462 489.409 626.882 465.238 620.242 453.265C614.22 442.528 608.086 430.105 606.736 422.91C605.385 415.715 601.277 380.414 601.277 380.414Z" fill="black"/>
</g>
<defs>
<filter id="filter0_d" x="472" y="226.411" width="132.609" height="139.268" filterUnits="userSpaceOnUse" color-interpolation-filters="sRGB">
<feFlood flood-opacity="0" result="BackgroundImageFix"/>
<feColorMatrix in="SourceAlpha" type="matrix" values="0 0 0 0 0 0 0 0 0 0 0 0 0 0 0 0 0 0 127 0"/>
<feOffset dy="2"/>
<feGaussianBlur stdDeviation="2"/>
<feColorMatrix type="matrix" values="0 0 0 0 0.000972211 0 0 0 0 0.131094 0 0 0 0 0.465694 0 0 0 0.2 0"/>
<feBlend mode="normal" in2="BackgroundImageFix" result="effect1_dropShadow"/>
<feBlend mode="normal" in="SourceGraphic" in2="effect1_dropShadow" result="shape"/>
</filter>
<clipPath id="clip0">
<rect width="768" height="628" fill="white"/>
</clipPath>
</defs>
</svg>
