<svg width="260" height="235" viewBox="0 0 260 235" fill="none" xmlns="http://www.w3.org/2000/svg">
<g clip-path="url(#clip0)">
<ellipse cx="126.604" cy="124.27" rx="92.6493" ry="92.3559" fill="#E7EFFE"/>
<path fill-rule="evenodd" clip-rule="evenodd" d="M122.073 103.21C122.073 103.21 116.797 111.753 115.863 127.141C115.863 127.141 119.655 126.758 119.655 126.21C119.6 125.663 122.073 103.21 122.073 103.21Z" fill="#44215F"/>
<path fill-rule="evenodd" clip-rule="evenodd" d="M190.663 220.947C189.784 221.276 188.85 220.837 188.465 220.016L158.677 147.348C158.347 146.526 158.786 145.595 159.611 145.267C160.49 144.938 161.425 145.376 161.809 146.198L191.598 218.866C191.927 219.688 191.488 220.618 190.663 220.947Z" fill="#B094E8"/>
<path fill-rule="evenodd" clip-rule="evenodd" d="M86.2396 216.84L78.5452 216.293L81.1283 207.476L88.4929 207.969L86.2396 216.84Z" fill="#F68895"/>
<path fill-rule="evenodd" clip-rule="evenodd" d="M120.919 216.785L112.675 216.183L113.664 207.75L121.963 208.297L120.919 216.785Z" fill="#F68895"/>
<path fill-rule="evenodd" clip-rule="evenodd" d="M67.8831 222.097C67.8831 222.426 67.993 222.7 68.2128 222.919C68.4327 223.138 70.9608 223.466 71.2906 223.466C74.4233 223.302 80.4139 222.645 84.5909 222.426C85.2504 222.371 85.855 222.097 86.3496 221.659C86.8442 221.166 87.1191 220.564 87.1191 219.962C87.174 217.662 87.229 214.431 87.229 214.431L79.3147 213.664C79.3147 213.664 72.8295 217.99 69.5868 219.523C68.1579 220.126 67.993 220.673 67.8831 222.097Z" fill="#292A61"/>
<path fill-rule="evenodd" clip-rule="evenodd" d="M99.9242 222.152C99.3196 221.933 99.0448 221.221 99.2647 220.619L121.908 164.817C122.128 164.215 122.842 163.941 123.447 164.16C124.052 164.379 124.326 165.091 124.107 165.693L101.463 221.495C101.188 222.097 100.529 222.371 99.9242 222.152Z" fill="#B094E8"/>
<path fill-rule="evenodd" clip-rule="evenodd" d="M101.298 222.918C100.419 223.247 99.4298 222.754 99.0451 221.768L64.9699 138.093C64.5852 137.162 64.9699 136.122 65.8493 135.793C66.7286 135.464 67.7179 135.957 68.1026 136.943L102.178 220.618C102.563 221.549 102.178 222.59 101.298 222.918Z" fill="#B094E8"/>
<path fill-rule="evenodd" clip-rule="evenodd" d="M154.719 167.938H110.147C107.344 167.938 105.091 165.693 105.091 162.9V162.627C105.091 159.834 107.344 157.589 110.147 157.589H154.719C157.522 157.589 159.776 159.834 159.776 162.627V162.9C159.776 165.693 157.522 167.938 154.719 167.938Z" fill="#B094E8"/>
<path fill-rule="evenodd" clip-rule="evenodd" d="M124.161 135.41C124.161 135.41 119.325 149.319 119.654 152.058C120.259 157.15 123.062 160.765 123.062 160.765L146.914 160.6C153.73 160.546 158.841 154.412 157.687 147.731C157.687 147.677 157.687 147.677 157.687 147.622C157.577 146.965 157.467 146.362 157.412 145.705C157.027 142.693 155.763 133.658 155.763 133.658C148.343 138.422 134.933 140.393 123.172 137.272L124.161 135.41Z" fill="#3221CF"/>
<path fill-rule="evenodd" clip-rule="evenodd" d="M104.541 136.341L113.335 128.674L119.985 120.405L123.942 129.66C120.04 135.519 114.599 140.174 106.025 142.529L104.981 139.408L104.541 136.341Z" fill="#44215F"/>
<path fill-rule="evenodd" clip-rule="evenodd" d="M133.065 190.445H114.269C113.774 190.445 113.334 190.007 113.334 189.514C113.334 189.021 113.774 188.583 114.269 188.583H133.065C133.559 188.583 133.999 189.021 133.999 189.514C133.999 190.007 133.559 190.445 133.065 190.445Z" fill="#B094E8"/>
<path fill-rule="evenodd" clip-rule="evenodd" d="M129.603 219.03C128.998 218.811 128.723 218.099 128.943 217.497L150.323 164.762C150.542 164.159 151.257 163.886 151.861 164.105C152.466 164.324 152.741 165.036 152.521 165.638L131.142 218.373C130.867 218.975 130.207 219.304 129.603 219.03Z" fill="#B094E8"/>
<path fill-rule="evenodd" clip-rule="evenodd" d="M174.504 219.03C175.109 218.811 175.384 218.099 175.164 217.497L153.785 164.762C153.565 164.159 152.85 163.886 152.246 164.105C151.641 164.324 151.366 165.036 151.586 165.638L172.966 218.373C173.185 218.975 173.9 219.304 174.504 219.03Z" fill="#B094E8"/>
<path fill-rule="evenodd" clip-rule="evenodd" d="M79.4243 210.104C79.4243 208.79 87.0638 179.767 91.4056 167.555C92.6147 164.16 95.0879 161.421 98.2756 159.833L123.887 147.129L140.65 161.312L105.42 175.824C104.046 185.024 97.5061 198.385 90.0866 210.981L79.4243 210.104Z" fill="url(#paint0_linear)"/>
<path opacity="0.34" fill-rule="evenodd" clip-rule="evenodd" d="M85.7446 210.652C86.7889 202.219 93.3841 194.662 96.3519 190.445C100.144 185.078 97.8358 176.207 99.4297 171.771C99.8693 170.512 101.133 168.869 102.672 167.226C106.135 163.612 110.587 161.038 115.423 159.614C121.963 157.698 125.81 154.96 129.878 152.276L140.595 161.367L105.365 175.878C103.991 185.078 97.4511 198.44 90.0315 211.035L85.7446 210.652Z" fill="#292A61"/>
<path fill-rule="evenodd" clip-rule="evenodd" d="M14.6268 220.783C13.7474 220.454 13.3627 219.523 13.6924 218.702L44.1952 146.308C44.525 145.486 45.5143 145.103 46.3936 145.431C47.273 145.76 47.6577 146.691 47.3279 147.512L16.8252 219.907C16.4954 220.728 15.5061 221.111 14.6268 220.783Z" fill="#B094E8"/>
<path fill-rule="evenodd" clip-rule="evenodd" d="M146.091 219.03C146.695 218.811 146.97 218.099 146.75 217.497L125.371 164.762C125.151 164.159 124.436 163.886 123.832 164.105C123.227 164.324 122.953 165.036 123.172 165.638L144.552 218.373C144.772 218.975 145.486 219.304 146.091 219.03Z" fill="#B094E8"/>
<path fill-rule="evenodd" clip-rule="evenodd" d="M102.067 223.466C102.067 223.795 102.177 224.069 102.397 224.288C102.617 224.507 105.145 224.835 105.475 224.835C108.608 224.671 114.598 224.014 118.775 223.795C119.435 223.74 120.039 223.466 120.534 223.028C121.029 222.535 121.303 221.933 121.303 221.33C121.358 219.03 121.413 215.8 121.413 215.8L112.675 215.635C112.675 215.635 107.069 219.359 103.826 220.892C102.287 221.495 102.122 222.042 102.067 223.466Z" fill="#292A61"/>
<path fill-rule="evenodd" clip-rule="evenodd" d="M128.283 72.7082C128.283 72.7082 121.523 75.7748 126.799 82.0724C132.13 88.3699 128.283 72.7082 128.283 72.7082Z" fill="#292A61"/>
<path fill-rule="evenodd" clip-rule="evenodd" d="M149.663 99.7606C149.663 99.7606 149.608 96.5844 146.475 95.0511C144.991 94.2845 142.573 93.8464 139.44 94.4487C132.076 95.763 128.448 98.7749 128.448 98.7749L128.778 104.58L136.637 108.303L152.081 96.8035L149.663 99.7606Z" fill="#D18A17"/>
<path fill-rule="evenodd" clip-rule="evenodd" d="M127.074 78.0749C127.184 75.8297 128.174 73.694 129.877 72.2154C131.581 70.7369 133.834 70.025 136.088 70.244C140.43 70.6821 143.727 74.4059 143.562 78.7868C143.452 81.3058 143.343 84.0439 143.233 86.4534C143.178 88.0414 142.463 89.5748 141.199 90.6152C139.99 91.6557 138.396 92.2033 136.747 92.039C135.263 91.8747 133.67 91.7104 132.186 91.6009C128.998 91.2724 126.58 88.5343 126.69 85.3581C126.855 83.1129 126.964 80.5391 127.074 78.0749Z" fill="#F68895"/>
<path fill-rule="evenodd" clip-rule="evenodd" d="M146.64 99.0486L141.694 86.2892L132.735 90.2867L135.263 102.553L146.64 99.0486Z" fill="#F68895"/>
<path fill-rule="evenodd" clip-rule="evenodd" d="M138.781 77.089C138.781 77.089 137.736 84.5913 143.617 84.7556C143.617 84.7556 146.64 78.02 146.97 74.5152C147.629 68.0534 134.659 66.7939 129.382 69.532C124.161 72.3248 127.404 77.2533 138.781 77.089Z" fill="#292A61"/>
<path fill-rule="evenodd" clip-rule="evenodd" d="M134.055 96.7486C137.022 101.184 144.112 97.1867 145.266 95.5987C145.431 95.3249 148.564 97.1867 149.004 97.4605C155.269 101.732 156.039 120.186 157.193 126.813C157.687 129.879 160.6 140.284 159.061 142.967C158.567 143.843 153.675 143.186 152.741 143.351C148.674 144.062 130.427 145.486 127.899 142.693C125.426 139.955 127.295 134.808 126.8 131.522C124.272 114.327 129.108 99.432 129.108 99.432L134.055 96.7486Z" fill="white"/>
<path fill-rule="evenodd" clip-rule="evenodd" d="M127.35 121.008C130.867 130.427 157.248 120.296 154.28 115.805C150.103 109.508 156.094 120.132 157.248 126.812C157.742 129.879 160.655 140.284 159.116 142.967C158.622 143.843 156.533 151.072 155.544 151.126C142.628 151.565 122.788 152.331 121.909 148.662C120.645 143.569 126.415 134.808 126.855 131.522C127.899 122.979 127.35 121.008 127.35 121.008Z" fill="#E8E8E8"/>
<path fill-rule="evenodd" clip-rule="evenodd" d="M143.508 81.634C142.409 81.3602 141.31 82.2364 140.925 83.6054C140.595 84.9745 141.145 86.2887 142.244 86.5625C143.343 86.8363 144.442 85.9602 144.827 84.5911C145.157 83.2221 144.607 81.9078 143.508 81.634Z" fill="#F68895"/>
<path fill-rule="evenodd" clip-rule="evenodd" d="M126.745 85.3034C126.36 84.6462 124.767 95.3794 131.252 95.927C137.737 96.4746 140.485 93.8461 140.925 81.4701C140.925 81.4701 138.342 88.9724 134.549 89.0819C126.58 89.3557 127.185 86.1248 126.745 85.3034Z" fill="#292A61"/>
<path fill-rule="evenodd" clip-rule="evenodd" d="M151.917 159.341L149.224 155.179L130.922 153.865L117.402 160.272C113.335 162.189 110.752 166.296 110.806 170.786L110.861 182.067L110.147 213.226L122.183 212.898C125.975 197.893 127.459 185.134 126.305 173.524L151.917 159.341Z" fill="url(#paint1_linear)"/>
<path opacity="0.34" fill-rule="evenodd" clip-rule="evenodd" d="M157.742 147.677C157.742 147.622 157.742 147.622 157.742 147.567C157.632 146.91 157.522 146.307 157.467 145.65C157.082 142.638 155.818 133.603 155.818 133.603C148.399 138.367 149.278 146.034 149.608 148.772C150.212 153.865 145.101 155.781 145.101 155.781L145.211 156.055L132.295 164.817C128.228 166.733 122.183 165.912 122.238 170.402L121.248 179.055L117.786 212.952L122.238 212.842C126.03 197.838 127.514 185.078 126.36 173.469L152.026 159.286C156.038 157.205 158.566 152.605 157.742 147.677Z" fill="#292A61"/>
<path fill-rule="evenodd" clip-rule="evenodd" d="M162.469 190.445H142.299C141.804 190.445 141.364 190.007 141.364 189.514C141.364 189.021 141.804 188.583 142.299 188.583H162.469C162.964 188.583 163.403 189.021 163.403 189.514C163.348 190.007 162.964 190.445 162.469 190.445Z" fill="#B094E8"/>
<path fill-rule="evenodd" clip-rule="evenodd" d="M131.087 96.7835C131.087 96.7835 127.844 113.267 127.734 123.343C127.679 133.474 123.118 154.064 123.118 154.064C121.469 151.052 115.698 151.928 115.203 149.19C115.203 149.19 120.26 115.95 121.194 107.243C122.018 98.7001 125.261 99.0835 131.087 96.7835Z" fill="#44215F"/>
<path fill-rule="evenodd" clip-rule="evenodd" d="M134.549 76.8703C134.549 76.8703 120.149 75.7203 123.502 69.368C126.58 63.5085 136.692 75.8846 138.781 73.6394L134.549 76.8703Z" fill="#292A61"/>
<path fill-rule="evenodd" clip-rule="evenodd" d="M121.139 138.586C121.139 138.586 118.116 136.505 116.193 137.546C115.258 138.039 113.719 138.039 112.345 138.805C110.861 139.627 109.213 141.927 109.213 141.927C109.213 141.927 109.213 144.063 111.136 144.446C111.796 144.555 113.829 142.748 113.829 142.748C115.643 143.405 117.896 143.405 120.37 142.803L121.139 138.586Z" fill="#F68895"/>
<path fill-rule="evenodd" clip-rule="evenodd" d="M107.069 138.422C107.069 138.422 104.211 136.122 102.178 136.998C101.244 137.382 99.7047 137.327 98.2757 137.984C96.6819 138.696 94.9231 140.886 94.9231 140.886C94.9231 140.886 94.7583 143.022 96.6269 143.515C97.2864 143.679 99.4848 142.036 99.4848 142.036C101.299 142.803 103.442 142.967 105.97 142.584L107.069 138.422Z" fill="#F68895"/>
<path fill-rule="evenodd" clip-rule="evenodd" d="M121.139 138.586L130.757 137.874L131.142 142.967L119.106 142.31L121.139 138.586Z" fill="#F68895"/>
<path d="M124.766 141.434H93.3843V143.405H124.766V141.434Z" fill="white"/>
<path fill-rule="evenodd" clip-rule="evenodd" d="M163.732 130.407C163.623 125.752 163.238 120.221 162.358 114.581C161.314 107.954 159.995 102.971 157.632 100.233C155.598 97.8235 153.62 97.4402 151.037 96.1807L146.475 94.7569C143.672 107.681 141.748 120.057 142.958 132.871L127.679 135.883L127.734 143.111H144.606H151.312L155.983 141.578L160.435 139.114C162.578 136.814 163.787 133.747 163.732 130.407Z" fill="#44215F"/>
<path fill-rule="evenodd" clip-rule="evenodd" d="M101.408 143.405H65.3545L54.4724 119.255H89.7018C90.1964 119.255 90.6361 119.529 90.8559 120.022L101.408 143.405Z" fill="white"/>
<path fill-rule="evenodd" clip-rule="evenodd" d="M99.9787 143.405H63.9799L53.5924 120.35C53.3726 119.803 53.7573 119.255 54.3069 119.255H88.6019C88.9317 119.255 89.2065 119.419 89.3164 119.748L99.9787 143.405Z" fill="#676767"/>
<path fill-rule="evenodd" clip-rule="evenodd" d="M142.573 127.743C142.573 127.743 142.244 140.612 139.276 146.472C137.957 149.1 131.087 156.055 131.087 156.055C131.087 156.055 157.412 158.629 158.292 148.06C159.171 136.998 161.699 125.17 161.699 125.17L142.573 127.743Z" fill="#44215F"/>
<path fill-rule="evenodd" clip-rule="evenodd" d="M77.8304 131.522C78.2701 133.055 77.1159 134.26 75.1923 134.26C73.3237 134.26 71.4551 133.055 71.0154 131.522C70.5757 129.989 71.7299 128.784 73.6535 128.784C75.5771 128.784 77.4457 129.989 77.8304 131.522Z" fill="white"/>
<path fill-rule="evenodd" clip-rule="evenodd" d="M107.454 228.121C106.574 227.792 106.19 226.807 106.574 225.876L139.935 146.417C140.32 145.486 141.309 145.048 142.189 145.376C143.068 145.705 143.453 146.691 143.068 147.622L109.707 227.08C109.322 228.011 108.278 228.449 107.454 228.121Z" fill="#B094E8"/>
<path d="M207.81 206.928H201.16V217.771H207.81V206.928Z" fill="#F68895"/>
<path d="M197.321 204.654L191.106 205.447L192.489 216.202L198.704 215.409L197.321 204.654Z" fill="#F68895"/>
<path fill-rule="evenodd" clip-rule="evenodd" d="M206.931 123.089L185.552 121.665C180.715 133.275 180.166 149.101 180.166 149.101L179.561 176.919C179.561 178.069 179.726 179.219 180.166 180.315L191.762 210.159L199.017 208.352C197.093 195.374 196.104 185.462 191.597 180.807L196.434 148.608C203.798 147.677 210.998 148.663 212.042 136.451C212.977 126.156 206.931 123.089 206.931 123.089Z" fill="#3D1D57"/>
<path fill-rule="evenodd" clip-rule="evenodd" d="M197.753 208.9L199.017 208.297C197.258 196.414 196.654 187.926 193.026 182.176C192.312 181.081 192.092 179.712 192.257 178.453L196.764 148.553C204.128 147.622 194.4 134.643 194.4 134.643C193.741 140.941 193.411 147.622 191.762 152.55C190.773 155.562 190.169 158.738 190.169 161.915C190.114 166.679 189.729 171.388 188.795 175.988C188.245 178.726 188.52 181.574 189.674 184.093C192.642 190.774 194.455 197.674 197.753 208.9Z" fill="#3F1E59"/>
<path fill-rule="evenodd" clip-rule="evenodd" d="M193.082 125.279L196.764 173.524L200.171 209.612L208.305 210.159C209.789 196.031 211.383 187.652 208.086 177.303L211.493 139.791L201.326 128.346L193.082 125.279Z" fill="#3D1D57"/>
<path fill-rule="evenodd" clip-rule="evenodd" d="M212.702 131.358L206.547 138.97C204.293 147.677 208.306 151.948 204.623 167.062C204.293 171.553 204.568 176.043 205.448 180.424C207.261 189.843 207.096 196.852 206.437 209.995L208.305 210.105C209.789 195.976 210.724 191.595 209.075 176.372L212.702 131.358Z" fill="#3F1E59"/>
<path fill-rule="evenodd" clip-rule="evenodd" d="M200.721 216.95C200.721 216.95 200.776 222.536 200.776 225.931C200.776 226.533 201.05 227.026 201.545 227.355C202.04 227.683 202.644 227.793 203.194 227.574C204.348 227.136 205.722 226.698 206.546 226.424C207.041 226.26 207.481 225.876 207.811 225.438C207.975 225.164 208.195 224.836 208.415 224.507C209.459 222.919 209.734 220.948 209.13 219.141C208.525 217.279 207.865 215.198 207.865 215.198C204.898 213.664 202.589 214.486 200.721 216.95Z" fill="#292A61"/>
<path fill-rule="evenodd" clip-rule="evenodd" d="M192.477 214.102L190.609 219.031C190.609 219.031 188.026 220.728 186.047 221.988C185.662 222.262 185.442 222.7 185.497 223.193C185.552 223.685 185.882 224.069 186.377 224.178C187.476 224.507 188.575 224.835 188.575 224.835C188.575 224.835 194.511 222.864 197.479 221.933C198.413 221.605 199.073 220.728 199.018 219.688C198.908 217.388 198.633 213.5 198.633 213.5C196.489 212.131 194.456 212.186 192.477 214.102Z" fill="#292A61"/>
<path fill-rule="evenodd" clip-rule="evenodd" d="M190.773 56.992C190.773 56.992 180.88 62.0848 185.497 72.8728C190.114 83.606 192.532 75.7751 192.532 75.7751C192.532 75.7751 196.049 61.1538 190.773 56.992Z" fill="#292A61"/>
<path fill-rule="evenodd" clip-rule="evenodd" d="M208.25 62.632C208.25 62.632 209.679 66.4106 214.021 68.9843C217.868 71.2295 218.253 74.5152 218.803 79.5533C219.737 87.6579 227.926 86.0699 226.112 97.1864C224.958 104.032 217.813 108.193 208.415 99.815C199.017 91.4365 184.782 91.0531 185.497 85.1937C186.431 76.9247 201.49 67.0677 201.49 67.0677L208.25 62.632Z" fill="#292A61"/>
<path fill-rule="evenodd" clip-rule="evenodd" d="M191.652 79.3343C191.652 79.3343 197.093 77.1986 201.82 79.4986C206.601 81.8533 202.424 88.808 202.424 88.808L187.805 86.1794C187.75 86.1794 188.684 80.2652 191.652 79.3343Z" fill="#19BFC0"/>
<path fill-rule="evenodd" clip-rule="evenodd" d="M184.343 82.3467L193.576 80.5395L199.237 80.3205L212.042 85.5228L206.217 121.556L184.343 120.461V82.3467Z" fill="#E8E8E8"/>
<path fill-rule="evenodd" clip-rule="evenodd" d="M200.281 122.213L200.556 125.608C200.666 125.608 200.776 125.608 200.83 125.608L200.281 118.27C195.444 119.529 190.058 118.708 184.343 116.682L185.277 120.953C190.608 122.706 195.719 123.417 200.281 122.213Z" fill="#412999"/>
<path d="M211.932 87.9316C209.404 87.0554 207.535 86.0697 206.491 85.084" stroke="white" stroke-width="2.53529" stroke-miterlimit="10" stroke-linecap="round" stroke-linejoin="round"/>
<path d="M210.448 97.1318C208.305 96.639 202.644 93.7366 201.16 92.3676" stroke="white" stroke-width="2.53529" stroke-miterlimit="10" stroke-linecap="round" stroke-linejoin="round"/>
<path fill-rule="evenodd" clip-rule="evenodd" d="M192.422 73.256C192.422 73.256 192.697 78.0203 192.972 81.9631C193.027 83.0035 193.686 83.9345 194.621 84.4273C195.555 84.8654 196.709 84.8107 197.588 84.2083C197.863 83.9893 198.138 83.825 198.413 83.6607C199.622 82.8393 200.227 81.4155 200.007 79.9917C199.402 76.3227 198.303 69.6418 198.303 69.6418L192.422 73.256Z" fill="#F68895"/>
<path fill-rule="evenodd" clip-rule="evenodd" d="M192.532 75.7203C192.532 75.7203 195.775 76.0488 197.313 74.8441C197.313 74.8441 195.5 78.5131 192.697 78.7869L192.532 75.7203Z" fill="#C44627"/>
<path fill-rule="evenodd" clip-rule="evenodd" d="M188.3 93.4081C188.684 87.9867 191.652 79.2797 191.652 79.2797L183.958 82.2916C183.958 82.2916 176.923 83.6606 174.78 101.841L175.879 109.125L182.529 99.4866C182.144 106.879 181.759 114.272 181.595 115.97C181.1 121.117 178.957 130.536 178.957 130.536C183.628 133.822 188.3 133.493 188.3 133.493L189.454 115.751C189.399 115.915 187.805 100.637 188.3 93.4081Z" fill="#44A9F2"/>
<path fill-rule="evenodd" clip-rule="evenodd" d="M218.253 116.682L215.175 88.8084C214.296 84.8655 208.305 82.7846 205.777 82.0727L201.765 79.5537C201.765 79.5537 197.313 93.5726 197.148 103.868C196.983 114.163 195.554 134.315 195.554 134.315C195.554 134.315 208.415 135.848 213.966 132.234L212.592 118.544C212.922 120.351 215.45 118.599 217.758 117.558C218.143 117.339 218.308 117.01 218.253 116.682Z" fill="#44A9F2"/>
<g opacity="0.5">
<g opacity="0.5">
<g opacity="0.5">
<path opacity="0.5" fill-rule="evenodd" clip-rule="evenodd" d="M218.253 116.682L215.175 88.8081C214.46 85.6319 210.448 83.6605 207.59 82.6748C209.294 83.9343 212.262 85.5224 212.702 87.439C217.318 97.1866 212.042 98.9389 214.46 105.291C217.758 113.944 215.779 115.751 214.625 119.091C215.56 118.708 216.714 118.051 217.813 117.558C218.143 117.339 218.308 117.01 218.253 116.682Z" fill="#18A8B8"/>
</g>
</g>
</g>
<path fill-rule="evenodd" clip-rule="evenodd" d="M202.81 64.1657C203.249 62.2491 202.095 60.2777 200.117 59.7848C198.028 59.292 195.39 58.6896 193.356 58.1967C191.433 57.7587 189.729 59.0182 188.96 60.88C188.08 63.0705 187.311 67.8347 187.146 71.3942C187.091 73.3656 188.19 75.5013 190.114 75.9942C192.202 76.487 198.907 75.9942 200.391 72.4347C201.545 69.6419 202.15 67.0133 202.81 64.1657Z" fill="#F68895"/>
<path fill-rule="evenodd" clip-rule="evenodd" d="M210.449 69.7511C210.449 69.7511 208.855 61.3727 205.777 59.0179C201.381 55.568 196.489 52.8846 190.224 57.3751C190.224 57.3751 188.41 69.094 206.712 70.1892L210.449 69.7511Z" fill="#292A61"/>
<path fill-rule="evenodd" clip-rule="evenodd" d="M202.864 71.1204C201.985 72.4894 200.281 72.9823 199.182 72.2704C198.027 71.5037 197.863 69.8061 198.742 68.4371C199.621 67.0681 201.325 66.5752 202.424 67.2871C203.523 67.999 203.743 69.7514 202.864 71.1204Z" fill="#F68895"/>
<path opacity="0.5" fill-rule="evenodd" clip-rule="evenodd" d="M210.778 117.777L208.25 103.648C208.085 102.717 207.426 102.772 207.371 103.703L206.491 134.369C209.404 133.986 212.097 133.438 213.966 132.179L213.086 122.815L210.778 117.777Z" fill="#18A8B8"/>
<path fill-rule="evenodd" clip-rule="evenodd" d="M197.643 136.067C197.643 136.067 195.225 136.998 194.346 138.915C194.016 139.572 193.027 140.229 192.642 140.612C191.323 142.091 195.115 141.543 196.324 139.189C197.808 136.286 197.753 136.341 197.753 136.341L197.643 136.067Z" fill="#F68895"/>
<path fill-rule="evenodd" clip-rule="evenodd" d="M210.779 117.777C206.932 120.242 204.513 131.522 196.874 137.327L199.622 140.448C199.622 140.448 215.066 128.73 217.869 117.449C215.231 118.161 212.812 118.434 210.779 117.777Z" fill="#F68895"/>
<path fill-rule="evenodd" clip-rule="evenodd" d="M199.127 135.301C199.127 135.301 195.72 136.615 195.445 138.751C195.335 139.791 194.456 141.051 194.346 142.584C194.181 144.282 195.17 146.965 195.17 146.965C195.17 146.965 196.929 148.17 198.303 146.801C198.798 146.308 198.468 143.624 198.468 143.624C200.062 142.474 201.271 140.667 202.26 138.313L199.127 135.301Z" fill="#F68895"/>
<path fill-rule="evenodd" clip-rule="evenodd" d="M194.73 140.229L193.191 143.405C193.191 143.405 193.081 146.253 193.576 146.198C194.071 146.143 194.84 143.569 194.84 143.569C194.84 143.569 194.895 140.119 194.785 140.174" fill="#F68895"/>
<path fill-rule="evenodd" clip-rule="evenodd" d="M201.82 79.4989C201.82 79.4989 197.698 92.806 197.478 97.1321C197.259 101.458 197.094 106.222 197.094 106.222L202.865 94.2297L201.93 91.2179L207.646 82.6751L201.82 79.4989Z" fill="#1975B8"/>
<path fill-rule="evenodd" clip-rule="evenodd" d="M191.652 79.334C191.652 79.334 188.794 89.0816 188.575 91.272C188.3 93.4625 188.52 104.196 188.52 104.196L183.024 92.2577L186.321 88.3697L185.222 82.0721C185.112 82.0173 190.498 79.2245 191.652 79.334Z" fill="#1975B8"/>
<path fill-rule="evenodd" clip-rule="evenodd" d="M190.388 118.16L171.591 117.175L166.095 92.2581L184.892 93.2438L190.388 118.16Z" fill="white"/>
<path fill-rule="evenodd" clip-rule="evenodd" d="M170.712 102.116L165.711 102.444C165.106 102.444 164.611 101.951 164.611 101.294C164.611 100.692 165.106 100.199 165.765 100.199L170.767 100.582C171.371 100.582 171.811 100.801 171.811 101.404C171.701 102.061 171.316 102.116 170.712 102.116Z" fill="#F68895"/>
<path fill-rule="evenodd" clip-rule="evenodd" d="M171.646 103.758L166.645 104.087C166.041 104.087 165.546 103.594 165.546 102.937C165.546 102.335 166.041 101.842 166.7 101.842L171.701 102.225C172.306 102.225 172.746 102.444 172.746 103.046C172.691 103.704 172.251 103.758 171.646 103.758Z" fill="#F68895"/>
<path fill-rule="evenodd" clip-rule="evenodd" d="M171.097 105.072L166.096 105.401C165.491 105.401 164.996 104.908 164.996 104.251C164.996 103.649 165.491 103.156 166.15 103.156L171.152 103.539C171.756 103.539 172.196 103.758 172.196 104.361C172.086 104.963 171.701 105.072 171.097 105.072Z" fill="#F68895"/>
<path fill-rule="evenodd" clip-rule="evenodd" d="M170.987 106.387L165.986 106.715C165.381 106.715 164.886 106.222 164.886 105.565C164.886 104.963 165.381 104.47 166.041 104.47L171.042 104.853C171.647 104.853 172.086 105.072 172.086 105.675C172.031 106.277 171.647 106.387 170.987 106.387Z" fill="#F68895"/>
<path fill-rule="evenodd" clip-rule="evenodd" d="M167.909 100.473C167.909 100.473 163.952 99.5417 164.117 100.856C164.282 102.17 163.568 102.17 163.952 103.977C164.337 105.784 163.952 106.989 165.546 107.646C167.14 108.303 169.778 108.961 169.778 108.961L169.228 106.496L167.909 100.473Z" fill="#F68895"/>
<path fill-rule="evenodd" clip-rule="evenodd" d="M163.732 130.755C163.623 126.101 163.238 120.57 162.358 114.929C161.314 108.303 159.995 103.32 157.632 100.582C155.598 98.1723 153.62 97.789 151.037 96.5295L146.475 95.1057C163.952 104.032 158.291 123.143 159.501 135.958C156.698 137.436 155.379 136.998 148.838 138.258C145.321 139.298 141.913 140.831 136.637 141.762C132.68 140.941 130.482 140.667 127.734 141.434V143.405H144.606H151.312L155.983 141.872L160.435 139.408C162.578 137.162 163.787 134.096 163.732 130.755Z" fill="#301744"/>
<path fill-rule="evenodd" clip-rule="evenodd" d="M142.463 133.274C142.463 133.274 150.048 130.646 152.961 130.646C152.961 130.646 144.112 130.427 142.518 130.755L142.463 133.274Z" fill="#301744"/>
<path fill-rule="evenodd" clip-rule="evenodd" d="M167.91 147.184H37.9298C36.8856 147.184 36.0612 146.362 36.0612 145.322C36.0612 144.281 36.8856 143.46 37.9298 143.46H167.91C168.954 143.46 169.779 144.281 169.779 145.322C169.779 146.307 168.954 147.184 167.91 147.184Z" fill="#363780"/>
</g>
<path d="M44.5477 0H105.789C111.053 0 115.29 4.22245 115.29 9.46853V58.6025C115.29 63.8486 111.053 68.071 105.789 68.071H100.397L103.991 97.5002L87.6861 68.071H44.5477C39.2838 68.071 35.0469 63.8486 35.0469 58.6025V9.46853C35.1753 4.22245 39.4122 0 44.5477 0Z" fill="url(#paint2_linear)"/>
<path fill-rule="evenodd" clip-rule="evenodd" d="M85.6844 35.3511C85.011 36.5792 83.7037 37.3913 82.2182 37.3913H67.4618L65.283 41.3527H89.0517V45.3141H65.283C62.2723 45.3141 60.3708 42.0856 61.8167 39.4314L64.4907 34.5984L57.3601 19.5648H53.3987V15.6033H59.8756L61.7375 19.5648H91.0522C92.5575 19.5648 93.5083 21.189 92.7754 22.4962L85.6844 35.3511ZM87.6849 23.5262H63.6192L68.3135 33.4298H82.2181L87.6849 23.5262Z" fill="white"/>
<path d="M65.2829 47.2948C63.1042 47.2948 61.3413 49.0774 61.3413 51.2562C61.3413 53.435 63.1042 55.2177 65.2829 55.2177C67.4617 55.2177 69.2444 53.435 69.2444 51.2562C69.2444 49.0774 67.4617 47.2948 65.2829 47.2948Z" fill="white"/>
<path d="M85.0901 47.2948C82.9113 47.2948 81.1484 49.0774 81.1484 51.2562C81.1484 53.435 82.9113 55.2177 85.0901 55.2177C87.2689 55.2177 89.0515 53.435 89.0515 51.2562C89.0515 49.0774 87.2689 47.2948 85.0901 47.2948Z" fill="white"/>
<defs>
<linearGradient id="paint0_linear" x1="79.4342" y1="179.094" x2="140.643" y2="179.094" gradientUnits="userSpaceOnUse">
<stop stop-color="#723CDE"/>
<stop offset="0.4019" stop-color="#5630D7"/>
<stop offset="0.8575" stop-color="#3221CF"/>
</linearGradient>
<linearGradient id="paint1_linear" x1="110.158" y1="183.539" x2="151.923" y2="183.539" gradientUnits="userSpaceOnUse">
<stop stop-color="#723CDE"/>
<stop offset="0.4019" stop-color="#5630D7"/>
<stop offset="0.8575" stop-color="#3221CF"/>
</linearGradient>
<linearGradient id="paint2_linear" x1="41.9033" y1="105.232" x2="105.303" y2="20.4331" gradientUnits="userSpaceOnUse">
<stop stop-color="#C5205C"/>
<stop offset="0.0634786" stop-color="#D0275F"/>
<stop offset="0.2122" stop-color="#E33465"/>
<stop offset="0.3849" stop-color="#F13D69"/>
<stop offset="0.6013" stop-color="#F9426B"/>
<stop offset="1" stop-color="#FB446C"/>
</linearGradient>
<clipPath id="clip0">
<rect width="246.418" height="210.823" fill="white" transform="translate(13.582 17.4074)"/>
</clipPath>
</defs>
</svg>
