<svg width="223" height="182" viewBox="0 0 223 182" fill="none" xmlns="http://www.w3.org/2000/svg">
<g clip-path="url(#clip0)">
<path fill-rule="evenodd" clip-rule="evenodd" d="M46.5561 6.10032C64.077 -3.45685 84.1564 12.6526 103.805 12.0674C123.746 11.4734 143.091 -5.46223 161.53 2.6756C180.876 11.2132 192.432 33.0931 199.364 54.2405C206.321 75.4652 207.808 99.1841 200.017 120.086C192.557 140.099 175.391 153.26 158.25 164.542C142.542 174.881 125.106 181.996 106.682 181.521C88.8004 181.06 70.67 175.064 57.6403 161.947C45.5001 149.726 45.9114 129.928 39.2025 113.591C31.6116 95.1061 14.4258 80.2167 15.8041 60.0693C17.2777 38.5285 28.5841 15.9036 46.5561 6.10032Z" fill="#E6E9F0"/>
<path d="M41.5222 40.0117H180.607V137.513C180.607 143.011 176.447 147.468 171.315 147.468H50.8138C45.6822 147.468 41.5222 143.011 41.5222 137.513V40.0117Z" fill="#F5F6FA"/>
<path fill-rule="evenodd" clip-rule="evenodd" d="M179.445 41.2562H42.6836V137.513C42.6836 142.324 46.3236 146.224 50.8138 146.224H171.315C175.805 146.224 179.445 142.324 179.445 137.513V41.2562ZM41.5222 40.0117V137.513C41.5222 143.011 45.6822 147.468 50.8138 147.468H171.315C176.447 147.468 180.607 143.011 180.607 137.513V40.0117H41.5222Z" fill="#ABB2C3"/>
<path opacity="0.55" d="M96.2228 138.965H53.7404C52.7669 138.965 51.8818 137.984 51.8818 136.676V112.914C51.8818 111.715 52.6784 110.625 53.7404 110.625H96.3113C97.2848 110.625 98.1699 111.606 98.1699 112.914V136.676C98.0814 137.875 97.2848 138.965 96.2228 138.965Z" fill="#DBE0FE"/>
<path opacity="0.55" d="M133.551 54.1356H52.9086C52.3769 54.1356 51.8452 53.6603 51.8452 52.9949V50.8086C51.8452 50.2383 52.2882 49.668 52.9086 49.668H133.639C134.171 49.668 134.703 50.1432 134.703 50.8086V52.9949C134.614 53.6603 134.171 54.1356 133.551 54.1356Z" fill="#DBE0FE"/>
<path opacity="0.55" d="M133.551 63.2606H52.9086C52.3769 63.2606 51.8452 62.7853 51.8452 62.1199V59.9336C51.8452 59.3633 52.2882 58.793 52.9086 58.793H133.639C134.171 58.793 134.703 59.2682 134.703 59.9336V62.1199C134.614 62.7853 134.171 63.2606 133.551 63.2606Z" fill="#DBE0FE"/>
<path opacity="0.55" d="M133.551 72.3856H52.9086C52.3769 72.3856 51.8452 71.9103 51.8452 71.2449V69.0586C51.8452 68.4883 52.2882 67.918 52.9086 67.918H133.639C134.171 67.918 134.703 68.3932 134.703 69.0586V71.2449C134.614 71.9103 134.171 72.3856 133.551 72.3856Z" fill="#DBE0FE"/>
<path opacity="0.55" d="M133.551 81.5106H52.9086C52.3769 81.5106 51.8452 81.0353 51.8452 80.3699V78.1836C51.8452 77.6133 52.2882 77.043 52.9086 77.043H133.639C134.171 77.043 134.703 77.5182 134.703 78.1836V80.465C134.614 81.0353 134.171 81.5106 133.551 81.5106Z" fill="#DBE0FE"/>
<path opacity="0.55" d="M133.551 90.6356H52.9086C52.3769 90.6356 51.8452 90.1603 51.8452 89.4949V87.3086C51.8452 86.7383 52.2882 86.168 52.9086 86.168H133.639C134.171 86.168 134.703 86.6432 134.703 87.3086V89.4949C134.614 90.1603 134.171 90.6356 133.551 90.6356Z" fill="#DBE0FE"/>
<path opacity="0.55" d="M133.551 99.7645H52.9086C52.3769 99.7645 51.8452 99.2892 51.8452 98.6238V96.4375C51.8452 95.8672 52.2882 95.2969 52.9086 95.2969H133.639C134.171 95.2969 134.703 95.7722 134.703 96.4375V98.6238C134.614 99.2892 134.171 99.7645 133.551 99.7645Z" fill="#DBE0FE"/>
<path d="M160.048 37.4063C160.048 38.1667 159.516 38.737 158.807 38.737C158.098 38.737 157.566 38.1667 157.566 37.4063C157.566 36.6458 158.098 36.0755 158.807 36.0755C159.427 35.9804 160.048 36.6458 160.048 37.4063Z" fill="white"/>
<path d="M166.428 37.4063C166.428 38.1667 165.896 38.737 165.187 38.737C164.479 38.737 163.947 38.1667 163.947 37.4063C163.947 36.6458 164.479 36.0755 165.187 36.0755C165.808 35.9804 166.428 36.6458 166.428 37.4063Z" fill="white"/>
<path d="M172.809 37.4063C172.809 38.1667 172.277 38.737 171.568 38.737C170.859 38.737 170.327 38.1667 170.327 37.4063C170.327 36.6458 170.859 36.0755 171.568 36.0755C172.188 35.9804 172.809 36.6458 172.809 37.4063Z" fill="white"/>
<path d="M41.5222 38.2674C41.5222 34.1437 44.6422 30.8008 48.4909 30.8008H173.638C177.487 30.8008 180.607 34.1437 180.607 38.2674V43.79H41.5222V38.2674Z" fill="#848FAA"/>
<path d="M172.892 37.4125C172.892 38.7168 171.905 39.7741 170.688 39.7741C169.471 39.7741 168.484 38.7168 168.484 37.4125C168.484 36.1081 169.471 35.0508 170.688 35.0508C171.905 35.0508 172.892 36.1081 172.892 37.4125Z" fill="white"/>
<path d="M163.194 37.4125C163.194 38.7168 162.207 39.7741 160.989 39.7741C159.772 39.7741 158.785 38.7168 158.785 37.4125C158.785 36.1081 159.772 35.0508 160.989 35.0508C162.207 35.0508 163.194 36.1081 163.194 37.4125Z" fill="white"/>
<path d="M152.393 37.4125C152.393 38.7168 151.406 39.7741 150.189 39.7741C148.972 39.7741 147.985 38.7168 147.985 37.4125C147.985 36.1081 148.972 35.0508 150.189 35.0508C151.406 35.0508 152.393 36.1081 152.393 37.4125Z" fill="white"/>
<path d="M166.514 145.961H166.075L163.06 145.992C163.06 145.992 162.416 149.165 162.094 150.485C162.065 150.579 162.007 150.799 161.977 150.956C161.919 151.176 161.919 151.427 161.919 151.647C161.977 152.841 162.416 153.878 163.412 154.412C164.524 155.009 165.373 155.574 166.514 154.412C167.656 153.249 167.831 152.527 167.392 150.548C166.953 148.568 166.807 146.024 166.514 145.961Z" fill="#1353CA"/>
<path d="M178.602 149.981C176.612 149.29 175.295 146.4 175.295 146.4L171.899 146.18C171.899 146.18 171.724 149.133 171.636 150.609C171.519 152.588 171.841 153.499 173.041 153.374C174.651 153.217 181.178 153.876 182.202 153.154C183.519 152.243 180.446 150.609 178.602 149.981Z" fill="#1353CA"/>
<path d="M179.187 118.379C179.334 119.855 178.309 127.646 178.309 129.123C178.309 130.599 175.265 146.401 175.265 146.401L171.782 146.275C171.782 146.275 172.573 122.934 172.485 121.803C172.397 120.672 168.036 107.132 168.036 107.132C168.036 107.132 167.714 110.714 167.714 111.844C167.714 112.975 166.543 145.961 166.543 145.961H163.06L158.085 97.2679L157.616 93.1211L176.436 93.6237C176.436 93.6237 179.012 116.871 179.187 118.379Z" fill="#387EFE"/>
<path fill-rule="evenodd" clip-rule="evenodd" d="M171.08 47.7878C171.841 48.4789 172.397 49.39 172.631 50.4267C172.778 51.1492 173.304 52.0288 173.392 51.9032C173.721 51.5499 173.7 52.654 173.688 53.2635C173.686 53.3586 173.685 53.4417 173.685 53.5053C173.568 54.165 173.304 54.8248 172.865 55.3274C172.573 55.5787 172.28 56.4269 172.134 57.0866C171.987 57.8092 171.695 59.2543 171.958 59.8512C172.251 60.5737 175.821 67.5164 179.012 73.6738L161.129 70.2181L155.48 83.0355L158.026 85.2345L157.294 87.842L156.826 87.9362C156.826 87.9362 156.416 88.9729 155.977 88.5017C155.626 88.1247 155.099 88.3132 154.894 88.4074C154.836 88.4388 154.748 88.4388 154.69 88.4388H154.689L154.104 88.3132L153.724 84.8575L159.226 66.6682C159.226 66.6682 165.841 60.291 166.221 60.0397C166.602 59.7883 166.719 58.0919 166.368 57.2751C165.987 56.4583 165.577 55.673 165.109 54.8876C164.816 54.4164 164.465 52.6257 164.465 51.8403C164.465 51.055 164.904 51.3377 164.904 51.3377C164.904 51.3377 165.314 49.7984 166.192 49.39C166.318 49.3042 167.088 49.0418 167.982 48.7535C169.255 48.168 170.761 47.5464 171.08 47.7878ZM179.568 74.6477L179.422 73.7052L179.041 73.6424L179.568 74.6477ZM181.5 83.6638L179.919 85.1089L180.417 87.3707L181.036 88.2961C181.038 88.3579 181.069 88.4088 181.09 88.376L181.036 88.2961C181.032 88.1803 181.13 88.0265 181.587 88.3132L182.963 88.219L184.017 86.7424C184.017 86.7424 183.461 79.9254 181.002 75.1817L181.5 83.6638Z" fill="#953B09"/>
<path d="M159.255 62.7726C158.377 63.4009 157.587 64.2491 157.294 65.3486C157.002 66.4482 152.026 76.7209 151.792 77.4749C151.558 78.2288 150.621 81.1818 151.148 84.3862C151.675 87.5905 153.928 88.3445 154.309 88.3445C154.514 88.3445 154.133 86.6795 154.046 85.5799C154.016 85.1715 154.338 84.1663 154.426 83.7579C154.572 83.161 155.041 83.3181 155.041 82.784C155.041 81.7787 157.382 78.2916 158.26 76.3439C159.138 74.3962 160.777 74.0506 161.07 73.2024C161.363 72.3542 158.611 90.6692 158.611 90.6692C158.611 90.6692 158.553 93.8735 159.109 94.1877C159.636 94.4704 165.929 97.0464 167.392 97.6433C167.538 97.7061 167.714 97.6119 167.802 97.4548L168.738 94.5961C168.738 94.5646 168.768 94.5332 168.797 94.5646C168.826 94.5646 168.826 94.5961 168.826 94.5961L169.704 97.7062C169.734 97.8632 169.909 97.9575 170.056 97.9261L177.812 96.1354C177.812 96.1354 177.695 80.7734 177.841 78.1974C177.958 75.6842 177.665 74.2705 178.104 74.9617C178.573 75.7156 182.436 79.831 182.436 80.9933C182.407 81.6531 182.7 82.2499 183.197 82.6269L182.992 88.2816C182.992 88.2816 185.187 85.6742 185.392 84.1977C185.597 82.7212 185.685 81.9358 185.041 80.4593C184.397 78.9828 180.826 65.5686 180.826 65.5686C180.826 65.5686 180.475 63.935 177.841 63.0868C175.207 62.2386 173.246 60.982 172.777 61.0134C172.309 61.0448 170.846 63.9978 170.202 64.846C169.909 65.223 169.968 65.4115 169.587 65.9769C169.382 66.2597 169.002 66.3225 168.738 66.1026C168.68 66.0398 168.621 66.0084 168.592 65.9141C168.387 65.5686 168.212 65.223 168.036 64.8774C167.743 64.2491 165.49 60.6992 165.49 60.6992C165.49 60.6992 160.133 62.1443 159.255 62.7726Z" fill="#76A6FE"/>
<path d="M171.08 47.7889C171.08 47.7889 166.543 49.4225 165.724 50.2079C165.197 50.7105 164.904 51.3388 164.904 51.3388C164.904 51.3388 164.465 51.1503 164.465 51.8414C164.465 51.8414 164.29 51.3702 164.143 51.0875C163.997 50.8047 163.441 49.2968 163.968 48.103C164.494 46.9093 165.138 46.2181 165.402 46.0297C165.665 45.8412 167.187 44.4275 168.68 44.4903C170.173 44.5531 171.138 45.6527 171.402 45.904C171.695 46.1553 172.221 46.6265 172.573 46.7208C172.924 46.8464 173.802 48.103 173.86 49.0455C173.919 49.988 173.597 52.0299 173.597 52.0299C173.597 52.0299 173.568 51.7472 173.392 51.9043C173.217 52.0613 172.719 51.0561 172.573 50.3335C172.426 49.611 171.08 47.7889 171.08 47.7889Z" fill="#212934"/>
<g opacity="0.07">
<path d="M172.573 61.0473C172.543 60.9531 173.099 61.3929 172.456 60.8902C171.548 60.1991 171.958 57.2461 171.958 57.2461C171.636 58.0001 171.051 58.5969 170.319 58.9111C169.148 59.3823 168.797 59.0368 170.582 60.1363C172.368 61.2358 171.431 61.6128 171.314 63.0579" fill="black"/>
</g>
<g opacity="0.07">
<path d="M161.07 74.9298L158.611 90.9515C158.611 90.9515 158.641 93.8102 159.109 94.2186C159.577 94.627 161.158 94.9098 161.509 95.1925C161.86 95.4752 165.665 96.8261 164.67 94.5328C164.436 94.0301 159.314 90.9515 161.626 87.7157C163.938 84.48 163.499 80.019 162.416 76.9089C161.772 75.0869 161.451 73.1391 161.538 71.1914L161.07 74.9298Z" fill="black"/>
</g>
<path opacity="0.07" d="M165.197 96.5122C165.197 96.5122 163.119 108.387 164.202 113.131C165.841 120.325 163.47 130.063 163.47 134.744C163.47 137.76 164.582 146.179 164.641 149.572C164.67 150.609 165.343 152.588 164.846 153.059C164.612 153.248 163.294 152.808 162.563 152.431C162.182 152.242 161.948 151.803 162.007 151.363L162.446 149.321L163.06 146.651L158.758 103.204C158.758 103.204 157.353 93.5278 158.143 93.4963C158.933 93.4649 165.197 96.5122 165.197 96.5122Z" fill="black"/>
<path d="M161.392 74.6483L168.124 72.4492L168.416 92.869L162.27 95.3822L161.392 74.6483Z" fill="white"/>
<path d="M168.124 72.4492L176.026 74.9624V95.0681L168.416 92.869L168.124 72.4492Z" fill="white"/>
<path d="M176.026 74.9624L183.636 72.4492L182.583 83.0675L180.709 84.544C180.504 84.7011 180.387 84.921 180.358 85.1723L180.3 85.5493C180.27 85.7378 180.3 85.9263 180.358 86.1148L180.68 86.963C180.797 87.2457 180.973 87.497 181.236 87.6541L182.319 88.2824L182.261 92.5863L176.026 95.0681V74.9624Z" fill="#E1E6FC"/>
<path d="M161.392 74.6496L154.016 72.1992L155.041 82.9746L156.885 84.4825C157.06 84.6396 157.207 84.8595 157.236 85.1108L157.294 85.4878C157.324 85.6763 157.294 85.8962 157.236 86.0532L156.943 86.9329C156.826 87.2156 156.65 87.4669 156.387 87.624L155.333 88.2523L155.392 92.8075L162.27 95.3835L161.392 74.6496Z" fill="#E1E6FC"/>
<path d="M167.977 72.512L168.124 72.4492L168.241 72.4806L168.592 92.9318L168.416 92.869L168.212 92.9318L167.977 72.512Z" fill="#E1E6FC"/>
<path d="M110.774 62.8203C96.4156 62.8203 84.7623 75.3062 84.7623 90.6907C84.7623 106.075 96.4156 118.561 110.774 118.561C125.133 118.561 136.786 106.075 136.786 90.6907C136.786 75.3062 125.133 62.8203 110.774 62.8203ZM113.375 110.2H108.173V104.626H113.375V110.2ZM118.76 88.6004L116.419 91.1645C114.546 93.199 113.375 94.8712 113.375 99.0518H108.173V97.6583C108.173 94.5925 109.343 91.8055 111.216 89.771L114.442 86.2593C115.404 85.256 115.976 83.8624 115.976 82.3296C115.976 79.2638 113.635 76.7555 110.774 76.7555C107.913 76.7555 105.572 79.2638 105.572 82.3296H100.369C100.369 76.1702 105.025 71.1814 110.774 71.1814C116.523 71.1814 121.179 76.1702 121.179 82.3296C121.179 84.7822 120.242 87.0118 118.76 88.6004Z" fill="#848FAA"/>
</g>
<defs>
<clipPath id="clip0">
<rect width="223" height="182" fill="white"/>
</clipPath>
</defs>
</svg>
