<svg width="30" height="30" viewBox="0 0 30 30" fill="none" xmlns="http://www.w3.org/2000/svg">
<path d="M15.8844 29.4073C15.7225 29.4696 15.5947 29.5164 15.5066 29.5479C15.4181 29.5134 15.2895 29.4622 15.1263 29.3943C14.791 29.2546 14.3103 29.0444 13.7326 28.7636C12.5762 28.2014 11.037 27.3591 9.50051 26.2376C6.41004 23.9818 3.42491 20.6686 3.42491 16.3053V16.263V16.2208V16.1787V16.1365V16.0944V16.0523V16.0102V15.9681V15.9261V15.8841V15.8421V15.8002V15.7582V15.7163V15.6745V15.6326V15.5908V15.549V15.5072V15.4655V15.4238V15.3821V15.3404V15.2988V15.2572V15.2156V15.1741V15.1325V15.0911V15.0496V15.0082V14.9668V14.9254V14.8841V14.8428V14.8015V14.7602V14.719V14.6779V14.6367V14.5956V14.5545V14.5135V14.4724V14.4315V14.3905V14.3496V14.3087V14.2678V14.227V14.1863V14.1455V14.1048V14.0641V14.0235V13.9829V13.9423V13.9018V13.8613V13.8208V13.7804V13.74V13.6997V13.6593V13.6191V13.5788V13.5386V13.4985V13.4584V13.4183V13.3782V13.3382V13.2983V13.2583V13.2185V13.1786V13.1388V13.0991V13.0593V13.0197V12.98V12.9404V12.9009V12.8614V12.8219V12.7825V12.7431V12.7037V12.6644V12.6252V12.586V12.5468V12.5077V12.4686V12.4296V12.3906V12.3516V12.3127V12.2739V12.2351V12.1963V12.1576V12.119V12.0803V12.0418V12.0032V11.9648V11.9263V11.8879V11.8496V11.8113V11.7731V11.7349V11.6968V11.6587V11.6206V11.5827V11.5447V11.5068V11.469V11.4312V11.3935V11.3558V11.3182V11.2806V11.243V11.2056V11.1681V11.1308V11.0934V11.0562V11.019V10.9818V10.9447V10.9077V10.8707V10.8337V10.7968V10.76V10.7232V10.6865V10.6498V10.6132V10.5767V10.5402V10.5037V10.4673V10.431V10.3947V10.3585V10.3224V10.2863V10.2502V10.2143V10.1783V10.1425V10.1067V10.0709V10.0353V9.99963V9.96407V9.92857V9.89312V9.85774V9.82242V9.78716V9.75197V9.71683V9.68176V9.64674V9.61179V9.57691V9.54208V9.50732V9.47263V9.43799V9.40342V9.36892V9.33448V9.3001V9.26579V9.23154V9.19736V9.16324V9.12919V9.09521V9.06129V9.02744V8.99365V8.95994V8.92628V8.8927V8.85918V8.82574V8.79235V8.75904V8.7258V8.69262V8.65952V8.62648V8.59351V8.56062V8.52779V8.49503V8.46234V8.42973V8.39718V8.36471V8.3323V8.29997V8.26771V8.23553V8.20341V8.17137V8.13939V8.1075V8.07567V8.04392V8.01224V7.98064V7.94911V7.91766V7.88628V7.85497V7.82374V7.79258V7.7615V7.7305V7.69957V7.66872V7.63794V7.60724V7.57662V7.54608V7.51561V7.48522V7.45491V7.42467V7.39452V7.36444V7.33444V7.30452V7.27468V7.24492V7.21524V7.18564V7.15612V7.12668V7.09732V7.06804V7.03884V7.00972V6.98069V6.95174V6.92286V6.89407V6.86537V6.83674V6.8082V6.77975V6.75137V6.72308V6.69487V6.66675V6.63871V6.61076V6.58289V6.55511V6.52741V6.49979V6.47227V6.44482V6.41747V6.3902V6.36302V6.33592V6.30892V6.28199V6.25516V6.22842V6.20176V6.17519V6.14871V6.12232V6.09602V6.0698V6.04368V6.01764V5.9917V5.96585V5.94008V5.91441V5.88883V5.86334V5.83794V5.81263V5.78741V5.76229V5.73726V5.71232V5.68747V5.66272V5.63806V5.61349V5.58902V5.56464V5.54035V5.51616V5.49206V5.46806V5.44416V5.42034V5.39663V5.37301V5.34948V5.32606V5.30273V5.27949V5.25635V5.23331V5.21037V5.18752V5.16478V5.14213V5.11958V5.09712V5.07477V5.05251V5.03036V5.0083V4.98635V4.96449V4.94273V4.92108V4.89952V4.87807V4.85672V4.83546V4.81431V4.79326V4.77232V4.75147V4.73073V4.71009V4.68956V4.66913V4.6488V4.62857V4.60845V4.58843V4.56852V4.54871V4.52901V4.50941V4.48991V4.47053V4.45124V4.43207V4.413V4.39404V4.37518V4.35643V4.33779V4.31925V4.30083V4.28251V4.26429V4.24619V4.2282V4.21031V4.19253V4.17487V4.15731V4.13986V4.12252V4.1053V4.08818V4.07117V4.05428V4.03749V4.02082V4.00426V3.98781V3.97147V3.95524V3.93913V3.92313V3.90724V3.89147V3.87581V3.86026V3.84483V3.82951V3.8143V3.79921V3.78424V3.76938V3.75463V3.74V3.72549V3.71109V3.69681V3.68265V3.6686V3.65467V3.64086V3.62716V3.61358V3.60012V3.58678V3.57355V3.56045V3.54746V3.53459V3.52185V3.50922V3.49671V3.48432V3.47205V3.4599V3.44787V3.43597V3.42418V3.41252V3.40097V3.38955V3.37825V3.36708V3.35602V3.34509V3.33428V3.3236V3.31304V3.3026V3.29228V3.2851C3.62077 3.26975 3.88359 3.2471 4.20313 3.2149C4.94219 3.14041 5.98561 3.01468 7.20635 2.80944C9.59424 2.40797 12.6791 1.69932 15.4941 0.464783C18.3094 1.69935 21.3971 2.408 23.7879 2.80945C25.0101 3.01469 26.055 3.14042 26.7951 3.21491C27.1154 3.24714 27.3789 3.2698 27.5751 3.28515V3.29228V3.3026V3.31304V3.3236V3.33428V3.34509V3.35602V3.36708V3.37825V3.38955V3.40097V3.41252V3.42418V3.43597V3.44787V3.4599V3.47205V3.48432V3.49671V3.50922V3.52185V3.53459V3.54746V3.56045V3.57355V3.58678V3.60012V3.61358V3.62716V3.64086V3.65467V3.6686V3.68265V3.69681V3.71109V3.72549V3.74V3.75463V3.76938V3.78424V3.79921V3.8143V3.82951V3.84483V3.86026V3.87581V3.89147V3.90724V3.92313V3.93913V3.95524V3.97147V3.98781V4.00426V4.02082V4.03749V4.05428V4.07117V4.08818V4.1053V4.12252V4.13986V4.15731V4.17487V4.19253V4.21031V4.2282V4.24619V4.26429V4.28251V4.30083V4.31925V4.33779V4.35643V4.37518V4.39404V4.413V4.43207V4.45124V4.47053V4.48991V4.50941V4.52901V4.54871V4.56852V4.58843V4.60845V4.62857V4.6488V4.66913V4.68956V4.71009V4.73073V4.75147V4.77232V4.79326V4.81431V4.83546V4.85672V4.87807V4.89952V4.92108V4.94273V4.96449V4.98635V5.0083V5.03036V5.05251V5.07477V5.09712V5.11958V5.14213V5.16478V5.18752V5.21037V5.23331V5.25635V5.27949V5.30273V5.32606V5.34948V5.37301V5.39663V5.42034V5.44416V5.46806V5.49206V5.51616V5.54035V5.56464V5.58902V5.61349V5.63806V5.66272V5.68747V5.71232V5.73726V5.76229V5.78741V5.81263V5.83794V5.86334V5.88883V5.91441V5.94008V5.96585V5.9917V6.01764V6.04368V6.0698V6.09602V6.12232V6.14871V6.17519V6.20176V6.22842V6.25516V6.28199V6.30892V6.33592V6.36302V6.3902V6.41747V6.44482V6.47227V6.49979V6.52741V6.55511V6.58289V6.61076V6.63871V6.66675V6.69487V6.72308V6.75137V6.77975V6.8082V6.83674V6.86537V6.89407V6.92286V6.95174V6.98069V7.00972V7.03884V7.06804V7.09732V7.12668V7.15612V7.18564V7.21524V7.24492V7.27468V7.30452V7.33444V7.36444V7.39452V7.42467V7.45491V7.48522V7.51561V7.54608V7.57662V7.60724V7.63794V7.66872V7.69957V7.7305V7.7615V7.79258V7.82374V7.85497V7.88628V7.91766V7.94911V7.98064V8.01224V8.04392V8.07567V8.1075V8.13939V8.17137V8.20341V8.23553V8.26771V8.29997V8.3323V8.36471V8.39718V8.42973V8.46234V8.49503V8.52779V8.56062V8.59351V8.62648V8.65952V8.69262V8.7258V8.75904V8.79235V8.82574V8.85918V8.8927V8.92628V8.95994V8.99365V9.02744V9.06129V9.09521V9.12919V9.16324V9.19736V9.23154V9.26579V9.3001V9.33448V9.36892V9.40342V9.43799V9.47263V9.50732V9.54208V9.57691V9.61179V9.64674V9.68176V9.71683V9.75197V9.78716V9.82242V9.85774V9.89312V9.92857V9.96407V9.99963V10.0353V10.0709V10.1067V10.1425V10.1783V10.2143V10.2502V10.2863V10.3224V10.3585V10.3947V10.431V10.4673V10.5037V10.5402V10.5767V10.6132V10.6498V10.6865V10.7232V10.76V10.7968V10.8337V10.8707V10.9077V10.9447V10.9818V11.019V11.0562V11.0934V11.1308V11.1681V11.2056V11.243V11.2806V11.3182V11.3558V11.3935V11.4312V11.469V11.5068V11.5447V11.5827V11.6206V11.6587V11.6968V11.7349V11.7731V11.8113V11.8496V11.8879V11.9263V11.9648V12.0032V12.0418V12.0803V12.119V12.1576V12.1963V12.2351V12.2739V12.3127V12.3516V12.3906V12.4296V12.4686V12.5077V12.5468V12.586V12.6252V12.6644V12.7037V12.7431V12.7825V12.8219V12.8614V12.9009V12.9404V12.98V13.0197V13.0593V13.0991V13.1388V13.1786V13.2185V13.2583V13.2983V13.3382V13.3782V13.4183V13.4584V13.4985V13.5386V13.5788V13.6191V13.6593V13.6997V13.74V13.7804V13.8208V13.8613V13.9018V13.9423V13.9829V14.0235V14.0641V14.1048V14.1455V14.1863V14.227V14.2678V14.3087V14.3496V14.3905V14.4315V14.4724V14.5135V14.5545V14.5956V14.6367V14.6779V14.719V14.7602V14.8015V14.8428V14.8841V14.9254V14.9668V15.0082V15.0496V15.0911V15.1325V15.1741V15.2156V15.2572V15.2988V15.3404V15.3821V15.4238V15.4655V15.5072V15.549V15.5908V15.6326V15.6745V15.7163V15.7582V15.8002V15.8421V15.8841V15.9261V15.9681V16.0102V16.0523V16.0944V16.1365V16.1787V16.2208V16.263V16.3053C27.5751 20.8824 24.5853 24.1952 21.5033 26.3928C19.9687 27.4871 18.4313 28.2896 17.2762 28.8187C16.6992 29.083 16.2191 29.2784 15.8844 29.4073Z" fill="white" stroke="#C01818" stroke-width="0.849817"/>
<path d="M22.1683 14.7222C22.1596 14.0605 22.1552 13.377 22.0159 12.7283C21.3411 9.54148 18.3546 7.5519 15.0676 8.10045C12.364 8.54887 10.2612 10.9608 10.1742 13.7079C10.1611 14.1432 10.061 14.5655 9.89119 14.892C9.67786 15.3056 9.25121 15.5364 8.58511 15.593C8.20635 15.6278 7.96691 15.8716 7.98867 16.1981C8.0148 16.5246 8.26295 16.7205 8.63735 16.7075C8.76361 16.7031 8.88551 16.6814 9.00741 16.6596L9.07271 16.6509C10.2264 16.4637 11.145 15.5277 11.2582 14.4306C11.2756 14.2651 11.2843 14.0997 11.2974 13.9342C11.3192 13.6164 11.3409 13.2812 11.4062 12.9721C11.9809 10.3382 14.3667 8.75349 17.0746 9.20626C19.1643 9.55454 20.8883 11.4571 21.0015 13.5337C21.0233 13.9647 21.0189 14.4044 21.0102 14.8267C21.0059 15.027 21.0059 15.2273 21.0059 15.4232V15.5277H21.0146C21.0146 15.532 21.0146 15.532 21.0189 15.5364C20.9841 15.9978 20.9711 16.455 20.958 16.8947C20.9406 17.4911 20.9232 18.105 20.8535 18.7275C20.7708 19.4764 20.6532 20.26 20.1569 20.9087C20.0829 21.0045 20.0524 21.1177 20.0699 21.2352C20.0873 21.3745 20.1743 21.5095 20.3093 21.6053C20.4181 21.688 20.54 21.7272 20.6532 21.7272C20.7838 21.7272 20.9101 21.6749 21.0146 21.5704C21.1757 21.4137 21.2976 21.2439 21.3672 21.0828C21.537 20.6823 21.685 20.321 21.7721 19.9378C22.0899 18.5795 22.2118 17.108 22.1727 15.1576C22.1727 15.0183 22.1726 14.8703 22.1683 14.7222Z" fill="#C01818"/>
<path d="M8.34528 13.69C8.34093 14.0862 8.54119 14.343 8.86771 14.3604C9.22035 14.3691 9.44673 14.1471 9.48156 13.7466C9.49027 13.6421 9.49463 13.5376 9.50334 13.4331C9.52075 13.1719 9.53817 12.902 9.58606 12.6495C10.1912 9.60632 12.5813 7.47742 15.6854 7.22927C17.7838 7.05948 19.6036 7.77346 21.0926 9.35381C22.2637 10.5946 22.8558 12.1401 22.8601 13.9425C22.8601 14.5607 22.8601 15.1789 22.8601 15.7971C22.8601 16.4937 22.8601 17.1903 22.8601 17.8868C22.8601 18.1132 22.9428 18.2961 23.0909 18.4093C23.1779 18.4746 23.2868 18.5094 23.4 18.5094C23.4566 18.5094 23.5175 18.5007 23.5785 18.4833C23.8527 18.4049 23.9921 18.1916 23.9921 17.8607C23.9921 17.3426 23.9921 16.8202 23.9921 16.3021V15.6796C23.9921 15.4924 23.9921 15.3052 23.9964 15.118C24.0008 14.687 24.0051 14.2385 23.9877 13.7988C23.9703 13.2807 23.9398 12.8497 23.8571 12.4187C23.0473 8.2393 19.2292 5.54878 14.9845 6.17135C11.2491 6.71119 8.39753 9.9459 8.34528 13.69Z" fill="#C01818"/>
<path d="M12.991 17.051C13.0737 16.6287 13.0955 16.1977 13.1173 15.7754C13.126 15.5838 13.139 15.3923 13.1521 15.2051L13.1608 15.0962L13.1216 15.0919C13.1216 15.0222 13.126 14.9569 13.126 14.8872C13.1347 14.6652 13.139 14.4345 13.1347 14.2081C13.1129 13.2634 13.5352 12.3839 14.3014 11.7962C15.0807 11.1954 16.069 11.0038 17.005 11.2738C18.3198 11.6525 19.1644 12.7496 19.2079 14.1341C19.2253 14.687 19.5388 14.7915 19.8044 14.7915C20.1396 14.7828 20.3399 14.552 20.3486 14.1733C20.3703 13.0152 19.8523 11.8833 18.9249 11.0735C17.9846 10.2507 16.7699 9.88498 15.5988 10.0722C13.4743 10.4074 12.0289 12.0705 11.9984 14.2081V14.2603C11.9897 15.0396 11.9766 15.845 11.9113 16.6287C11.8373 17.4602 11.4324 17.9043 10.5878 18.0741C10.2787 18.135 9.95222 18.1524 9.63876 18.1655L9.5125 18.1698C9.09021 18.1916 8.8464 18.3962 8.84205 18.7271C8.8377 18.8838 8.88995 19.0188 8.98572 19.1146C9.09892 19.2278 9.27306 19.2887 9.48638 19.2887C9.49074 19.2887 9.49945 19.2887 9.5038 19.2887C9.76937 19.2844 10.122 19.2757 10.4746 19.2321C11.8547 19.071 12.7516 18.2961 12.991 17.051Z" fill="#C01818"/>
<path d="M14.1923 19.2493C14.6712 18.4962 14.9193 17.6472 14.9324 16.733C14.9367 16.2976 14.9367 15.8666 14.9367 15.4312C14.9367 15.0655 14.9324 14.6955 14.9367 14.3298C14.9411 13.6637 15.4722 13.1413 16.1383 13.1325C16.1427 13.1325 16.147 13.1325 16.1514 13.1325C16.8349 13.1325 17.3617 13.6376 17.3791 14.3124C17.3878 14.5605 17.3878 14.8043 17.3878 15.0525C17.3878 15.2527 17.3922 15.453 17.3922 15.6489C17.4009 15.9798 17.6316 16.2149 17.9494 16.2149H17.9538C18.1062 16.2149 18.2368 16.1583 18.3369 16.0582C18.4457 15.9493 18.5067 15.7882 18.5023 15.6097C18.5023 15.4443 18.5023 15.2745 18.5023 15.1091V14.887L18.4893 14.7826C18.4893 14.7347 18.4893 14.6911 18.4936 14.6432C18.498 14.4647 18.498 14.2819 18.4893 14.099C18.4109 12.9366 17.3965 12.0224 16.1775 12.0137C16.1732 12.0137 16.1688 12.0137 16.1645 12.0137C14.9498 12.0137 13.9006 12.9323 13.8266 14.0642C13.8048 14.4169 13.8048 14.7738 13.8092 15.1178C13.8092 15.3833 13.8135 15.6446 13.8048 15.9101C13.8005 16.0103 13.8005 16.1104 13.7961 16.2149C13.7874 16.6459 13.7743 17.0856 13.6873 17.5035C13.4173 18.7966 12.6685 19.5976 11.4582 19.8937C11.3102 19.9285 11.1622 19.9459 11.0055 19.9677C10.8792 19.9807 10.753 19.9981 10.6311 20.0243C10.3263 20.0852 10.1522 20.316 10.1826 20.6251C10.2088 20.9124 10.4438 21.117 10.7312 21.117C10.7399 21.117 10.7529 21.117 10.7617 21.117C12.3202 21.0387 13.4435 20.4291 14.1923 19.2493Z" fill="#C01818"/>
<path d="M16.2865 19.4411C16.6479 18.553 16.7959 17.5299 16.7393 16.3196C16.7393 16.1324 16.7393 15.9626 16.7393 15.8015C16.7393 15.4576 16.7437 15.1659 16.735 14.8698C16.7306 14.6739 16.6653 14.5128 16.5478 14.404C16.4433 14.3082 16.2996 14.2603 16.1385 14.2647C15.812 14.2821 15.6074 14.5215 15.6074 14.896C15.6074 15.1354 15.6117 15.3792 15.6117 15.6186C15.6161 16.1411 15.6204 16.6809 15.6074 17.2121C15.5682 19.3148 14.4711 20.8429 12.5947 21.4002C12.3901 21.4611 12.2377 21.57 12.1593 21.7137C12.094 21.8399 12.081 21.9836 12.1289 22.136C12.1724 22.2753 12.2595 22.3841 12.3814 22.4451C12.4641 22.4886 12.5642 22.5104 12.6687 22.5104C12.7558 22.5104 12.8472 22.4973 12.943 22.4668C14.5451 21.9749 15.6727 20.9561 16.2865 19.4411Z" fill="#C01818"/>
<path d="M20.2005 16.9207C20.2005 16.8119 20.1962 16.6943 20.1831 16.5811C20.1657 16.4331 20.0786 16.2938 19.948 16.1936C19.8305 16.1022 19.6911 16.063 19.5692 16.0805C19.2993 16.1196 19.0904 16.3721 19.0686 16.6812C19.0555 16.9163 19.0425 17.1471 19.0337 17.3822C19.0076 18.0004 18.9772 18.6404 18.8727 19.2499C18.5766 20.9826 17.9236 22.1929 16.8178 23.0505C16.722 23.1246 16.587 23.3074 16.6132 23.4554C16.648 23.6644 16.7438 23.856 16.87 23.9604C16.9266 24.0083 17.018 24.0649 17.1443 24.0649C17.2531 24.0649 17.3881 24.0257 17.5448 23.9038C18.2501 23.3683 18.8161 22.6631 19.2384 21.8098C19.8958 20.4645 20.2049 18.9625 20.2049 17.0687C20.2049 17.0165 20.2005 16.9686 20.2005 16.9207Z" fill="#C01818"/>
<path d="M17.4536 18.8667C17.1358 18.7884 16.8441 18.9669 16.7657 19.289C16.5263 20.2686 16.1432 21.3657 15.0896 22.1189C14.8719 22.2756 14.8153 22.5499 14.9634 22.7719C15.033 22.8807 15.1375 22.9548 15.242 23.0375C15.2855 23.0723 15.3334 23.1071 15.377 23.1463L15.4379 23.1986L15.5076 23.155C15.5816 23.1071 15.6469 23.0636 15.7122 23.0244C15.8428 22.9461 15.9647 22.8677 16.0735 22.7763C16.9704 22.0144 17.5407 20.9739 17.8672 19.5154C17.9282 19.2281 17.7409 18.9364 17.4536 18.8667Z" fill="#C01818"/>
<path d="M17.9616 16.5467C17.8049 16.5119 17.6438 16.5337 17.5176 16.6164C17.4044 16.6904 17.326 16.7992 17.2999 16.9342C17.2259 17.2955 17.1693 17.683 17.1388 18.0835C17.1301 18.2141 17.1736 18.3447 17.265 18.4492C17.3652 18.5624 17.5132 18.6364 17.6569 18.6451C17.6699 18.6451 17.6786 18.6451 17.6917 18.6451C17.966 18.6451 18.1924 18.4536 18.2446 18.1662C18.2664 18.0487 18.2794 17.9312 18.2968 17.818L18.3404 17.5045C18.3578 17.3826 18.3796 17.2563 18.3883 17.1344C18.4144 16.8297 18.2577 16.6164 17.9616 16.5467Z" fill="#C01818"/>
</svg>
