<svg width="30" height="30" viewBox="0 0 30 30" fill="none" xmlns="http://www.w3.org/2000/svg">
<path d="M21.3059 19.6841C21.3059 19.6841 23.0156 19.0733 22.2095 16.769C22.2095 16.769 19.7626 17.7775 20.8866 19.6606C20.9423 19.4278 21.0403 19.2073 21.1758 19.01C21.1468 19.2428 21.1924 19.4788 21.3059 19.6841Z" fill="#C01818"/>
<path d="M24.0674 17.5008C24.0473 17.3192 24.0608 17.1354 24.1071 16.9587C24.148 17.1354 24.2435 17.2947 24.38 17.4141C24.38 17.4141 25.4643 16.5286 24.2788 15.0647C24.2788 15.0611 22.7625 16.4274 24.0674 17.5008Z" fill="#C01818"/>
<path d="M25.8154 14.3834C25.7647 14.213 25.7463 14.0346 25.7612 13.8575C25.83 14.018 25.9476 14.1527 26.0974 14.2424C26.0974 14.2424 26.9739 13.2141 25.595 12.0286C25.595 12.0286 24.3931 13.5882 25.8154 14.3834Z" fill="#C01818"/>
<path d="M26.2163 9.26538C26.2163 9.26538 25.7284 10.9606 27.176 11.1539C27.0751 11.0296 26.9984 10.8873 26.9501 10.7347C27.0607 10.8458 27.2037 10.9192 27.3585 10.9443C27.3585 10.9443 27.7543 9.79851 26.2163 9.26538Z" fill="#C01818"/>
<path d="M26.2654 6.8562C26.2654 6.8562 26.0015 8.34717 27.2539 8.3797C27.1589 8.28195 27.0829 8.16734 27.0298 8.04174C27.1328 8.12535 27.259 8.1752 27.3913 8.18452C27.3913 8.18452 27.6262 7.17066 26.2654 6.8562Z" fill="#C01818"/>
<path d="M24.7653 20.1416C22.5117 18.544 21.3135 20.2175 21.3135 20.2175C21.5003 20.4079 21.7426 20.5344 22.0056 20.5789C21.75 20.6658 21.4801 20.7032 21.2104 20.6892C22.9074 22.4928 24.7653 20.1416 24.7653 20.1416Z" fill="#C01818"/>
<path d="M24.3768 17.7285C24.5548 17.8519 24.7675 17.9152 24.984 17.9093C24.7918 18.0173 24.5808 18.0878 24.3623 18.1171C25.9888 19.3153 27.131 17.1557 27.131 17.1557C25.087 16.2105 24.3768 17.7285 24.3768 17.7285Z" fill="#C01818"/>
<path d="M26.314 14.6131C26.513 14.678 26.7276 14.678 26.9266 14.6131C26.7777 14.7648 26.6018 14.8874 26.4079 14.9746C28.2459 15.636 28.7067 13.3228 28.7067 13.3228C26.5543 13.0119 26.314 14.6131 26.314 14.6131Z" fill="#C01818"/>
<path d="M29.1516 9.57812C27.3299 9.93957 27.5883 11.2932 27.5883 11.2932C27.7678 11.287 27.9406 11.2237 28.0817 11.1125C28.0074 11.2827 27.9006 11.4368 27.7672 11.5661C29.4335 11.5787 29.1516 9.57812 29.1516 9.57812Z" fill="#C01818"/>
<path d="M27.7636 8.22078C27.916 8.18603 28.0537 8.10452 28.1575 7.98765C28.1197 8.14188 28.0535 8.28773 27.9624 8.41777C29.3919 8.14668 28.8118 6.48584 28.8118 6.48584C27.3118 7.1003 27.7636 8.22078 27.7636 8.22078Z" fill="#C01818"/>
<path d="M26.6139 5.92225C26.5183 5.85187 26.4368 5.76421 26.3735 5.66382C26.4743 5.72153 26.5906 5.74618 26.7061 5.7343C26.7061 5.7343 26.7639 4.83069 25.5567 4.75659C25.5567 4.75659 25.5368 6.06683 26.6139 5.92225Z" fill="#C01818"/>
<path d="M27.3298 5.46285C27.3184 5.59955 27.2823 5.73305 27.2232 5.85683C28.4069 5.42671 27.6822 4.08936 27.6822 4.08936C26.484 4.82128 27.0262 5.71586 27.0262 5.71586C27.1513 5.66536 27.2575 5.57687 27.3298 5.46285Z" fill="#C01818"/>
<path d="M26.4082 4.01916C26.4556 3.92679 26.4727 3.82181 26.457 3.71916C26.5196 3.80399 26.5661 3.89954 26.5944 4.00109C27.057 3.1535 25.9636 2.75049 25.9636 2.75049C25.642 3.7788 26.4082 4.01916 26.4082 4.01916Z" fill="#C01818"/>
<path d="M8.43168 16.769C7.62204 19.0733 9.3353 19.6841 9.3353 19.6841C9.45047 19.4787 9.4973 19.242 9.46903 19.0082C9.60449 19.2055 9.70251 19.426 9.75819 19.6588C10.8787 17.7775 8.43168 16.769 8.43168 16.769Z" fill="#C01818"/>
<path d="M6.25944 17.4089C6.395 17.2893 6.48926 17.1299 6.52871 16.9535C6.57504 17.1303 6.58852 17.314 6.56847 17.4957C7.87329 16.4222 6.35884 15.0559 6.35884 15.0559C5.1751 16.5234 6.25944 17.4089 6.25944 17.4089Z" fill="#C01818"/>
<path d="M5.04264 12.0286C3.66372 13.2141 4.54023 14.2424 4.54023 14.2424C4.69027 14.1525 4.80843 14.0179 4.87818 13.8575C4.892 14.0347 4.87301 14.213 4.82215 14.3834C6.24625 13.5882 5.04264 12.0286 5.04264 12.0286Z" fill="#C01818"/>
<path d="M4.42148 9.26538C2.88352 9.79851 3.27569 10.9443 3.27569 10.9443C3.43052 10.9192 3.57346 10.8458 3.68413 10.7347C3.63522 10.8875 3.55797 11.0297 3.45641 11.1539C4.91123 10.9606 4.42148 9.26538 4.42148 9.26538Z" fill="#C01818"/>
<path d="M3.38391 8.3797C4.63632 8.34717 4.37427 6.8562 4.37427 6.8562C3.01162 7.17066 3.24114 8.18452 3.24114 8.18452C3.37343 8.1752 3.49964 8.12535 3.60258 8.04174C3.55116 8.16692 3.47702 8.2815 3.38391 8.3797Z" fill="#C01818"/>
<path d="M9.32437 20.2175C9.32437 20.2175 8.12798 18.544 5.87256 20.1416C5.87256 20.1416 7.73039 22.491 9.42919 20.6837C9.15894 20.6977 8.8885 20.6603 8.6322 20.5735C8.8946 20.5305 9.13679 20.4059 9.32437 20.2175Z" fill="#C01818"/>
<path d="M5.65382 17.9093C5.87086 17.9151 6.08412 17.8518 6.26286 17.7285C6.26286 17.7285 5.55081 16.2105 3.50684 17.1557C3.50684 17.1557 4.6472 19.3153 6.27551 18.1171C6.05699 18.0878 5.84602 18.0173 5.65382 17.9093Z" fill="#C01818"/>
<path d="M4.22995 14.978C4.03609 14.8909 3.86019 14.7683 3.71127 14.6166C3.91095 14.6815 4.12605 14.6815 4.32573 14.6166C4.32573 14.6166 4.08356 13.0118 1.93115 13.3262C1.93115 13.3262 2.392 15.6395 4.22995 14.978Z" fill="#C01818"/>
<path d="M2.55255 11.1251C2.69359 11.2363 2.86643 11.2996 3.04592 11.3058C3.04592 11.3058 3.30978 9.93957 1.48628 9.57812C1.48628 9.57812 1.20436 11.5661 2.87062 11.5661C2.73733 11.4408 2.62935 11.2911 2.55255 11.1251Z" fill="#C01818"/>
<path d="M2.67529 8.41777C2.58414 8.28773 2.51796 8.14188 2.48011 7.98765C2.58393 8.10452 2.72168 8.18603 2.87409 8.22078C2.87409 8.22078 3.3277 7.1003 1.8259 6.48584C1.82951 6.48584 1.24578 8.14668 2.67529 8.41777Z" fill="#C01818"/>
<path d="M4.2636 5.66382C4.20058 5.76385 4.11972 5.85145 4.02505 5.92225C5.10938 6.06683 5.08047 4.75659 5.08047 4.75659C3.87505 4.83611 3.93107 5.7343 3.93107 5.7343C4.04656 5.74618 4.16286 5.72153 4.2636 5.66382Z" fill="#C01818"/>
<path d="M3.41445 5.85692C3.35532 5.73315 3.31919 5.59965 3.30783 5.46295C3.38036 5.5763 3.48652 5.66413 3.61144 5.71415C3.61144 5.71415 4.15361 4.82138 2.95542 4.08765C2.95542 4.08945 2.23072 5.42138 3.41445 5.85692Z" fill="#C01818"/>
<path d="M4.17941 3.71921C4.16264 3.82166 4.17911 3.92679 4.2264 4.01921C4.2264 4.01921 4.98905 3.77885 4.67279 2.75415C4.67279 2.75415 3.5776 3.15716 4.04026 4.00475C4.06835 3.9017 4.11556 3.80484 4.17941 3.71921Z" fill="#C01818"/>
<path d="M9.71097 10.4112C10.6598 12.119 12.8845 16.122 12.8122 19.2305L13.8965 19.2558C13.976 15.8528 11.7278 11.8208 10.658 9.88349C10.4772 9.57446 10.3507 9.33048 10.2694 9.1606C8.6429 5.90759 8.57603 2.35638 8.61218 1.07686H22.0254C22.0634 2.35638 21.9965 5.91301 20.37 9.1606C20.2869 9.32325 20.1513 9.56723 19.9796 9.88349C18.8953 11.8208 16.6616 15.8473 16.7411 19.2558L17.8254 19.2305C17.7531 16.122 19.9778 12.119 20.9284 10.4112C21.1092 10.0895 21.2465 9.8365 21.3387 9.65397C23.5074 5.34193 23.0989 0.68831 23.079 0.491322L23.0339 -0.000244141H7.61278L7.55856 0.491322C7.54049 0.68831 7.13748 5.34193 9.29892 9.65397C9.39109 9.8365 9.53206 10.0895 9.71097 10.4112Z" fill="#C01818"/>
<path d="M23.65 24.7914H21.5807C19.8693 24.1046 19.2946 22.8739 19.1175 21.954C19.0449 21.5865 18.8467 21.2556 18.5568 21.0182C18.267 20.7808 17.9036 20.6516 17.5289 20.6528H13.1084C12.7338 20.6516 12.3704 20.7808 12.0805 21.0182C11.7907 21.2556 11.5925 21.5865 11.5199 21.954C11.3392 22.8739 10.7681 24.1046 9.05662 24.7914H6.98734V28.9155H5.51807V29.9998H25.1211V28.9155H23.65V24.7914ZM12.5843 22.1583C12.6094 22.0383 12.6754 21.9307 12.771 21.8539C12.8666 21.7771 12.9858 21.7358 13.1084 21.7372H17.5289C17.6515 21.7358 17.7708 21.7771 17.8664 21.8539C17.9619 21.9307 18.0279 22.0383 18.053 22.1583C18.2446 23.1732 18.7624 24.0978 19.5277 24.7914H11.1096C11.8749 24.0978 12.3928 23.1732 12.5843 22.1583ZM8.07168 28.9155V25.8757H22.5657V28.9155H8.07168Z" fill="#C01818"/>
</svg>
