<svg width="19" height="18" viewBox="0 0 19 18" fill="none" xmlns="http://www.w3.org/2000/svg">
<path fill-rule="evenodd" clip-rule="evenodd" d="M8.00077 1.68269C8.76398 0.316707 10.7295 0.316708 11.4927 1.68269L18.5477 14.3097C19.2926 15.6429 18.3289 17.2852 16.8018 17.2852H2.69168C1.16457 17.2852 0.200857 15.6429 0.945715 14.3097L8.00077 1.68269ZM10.6762 13.9239C10.6762 14.4543 10.26 14.8843 9.74675 14.8843C9.23346 14.8843 8.81735 14.4543 8.81735 13.9239C8.81735 13.3935 9.23346 12.9635 9.74675 12.9635C10.26 12.9635 10.6762 13.3935 10.6762 13.9239ZM9.3531 5.28047H10.1404C10.4301 5.28047 10.6592 5.52592 10.6392 5.81495L10.2435 11.5395C10.2254 11.8006 10.0084 12.0031 9.74675 12.0031C9.48507 12.0031 9.26805 11.8006 9.25 11.5395L8.85429 5.81495C8.83431 5.52592 9.06338 5.28047 9.3531 5.28047Z" fill="#E62626"/>
</svg>
