<svg width="20" height="20" viewBox="0 0 20 20" fill="none" xmlns="http://www.w3.org/2000/svg">
<mask id="path-1-inside-1" fill="white">
<path fill-rule="evenodd" clip-rule="evenodd" d="M10 20C15.5228 20 20 15.5228 20 10C20 4.47715 15.5228 0 10 0C4.47715 0 0 4.47715 0 10C0 15.5228 4.47715 20 10 20ZM15.7241 6.68966L14.2759 5.31034L8.33333 11.55L5.72414 8.81034L4.27586 10.1897L7.6092 13.6897L8.33333 14.45L9.05747 13.6897L15.7241 6.68966Z"/>
</mask>
<path fill-rule="evenodd" clip-rule="evenodd" d="M10 20C15.5228 20 20 15.5228 20 10C20 4.47715 15.5228 0 10 0C4.47715 0 0 4.47715 0 10C0 15.5228 4.47715 20 10 20ZM15.7241 6.68966L14.2759 5.31034L8.33333 11.55L5.72414 8.81034L4.27586 10.1897L7.6092 13.6897L8.33333 14.45L9.05747 13.6897L15.7241 6.68966Z" fill="#0BD18A"/>
<path d="M14.2759 5.31034L14.9655 4.58621L14.2414 3.89655L13.5517 4.62069L14.2759 5.31034ZM15.7241 6.68966L16.4483 7.37931L17.1379 6.65517L16.4138 5.96552L15.7241 6.68966ZM8.33333 11.55L7.6092 12.2397L8.33333 13L9.05747 12.2397L8.33333 11.55ZM5.72414 8.81034L6.44828 8.12069L5.75862 7.39655L5.03448 8.08621L5.72414 8.81034ZM4.27586 10.1897L3.58621 9.46552L2.86207 10.1552L3.55172 10.8793L4.27586 10.1897ZM7.6092 13.6897L8.33333 13L7.6092 13.6897ZM8.33333 14.45L7.60919 15.1397L8.33333 15.9L9.05747 15.1397L8.33333 14.45ZM9.05747 13.6897L9.78161 14.3793H9.78161L9.05747 13.6897ZM19 10C19 14.9706 14.9706 19 10 19V21C16.0751 21 21 16.0751 21 10H19ZM10 1C14.9706 1 19 5.02944 19 10H21C21 3.92487 16.0751 -1 10 -1V1ZM1 10C1 5.02944 5.02944 1 10 1V-1C3.92487 -1 -1 3.92487 -1 10H1ZM10 19C5.02944 19 1 14.9706 1 10H-1C-1 16.0751 3.92487 21 10 21V19ZM13.5862 6.03448L15.0345 7.41379L16.4138 5.96552L14.9655 4.58621L13.5862 6.03448ZM9.05747 12.2397L15 6L13.5517 4.62069L7.6092 10.8603L9.05747 12.2397ZM5 9.5L7.6092 12.2397L9.05747 10.8603L6.44828 8.12069L5 9.5ZM4.96552 10.9138L6.41379 9.53448L5.03448 8.08621L3.58621 9.46552L4.96552 10.9138ZM8.33333 13L5 9.5L3.55172 10.8793L6.88506 14.3793L8.33333 13ZM9.05747 13.7603L8.33333 13L6.88506 14.3793L7.60919 15.1397L9.05747 13.7603ZM8.33333 13L7.6092 13.7603L9.05747 15.1397L9.78161 14.3793L8.33333 13ZM15 6L8.33333 13L9.78161 14.3793L16.4483 7.37931L15 6Z" fill="#10BC7E" mask="url(#path-1-inside-1)"/>
</svg>
