<svg width="24" height="24" viewBox="0 0 24 24" fill="none" xmlns="http://www.w3.org/2000/svg">
<path d="M5 6C5 4.89543 5.89543 4 7 4H18C19.1046 4 20 4.89543 20 6H5Z" fill="white"/>
<path fill-rule="evenodd" clip-rule="evenodd" d="M9.28564 2H10.3571V4H9.28564V2ZM14.6428 4V3L10.3571 3V2H14.6428H15.7142V3V4H14.6428Z" fill="white"/>
<path fill-rule="evenodd" clip-rule="evenodd" d="M19 7H6V19C6 20.1046 6.89543 21 8 21H17C18.1046 21 19 20.1046 19 19V7ZM13 9H12V19H13V9ZM8 9H9V19H8V9ZM17 9H16V19H17V9Z" fill="white"/>
</svg>
