<svg width="20" height="20" viewBox="0 0 20 20" fill="none" xmlns="http://www.w3.org/2000/svg">
<path fill-rule="evenodd" clip-rule="evenodd" d="M10 20C15.5228 20 20 15.5228 20 10C20 4.47715 15.5228 0 10 0C4.47715 0 0 4.47715 0 10C0 15.5228 4.47715 20 10 20ZM10 5.36328C9.24349 5.36328 8.86523 5.7028 8.86523 6.38184C8.86523 7.06543 9.24349 7.40723 10 7.40723C10.3783 7.40723 10.6608 7.31836 10.8477 7.14062C11.0391 6.95833 11.1348 6.7054 11.1348 6.38184C11.1348 5.7028 10.7565 5.36328 10 5.36328ZM8.9541 16H11.0391V9.35742H8.9541V16Z" fill="#5A6175"/>
</svg>
