<svg width="19" height="19" viewBox="0 0 19 19" fill="none" xmlns="http://www.w3.org/2000/svg">
<path fill-rule="evenodd" clip-rule="evenodd" d="M5.58155 4.46186C5.27239 4.1527 4.77113 4.1527 4.46197 4.46186C4.1528 4.77103 4.1528 5.27228 4.46197 5.58145L8.38052 9.5L4.46196 13.4185C4.1528 13.7277 4.1528 14.229 4.46196 14.5381C4.77113 14.8473 5.27238 14.8473 5.58155 14.5381L9.5001 10.6196L13.4187 14.5381C13.7278 14.8473 14.2291 14.8473 14.5382 14.5381C14.8474 14.229 14.8474 13.7277 14.5382 13.4185L10.6197 9.5L14.5382 5.58145C14.8474 5.27228 14.8474 4.77103 14.5382 4.46186C14.2291 4.1527 13.7278 4.1527 13.4187 4.46186L9.5001 8.38041L5.58155 4.46186Z" fill="#212934"/>
</svg>
