<svg width="65" height="13" viewBox="0 0 65 13" fill="none" xmlns="http://www.w3.org/2000/svg">
<path fill-rule="evenodd" clip-rule="evenodd" d="M32.3124 8.39643L30.6242 7.37106L30.4988 7.57189C30.114 8.18987 29.588 8.50345 28.9363 8.50287C27.8199 8.5023 26.9782 7.64103 26.9787 6.49947C26.9796 5.35819 27.8218 4.49807 28.9386 4.49864C29.5995 4.49922 30.096 4.79587 30.5013 5.43307L30.6273 5.63103L32.3234 4.60336L32.1769 4.38647C31.3666 3.18666 30.3077 2.6034 28.9397 2.60254C26.3537 2.60139 24.9571 4.60853 24.9563 6.49803C24.9552 8.38783 26.3492 10.397 28.9352 10.3984C30.2529 10.399 31.496 9.71415 32.1799 8.61046L32.3124 8.39643Z" fill="#C01818"/>
<path fill-rule="evenodd" clip-rule="evenodd" d="M37.0225 4.14608L37.9672 6.57094L36.0646 6.56951L37.0225 4.14608ZM32.228 10.4001L34.562 10.4015L35.2555 8.63799L38.7584 8.63971L39.45 10.4041L41.7941 10.4056L37.6128 0.069507L35.5308 0.0683594L36.0851 1.43858L32.228 10.4001Z" fill="#C01818"/>
<path fill-rule="evenodd" clip-rule="evenodd" d="M42.7604 10.4063L44.8087 10.4075L44.8112 5.76863L46.1466 5.76978L46.1477 3.82375L44.8123 3.82289L44.8126 2.9031C44.8126 2.50833 45.0714 2.08917 45.5504 2.08946C45.8137 2.08975 45.9726 2.13565 46.1311 2.20508L46.359 2.30549L47.21 0.406519L46.9647 0.304096C46.5841 0.144581 46.054 0.0872018 45.6843 0.0869149C44.7553 0.0863411 43.99 0.396764 43.4696 0.98433C43.0155 1.4973 42.7652 2.21082 42.7646 2.9929L42.7641 3.82146L41.8598 3.82117L41.8586 5.76748L42.7632 5.76777L42.7604 10.4063Z" fill="#C01818"/>
<path fill-rule="evenodd" clip-rule="evenodd" d="M15.3003 0.00878906V10.3905L17.5257 10.3919L17.529 4.45656L19.6859 6.09933L21.8447 4.45656V10.3945L24.067 10.3956L24.0726 0.00878906L19.6876 3.3959L15.3003 0.00878906Z" fill="#C01818"/>
<path fill-rule="evenodd" clip-rule="evenodd" d="M48.9728 5.56317C49.2403 4.85511 49.8173 4.44169 50.5627 4.44198C51.316 4.44226 51.904 4.84736 52.2158 5.56489L48.9728 5.56317ZM50.7592 2.6377C48.1814 2.63626 46.7887 4.63823 46.7876 6.522C46.7868 8.40634 48.1769 10.4092 50.755 10.4106H50.7561H50.7578C51.94 10.3977 53.0486 9.84685 53.9068 8.8539L52.2363 7.92235C51.8081 8.37077 51.288 8.6066 50.7138 8.60631C49.8726 8.60574 49.1266 8.03252 48.9316 7.28314L54.5021 7.2863L54.5024 6.76902C54.5041 3.92099 52.3146 2.63884 50.7592 2.6377Z" fill="#C01818"/>
<path fill-rule="evenodd" clip-rule="evenodd" d="M57.3458 5.56917C57.613 4.86082 58.1898 4.4474 58.9355 4.44769C59.6891 4.44826 60.277 4.85307 60.5889 5.57089L57.3458 5.56917ZM59.132 2.64356C56.5538 2.64212 55.1618 4.6438 55.1606 6.52757C55.1595 8.41191 56.5494 10.4147 59.1281 10.4165H59.1292H59.1303C60.313 10.4033 61.4216 9.85243 62.2796 8.85947L60.6091 7.92821C60.1805 8.37663 59.6608 8.61246 59.0868 8.61217C58.2454 8.61159 57.4994 8.03837 57.3046 7.289L62.8749 7.29187L62.8754 6.77488C62.8771 3.92685 60.6874 2.64442 59.132 2.64356Z" fill="#C01818"/>
<path fill-rule="evenodd" clip-rule="evenodd" d="M62.6135 2.23926H63.4808V2.4048H63.14V3.33406H62.9528V2.4048H62.6135V2.23926Z" fill="#C01818"/>
<path fill-rule="evenodd" clip-rule="evenodd" d="M63.7283 2.23926H63.9921L64.2876 3.09651H64.2907L64.5787 2.23926H64.8397V3.33406H64.6612V2.48915H64.6581L64.3614 3.33406H64.2068L63.9096 2.48915H63.9068V3.33406H63.7283V2.23926Z" fill="#C01818"/>
<path fill-rule="evenodd" clip-rule="evenodd" d="M2.25483 8.86456V3.604L5.50123 5.13862V2.60044L0 0V10.3358L5.50123 12.9385V10.4L2.25483 8.86456Z" fill="#C01818"/>
<path fill-rule="evenodd" clip-rule="evenodd" d="M8.74762 8.86456V3.604L5.50122 5.13862V2.60044L11.0024 0V10.3358L5.50122 12.9385V10.4L8.74762 8.86456Z" fill="#75160D"/>
</svg>
