<svg width="14" height="15" viewBox="0 0 14 15" fill="none" xmlns="http://www.w3.org/2000/svg">
<path fill-rule="evenodd" clip-rule="evenodd" d="M8.10016 0.75H5.91016V2.86912C4.02371 3.28849 2.53858 4.77357 2.11916 6.66H0V8.85H2.12139C2.54383 10.7317 4.02704 12.2123 5.91016 12.6309V14.75H8.10016V12.6286C9.97837 12.2068 11.4569 10.7282 11.8786 8.85H14V6.66H11.8808C11.4622 4.77701 9.98171 3.2939 8.10016 2.87143V0.75ZM7 4.75C5.34315 4.75 4 6.09315 4 7.75C4 9.40685 5.34315 10.75 7 10.75C8.65685 10.75 10 9.40685 10 7.75C10 6.09315 8.65685 4.75 7 4.75ZM7 9C7.69036 9 8.25 8.44036 8.25 7.75C8.25 7.05964 7.69036 6.5 7 6.5C6.30964 6.5 5.75 7.05964 5.75 7.75C5.75 8.44036 6.30964 9 7 9Z" fill="#939598"/>
</svg>
