<svg width="10" height="10" viewBox="0 0 10 10" fill="none" xmlns="http://www.w3.org/2000/svg">
<path fill-rule="evenodd" clip-rule="evenodd" d="M9.56893 0.431426C9.20268 0.0651758 8.61018 0.0651758 8.24393 0.431426L5.00018 3.67393L1.75643 0.431426C1.39018 0.0651758 0.797676 0.0651758 0.431426 0.431426C0.0651758 0.797676 0.0651758 1.39018 0.431426 1.75643L3.67518 5.00018L0.431426 8.24393C0.0651758 8.61018 0.0651758 9.20268 0.431426 9.56893C0.797676 9.93518 1.39018 9.93518 1.75643 9.56893L5.00018 6.32643L8.24393 9.56893C8.42643 9.75268 8.66643 9.84393 8.90643 9.84393C9.14643 9.84393 9.38643 9.75268 9.56893 9.56893C9.93518 9.20268 9.93518 8.61018 9.56893 8.24393L6.32643 5.00018L9.56893 1.75643C9.93518 1.39018 9.93518 0.797676 9.56893 0.431426Z" fill="white"/>
</svg>
