<svg width="171" height="18" viewBox="0 0 171 18" fill="none" xmlns="http://www.w3.org/2000/svg">
<path fill-rule="evenodd" clip-rule="evenodd" d="M41.3792 11.0409L39.2175 9.69255L39.0566 9.95686C38.5638 10.7695 37.8906 11.1815 37.0559 11.1807C35.6259 11.1801 34.5483 10.0478 34.5491 8.54643C34.5497 7.04588 35.6288 5.91502 37.0586 5.91563C37.9051 5.91644 38.5409 6.30669 39.0599 7.14435L39.2211 7.40459L41.3932 6.05337L41.2055 5.76812C40.1681 4.19045 38.8119 3.42358 37.0602 3.42236C33.7485 3.42074 31.9601 6.06029 31.959 8.54481C31.9576 11.0297 33.7429 13.6717 37.0544 13.6734C38.7416 13.6744 40.3336 12.7736 41.2096 11.3223L41.3792 11.0409Z" fill="#C01818"/>
<path fill-rule="evenodd" clip-rule="evenodd" d="M47.4105 5.45205L48.6203 8.64035L46.1841 8.63893L47.4105 5.45205ZM41.2705 13.6761L44.2598 13.6777L45.1478 11.3591L49.6335 11.3613L50.519 13.6814L53.521 13.6834L48.1663 0.0921632L45.5002 0.090332L46.2102 1.89222L41.2705 13.6761Z" fill="#C01818"/>
<path fill-rule="evenodd" clip-rule="evenodd" d="M54.7584 13.6836L57.3813 13.6852L57.3846 7.5855L59.0949 7.58672L59.0963 5.02774L57.386 5.02672L57.3866 3.81733C57.3868 3.29829 57.7178 2.7471 58.3316 2.74751C58.6685 2.74771 58.872 2.80814 59.0747 2.89929L59.3667 3.03134L60.4565 0.534414L60.1424 0.39972C59.6551 0.189948 58.9761 0.114665 58.5025 0.114258C57.3133 0.113648 56.3328 0.521799 55.6666 1.29436C55.0851 1.96884 54.7643 2.90702 54.7635 3.93513L54.7629 5.0251L53.6049 5.02449L53.6035 7.58367L54.7617 7.58388L54.7584 13.6836Z" fill="#C01818"/>
<path fill-rule="evenodd" clip-rule="evenodd" d="M19.5938 0.0112305V13.6623L22.4436 13.6644L22.4479 5.85984L25.2102 8.01983L27.9746 5.85984V13.6676L30.8202 13.669L30.8276 0.0112305L25.2119 4.46509L19.5938 0.0112305Z" fill="#C01818"/>
<path fill-rule="evenodd" clip-rule="evenodd" d="M62.7147 7.31677C63.0573 6.38551 63.7958 5.84185 64.7505 5.84226C65.7152 5.84287 66.4683 6.37534 66.8676 7.31921L62.7147 7.31677ZM65.0023 3.46924C61.7009 3.46741 59.9176 6.09964 59.916 8.57662C59.915 11.0544 61.6953 13.6879 64.9968 13.6899H64.9984H65.0005C66.5144 13.6728 67.9342 12.9487 69.0331 11.6428L66.8938 10.4182C66.3454 11.0078 65.6792 11.3179 64.9441 11.3175C63.8667 11.3167 62.9117 10.5633 62.6618 9.57767L69.7954 9.58154L69.7958 8.90176C69.798 5.15678 66.994 3.47046 65.0023 3.46924Z" fill="#C01818"/>
<path fill-rule="evenodd" clip-rule="evenodd" d="M73.4364 7.32311C73.7787 6.39186 74.5169 5.84799 75.4722 5.8486C76.4369 5.84922 77.19 6.38168 77.5893 7.32556L73.4364 7.32311ZM75.7238 3.47559C72.422 3.47355 70.6392 6.10578 70.6377 8.58297C70.6365 11.0608 72.4164 13.6942 75.7183 13.6963H75.7199H75.7216C77.2361 13.6792 78.6558 12.9546 79.7545 11.6492L77.6153 10.4245C77.0665 11.0142 76.4007 11.3243 75.6658 11.3239C74.5882 11.323 73.633 10.5696 73.3833 9.58402L80.5169 9.58789L80.5175 8.90811C80.5196 5.16292 77.7155 3.47681 75.7238 3.47559Z" fill="#C01818"/>
<path fill-rule="evenodd" clip-rule="evenodd" d="M80.3232 0.992188H82.5439V1.4276H81.6716V3.87122H81.1917V1.4276H80.3232V0.992188Z" fill="#C01818"/>
<path fill-rule="evenodd" clip-rule="evenodd" d="M82.8545 0.992188H83.5306L84.2874 3.24658H84.2951L85.0329 0.992188H85.7013V3.87122H85.2442V1.64938H85.2361L84.4762 3.87122H84.08L83.3189 1.64938H83.3116V3.87122H82.8545V0.992188Z" fill="#C01818"/>
<path fill-rule="evenodd" clip-rule="evenodd" d="M2.88749 11.6563V4.73871L7.04486 6.75688V3.41944L0 0V13.5909L7.04486 17.0132V13.6753L2.88749 11.6563Z" fill="#BD2E2B"/>
<path fill-rule="evenodd" clip-rule="evenodd" d="M11.2023 11.6563V4.73871L7.04492 6.75688V3.41944L14.0898 0V13.5909L7.04492 17.0132V13.6753L11.2023 11.6563Z" fill="#75160D"/>
<path fill-rule="evenodd" clip-rule="evenodd" d="M2.88749 11.6563V4.73871L7.04486 6.75688V3.41944L0 0V13.5909L7.04486 17.0132V13.6753L2.88749 11.6563Z" fill="#BD2E2B"/>
<path fill-rule="evenodd" clip-rule="evenodd" d="M11.2023 11.6563V4.73871L7.04492 6.75688V3.41944L14.0898 0V13.5909L7.04492 17.0132V13.6753L11.2023 11.6563Z" fill="#75160D"/>
<path d="M91 2.40283V15.6538" stroke="#C01818" stroke-linecap="square"/>
<path fill-rule="evenodd" clip-rule="evenodd" d="M107.315 13.5337H105.703L104.166 7.85842C104.1 7.6111 104.017 7.25423 103.918 6.7878C103.819 6.32137 103.759 5.99704 103.738 5.81481C103.697 6.0925 103.63 6.45262 103.537 6.89519C103.444 7.33776 103.366 7.66751 103.304 7.88445L101.804 13.5337H100.193L99.0211 8.76958L97.8311 4.01852H99.3435L100.639 9.5636C100.841 10.4531 100.986 11.2384 101.073 11.9196C101.118 11.5508 101.186 11.1386 101.277 10.683C101.368 10.2274 101.451 9.85864 101.525 9.57661L103.001 4.01852H104.47L105.982 9.60265C106.127 10.119 106.279 10.8913 106.441 11.9196C106.503 11.2991 106.651 10.5095 106.887 9.55058L108.176 4.01852H109.676L107.315 13.5337ZM113.544 13.6638C112.478 13.6638 111.644 13.3373 111.043 12.6843C110.442 12.0313 110.141 11.1321 110.141 9.98664C110.141 8.8108 110.42 7.88663 110.978 7.2141C111.536 6.54157 112.302 6.20531 113.277 6.20531C114.182 6.20531 114.897 6.49384 115.422 7.07092C115.947 7.64799 116.209 8.44199 116.209 9.45296V10.2795H111.641C111.662 10.9781 111.841 11.515 112.18 11.8903C112.519 12.2656 112.996 12.4533 113.612 12.4533C114.017 12.4533 114.394 12.4132 114.743 12.3329C115.093 12.2526 115.468 12.1192 115.868 11.9326V13.1757C115.513 13.3536 115.153 13.4794 114.79 13.5532C114.426 13.627 114.011 13.6638 113.544 13.6638ZM113.277 7.36379C112.815 7.36379 112.444 7.51782 112.165 7.82588C111.886 8.13394 111.72 8.58301 111.666 9.1731H114.777C114.769 8.57867 114.633 8.12852 114.368 7.82263C114.104 7.51673 113.74 7.36379 113.277 7.36379ZM121.366 6.20531C122.222 6.20531 122.888 6.53072 123.365 7.18156C123.843 7.83239 124.081 8.74571 124.081 9.92156C124.081 11.1017 123.84 12.0205 123.356 12.6778C122.873 13.3352 122.201 13.6638 121.342 13.6638C120.474 13.6638 119.8 13.3363 119.321 12.6811H119.222L118.955 13.5337H117.864V3.40674H119.321V5.81481C119.321 5.99271 119.313 6.25738 119.296 6.60883C119.28 6.96028 119.267 7.18373 119.259 7.27918H119.321C119.784 6.56326 120.466 6.20531 121.366 6.20531ZM120.988 7.4549C120.401 7.4549 119.979 7.63605 119.721 7.99835C119.462 8.36065 119.329 8.967 119.321 9.81742V9.92155C119.321 10.798 119.453 11.4326 119.718 11.8252C119.982 12.2179 120.414 12.4142 121.013 12.4142C121.53 12.4142 121.921 12.1995 122.188 11.7699C122.454 11.3404 122.587 10.7199 122.587 9.90854C122.587 8.27277 122.054 7.4549 120.988 7.4549ZM131.55 13.5337L130.645 10.8913H127.18L126.294 13.5337H124.732L128.123 3.97947H129.734L133.125 13.5337H131.55ZM130.255 9.55058L129.406 6.96027C129.344 6.78672 129.258 6.51337 129.148 6.14023C129.039 5.76708 128.963 5.49373 128.922 5.32018C128.811 5.85386 128.647 6.43744 128.433 7.07091L127.614 9.55058H130.255ZM136.478 13.6638C135.623 13.6638 134.955 13.3384 134.476 12.6876C133.997 12.0368 133.757 11.1234 133.757 9.94759C133.757 8.76741 134 7.84866 134.485 7.19132C134.971 6.53398 135.643 6.20531 136.503 6.20531C137.404 6.20531 138.09 6.55459 138.561 7.25315H138.635C138.565 6.73682 138.53 6.32897 138.53 6.02959V3.40674H139.992V13.5337H138.852L138.598 12.59H138.53C138.063 13.3059 137.379 13.6638 136.478 13.6638ZM136.869 12.4273C137.468 12.4273 137.904 12.2504 138.176 11.8968C138.449 11.5432 138.59 10.9694 138.598 10.1754V9.9606C138.598 9.05377 138.457 8.40946 138.176 8.02764C137.895 7.64581 137.455 7.4549 136.856 7.4549C136.344 7.4549 135.949 7.67293 135.672 8.10899C135.395 8.54505 135.257 9.16659 135.257 9.97362C135.257 10.772 135.391 11.3805 135.66 11.7992C135.928 12.2179 136.331 12.4273 136.869 12.4273ZM143.637 13.5337L141.034 6.33548H142.571L143.966 10.5203C144.205 11.2232 144.35 11.7916 144.4 12.2255H144.449C144.486 11.9131 144.631 11.3447 144.883 10.5203L146.278 6.33548H147.827L145.212 13.5337H143.637ZM150.325 13.5337H148.869V6.33548H150.325V13.5337ZM148.782 4.42854C148.782 4.15519 148.853 3.94476 148.996 3.79723C149.138 3.64971 149.342 3.57595 149.606 3.57595C149.862 3.57595 150.062 3.64971 150.204 3.79723C150.347 3.94476 150.418 4.15519 150.418 4.42854C150.418 4.68887 150.347 4.89388 150.204 5.04357C150.062 5.19327 149.862 5.26811 149.606 5.26811C149.342 5.26811 149.138 5.19327 148.996 5.04357C148.853 4.89388 148.782 4.68887 148.782 4.42854ZM157.013 11.4835C157.013 12.1865 156.769 12.7255 156.282 13.1009C155.794 13.4762 155.096 13.6638 154.187 13.6638C153.274 13.6638 152.54 13.5185 151.986 13.2278V11.9066C152.792 12.2971 153.542 12.4923 154.236 12.4923C155.133 12.4923 155.581 12.2081 155.581 11.6397C155.581 11.4575 155.532 11.3057 155.433 11.1842C155.334 11.0627 155.17 10.9369 154.943 10.8067C154.716 10.6765 154.4 10.529 153.995 10.3641C153.205 10.043 152.671 9.72197 152.392 9.40089C152.113 9.07981 151.974 8.66328 151.974 8.1513C151.974 7.53517 152.211 7.05682 152.684 6.71621C153.157 6.37561 153.8 6.20531 154.614 6.20531C155.42 6.20531 156.183 6.37669 156.902 6.71947L156.431 7.87144C155.691 7.55036 155.069 7.38982 154.565 7.38982C153.796 7.38982 153.412 7.61978 153.412 8.0797C153.412 8.30533 153.512 8.49623 153.713 8.65243C153.913 8.80863 154.35 9.02341 155.024 9.29676C155.59 9.52672 156.001 9.73715 156.257 9.92806C156.513 10.119 156.703 10.3392 156.827 10.5887C156.951 10.8381 157.013 11.1364 157.013 11.4835ZM164.668 9.92156C164.668 11.0974 164.381 12.0151 163.807 12.6746C163.232 13.3341 162.433 13.6638 161.408 13.6638C160.767 13.6638 160.201 13.512 159.71 13.2083C159.218 12.9045 158.84 12.4685 158.575 11.9001C158.311 11.3317 158.179 10.6722 158.179 9.92156C158.179 8.75439 158.464 7.84324 159.034 7.18807C159.604 6.53289 160.408 6.20531 161.445 6.20531C162.437 6.20531 163.222 6.54049 163.801 7.21084C164.379 7.8812 164.668 8.78476 164.668 9.92156ZM159.679 9.92155C159.679 11.5834 160.263 12.4142 161.433 12.4142C162.59 12.4142 163.168 11.5834 163.168 9.92155C163.168 8.27711 162.586 7.4549 161.42 7.4549C160.809 7.4549 160.366 7.66751 160.091 8.09272C159.816 8.51793 159.679 9.12754 159.679 9.92155ZM169.819 6.20531C170.113 6.20531 170.354 6.22701 170.544 6.27039L170.402 7.69571C170.195 7.64365 169.98 7.61761 169.757 7.61761C169.175 7.61761 168.702 7.8172 168.341 8.21638C167.979 8.61556 167.798 9.13405 167.798 9.77186V13.5337H166.342V6.33548H167.482L167.674 7.6046H167.749C167.976 7.17505 168.273 6.83445 168.638 6.58279C169.004 6.33114 169.398 6.20531 169.819 6.20531Z" fill="#C01818"/>
</svg>
