<?xml version="1.0" encoding="UTF-8"?>
<svg width="74" height="60" viewBox="0 0 74 60" fill="none" xmlns="http://www.w3.org/2000/svg">
    <rect x="0.5" y="0.5" width="71.7221" height="58.8888" rx="7.5" stroke="#DADADA"/>
    <path opacity="0.55" d="M28.7065 55.4674H6.30151C5.78806 55.4674 5.32129 55.0469 5.32129 54.4861V44.2992C5.32129 43.7852 5.74138 43.3179 6.30151 43.3179H28.7531C29.2666 43.3179 29.7334 43.7384 29.7334 44.2992V54.4861C29.6867 55.0001 29.2666 55.4674 28.7065 55.4674Z" fill="#DBE0FE"/>
    <path opacity="0.55" d="M48.3575 11.355H5.88141C5.60135 11.355 5.32129 11.1213 5.32129 10.7942V9.71944C5.32129 9.43906 5.55467 9.15869 5.88141 9.15869H48.4042C48.6842 9.15869 48.9643 9.39234 48.9643 9.71944V10.7942C48.9176 11.1213 48.6842 11.355 48.3575 11.355Z" fill="#DBE0FE"/>
    <path opacity="0.55" d="M48.3575 15.8413H5.88141C5.60135 15.8413 5.32129 15.6076 5.32129 15.2805V14.2058C5.32129 13.9254 5.55467 13.645 5.88141 13.645H48.4042C48.6842 13.645 48.9643 13.8787 48.9643 14.2058V15.2805C48.9176 15.6076 48.6842 15.8413 48.3575 15.8413Z" fill="#DBE0FE"/>
    <path opacity="0.55" d="M48.3575 20.3271H5.88141C5.60135 20.3271 5.32129 20.0935 5.32129 19.7664V18.6916C5.32129 18.4112 5.55467 18.1309 5.88141 18.1309H48.4042C48.6842 18.1309 48.9643 18.3645 48.9643 18.6916V19.7664C48.9176 20.0935 48.6842 20.3271 48.3575 20.3271Z" fill="#DBE0FE"/>
    <path opacity="0.55" d="M48.3575 24.813H5.88141C5.60135 24.813 5.32129 24.5793 5.32129 24.2522V23.1774C5.32129 22.8971 5.55467 22.6167 5.88141 22.6167H48.4042C48.6842 22.6167 48.9643 22.8503 48.9643 23.1774V24.299C48.9176 24.5793 48.6842 24.813 48.3575 24.813Z" fill="#DBE0FE"/>
    <path opacity="0.55" d="M48.3575 29.2988H5.88141C5.60135 29.2988 5.32129 29.0652 5.32129 28.7381V27.6633C5.32129 27.3829 5.55467 27.1025 5.88141 27.1025H48.4042C48.6842 27.1025 48.9643 27.3362 48.9643 27.6633V28.7381C48.9176 29.0652 48.6842 29.2988 48.3575 29.2988Z" fill="#DBE0FE"/>
    <path opacity="0.55" d="M48.3575 33.7851H5.88141C5.60135 33.7851 5.32129 33.5515 5.32129 33.2244V32.1496C5.32129 31.8692 5.55467 31.5889 5.88141 31.5889H48.4042C48.6842 31.5889 48.9643 31.8225 48.9643 32.1496V33.2244C48.9176 33.5515 48.6842 33.7851 48.3575 33.7851Z" fill="#DBE0FE"/>
    <path d="M68.5453 0H4.17676C1.85634 0 0 1.86916 0 4.20561V6.21495H72.7221V4.20561C72.7221 1.86916 70.8658 0 68.5453 0Z" fill="url(#paint0_linear)"/>
    <path d="M62.3138 3.13084C62.3138 3.50467 62.0337 3.78504 61.6603 3.78504C61.2869 3.78504 61.0068 3.50467 61.0068 3.13084C61.0068 2.75701 61.2869 2.47663 61.6603 2.47663C61.9871 2.4299 62.3138 2.75701 62.3138 3.13084Z" fill="white"/>
    <path d="M65.6746 3.13084C65.6746 3.50467 65.3946 3.78504 65.0212 3.78504C64.6477 3.78504 64.3677 3.50467 64.3677 3.13084C64.3677 2.75701 64.6477 2.47663 65.0212 2.47663C65.3479 2.4299 65.6746 2.75701 65.6746 3.13084Z" fill="white"/>
    <path d="M69.0355 3.13084C69.0355 3.50467 68.7554 3.78504 68.382 3.78504C68.0086 3.78504 67.7285 3.50467 67.7285 3.13084C67.7285 2.75701 68.0086 2.47663 68.382 2.47663C68.7087 2.4299 69.0355 2.75701 69.0355 3.13084Z" fill="white"/>
    <path d="M45.1366 18.4109C39.9554 16.682 37.2015 13.5044 37.2015 13.5044C37.2015 13.5044 34.4009 16.682 29.2664 18.4109C24.552 19.953 19.6042 19.7661 19.6042 19.7661C19.6042 19.7661 19.6042 36.6352 25.3922 43.4109C30.8067 49.7661 37.1548 50.8876 37.1548 50.8876C37.1548 50.8876 43.5029 49.7661 48.9174 43.4109C54.7053 36.6352 54.7053 19.7661 54.7053 19.7661C54.7053 19.7661 49.7576 19.953 45.1366 18.4109Z" fill="#C01818"/>
    <path d="M36.5948 48.2241C35.1478 47.8502 30.7135 46.3082 26.7926 41.7287C23.2452 37.5231 22.0316 27.8969 21.7048 22.3362C23.7586 22.196 26.6526 21.8689 29.4532 20.9343C32.6739 19.8596 35.0545 18.3175 36.5948 17.1025C38.1351 18.3175 40.5157 19.9063 43.7364 20.9343C46.537 21.8689 49.431 22.2427 51.4848 22.3362C51.2047 27.8969 49.9911 37.5231 46.397 41.7287C42.4761 46.3082 37.9951 47.8502 36.5948 48.2241Z" fill="#75160D"/>
    <path d="M36.5953 47.3363C35.055 46.9158 31.0408 45.4204 27.4466 41.1681C24.1793 37.3363 22.9657 28.598 22.6389 23.084C24.646 22.8971 27.2133 22.5232 29.7338 21.6821C32.7212 20.7008 35.0083 19.2989 36.5953 18.084C38.1824 19.2522 40.4695 20.6541 43.4569 21.6821C45.9774 22.5232 48.5447 22.8971 50.5518 23.084C50.225 28.598 49.0114 37.3363 45.744 41.1681C42.1032 45.4204 38.089 46.9158 36.5953 47.3363Z" fill="url(#paint1_linear)"/>
    <path d="M39.5361 29.2056C39.5361 30.8412 38.2291 32.1496 36.5954 32.1496C34.9617 32.1496 33.6548 30.8412 33.6548 29.2056C33.6548 27.5701 34.9617 26.2617 36.5954 26.2617C38.1825 26.2617 39.5361 27.5701 39.5361 29.2056Z" fill="white"/>
    <path d="M36.595 38.3645C35.8948 38.3645 35.3347 37.8037 35.3347 37.1028V30.3271C35.3347 29.6262 35.8948 29.0654 36.595 29.0654C37.2951 29.0654 37.8553 29.6262 37.8553 30.3271V37.1495C37.8086 37.8037 37.2485 38.3645 36.595 38.3645Z" fill="white"/>
    <defs>
        <linearGradient id="paint0_linear" x1="0" y1="3.11808" x2="72.7304" y2="3.11808" gradientUnits="userSpaceOnUse">
            <stop stop-color="#F84E49"/>
            <stop offset="1" stop-color="#C01818"/>
        </linearGradient>
        <linearGradient id="paint1_linear" x1="22.5921" y1="32.7379" x2="50.5603" y2="32.7379" gradientUnits="userSpaceOnUse">
            <stop stop-color="#F1342F"/>
            <stop offset="1" stop-color="#C01818"/>
        </linearGradient>
    </defs>
</svg>
