<?xml version="1.0" encoding="UTF-8"?>
<svg width="24px" height="24px" viewBox="0 0 24 24" version="1.1" xmlns="http://www.w3.org/2000/svg" xmlns:xlink="http://www.w3.org/1999/xlink">
    <!-- Generator: Sketch 48.1 (47250) - http://www.bohemiancoding.com/sketch -->
    <title>search-icon</title>
    <desc>Created with Sketch.</desc>
    <defs></defs>
    <g id="1.1-error" stroke="none" stroke-width="1" fill="none" fill-rule="evenodd" transform="translate(-1042.000000, -380.000000)">
        <path d="M1059.66198,395.320234 C1060.56887,394.102516 1061.19903,392.666574 1061.44777,391.104375 C1061.46777,390.978728 1061.48531,390.852265 1061.50033,390.725032 C1061.54368,390.357693 1061.56601,389.983945 1061.56601,389.604938 C1061.56601,384.31045 1056.89465,380 1051.60016,380 C1046.30567,380 1042,384.305672 1042,389.60016 C1042,394.894648 1046.30567,399.500325 1051.60016,399.500325 C1053.7426,399.500325 1055.71543,398.786713 1057.31546,397.596293 L1063.60996,403.590793 C1063.88356,403.864398 1064.24357,404.0004 1064.60038,404.0004 C1064.95718,404.0004 1065.31719,403.864398 1065.59079,403.590793 C1066.1364,403.043584 1066.1364,402.157169 1065.59079,401.60996 L1059.66198,395.320234 Z M1045.00005,389.750163 C1045.00005,386.027277 1048.02728,383.00005 1051.75016,383.00005 C1055.47305,383.00005 1058.50028,386.027277 1058.50028,389.750163 C1058.50028,393.473048 1055.47305,396.500275 1051.75016,396.500275 C1048.02728,396.500275 1045.00005,393.473048 1045.00005,389.750163 L1045.00005,389.750163 Z" id="search-icon" fill="#00AEEF"></path>
    </g>
</svg>