<svg width="68" height="16" viewBox="0 0 68 16" fill="transparent" xmlns="http://www.w3.org/2000/svg">
  <rect width="68" height="16" fill="transparent"/>
  <path fill-rule="evenodd" clip-rule="evenodd" d="M8 16C12.4183 16 16 12.4183 16 8C16 3.58172 12.4183 0 8 0C3.58172 0 0 3.58172 0 8C0 12.4183 3.58172 16 8 16Z" fill="#0BD175"/>
  <path fill-rule="evenodd" clip-rule="evenodd" d="M22.6642 10.649V4.92266L26.5 6.59328V3.83058L20 1V12.2504L26.5 15.0833V12.3203L22.6642 10.649Z" fill="#BD2E2B"/>
  <path fill-rule="evenodd" clip-rule="evenodd" d="M30.3358 10.649V4.92266L26.5 6.59328V3.83058L33 1V12.2504L26.5 15.0833V12.3203L30.3358 10.649Z" fill="#75160D"/>
  <path fill-rule="evenodd" clip-rule="evenodd" d="M38.1367 7L36.7617 2.51953H36.7266C36.776 3.43099 36.8008 4.03906 36.8008 4.34375V7H35.7188V1.28906H37.3672L38.7188 5.65625H38.7422L40.1758 1.28906H41.8242V7H40.6953V4.29688C40.6953 4.16927 40.6973 4.02214 40.7012 3.85547C40.7051 3.6888 40.7227 3.2461 40.7539 2.52734H40.7188L39.2461 7H38.1367ZM44.9414 7.07812C43.582 7.07812 42.9023 6.33204 42.9023 4.83984C42.9023 4.09765 43.0872 3.5306 43.457 3.13867C43.8268 2.74674 44.3568 2.55078 45.0469 2.55078C45.5521 2.55078 46.0052 2.64974 46.4062 2.84766L46.0547 3.76953C45.8672 3.69401 45.6927 3.63216 45.5312 3.58398C45.3698 3.53581 45.2083 3.51172 45.0469 3.51172C44.4271 3.51172 44.1172 3.95182 44.1172 4.83203C44.1172 5.6862 44.4271 6.11328 45.0469 6.11328C45.276 6.11328 45.4883 6.08268 45.6836 6.02148C45.8789 5.96029 46.0742 5.86458 46.2695 5.73438V6.75391C46.0768 6.8763 45.8822 6.96094 45.6855 7.00781C45.4889 7.05469 45.2409 7.07812 44.9414 7.07812ZM50.8711 7L50.457 5.64062H48.375L47.9609 7H46.6562L48.6719 1.26562H50.1523L52.1758 7H50.8711ZM50.168 4.625C49.7852 3.39322 49.5697 2.69662 49.5215 2.53516C49.4733 2.3737 49.4388 2.24609 49.418 2.15234C49.332 2.48568 49.0859 3.30989 48.6797 4.625H50.168ZM55.2148 3.52734H54.1836V7H52.9922V3.52734H52.3359V2.95312L52.9922 2.63281V2.3125C52.9922 1.8151 53.1146 1.45182 53.3594 1.22266C53.6042 0.993488 53.9961 0.878906 54.5352 0.878906C54.9466 0.878906 55.3125 0.940104 55.6328 1.0625L55.3281 1.9375C55.0885 1.86198 54.8672 1.82422 54.6641 1.82422C54.4948 1.82422 54.3724 1.87435 54.2969 1.97461C54.2214 2.07487 54.1836 2.20312 54.1836 2.35938V2.63281H55.2148V3.52734ZM57.707 3.39844C57.4544 3.39844 57.2565 3.47851 57.1133 3.63867C56.9701 3.79883 56.888 4.02604 56.8672 4.32031H58.5391C58.5339 4.02604 58.457 3.79883 58.3086 3.63867C58.1602 3.47851 57.9596 3.39844 57.707 3.39844ZM57.875 7.07812C57.1719 7.07812 56.6224 6.88412 56.2266 6.49609C55.8307 6.10807 55.6328 5.5586 55.6328 4.84766C55.6328 4.11588 55.8158 3.55013 56.1816 3.15039C56.5475 2.75065 57.0534 2.55078 57.6992 2.55078C58.3164 2.55078 58.7969 2.72656 59.1406 3.07812C59.4844 3.42969 59.6562 3.91536 59.6562 4.53516V5.11328H56.8398C56.8529 5.45182 56.9531 5.71615 57.1406 5.90625C57.3281 6.09635 57.5911 6.19141 57.9297 6.19141C58.1927 6.19141 58.4414 6.16406 58.6758 6.10938C58.9102 6.05469 59.1549 5.96745 59.4102 5.84766V6.76953C59.2018 6.8737 58.9792 6.95117 58.7422 7.00195C58.5052 7.05273 58.2161 7.07812 57.875 7.07812ZM62.4336 3.39844C62.181 3.39844 61.9831 3.47851 61.8398 3.63867C61.6966 3.79883 61.6146 4.02604 61.5938 4.32031H63.2656C63.2604 4.02604 63.1836 3.79883 63.0352 3.63867C62.8867 3.47851 62.6862 3.39844 62.4336 3.39844ZM62.6016 7.07812C61.8984 7.07812 61.349 6.88412 60.9531 6.49609C60.5573 6.10807 60.3594 5.5586 60.3594 4.84766C60.3594 4.11588 60.5423 3.55013 60.9082 3.15039C61.2741 2.75065 61.7799 2.55078 62.4258 2.55078C63.043 2.55078 63.5234 2.72656 63.8672 3.07812C64.2109 3.42969 64.3828 3.91536 64.3828 4.53516V5.11328H61.5664C61.5794 5.45182 61.6797 5.71615 61.8672 5.90625C62.0547 6.09635 62.3177 6.19141 62.6562 6.19141C62.9193 6.19141 63.168 6.16406 63.4023 6.10938C63.6367 6.05469 63.8815 5.96745 64.1367 5.84766V6.76953C63.9284 6.8737 63.7057 6.95117 63.4688 7.00195C63.2318 7.05273 62.9427 7.07812 62.6016 7.07812ZM39.0898 12.4141C39.0898 12.9297 38.9043 13.3359 38.5332 13.6328C38.1621 13.9297 37.6458 14.0781 36.9844 14.0781C36.375 14.0781 35.8359 13.9635 35.3672 13.7344V12.6094C35.7526 12.7813 36.0788 12.9023 36.3457 12.9727C36.6126 13.043 36.8568 13.0781 37.0781 13.0781C37.3438 13.0781 37.5475 13.0273 37.6895 12.9258C37.8314 12.8242 37.9023 12.6732 37.9023 12.4727C37.9023 12.3607 37.8711 12.2611 37.8086 12.1738C37.7461 12.0866 37.6543 12.0026 37.5332 11.9219C37.4121 11.8411 37.1654 11.7122 36.793 11.5352C36.444 11.3711 36.1823 11.2135 36.0078 11.0625C35.8333 10.9115 35.694 10.7357 35.5898 10.5352C35.4857 10.3346 35.4336 10.1003 35.4336 9.83203C35.4336 9.32682 35.6048 8.92969 35.9473 8.64062C36.2897 8.35156 36.763 8.20703 37.3672 8.20703C37.6641 8.20703 37.9473 8.24219 38.2168 8.3125C38.4863 8.38281 38.7682 8.48177 39.0625 8.60938L38.6719 9.55078C38.3672 9.42578 38.1152 9.33854 37.916 9.28906C37.7168 9.23958 37.5208 9.21484 37.3281 9.21484C37.099 9.21484 36.9232 9.26823 36.8008 9.375C36.6784 9.48177 36.6172 9.62109 36.6172 9.79297C36.6172 9.89974 36.6419 9.99284 36.6914 10.0723C36.7409 10.1517 36.8197 10.2285 36.9277 10.3027C37.0358 10.377 37.2917 10.5104 37.6953 10.7031C38.2292 10.9583 38.5951 11.2142 38.793 11.4707C38.9909 11.7272 39.0898 12.0417 39.0898 12.4141ZM43.4141 14H40.125V8.28906H43.4141V9.28125H41.3359V10.5352H43.2695V11.5273H41.3359V13H43.4141V14ZM47.0312 9.21484C46.5755 9.21484 46.2227 9.38607 45.9727 9.72852C45.7227 10.071 45.5977 10.5482 45.5977 11.1602C45.5977 12.4336 46.0755 13.0703 47.0312 13.0703C47.4323 13.0703 47.918 12.9701 48.4883 12.7695V13.7852C48.0195 13.9805 47.4961 14.0781 46.918 14.0781C46.0872 14.0781 45.4518 13.8262 45.0117 13.3223C44.5716 12.8184 44.3516 12.0951 44.3516 11.1523C44.3516 10.5586 44.4596 10.0384 44.6758 9.5918C44.8919 9.14518 45.2025 8.80274 45.6074 8.56445C46.0124 8.32617 46.487 8.20703 47.0312 8.20703C47.5859 8.20703 48.1432 8.34114 48.7031 8.60938L48.3125 9.59375C48.099 9.49219 47.8841 9.40365 47.668 9.32812C47.4518 9.2526 47.2396 9.21484 47.0312 9.21484ZM54.3516 8.28906V11.9844C54.3516 12.4063 54.2572 12.776 54.0684 13.0938C53.8796 13.4115 53.6068 13.6549 53.25 13.8242C52.8932 13.9935 52.4714 14.0781 51.9844 14.0781C51.25 14.0781 50.6797 13.89 50.2734 13.5137C49.8672 13.1374 49.6641 12.6224 49.6641 11.9688V8.28906H50.8711V11.7852C50.8711 12.2253 50.9596 12.5482 51.1367 12.7539C51.3138 12.9596 51.6068 13.0625 52.0156 13.0625C52.4115 13.0625 52.6986 12.959 52.877 12.752C53.0553 12.5449 53.1445 12.2201 53.1445 11.7773V8.28906H54.3516ZM56.9609 10.8242H57.3516C57.7344 10.8242 58.0169 10.7604 58.1992 10.6328C58.3815 10.5052 58.4727 10.3047 58.4727 10.0312C58.4727 9.76042 58.3796 9.56771 58.1934 9.45312C58.0072 9.33854 57.7188 9.28125 57.3281 9.28125H56.9609V10.8242ZM56.9609 11.8086V14H55.75V8.28906H57.4141C58.1901 8.28906 58.7643 8.43034 59.1367 8.71289C59.5091 8.99544 59.6953 9.42448 59.6953 10C59.6953 10.3359 59.6029 10.6348 59.418 10.8965C59.2331 11.1582 58.9714 11.3633 58.6328 11.5117C59.4922 12.7956 60.0521 13.625 60.3125 14H58.9688L57.6055 11.8086H56.9609ZM64.3203 14H61.0312V8.28906H64.3203V9.28125H62.2422V10.5352H64.1758V11.5273H62.2422V13H64.3203V14Z" fill="#292D36"/>
  <path fill-rule="evenodd" clip-rule="evenodd" d="M6.38462 5.26667C6.38462 4.52 7.07693 3.88 8.00001 3.88C8.46154 3.88 8.80769 3.98667 9.15385 4.30667C9.38462 4.52 9.61538 4.94667 9.61538 5.26667C9.61538 6.46667 9.61538 6.46667 9.61538 6.46667C10.4231 6.46667 10.4231 6.46667 10.4231 6.46667C10.4231 5.26667 10.4231 5.26667 10.4231 5.26667C10.4231 4.73333 10.1923 4.09333 9.73077 3.66666C9.26923 3.24 8.69231 3 8.00001 3C6.61539 3 5.46154 4.09333 5.46154 5.26667C5.46154 6.46667 5.46154 6.46667 5.46154 6.46667C5 6.46667 5 6.46667 5 6.46667C5 11 5 11 5 11C11 11 11 11 11 11C11 6.46667 11 6.46667 11 6.46667H6.38462C6.38462 5.26667 6.38462 5.26667 6.38462 5.26667Z" fill="white"/>
</svg>
