<svg width="16" height="16" viewBox="0 0 16 16" fill="transparent" xmlns="http://www.w3.org/2000/svg">
  <rect width="16" height="16" fill="transparent"/>
  <path fill-rule="evenodd" clip-rule="evenodd" d="M8 16C12.4183 16 16 12.4183 16 8C16 3.58172 12.4183 0 8 0C3.58172 0 0 3.58172 0 8C0 12.4183 3.58172 16 8 16Z" fill="#768F99"/>
  <path fill-rule="evenodd" clip-rule="evenodd" d="M7.30052 9.53368V9.16202C7.30052 8.73616 7.37795 8.38192 7.53281 8.0993C7.68767 7.81668 7.95867 7.52439 8.34582 7.22242C8.80653 6.8585 9.10366 6.57588 9.23722 6.37456C9.37079 6.17325 9.43757 5.93322 9.43757 5.65447C9.43757 5.32927 9.32917 5.07956 9.11237 4.90534C8.89557 4.73113 8.58392 4.64402 8.17741 4.64402C7.80962 4.64402 7.46893 4.69628 7.15534 4.80081C6.84175 4.90534 6.53591 5.03116 6.2378 5.17828L5.75 4.15621C6.53591 3.71874 7.37795 3.5 8.27613 3.5C9.03494 3.5 9.63695 3.68583 10.0822 4.05749C10.5274 4.42915 10.75 4.94212 10.75 5.5964C10.75 5.88676 10.7074 6.14518 10.6222 6.37166C10.5371 6.59814 10.4083 6.81398 10.2361 7.01916C10.0638 7.22435 9.76665 7.49148 9.34466 7.82056C8.98461 8.10318 8.74361 8.3374 8.62166 8.52323C8.49971 8.70906 8.43873 8.95877 8.43873 9.27236V9.53368H7.30052ZM7.06242 11.3862C7.06242 10.8016 7.34697 10.5093 7.91608 10.5093C8.19483 10.5093 8.40776 10.5858 8.55487 10.7387C8.70199 10.8916 8.77555 11.1074 8.77555 11.3862C8.77555 11.6611 8.70102 11.8788 8.55197 12.0395C8.40292 12.2002 8.19096 12.2805 7.91608 12.2805C7.64121 12.2805 7.43021 12.2021 7.2831 12.0453C7.13598 11.8885 7.06242 11.6688 7.06242 11.3862Z" fill="white"/>
</svg>
