<svg width="112" height="164" viewBox="0 0 112 164" fill="none" xmlns="http://www.w3.org/2000/svg">
<g clip-path="url(#clip0)">
<rect x="0.761719" y="0.5" width="343" height="344.458" fill="url(#paint0_linear)"/>
<path d="M450.762 9.10764C450.762 9.10764 349.766 -21.9876 350.455 34.025C351.144 89.8317 323.975 120.927 283.124 98.2748C242.273 75.4167 189.018 50.7052 186.459 96.2155C183.9 141.726 124.739 127.311 87.0379 90.0376C49.3367 52.7645 -38.5674 89.008 -24.7862 187.854V314.5H450.762V9.10764Z" fill="url(#paint1_linear)"/>
<rect x="17.0312" y="31.5" width="77" height="101" rx="6" fill="white"/>
<path opacity="0.55" d="M69.4195 65.5H26.596C26.3136 65.5 26.0312 65.1809 26.0312 64.734V63.266C26.0312 62.883 26.2665 62.5 26.596 62.5H69.4665C69.7489 62.5 70.0312 62.8191 70.0312 63.266V64.734C69.9842 65.1809 69.7489 65.5 69.4195 65.5Z" fill="#E6E9F0"/>
<path opacity="0.55" d="M69.4195 70.5H26.596C26.3136 70.5 26.0312 70.1809 26.0312 69.734V68.266C26.0312 67.883 26.2665 67.5 26.596 67.5H69.4665C69.7489 67.5 70.0312 67.8191 70.0312 68.266V69.734C69.9842 70.1809 69.7489 70.5 69.4195 70.5Z" fill="#E6E9F0"/>
<path opacity="0.55" d="M69.4195 75.5H26.596C26.3136 75.5 26.0312 75.1809 26.0312 74.734V73.266C26.0312 72.883 26.2665 72.5 26.596 72.5H69.4665C69.7489 72.5 70.0312 72.8191 70.0312 73.266V74.734C69.9842 75.1809 69.7489 75.5 69.4195 75.5Z" fill="#E6E9F0"/>
<path opacity="0.55" d="M69.4195 88.5H26.596C26.3136 88.5 26.0312 88.1809 26.0312 87.734V86.266C26.0312 85.883 26.2665 85.5 26.596 85.5H69.4665C69.7489 85.5 70.0312 85.8191 70.0312 86.266V87.7979C69.9842 88.1809 69.7489 88.5 69.4195 88.5Z" fill="#E6E9F0"/>
<path opacity="0.55" d="M69.4195 93.5H26.596C26.3136 93.5 26.0312 93.1809 26.0312 92.734V91.266C26.0312 90.883 26.2665 90.5 26.596 90.5H69.4665C69.7489 90.5 70.0312 90.8191 70.0312 91.266V92.734C69.9842 93.1809 69.7489 93.5 69.4195 93.5Z" fill="#E6E9F0"/>
<path opacity="0.55" d="M69.4195 98.5H26.596C26.3136 98.5 26.0312 98.1808 26.0312 97.734V96.266C26.0312 95.883 26.2665 95.5 26.596 95.5H69.4665C69.7489 95.5 70.0312 95.8192 70.0312 96.266V97.734C69.9842 98.1808 69.7489 98.5 69.4195 98.5Z" fill="#E6E9F0"/>
<path opacity="0.55" d="M69.4195 111.5H26.596C26.3136 111.5 26.0312 111.181 26.0312 110.734V109.266C26.0312 108.883 26.2665 108.5 26.596 108.5H69.4665C69.7489 108.5 70.0312 108.819 70.0312 109.266V110.798C69.9842 111.181 69.7489 111.5 69.4195 111.5Z" fill="#E6E9F0"/>
<path opacity="0.55" d="M69.4195 116.5H26.596C26.3136 116.5 26.0312 116.181 26.0312 115.734V114.266C26.0312 113.883 26.2665 113.5 26.596 113.5H69.4665C69.7489 113.5 70.0312 113.819 70.0312 114.266V115.734C69.9842 116.181 69.7489 116.5 69.4195 116.5Z" fill="#E6E9F0"/>
<path opacity="0.55" d="M69.4195 121.5H26.596C26.3136 121.5 26.0312 121.181 26.0312 120.734V119.266C26.0312 118.883 26.2665 118.5 26.596 118.5H69.4665C69.7489 118.5 70.0312 118.819 70.0312 119.266V120.734C69.9842 121.181 69.7489 121.5 69.4195 121.5Z" fill="#E6E9F0"/>
<path d="M17.0312 36.5C17.0312 33.1863 19.7175 30.5 23.0312 30.5H88.0312C91.345 30.5 94.0312 33.1863 94.0312 36.5V38.5H17.0312V36.5Z" fill="#1671EE"/>
<path d="M89.4045 34.7958C89.4045 35.5115 88.824 36.0917 88.108 36.0917C87.392 36.0917 86.8115 35.5115 86.8115 34.7958C86.8115 34.0802 87.392 33.5 88.108 33.5C88.824 33.5 89.4045 34.0802 89.4045 34.7958Z" fill="white"/>
<path d="M83.7004 34.7958C83.7004 35.5115 83.1199 36.0917 82.4039 36.0917C81.6879 36.0917 81.1074 35.5115 81.1074 34.7958C81.1074 34.0802 81.6879 33.5 82.4039 33.5C83.1199 33.5 83.7004 34.0802 83.7004 34.7958Z" fill="white"/>
<path d="M77.3468 34.7958C77.3468 35.5115 76.7664 36.0917 76.0504 36.0917C75.3344 36.0917 74.7539 35.5115 74.7539 34.7958C74.7539 34.0802 75.3344 33.5 76.0504 33.5C76.7664 33.5 77.3468 34.0802 77.3468 34.7958Z" fill="white"/>
<g clip-path="url(#clip1)">
<path fill-rule="evenodd" clip-rule="evenodd" d="M78.7617 74.5C81.5231 74.5 83.7617 72.2614 83.7617 69.5C83.7617 66.7386 81.5231 64.5 78.7617 64.5C76.0003 64.5 73.7617 66.7386 73.7617 69.5C73.7617 72.2614 76.0003 74.5 78.7617 74.5Z" fill="#0BD175"/>
<path d="M78.0542 70.7253L80.911 67.3125L81.5116 67.8153L78.1672 71.8105L75.9492 70.0667L76.4333 69.451L78.0542 70.7253Z" fill="white" stroke="white" stroke-width="0.5"/>
</g>
<g clip-path="url(#clip2)">
<path fill-rule="evenodd" clip-rule="evenodd" d="M78.7617 120.5C81.5231 120.5 83.7617 118.261 83.7617 115.5C83.7617 112.739 81.5231 110.5 78.7617 110.5C76.0003 110.5 73.7617 112.739 73.7617 115.5C73.7617 118.261 76.0003 120.5 78.7617 120.5Z" fill="#0BD175"/>
<path d="M78.0542 116.725L80.911 113.312L81.5116 113.815L78.1672 117.811L75.9492 116.067L76.4333 115.451L78.0542 116.725Z" fill="white" stroke="white" stroke-width="0.5"/>
</g>
<g clip-path="url(#clip3)">
<path fill-rule="evenodd" clip-rule="evenodd" d="M78.7617 97.5C81.5231 97.5 83.7617 95.2614 83.7617 92.5C83.7617 89.7386 81.5231 87.5 78.7617 87.5C76.0003 87.5 73.7617 89.7386 73.7617 92.5C73.7617 95.2614 76.0003 97.5 78.7617 97.5Z" fill="#F1342F"/>
<line x1="76.6153" y1="90.2714" x2="80.9903" y2="94.6464" stroke="white"/>
<line y1="-0.5" x2="6.18718" y2="-0.5" transform="matrix(-0.707107 0.707107 0.707107 0.707107 81.2617 90.625)" stroke="white"/>
</g>
<rect x="23.0312" y="43.5" width="63" height="14" rx="7" fill="#F5F6FA"/>
<path d="M79.3104 48.4872C79.1254 47.1073 77.8568 46.1387 76.477 46.3237C75.0971 46.5087 74.1284 47.7773 74.3134 49.1571C74.4984 50.537 75.767 51.5057 77.1469 51.3207C78.5268 51.1357 79.4954 49.8671 79.3104 48.4872ZM78.9949 51.4781C78.5172 51.8716 77.9273 52.1409 77.2687 52.2292C75.387 52.4815 73.6572 51.1606 73.4049 49.2789C73.1526 47.3973 74.4735 45.6674 76.3552 45.4152C78.2368 45.1629 79.9667 46.4838 80.2189 48.3654C80.339 49.2608 80.1028 50.1218 79.6195 50.8056L82.0912 53.3433L81.4345 53.9829L78.9949 51.4781Z" fill="#848FAA"/>
</g>
<defs>
<linearGradient id="paint0_linear" x1="172.262" y1="0.5" x2="172.262" y2="344.958" gradientUnits="userSpaceOnUse">
<stop stop-color="#D4E3FF"/>
<stop offset="1" stop-color="#D4E3FF" stop-opacity="0"/>
</linearGradient>
<linearGradient id="paint1_linear" x1="254.122" y1="35.3796" x2="65.675" y2="240.312" gradientUnits="userSpaceOnUse">
<stop offset="0.0492388" stop-color="white"/>
<stop offset="1" stop-color="#DBEBFF"/>
</linearGradient>
<clipPath id="clip0">
<rect width="111" height="163" fill="white" transform="translate(0.761719 0.5)"/>
</clipPath>
<clipPath id="clip1">
<rect width="10" height="10" fill="white" transform="translate(73.7617 64.5)"/>
</clipPath>
<clipPath id="clip2">
<rect width="10" height="10" fill="white" transform="translate(73.7617 110.5)"/>
</clipPath>
<clipPath id="clip3">
<rect width="10" height="10" fill="white" transform="translate(73.7617 87.5)"/>
</clipPath>
</defs>
</svg>
