<svg width="311" height="25" viewBox="0 0 311 25" fill="none" xmlns="http://www.w3.org/2000/svg">
<path fill-rule="evenodd" clip-rule="evenodd" d="M64.9805 16.0327L61.5858 14.0747L61.3331 14.4585C60.5593 15.6385 59.5021 16.2368 58.1913 16.2356C55.9457 16.2348 54.2535 14.5905 54.2547 12.4103C54.2557 10.2313 55.9503 8.58915 58.1956 8.59004C59.5249 8.59122 60.5234 9.15791 61.3383 10.3743L61.5915 10.7522L65.0024 8.79007L64.7078 8.37583C63.0786 6.08484 60.9489 4.97126 58.198 4.96948C52.9975 4.96712 50.1891 8.80011 50.1873 12.408C50.1851 16.0164 52.9887 19.8529 58.1889 19.8553C60.8384 19.8568 63.3385 18.5488 64.7141 16.4413L64.9805 16.0327Z" fill="#C01818"/>
<path fill-rule="evenodd" clip-rule="evenodd" d="M74.4525 7.91679L76.3523 12.5466L72.5265 12.5446L74.4525 7.91679ZM64.8104 19.8593L69.5047 19.8616L70.8992 16.4946L77.9434 16.4978L79.334 19.8669L84.0483 19.8699L75.6394 0.133519L71.4526 0.130859L72.5676 2.74745L64.8104 19.8593Z" fill="#C01818"/>
<path fill-rule="evenodd" clip-rule="evenodd" d="M85.9914 19.8702L90.1103 19.8726L90.1155 11.015L92.8013 11.0168L92.8034 7.30082L90.1176 7.29934L90.1185 5.54313C90.1188 4.78941 90.6388 3.98902 91.6025 3.98961C92.1316 3.9899 92.4512 4.07765 92.7696 4.21002L93.228 4.40177L94.9394 0.775896L94.4463 0.580302C93.681 0.275683 92.6147 0.166363 91.871 0.165772C90.0035 0.164886 88.4638 0.757577 87.4175 1.87944C86.5043 2.85888 86.0005 4.22125 85.9993 5.7142L85.9984 7.29698L84.1799 7.29609L84.1777 11.0124L85.9966 11.0127L85.9914 19.8702Z" fill="#C01818"/>
<path fill-rule="evenodd" clip-rule="evenodd" d="M30.7693 0.017334V19.8406L35.2447 19.8435L35.2514 8.51031L39.5892 11.6469L43.9303 8.51031V19.8483L48.399 19.8503L48.4106 0.017334L39.5919 6.48494L30.7693 0.017334Z" fill="#C01818"/>
<path fill-rule="evenodd" clip-rule="evenodd" d="M98.4851 10.6248C99.023 9.27252 100.183 8.48305 101.682 8.48364C103.197 8.48453 104.38 9.25774 105.007 10.6284L98.4851 10.6248ZM102.077 5.0376C96.8931 5.03494 94.0925 8.8573 94.0901 12.4542C94.0886 16.0523 96.8842 19.8764 102.069 19.8794H102.071H102.075C104.452 19.8546 106.682 18.803 108.407 16.9068L105.048 15.1284C104.187 15.9847 103.14 16.4349 101.986 16.4343C100.294 16.4332 98.7944 15.3391 98.402 13.9079L109.604 13.9135L109.605 12.9264C109.608 7.48814 105.205 5.03937 102.077 5.0376Z" fill="#C01818"/>
<path fill-rule="evenodd" clip-rule="evenodd" d="M115.323 10.6341C115.861 9.28178 117.02 8.49202 118.52 8.4929C120.035 8.49379 121.218 9.26701 121.845 10.6376L115.323 10.6341ZM118.915 5.04688C113.73 5.04392 110.93 8.86628 110.928 12.4635C110.926 16.0616 113.721 19.8857 118.906 19.8887H118.909H118.912C121.29 19.8639 123.519 18.8117 125.245 16.9161L121.885 15.1377C121.024 15.9939 119.978 16.4442 118.824 16.4436C117.132 16.4424 115.632 15.3484 115.24 13.9172L126.442 13.9228L126.443 12.9356C126.446 7.49712 122.043 5.04865 118.915 5.04688Z" fill="#C01818"/>
<path fill-rule="evenodd" clip-rule="evenodd" d="M125.916 4.38452H127.66V4.70066H126.975V6.4749H126.598V4.70066H125.916V4.38452Z" fill="#C01818"/>
<path fill-rule="evenodd" clip-rule="evenodd" d="M127.904 4.38452H128.435L129.029 6.02137H129.035L129.615 4.38452H130.139V6.4749H129.781V4.86169H129.774L129.178 6.4749H128.866L128.269 4.86169H128.263V6.4749H127.904V4.38452Z" fill="#C01818"/>
<path fill-rule="evenodd" clip-rule="evenodd" d="M4.53444 16.9266V6.88125L11.063 9.81191V4.96549L0 0V19.7358L11.063 24.7054V19.8584L4.53444 16.9266Z" fill="#BD2E2B"/>
<path fill-rule="evenodd" clip-rule="evenodd" d="M17.5918 16.9266V6.88125L11.0632 9.81191V4.96549L22.1263 0V19.7358L11.0632 24.7054V19.8584L17.5918 16.9266Z" fill="#75160D"/>
<path fill-rule="evenodd" clip-rule="evenodd" d="M4.53444 16.9266V6.88125L11.063 9.81191V4.96549L0 0V19.7358L11.063 24.7054V19.8584L4.53444 16.9266Z" fill="#BD2E2B"/>
<path fill-rule="evenodd" clip-rule="evenodd" d="M17.5918 16.9266V6.88125L11.0632 9.81191V4.96549L22.1263 0V19.7358L11.0632 24.7054V19.8584L17.5918 16.9266Z" fill="#75160D"/>
<path d="M136.5 2.62329V21.1083" stroke="#C01818" stroke-linecap="square"/>
<path d="M158.553 19.6775H156.268L154.088 12.0134C153.994 11.6794 153.877 11.199 153.736 10.572C153.596 9.93921 153.511 9.49976 153.481 9.25366C153.423 9.62866 153.326 10.115 153.191 10.7126C153.062 11.3103 152.954 11.7556 152.866 12.0486L150.739 19.6775H148.454L146.793 13.2439L145.105 6.82788H147.25L149.087 14.3162C149.374 15.5173 149.579 16.5779 149.702 17.4978C149.767 16.9998 149.863 16.4431 149.992 15.8279C150.121 15.2126 150.238 14.7146 150.344 14.3337L152.436 6.82788H154.519L156.663 14.3689C156.868 15.0662 157.085 16.1091 157.313 17.4978C157.401 16.6599 157.612 15.5935 157.946 14.2986L159.774 6.82788H161.901L158.553 19.6775ZM167.755 19.8533C166.243 19.8533 165.06 19.4138 164.204 18.5349C163.354 17.6501 162.93 16.4343 162.93 14.8875C162.93 13.2996 163.325 12.0515 164.116 11.1433C164.907 10.2351 165.994 9.78101 167.377 9.78101C168.66 9.78101 169.674 10.1707 170.418 10.95C171.162 11.7292 171.534 12.8015 171.534 14.1667V15.283H165.057C165.086 16.2263 165.341 16.9529 165.821 17.4626C166.302 17.9666 166.979 18.2185 167.852 18.2185C168.426 18.2185 168.959 18.1658 169.451 18.0603C169.949 17.949 170.482 17.7673 171.051 17.5154V19.1941C170.547 19.4343 170.037 19.6042 169.521 19.7039C169.006 19.8035 168.417 19.8533 167.755 19.8533ZM167.377 11.3455C166.721 11.3455 166.193 11.5535 165.795 11.9695C165.402 12.3855 165.168 12.9919 165.092 13.7888H169.504C169.492 12.9861 169.299 12.3796 168.924 11.9695C168.549 11.5535 168.033 11.3455 167.377 11.3455ZM178.847 9.78101C180.06 9.78101 181.003 10.2205 181.677 11.0994C182.356 11.9783 182.696 13.2117 182.696 14.7996C182.696 16.3933 182.354 17.6355 181.668 18.5261C180.982 19.4109 180.03 19.8533 178.812 19.8533C177.581 19.8533 176.626 19.4109 175.946 18.5261H175.806L175.428 19.6775H173.881V6.00171H175.946V9.25366C175.946 9.4939 175.935 9.85132 175.911 10.3259C175.888 10.8005 175.87 11.1023 175.858 11.2312H175.946C176.603 10.2644 177.569 9.78101 178.847 9.78101ZM178.311 11.4685C177.479 11.4685 176.878 11.7146 176.509 12.2068C176.146 12.6931 175.958 13.5105 175.946 14.6589V14.7996C175.946 15.9832 176.134 16.8416 176.509 17.3748C176.884 17.9021 177.496 18.1658 178.346 18.1658C179.078 18.1658 179.632 17.8757 180.007 17.2957C180.388 16.7156 180.578 15.8777 180.578 14.782C180.578 12.573 179.822 11.4685 178.311 11.4685ZM193.287 19.6775L192.004 16.1091H187.091L185.834 19.6775H183.619L188.427 6.77515H190.712L195.52 19.6775H193.287ZM191.45 14.2986L190.246 10.8005C190.158 10.5662 190.035 10.197 189.877 9.69312C189.725 9.18921 189.619 8.82007 189.561 8.58569C189.402 9.3064 189.171 10.0945 188.866 10.95L187.706 14.2986H191.45ZM200.274 19.8533C199.062 19.8533 198.115 19.4138 197.436 18.5349C196.756 17.656 196.416 16.4226 196.416 14.8347C196.416 13.241 196.759 12.0017 197.444 11.1169C198.136 10.2263 199.091 9.78101 200.31 9.78101C201.587 9.78101 202.56 10.2527 203.228 11.196H203.333C203.233 10.4988 203.184 9.948 203.184 9.5437V6.00171H205.258V19.6775H203.641L203.28 18.4031H203.184C202.521 19.3699 201.552 19.8533 200.274 19.8533ZM200.828 18.1833C201.678 18.1833 202.296 17.946 202.683 17.4714C203.069 16.991 203.269 16.2146 203.28 15.1423V14.8523C203.28 13.6277 203.081 12.7576 202.683 12.2419C202.284 11.7263 201.66 11.4685 200.811 11.4685C200.084 11.4685 199.524 11.7644 199.132 12.3562C198.739 12.9421 198.543 13.78 198.543 14.8699C198.543 15.948 198.733 16.7712 199.114 17.3396C199.495 17.9021 200.066 18.1833 200.828 18.1833ZM210.426 19.6775L206.734 9.95679H208.914L210.892 15.6082C211.231 16.5574 211.437 17.325 211.507 17.9109H211.577C211.63 17.489 211.835 16.7214 212.192 15.6082L214.17 9.95679H216.367L212.658 19.6775H210.426ZM219.909 19.6775H217.844V9.95679H219.909V19.6775ZM217.721 7.38159C217.721 7.01245 217.82 6.72827 218.02 6.52905C218.225 6.32983 218.515 6.23022 218.89 6.23022C219.253 6.23022 219.534 6.32983 219.733 6.52905C219.938 6.72827 220.041 7.01245 220.041 7.38159C220.041 7.73315 219.938 8.01147 219.733 8.21655C219.534 8.41577 219.253 8.51538 218.89 8.51538C218.515 8.51538 218.225 8.41577 218.02 8.21655C217.82 8.01147 217.721 7.73315 217.721 7.38159ZM229.401 16.9089C229.401 17.8582 229.056 18.5876 228.364 19.0974C227.673 19.6013 226.683 19.8533 225.394 19.8533C224.099 19.8533 223.059 19.657 222.273 19.2644V17.4802C223.416 18.0076 224.479 18.2712 225.464 18.2712C226.735 18.2712 227.371 17.8875 227.371 17.1199C227.371 16.8738 227.301 16.6687 227.16 16.5046C227.02 16.3406 226.788 16.1707 226.466 15.9949C226.144 15.8191 225.695 15.6199 225.121 15.3972C224.002 14.9636 223.243 14.53 222.845 14.0964C222.452 13.6628 222.256 13.1003 222.256 12.4089C222.256 11.5769 222.59 10.9324 223.258 10.4753C223.932 10.0125 224.846 9.78101 226 9.78101C227.143 9.78101 228.224 10.0125 229.243 10.4753L228.575 12.031C227.526 11.5974 226.645 11.3806 225.93 11.3806C224.84 11.3806 224.295 11.6912 224.295 12.3123C224.295 12.6169 224.436 12.8748 224.717 13.0857C225.004 13.2966 225.625 13.5867 226.58 13.9558C227.383 14.2664 227.966 14.5505 228.329 14.8083C228.692 15.0662 228.962 15.365 229.138 15.7048C229.313 16.0388 229.401 16.4402 229.401 16.9089ZM240.265 14.7996C240.265 16.3875 239.857 17.6267 239.043 18.5173C238.229 19.408 237.095 19.8533 235.642 19.8533C234.733 19.8533 233.931 19.6482 233.233 19.238C232.536 18.8279 232 18.239 231.625 17.4714C231.25 16.7039 231.062 15.8132 231.062 14.7996C231.062 13.2234 231.467 11.9929 232.275 11.1082C233.084 10.2234 234.224 9.78101 235.694 9.78101C237.101 9.78101 238.214 10.2351 239.034 11.1433C239.854 12.0457 240.265 13.2644 240.265 14.7996ZM233.189 14.7996C233.189 17.0437 234.019 18.1658 235.677 18.1658C237.317 18.1658 238.138 17.0437 238.138 14.7996C238.138 12.5789 237.312 11.4685 235.659 11.4685C234.792 11.4685 234.162 11.7556 233.77 12.3298C233.383 12.9041 233.189 13.7273 233.189 14.7996ZM247.577 9.78101C247.993 9.78101 248.336 9.8103 248.605 9.8689L248.403 11.7937C248.11 11.7234 247.806 11.6882 247.489 11.6882C246.663 11.6882 245.992 11.9578 245.477 12.4968C244.967 13.0359 244.712 13.7361 244.712 14.5974V19.6775H242.646V9.95679H244.264L244.536 11.6707H244.642C244.964 11.0906 245.383 10.6306 245.898 10.2908C246.42 9.95093 246.979 9.78101 247.577 9.78101Z" fill="#C01818"/>
</svg>
