<svg width="290" height="254" viewBox="0 0 290 254" fill="none" xmlns="http://www.w3.org/2000/svg">
<path fill-rule="evenodd" clip-rule="evenodd" d="M47.3245 35.6853C68.4209 20.0485 98.0076 35.268 123.691 30.1405C149.757 24.9364 171.774 -0.145218 197.614 5.6806C224.723 11.7926 244.272 35.9917 257.601 60.332C270.98 84.7611 277.673 113.473 271.621 140.818C265.826 166.999 245.915 186.97 225.663 204.633C207.103 220.821 185.631 233.448 161.343 237.002C137.77 240.452 112.764 237.179 93.0327 224.042C74.6482 211.802 71.2308 187.466 59.1556 168.966C45.4928 148.034 19.9495 133.659 17.7319 108.678C15.361 81.9686 25.6848 51.7246 47.3245 35.6853Z" fill="#E6E9F0"/>
<path d="M268.368 216.308H21.2462C15.9114 216.308 11.5906 212.04 11.5906 206.77V51.8196C11.5906 46.5503 15.9114 42.2825 21.2462 42.2825H268.368C273.703 42.2825 278.024 46.5503 278.024 51.8196V206.777C278.024 212.04 273.697 216.308 268.368 216.308Z" fill="#434446"/>
<path d="M277.314 218.664H12.2455C5.73115 218.664 0.449402 213.447 0.449402 207.012V203.438H289.103V207.012C289.103 213.447 283.828 218.664 277.314 218.664Z" fill="#434446"/>
<path d="M270.124 49.1948H18.7405V196.16H270.124V49.1948Z" fill="#53565A"/>
<path d="M118.542 203.439L122.12 209.068H172.526L175.852 203.439H118.542Z" fill="#53565A"/>
<path d="M263.298 195.688H26.0901C24.8906 195.688 23.923 194.725 23.923 193.547V56.3155C23.923 55.1307 24.8972 54.175 26.0901 54.175H263.298C264.498 54.175 265.465 55.1373 265.465 56.3155V193.547C265.465 194.732 264.491 195.688 263.298 195.688Z" fill="white"/>
<path opacity="0.55" d="M88.9224 119.251H37.6466C36.4715 119.251 35.4033 117.371 35.4033 114.865V69.3275C35.4033 67.0298 36.3647 64.9409 37.6466 64.9409H89.0293C90.2043 64.9409 91.2726 66.8209 91.2726 69.3275V114.865C91.1658 117.163 90.2043 119.251 88.9224 119.251Z" fill="#D8E5FD"/>
<path opacity="0.55" d="M148.465 181.433H110.535C109.665 181.433 108.875 180.043 108.875 178.191V144.533C108.875 142.834 109.586 141.29 110.535 141.29H148.544C149.413 141.29 150.203 142.68 150.203 144.533V178.191C150.124 179.889 149.413 181.433 148.465 181.433Z" fill="#D8E5FD"/>
<path opacity="0.55" d="M90.4958 150.736H36.1203C35.7618 150.736 35.4033 150.149 35.4033 149.329V146.633C35.4033 145.929 35.702 145.226 36.1203 145.226H90.5555C90.9141 145.226 91.2726 145.812 91.2726 146.633V149.446C91.2128 150.149 90.9141 150.736 90.4958 150.736Z" fill="#D8E5FD"/>
<path opacity="0.55" d="M90.4958 158.607H36.1203C35.7618 158.607 35.4033 158.021 35.4033 157.2V154.504C35.4033 153.8 35.702 153.097 36.1203 153.097H90.5555C90.9141 153.097 91.2726 153.683 91.2726 154.504V157.317C91.2128 158.021 90.9141 158.607 90.4958 158.607Z" fill="#D8E5FD"/>
<path opacity="0.55" d="M90.4958 166.478H36.1203C35.7618 166.478 35.4033 165.892 35.4033 165.071V162.375C35.4033 161.671 35.702 160.968 36.1203 160.968H90.5555C90.9141 160.968 91.2726 161.554 91.2726 162.375V165.188C91.2128 165.892 90.9141 166.478 90.4958 166.478Z" fill="#D8E5FD"/>
<path opacity="0.55" d="M90.4958 174.349H36.1203C35.7618 174.349 35.4033 173.763 35.4033 172.942V170.246C35.4033 169.542 35.702 168.839 36.1203 168.839H90.5555C90.9141 168.839 91.2726 169.425 91.2726 170.246V173.059C91.2128 173.763 90.9141 174.349 90.4958 174.349Z" fill="#D8E5FD"/>
<path opacity="0.55" d="M90.4958 182.22H36.1203C35.7618 182.22 35.4033 181.634 35.4033 180.813V178.117C35.4033 177.414 35.702 176.71 36.1203 176.71H90.5555C90.9141 176.71 91.2726 177.296 91.2726 178.117V180.93C91.2128 181.634 90.9141 182.22 90.4958 182.22Z" fill="#D8E5FD"/>
<path opacity="0.55" d="M252.193 150.736H159.084C158.471 150.736 157.857 150.149 157.857 149.329V146.633C157.857 145.929 158.368 145.226 159.084 145.226H252.296C252.909 145.226 253.523 145.812 253.523 146.633V149.446C253.421 150.149 252.909 150.736 252.193 150.736Z" fill="#D8E5FD"/>
<path opacity="0.55" d="M252.193 158.607H159.084C158.471 158.607 157.857 158.021 157.857 157.2V154.504C157.857 153.8 158.368 153.097 159.084 153.097H252.296C252.909 153.097 253.523 153.683 253.523 154.504V157.317C253.421 158.021 252.909 158.607 252.193 158.607Z" fill="#D8E5FD"/>
<path opacity="0.55" d="M252.193 166.478H159.084C158.471 166.478 157.857 165.892 157.857 165.071V162.375C157.857 161.671 158.368 160.968 159.084 160.968H252.296C252.909 160.968 253.523 161.554 253.523 162.375V165.188C253.421 165.892 252.909 166.478 252.193 166.478Z" fill="#D8E5FD"/>
<path opacity="0.55" d="M252.193 174.349H159.084C158.471 174.349 157.857 173.763 157.857 172.942V170.246C157.857 169.542 158.368 168.839 159.084 168.839H252.296C252.909 168.839 253.523 169.425 253.523 170.246V173.059C253.421 173.763 252.909 174.349 252.193 174.349Z" fill="#D8E5FD"/>
<path opacity="0.55" d="M212.195 182.22H158.564C158.21 182.22 157.857 181.634 157.857 180.813V178.117C157.857 177.414 158.151 176.71 158.564 176.71H212.253C212.607 176.71 212.961 177.296 212.961 178.117V180.93C212.902 181.634 212.607 182.22 212.195 182.22Z" fill="#D8E5FD"/>
<path opacity="0.55" d="M250.768 90.1284H111.477C110.559 90.1284 109.641 89.5423 109.641 88.7217V86.0254C109.641 85.322 110.406 84.6187 111.477 84.6187H250.921C251.84 84.6187 252.758 85.2048 252.758 86.0254V88.8389C252.605 89.5423 251.84 90.1284 250.768 90.1284Z" fill="#D8E5FD"/>
<path opacity="0.55" d="M166.243 75.1733H110.377C110.009 75.1733 109.641 74.5872 109.641 73.7666V71.0703C109.641 70.3669 109.948 69.6636 110.377 69.6636H166.304C166.672 69.6636 167.041 70.2497 167.041 71.0703V73.8838C166.979 74.5872 166.672 75.1733 166.243 75.1733Z" fill="#D8E5FD"/>
<path opacity="0.55" d="M250.768 97.9995H111.477C110.559 97.9995 109.641 97.4134 109.641 96.5928V93.8965C109.641 93.1931 110.406 92.4897 111.477 92.4897H250.921C251.84 92.4897 252.758 93.0759 252.758 93.8965V96.71C252.605 97.4134 251.84 97.9995 250.768 97.9995Z" fill="#D8E5FD"/>
<path opacity="0.55" d="M250.768 105.871H111.477C110.559 105.871 109.641 105.284 109.641 104.464V101.768C109.641 101.064 110.406 100.361 111.477 100.361H250.921C251.84 100.361 252.758 100.947 252.758 101.768V104.581C252.605 105.284 251.84 105.871 250.768 105.871Z" fill="#D8E5FD"/>
<path opacity="0.55" d="M250.768 113.742H111.477C110.559 113.742 109.641 113.156 109.641 112.335V109.639C109.641 108.935 110.406 108.232 111.477 108.232H250.921C251.84 108.232 252.758 108.818 252.758 109.639V112.452C252.605 113.156 251.84 113.742 250.768 113.742Z" fill="#D8E5FD"/>
<path opacity="0.55" d="M251.523 121.613H111.487C110.564 121.613 109.641 121.026 109.641 120.206V117.51C109.641 116.806 110.41 116.103 111.487 116.103H251.677C252.6 116.103 253.523 116.689 253.523 117.51V120.323C253.369 121.026 252.6 121.613 251.523 121.613Z" fill="#D8E5FD"/>
<path opacity="0.55" d="M191.147 129.484H110.701C110.171 129.484 109.641 128.898 109.641 128.077V125.381C109.641 124.677 110.083 123.974 110.701 123.974H191.236C191.766 123.974 192.297 124.56 192.297 125.381V128.194C192.208 128.898 191.766 129.484 191.147 129.484Z" fill="#D8E5FD"/>
<path opacity="0.55" d="M90.4958 131.058H36.1203C35.7618 131.058 35.4033 130.472 35.4033 129.651V126.955C35.4033 126.252 35.702 125.548 36.1203 125.548H90.5555C90.9141 125.548 91.2726 126.134 91.2726 126.955V129.769C91.2128 130.472 90.9141 131.058 90.4958 131.058Z" fill="#D8E5FD"/>
<path d="M275.731 203.438C275.731 203.53 216.598 203.608 143.668 203.608C70.7105 203.608 11.5907 203.53 11.5907 203.438C11.5907 203.347 70.7105 203.268 143.668 203.268C216.598 203.268 275.731 203.34 275.731 203.438Z" fill="#455A64"/>
<g opacity="0.7">
<path d="M139.58 107.283C141.599 104.118 146.354 104.118 148.373 107.283L168.981 139.584C171.106 142.915 168.63 147.211 164.585 147.211H123.369C119.323 147.211 116.847 142.915 118.972 139.584L139.58 107.283ZM146.585 139C146.585 137.619 145.428 136.5 144.001 136.5C142.574 136.5 141.418 137.619 141.418 139C141.418 140.381 142.574 141.5 144.001 141.5C145.428 141.5 146.585 140.381 146.585 139ZM141.418 116.5L141.418 131.5H146.585V116.5H141.418Z" fill="#F06B00"/>
</g>
</svg>
