<svg width="32" height="34" viewBox="0 0 32 34" fill="none" xmlns="http://www.w3.org/2000/svg">
<path d="M14.0097 4.69347C15.0191 2.90035 17.3965 2.90035 18.4059 4.69347L28.71 22.9974C29.7726 24.8851 28.5345 27.3193 26.5118 27.3193H5.90377C3.88107 27.3193 2.64302 24.8851 3.70565 22.9975L14.0097 4.69347ZM17.5117 22.6667C17.5117 21.8843 16.9334 21.25 16.2201 21.25C15.5067 21.25 14.9284 21.8843 14.9284 22.6667C14.9284 23.4491 15.5067 24.0833 16.2201 24.0833C16.9334 24.0833 17.5117 23.4491 17.5117 22.6667ZM14.9284 9.91667L14.9286 18.4167H17.5117V9.91667H14.9284Z" fill="#53565A"/>
</svg>
