<svg width="1366" height="264" viewBox="0 0 1366 264" fill="none" xmlns="http://www.w3.org/2000/svg">
<g clip-path="url(#clip0)">
<path opacity="0.5" d="M0 60.7201C0 60.7201 270.49 190.18 485.17 190.18C613.31 190.18 710.41 152.88 737.5 140.49C764.59 128.1 971.83 27.8401 1048.61 13.1601C1125.9 -1.61993 1203.83 -15.9099 1366 41.5601V267.29H0V60.7201Z" fill="#FDBABA"/>
<path opacity="0.5" d="M0 103.6C0 103.6 472 172.96 796.28 175.6C1120.56 178.24 1366 155.79 1366 155.79V262.62L0 267.29V103.6Z" fill="#F26363"/>
<path opacity="0.15" d="M0 152.35C0 152.35 215.56 197.27 392.35 192.65C569.14 188.03 784.05 152.35 784.05 152.35C784.05 152.35 1003.56 99.5101 1098.85 91.5801C1194.14 83.6501 1366 91.5801 1366 91.5801V267.29L0 263.81V152.35Z" fill="#F26363"/>
</g>
<defs>
<clipPath id="clip0">
<rect width="1366" height="267.29" fill="white"/>
</clipPath>
</defs>
</svg>
