<svg width="132" height="139" viewBox="0 0 132 139" fill="none" xmlns="http://www.w3.org/2000/svg">
<path fill-rule="evenodd" clip-rule="evenodd" d="M129.41 23.2579C130.915 23.264 131.765 23.2322 131.765 23.2322C131.765 23.2322 131.765 24.0595 131.732 25.5621C131.478 37.1289 129.267 88.7109 110.038 110.96C89.7123 134.539 65.8825 138.7 65.8825 138.7C65.8825 138.7 42.0526 134.539 21.7272 110.96C2.49799 88.7109 0.287196 37.1289 0.0330194 25.5621C2.98281e-07 24.0595 0 23.2322 0 23.2322C0 23.2322 0.848287 23.2639 2.35502 23.2579C7.89861 23.2357 22.3553 22.703 36.2704 18.2044C51.1051 13.2671 60.7498 5.14587 64.4058 1.66667C65.4999 0.625471 66.0577 0 66.0577 0C66.0577 0 66.6097 0.629546 67.6986 1.67684C71.322 5.16168 80.89 13.2719 95.845 18.2044C109.482 22.7021 123.876 23.2355 129.41 23.2579ZM129.376 25.5853C129.122 25.5842 128.851 25.5821 128.563 25.5786C126.506 25.5537 123.588 25.4597 120.121 25.1839C113.203 24.6337 104.018 23.3539 95.0995 20.4123C85.0841 17.1089 77.4125 12.4216 72.2373 8.55305C69.6484 6.61784 67.679 4.88371 66.3477 3.62307C66.2436 3.52446 66.1433 3.42873 66.047 3.33602C65.9468 3.43139 65.8424 3.52998 65.7339 3.63165C64.3904 4.89027 62.4063 6.62249 59.8084 8.55599C54.6158 12.4206 46.9475 17.1068 37.0219 20.4103L37.0122 20.4135L37.0025 20.4166C27.9153 23.3545 18.648 24.6338 11.6865 25.184C8.19775 25.4597 5.26935 25.5537 3.20738 25.5786C2.91726 25.5821 2.64421 25.5843 2.38908 25.5854C2.39146 25.692 2.39401 25.8019 2.39674 25.9152C2.43869 27.6554 2.52273 30.1753 2.69109 33.2799C3.02796 39.4922 3.7016 48.0303 5.04721 57.3396C6.39383 66.6561 8.40692 76.6983 11.4083 85.9351C14.4184 95.1983 18.3732 103.496 23.5178 109.448L23.5198 109.45C33.4281 120.945 44.1798 127.695 52.4369 131.569C56.5657 133.507 60.0671 134.723 62.5197 135.452C63.7457 135.817 64.7085 136.059 65.3552 136.209C65.5648 136.257 65.7412 136.296 65.8825 136.326C66.0237 136.296 66.2001 136.257 66.4097 136.209C67.0564 136.059 68.0192 135.817 69.2452 135.452C71.6978 134.723 75.1992 133.507 79.3281 131.569C87.5851 127.695 98.3368 120.945 108.245 109.45L108.247 109.448C113.392 103.496 117.347 95.1983 120.357 85.9351C123.358 76.6983 125.371 66.6561 126.718 57.3396C128.063 48.0303 128.737 39.4922 129.074 33.2799C129.242 30.1753 129.326 27.6554 129.368 25.9152C129.371 25.8019 129.373 25.692 129.376 25.5853Z" fill="#ABB2C3"/>
<path d="M65.8826 128.991C60.289 127.591 43.1471 121.818 27.9901 104.675C14.2767 88.9303 9.58523 52.8933 8.32214 32.0758C16.2615 31.551 27.4488 30.3265 38.2752 26.8277C50.7256 22.8042 59.9281 17.0313 65.8826 12.4829C71.8371 17.0313 81.0396 22.9791 93.49 26.8277C104.316 30.3265 115.504 31.726 123.443 32.0758C122.36 52.8933 117.669 88.9303 103.775 104.675C88.6181 121.818 71.2958 127.591 65.8826 128.991Z" fill="#ABB2C3"/>
<rect x="61.4581" y="41.9033" width="9.77743" height="37.7129" fill="white"/>
<rect x="61.4581" y="90.9651" width="9.60283" height="9.60283" fill="white"/>
</svg>
