<svg width="192" height="156" viewBox="0 0 192 156" fill="none" xmlns="http://www.w3.org/2000/svg">
<g clip-path="url(#clip0)">
<path fill-rule="evenodd" clip-rule="evenodd" d="M40.0842 5.22829C55.1695 -2.96357 72.4576 10.8446 89.3745 10.3429C106.544 9.83379 123.199 -4.68246 139.076 2.29281C155.731 9.61075 165.682 28.3649 171.65 46.4913C177.64 64.6839 178.92 85.0144 172.212 102.93C165.789 120.084 151.009 131.365 136.251 141.035C122.727 149.898 107.715 155.996 91.8519 155.589C76.456 155.194 60.846 150.054 49.6276 138.812C39.175 128.336 39.5291 111.367 33.7529 97.3633C27.2172 81.519 12.4204 68.7567 13.6071 51.4874C14.8759 33.0239 24.6105 13.6311 40.0842 5.22829Z" fill="#E6E9F0"/>
<path d="M35.75 34.2949H155.5V117.867C155.5 122.58 151.918 126.401 147.5 126.401H43.75C39.3317 126.401 35.75 122.58 35.75 117.867V34.2949Z" fill="#F5F6FA"/>
<path fill-rule="evenodd" clip-rule="evenodd" d="M154.5 35.3616H36.75V117.867C36.75 121.991 39.884 125.334 43.75 125.334H147.5C151.366 125.334 154.5 121.991 154.5 117.867V35.3616ZM35.75 34.2949V117.867C35.75 122.58 39.3317 126.401 43.75 126.401H147.5C151.918 126.401 155.5 122.58 155.5 117.867V34.2949H35.75Z" fill="#ABB2C3"/>
<path opacity="0.55" d="M82.8465 119.113H46.2698C45.4316 119.113 44.6696 118.272 44.6696 117.151V96.7833C44.6696 95.7556 45.3554 94.8213 46.2698 94.8213H82.9227C83.7609 94.8213 84.523 95.6622 84.523 96.7833V117.151C84.4468 118.179 83.7609 119.113 82.8465 119.113Z" fill="#DBE0FE"/>
<path opacity="0.55" d="M114.985 46.4016H45.5535C45.0957 46.4016 44.6379 45.9943 44.6379 45.4239V43.55C44.6379 43.0611 45.0194 42.5723 45.5535 42.5723H115.062C115.52 42.5723 115.977 42.9796 115.977 43.55V45.4239C115.901 45.9943 115.52 46.4016 114.985 46.4016Z" fill="#DBE0FE"/>
<path opacity="0.55" d="M114.985 54.2229H45.5535C45.0957 54.2229 44.6379 53.8155 44.6379 53.2452V51.3713C44.6379 50.8824 45.0194 50.3936 45.5535 50.3936H115.062C115.52 50.3936 115.977 50.8009 115.977 51.3713V53.2452C115.901 53.8155 115.52 54.2229 114.985 54.2229Z" fill="#DBE0FE"/>
<path opacity="0.55" d="M114.985 62.0442H45.5535C45.0957 62.0442 44.6379 61.6368 44.6379 61.0665V59.1926C44.6379 58.7037 45.0194 58.2148 45.5535 58.2148H115.062C115.52 58.2148 115.977 58.6222 115.977 59.1926V61.0665C115.901 61.6368 115.52 62.0442 114.985 62.0442Z" fill="#DBE0FE"/>
<path opacity="0.55" d="M114.985 69.8665H45.5535C45.0957 69.8665 44.6379 69.4591 44.6379 68.8888V67.0148C44.6379 66.526 45.0194 66.0371 45.5535 66.0371H115.062C115.52 66.0371 115.977 66.4445 115.977 67.0148V68.9703C115.901 69.4591 115.52 69.8665 114.985 69.8665Z" fill="#DBE0FE"/>
<path opacity="0.55" d="M114.985 77.6878H45.5535C45.0957 77.6878 44.6379 77.2804 44.6379 76.7101V74.8361C44.6379 74.3473 45.0194 73.8584 45.5535 73.8584H115.062C115.52 73.8584 115.977 74.2658 115.977 74.8361V76.7101C115.901 77.2804 115.52 77.6878 114.985 77.6878Z" fill="#DBE0FE"/>
<path opacity="0.55" d="M114.985 85.51H45.5535C45.0957 85.51 44.6379 85.1027 44.6379 84.5323V82.6584C44.6379 82.1695 45.0194 81.6807 45.5535 81.6807H115.062C115.52 81.6807 115.977 82.088 115.977 82.6584V84.5323C115.901 85.1027 115.52 85.51 114.985 85.51Z" fill="#DBE0FE"/>
<path d="M137.799 32.0615C137.799 32.7133 137.341 33.2022 136.731 33.2022C136.12 33.2022 135.662 32.7133 135.662 32.0615C135.662 31.4097 136.12 30.9209 136.731 30.9209C137.265 30.8394 137.799 31.4097 137.799 32.0615Z" fill="white"/>
<path d="M143.292 32.0615C143.292 32.7133 142.835 33.2022 142.224 33.2022C141.614 33.2022 141.156 32.7133 141.156 32.0615C141.156 31.4097 141.614 30.9209 142.224 30.9209C142.758 30.8394 143.292 31.4097 143.292 32.0615Z" fill="white"/>
<path d="M148.786 32.0615C148.786 32.7133 148.328 33.2022 147.718 33.2022C147.107 33.2022 146.65 32.7133 146.65 32.0615C146.65 31.4097 147.107 30.9209 147.718 30.9209C148.252 30.8394 148.786 31.4097 148.786 32.0615Z" fill="white"/>
<path d="M35.75 32.8004C35.75 29.2658 38.4363 26.4004 41.75 26.4004H149.5C152.814 26.4004 155.5 29.2658 155.5 32.8004V37.534H35.75V32.8004Z" fill="#0BD18A"/>
<path d="M148.858 32.0682C148.858 33.1862 148.008 34.0925 146.96 34.0925C145.912 34.0925 145.062 33.1862 145.062 32.0682C145.062 30.9503 145.912 30.0439 146.96 30.0439C148.008 30.0439 148.858 30.9503 148.858 32.0682Z" fill="white"/>
<path d="M140.507 32.0682C140.507 33.1862 139.658 34.0925 138.61 34.0925C137.562 34.0925 136.712 33.1862 136.712 32.0682C136.712 30.9503 137.562 30.0439 138.61 30.0439C139.658 30.0439 140.507 30.9503 140.507 32.0682Z" fill="white"/>
<path d="M131.208 32.0682C131.208 33.1862 130.359 34.0925 129.311 34.0925C128.262 34.0925 127.413 33.1862 127.413 32.0682C127.413 30.9503 128.262 30.0439 129.311 30.0439C130.359 30.0439 131.208 30.9503 131.208 32.0682Z" fill="white"/>
<ellipse cx="95.5" cy="78.6669" rx="22.0833" ry="23.5556" fill="#0BD18A"/>
<path fill-rule="evenodd" clip-rule="evenodd" d="M107.537 70.2564L91.8194 87.8604L83.4626 78.5008L85.454 76.4778L91.8194 83.6071L105.546 68.2334L107.537 70.2564Z" fill="white"/>
</g>
<defs>
<clipPath id="clip0">
</clipPath>
</defs>
</svg>
