<?xml version="1.0" encoding="UTF-8"?>
<svg width="254" height="253" viewBox="20 38 214 173" fill="none" xmlns="http://www.w3.org/2000/svg">
  <path fill-rule="evenodd" clip-rule="evenodd" d="M54.3343 72.1317C69.7841 60.6812 91.4517 71.8261 110.261 68.0713C129.35 64.2605 145.474 45.8936 164.397 50.1597C184.251 54.6355 198.567 72.356 208.329 90.1801C218.127 108.069 223.028 129.094 218.596 149.119C214.352 168.291 199.771 182.915 184.939 195.85C171.347 207.704 155.622 216.95 137.835 219.553C120.571 222.079 102.259 219.683 87.8084 210.062C74.3446 201.099 71.8419 183.278 62.9987 169.731C52.9929 154.403 34.2864 143.876 32.6624 125.583C30.9261 106.024 38.4867 83.877 54.3343 72.1317Z" fill="#E6E9F0"/>
  <path d="M205.596 201.437H45.8485C42.3999 201.437 39.6068 198.678 39.6068 195.272V95.1152C39.6068 91.7092 42.3999 88.9506 45.8485 88.9506H205.596C209.045 88.9506 211.838 91.7092 211.838 95.1152V195.277C211.838 198.678 209.041 201.437 205.596 201.437Z" fill="#434446"/>
  <path d="M211.379 202.96H40.0301C35.819 202.96 32.4047 199.588 32.4047 195.429V193.119H219V195.429C219 199.588 215.59 202.96 211.379 202.96Z" fill="#434446"/>
  <path d="M206.731 93.4185H44.2287V188.414H206.731V93.4185Z" fill="#53565A"/>
  <path d="M108.744 193.119L111.057 196.758H143.64L145.791 193.119H108.744Z" fill="#53565A"/>
  <path d="M202.319 188.109H48.9797C48.2043 188.109 47.5789 187.487 47.5789 186.725V98.0212C47.5789 97.2554 48.2086 96.6376 48.9797 96.6376H202.319C203.094 96.6376 203.72 97.2596 203.72 98.0212V186.725C203.72 187.491 203.09 188.109 202.319 188.109Z" fill="white"/>
  <path opacity="0.55" d="M89.5966 138.702H56.4502C55.6906 138.702 55.0001 137.487 55.0001 135.866V106.432C55.0001 104.947 55.6216 103.596 56.4502 103.596H89.6657C90.4253 103.596 91.1158 104.812 91.1158 106.432V135.866C91.0468 137.352 90.4253 138.702 89.5966 138.702Z" fill="#D8E5FD"/>
  <path opacity="0.55" d="M128.087 178.895H103.567C103.005 178.895 102.495 177.997 102.495 176.799V155.043C102.495 153.945 102.954 152.947 103.567 152.947H128.138C128.7 152.947 129.21 153.846 129.21 155.043V176.799C129.159 177.897 128.7 178.895 128.087 178.895Z" fill="#D8E5FD"/>
  <path opacity="0.55" d="M90.6137 159.053H55.4636C55.2318 159.053 55.0001 158.674 55.0001 158.143V156.401C55.0001 155.946 55.1932 155.491 55.4636 155.491H90.6523C90.8841 155.491 91.1158 155.87 91.1158 156.401V158.219C91.0772 158.674 90.8841 159.053 90.6137 159.053Z" fill="#D8E5FD"/>
  <path opacity="0.55" d="M90.6137 164.14H55.4636C55.2318 164.14 55.0001 163.761 55.0001 163.231V161.488C55.0001 161.034 55.1932 160.579 55.4636 160.579H90.6523C90.8841 160.579 91.1158 160.958 91.1158 161.488V163.307C91.0772 163.761 90.8841 164.14 90.6137 164.14Z" fill="#D8E5FD"/>
  <path opacity="0.55" d="M90.6137 169.228H55.4636C55.2318 169.228 55.0001 168.849 55.0001 168.319V166.576C55.0001 166.121 55.1932 165.667 55.4636 165.667H90.6523C90.8841 165.667 91.1158 166.046 91.1158 166.576V168.395C91.0772 168.849 90.8841 169.228 90.6137 169.228Z" fill="#D8E5FD"/>
  <path opacity="0.55" d="M90.6137 174.316H55.4636C55.2318 174.316 55.0001 173.937 55.0001 173.407V171.664C55.0001 171.209 55.1932 170.754 55.4636 170.754H90.6523C90.8841 170.754 91.1158 171.133 91.1158 171.664V173.482C91.0772 173.937 90.8841 174.316 90.6137 174.316Z" fill="#D8E5FD"/>
  <path opacity="0.55" d="M90.6137 179.404H55.4636C55.2318 179.404 55.0001 179.025 55.0001 178.494V176.751C55.0001 176.297 55.1932 175.842 55.4636 175.842H90.6523C90.8841 175.842 91.1158 176.221 91.1158 176.751V178.57C91.0772 179.025 90.8841 179.404 90.6137 179.404Z" fill="#D8E5FD"/>
  <path opacity="0.55" d="M195.14 159.053H134.952C134.555 159.053 134.158 158.674 134.158 158.143V156.401C134.158 155.946 134.489 155.491 134.952 155.491H195.206C195.603 155.491 196 155.87 196 156.401V158.219C195.934 158.674 195.603 159.053 195.14 159.053Z" fill="#D8E5FD"/>
  <path opacity="0.55" d="M195.14 164.14H134.952C134.555 164.14 134.158 163.761 134.158 163.231V161.488C134.158 161.034 134.489 160.579 134.952 160.579H195.206C195.603 160.579 196 160.958 196 161.488V163.307C195.934 163.761 195.603 164.14 195.14 164.14Z" fill="#D8E5FD"/>
  <path opacity="0.55" d="M195.14 169.228H134.952C134.555 169.228 134.158 168.849 134.158 168.319V166.576C134.158 166.121 134.489 165.667 134.952 165.667H195.206C195.603 165.667 196 166.046 196 166.576V168.395C195.934 168.849 195.603 169.228 195.14 169.228Z" fill="#D8E5FD"/>
  <path opacity="0.55" d="M195.14 174.316H134.952C134.555 174.316 134.158 173.937 134.158 173.407V171.664C134.158 171.209 134.489 170.754 134.952 170.754H195.206C195.603 170.754 196 171.133 196 171.664V173.482C195.934 173.937 195.603 174.316 195.14 174.316Z" fill="#D8E5FD"/>
  <path opacity="0.55" d="M169.284 179.404H134.615C134.387 179.404 134.158 179.025 134.158 178.494V176.751C134.158 176.297 134.348 175.842 134.615 175.842H169.322C169.55 175.842 169.779 176.221 169.779 176.751V178.57C169.741 179.025 169.55 179.404 169.284 179.404Z" fill="#D8E5FD"/>
  <path opacity="0.55" d="M194.219 119.877H104.177C103.583 119.877 102.99 119.498 102.99 118.968V117.225C102.99 116.77 103.484 116.316 104.177 116.316H194.318C194.912 116.316 195.505 116.695 195.505 117.225V119.044C195.406 119.498 194.912 119.877 194.219 119.877Z" fill="#D8E5FD"/>
  <path opacity="0.55" d="M139.579 110.211H103.466C103.228 110.211 102.99 109.832 102.99 109.301V107.558C102.99 107.104 103.188 106.649 103.466 106.649H139.619C139.857 106.649 140.095 107.028 140.095 107.558V109.377C140.055 109.832 139.857 110.211 139.579 110.211Z" fill="#D8E5FD"/>
  <path opacity="0.55" d="M194.219 124.965H104.177C103.583 124.965 102.99 124.586 102.99 124.056V122.313C102.99 121.858 103.484 121.404 104.177 121.404H194.318C194.912 121.404 195.505 121.782 195.505 122.313V124.131C195.406 124.586 194.912 124.965 194.219 124.965Z" fill="#D8E5FD"/>
  <path opacity="0.55" d="M194.219 130.053H104.177C103.583 130.053 102.99 129.674 102.99 129.143V127.401C102.99 126.946 103.484 126.491 104.177 126.491H194.318C194.912 126.491 195.505 126.87 195.505 127.401V129.219C195.406 129.674 194.912 130.053 194.219 130.053Z" fill="#D8E5FD"/>
  <path opacity="0.55" d="M194.219 135.14H104.177C103.583 135.14 102.99 134.761 102.99 134.231V132.488C102.99 132.034 103.484 131.579 104.177 131.579H194.318C194.912 131.579 195.505 131.958 195.505 132.488V134.307C195.406 134.761 194.912 135.14 194.219 135.14Z" fill="#D8E5FD"/>
  <path opacity="0.55" d="M194.707 140.228H104.183C103.586 140.228 102.99 139.849 102.99 139.319V137.576C102.99 137.121 103.487 136.667 104.183 136.667H194.806C195.403 136.667 196 137.046 196 137.576V139.395C195.9 139.849 195.403 140.228 194.707 140.228Z" fill="#D8E5FD"/>
  <path opacity="0.55" d="M155.678 145.316H103.675C103.332 145.316 102.99 144.937 102.99 144.407V142.664C102.99 142.209 103.275 141.754 103.675 141.754H155.735C156.078 141.754 156.421 142.133 156.421 142.664V144.482C156.364 144.937 156.078 145.316 155.678 145.316Z" fill="#D8E5FD"/>
  <path opacity="0.55" d="M90.6137 146.333H55.4636C55.2318 146.333 55.0001 145.954 55.0001 145.424V143.681C55.0001 143.227 55.1932 142.772 55.4636 142.772H90.6523C90.8841 142.772 91.1158 143.151 91.1158 143.681V145.5C91.0772 145.954 90.8841 146.333 90.6137 146.333Z" fill="#D8E5FD"/>
  <path d="M141.857 129.138L140.202 131.5L134.011 131.5L137.752 126.263C140.335 122.574 139.431 117.464 135.732 114.874L131.142 111.66C127.446 109.072 122.334 109.965 119.749 113.657L116.45 118.369L112.345 115.495L115.644 110.783C119.81 104.833 128.048 103.388 134.011 107.563L138.601 110.777C144.563 114.952 146.023 123.187 141.857 129.138Z" fill="#ABB2C3"/>
  <path d="M112.251 133.082L140.597 133.487C143.757 134.532 146.036 137.502 146.04 141.005V161.119C146.04 165.493 142.482 169.042 138.094 169.042H112.251C107.864 169.042 104.306 165.493 104.306 161.119V141.005C104.306 136.631 107.864 133.082 112.251 133.082Z" fill="#F5A623"/>
  <path d="M127.859 148.663C127.859 147.139 126.656 145.902 125.173 145.902C123.69 145.902 122.487 147.139 122.487 148.663C122.487 149.466 122.821 150.183 123.352 150.688L122.799 156.232H127.55L126.997 150.688C127.524 150.183 127.859 149.466 127.859 148.663Z" fill="white"/>
  <path d="M210.356 193.119C210.356 193.178 172.13 193.229 124.986 193.229C77.8238 193.229 39.6068 193.178 39.6068 193.119C39.6068 193.059 77.8238 193.009 124.986 193.009C172.13 193.009 210.356 193.055 210.356 193.119Z" fill="#455A64"/>
  <path d="M107.65 89.0808V75.5977H143.145V89.0808H107.65Z" fill="#6D7895"/>
  <path d="M100.926 71.6151C101.867 70.4746 108.826 61.5371 109.931 61.2501C115.529 59.7801 119.485 61.2125 123.85 61.2501C132.494 60.064 140.199 57.2759 145.703 65.2353C147.052 66.2341 150.402 68.8798 150.132 71.6153C149.905 73.8996 152.219 77.705 150.132 78.7829C138.032 78.7829 124.24 79.2438 112.586 78.7829C110.472 78.6934 94.1516 79.8191 100.926 71.6151Z" fill="#6D7895"/>
  <path d="M162.104 102.806C162.154 103.217 162.156 104.245 162.336 104.695C162.297 105.745 162.55 106.34 162.245 106.732C162.052 106.984 161.928 107.475 161.809 107.963C161.601 108.795 161.397 109.625 161.191 110.465C161.156 110.604 161.121 110.752 161.122 110.962C161.126 111.153 161.155 111.361 161.19 111.567C161.535 113.686 162.077 115.878 162.787 117.264C163.476 118.611 164.225 119.005 164.865 118.916C165.275 118.864 165.655 118.633 166.001 118.243C166.107 118.123 166.211 117.975 166.264 117.686C166.306 117.448 166.31 117.14 166.31 116.834C166.307 114.901 166.141 112.776 165.829 110.653C165.652 109.452 165.425 108.213 165.365 107.06C165.321 106.245 165.36 105.521 165.389 104.791C165.443 103.323 165.45 101.788 165.411 100.205C165.402 99.8924 163.449 99.4073 163.259 99.4464C162.392 99.6369 161.823 100.46 162.104 102.806Z" fill="#F7BA67"/>
  <path d="M148.234 65.4479C147.635 64.7113 147.024 63.9923 146.403 63.2975C145.718 62.5375 145.014 61.7686 144.156 61.2414C143.345 60.7392 142.443 60.4831 141.562 60.303C137.719 59.5263 132.159 60.0301 132.654 64.6759C132.801 66.0685 133.559 67.4452 134.336 68.7416C136.481 72.3278 138.938 75.7652 141.388 79.1955C147.94 88.3684 154.491 97.5414 161.043 106.714C162.918 105.928 164.793 105.148 166.668 104.361C168.196 103.722 161.593 88.257 160.793 86.5186C157.594 79.5624 153.32 71.724 148.234 65.4479Z" fill="#6D7895"/>
  <path d="M88.8777 102.579C88.8669 102.977 88.9626 103.963 88.8242 104.412C88.9632 105.415 88.765 106.009 89.1093 106.357C89.3282 106.58 89.4999 107.039 89.666 107.497C89.9539 108.275 90.239 109.052 90.526 109.838C90.574 109.968 90.624 110.107 90.6426 110.309C90.6572 110.491 90.6472 110.694 90.6317 110.894C90.4858 112.959 90.1494 115.111 89.566 116.507C89.0004 117.863 88.2843 118.311 87.6313 118.285C87.2136 118.274 86.809 118.087 86.4243 117.746C86.3057 117.641 86.1867 117.509 86.1062 117.236C86.0412 117.012 86.0084 116.717 85.9783 116.423C85.7973 114.57 85.7628 112.517 85.8747 110.452C85.9388 109.283 86.0493 108.074 85.9999 106.963C85.9663 106.177 85.8586 105.486 85.7599 104.789C85.5662 103.386 85.413 101.915 85.3014 100.393C85.2804 100.093 87.2009 99.4453 87.3957 99.465C88.2866 99.5667 88.9377 100.303 88.8777 102.579Z" fill="#F7BA67"/>
  <path d="M101.853 65.9881C102.426 65.2744 103.011 64.5781 103.607 63.9056C104.263 63.1702 104.938 62.4263 105.77 61.9218C106.556 61.4411 107.437 61.2032 108.299 61.0395C112.059 60.3342 117.533 60.9104 117.147 65.4604C117.033 66.8242 116.318 68.1636 115.583 69.4239C113.552 72.9102 111.212 76.2459 108.879 79.5747C102.639 88.4765 96.3989 97.3782 90.1589 106.28C88.2996 105.481 86.4399 104.688 84.5806 103.889C83.0654 103.239 89.2188 88.166 89.9677 86.4725C92.9606 79.6959 96.9918 72.0698 101.853 65.9881Z" fill="#6D7895"/>
  <path fill-rule="evenodd" clip-rule="evenodd" d="M124.732 33.8238C132.605 33.8238 139.055 39.1797 139.055 45.7031L139.055 52.483C139.055 59.0179 132.605 64.3623 124.732 64.3623C116.845 64.3623 110.395 59.0179 110.395 52.483L110.395 45.7031C110.395 39.1797 116.845 33.8238 124.732 33.8238Z" fill="#6D7895"/>
  <path fill-rule="evenodd" clip-rule="evenodd" d="M124.967 38.522C130.647 38.522 135.296 42.7491 135.296 47.9137L135.296 53.0912C135.296 58.2559 130.647 62.483 124.967 62.483C119.273 62.483 114.624 58.2559 114.624 53.0912L114.624 47.9169C114.624 42.7491 119.269 38.522 124.967 38.522Z" fill="#4F4F4F"/>
  <path fill-rule="evenodd" clip-rule="evenodd" d="M135.043 47.8103C135.071 48.0784 135.085 48.3603 135.085 48.6423L135.085 52.5935C133.957 57.0703 129.786 60.4192 124.867 60.4192C119.935 60.4192 115.764 57.0703 114.636 52.5935L114.636 48.6458C114.636 48.3638 114.65 48.0818 114.678 47.8138C116.439 44.1968 120.352 41.6834 124.867 41.6834C129.369 41.6799 133.282 44.1933 135.043 47.8103Z" fill="#F7BA67"/>
  <path fill-rule="evenodd" clip-rule="evenodd" d="M135.043 47.8103C135.071 48.0783 135.085 48.3603 135.085 48.6423L135.085 52.5934C135.018 52.8615 134.938 53.1191 134.855 53.3732C131.036 53.6691 126.089 53.791 125.055 50.0939L124.665 50.0939C123.631 53.791 118.681 53.6691 114.866 53.3732C114.786 53.1191 114.706 52.8615 114.636 52.5934L114.636 48.6457C114.636 48.3638 114.65 48.0818 114.678 47.8137C115.096 46.9678 115.618 46.188 116.237 45.4883C121.992 46 127.732 45.9861 133.473 45.4744C134.103 46.1845 134.625 46.9643 135.043 47.8103Z" fill="#DFA24F"/>
  <path fill-rule="evenodd" clip-rule="evenodd" d="M134.399 44.987C134.841 46.1288 135.085 47.3542 135.085 48.6423L135.085 51.0096C132.168 51.1558 126.075 52.771 125.014 48.9939L124.704 48.9939C123.642 52.771 117.55 51.6291 114.633 51.4794L114.633 48.6423C114.633 47.3507 114.876 46.1288 115.319 44.9974C121.679 45.7807 128.039 45.7529 134.399 44.987Z" fill="#323B3F"/>
  <path d="M119.792 47.4486C118.49 47.4486 117.443 47.8985 117.443 48.4486C117.443 48.9988 118.49 49.4486 119.792 49.4486C121.093 49.4486 122.141 48.9988 122.141 48.4486C122.141 47.8985 121.093 47.4486 119.792 47.4486Z" fill="#EBAE5B"/>
  <path d="M129.893 47.4486C128.461 47.4486 127.309 47.8985 127.309 48.4486C127.309 48.9988 128.461 49.4486 129.893 49.4486C131.325 49.4486 132.477 48.9988 132.477 48.4486C132.477 47.8985 131.325 47.4486 129.893 47.4486Z" fill="#EBAE5B"/>
</svg>