<svg width="31" height="31" viewBox="0 0 31 31" fill="none" xmlns="http://www.w3.org/2000/svg">
<path d="M29.7225 21.3578L26.2716 20.0062L26.4889 19.9526C28.7039 19.4137 29.7394 18.5898 29.7846 18.5559C29.9087 18.4571 29.968 18.3019 29.9454 18.1467C29.9257 18.0057 29.4488 14.6648 29.4488 11.3296C29.4488 8.10442 26.771 5.47745 23.4781 5.47745C20.1852 5.47745 17.5075 8.1016 17.5075 11.3296C17.5075 12.1733 17.4708 13.2145 17.4031 14.2585L17.4003 14.298L16.4578 14.7607L13.639 13.3809L13.6587 13.3217C13.7744 12.9718 13.8506 12.6078 13.8845 12.2438L13.8873 12.1987L13.9296 12.1846C14.5137 11.9842 14.9031 11.4425 14.9031 10.8358C14.9031 10.4351 14.7281 10.0514 14.4262 9.7805L14.4037 9.76074V6.90521C14.4037 6.12361 14.0086 5.38715 13.3455 4.93569L13.3258 4.92158L13.3201 4.89618C13.0803 4.08072 12.31 3.51074 11.4437 3.51074H7.4313C5.2445 3.51074 3.46685 5.25454 3.46685 7.39618V9.75792L3.44427 9.77768C3.13953 10.0486 2.96741 10.4323 2.96741 10.833C2.96741 11.4396 3.35963 11.9814 3.94089 12.1817L3.98321 12.1958L3.98604 12.241C4.10737 13.6067 4.82125 14.8651 5.94428 15.7004L5.9725 15.7201V16.8883L2.35229 17.9521C1.51707 18.1975 0.955566 18.9368 0.955566 19.7918V24.5914C0.955566 24.8313 1.14743 25.026 1.3901 25.0373L1.45782 25.0401V29.9978C1.45782 30.2433 1.66098 30.4436 1.91211 30.4436C2.16324 30.4436 2.3664 30.2433 2.3664 29.9978V25.0373H3.9804L4.76482 25.0514L4.81843 24.5661L4.87486 22.5683H3.96628V24.1484H1.86414V19.7946C1.86414 19.3375 2.16606 18.9425 2.61189 18.8098L6.02893 17.8053L6.04586 17.8787C6.35342 19.1823 7.56674 20.1276 8.93243 20.1276C9.90308 20.1276 10.8145 19.6592 11.3675 18.8747L11.5086 18.6744L11.4945 18.9199C11.4889 19.0102 11.486 19.1005 11.486 19.1908V19.5914L11.4635 19.6112C11.1587 19.8821 10.9866 20.2686 10.9866 20.6721C11.0035 20.833 11.0882 21.3155 11.2631 21.4989C11.5368 21.8657 11.9685 22.083 12.4228 22.0914H12.4906V22.1592C12.499 23.522 13.2552 24.8003 14.4601 25.4916L14.4968 25.5113V26.2365L12.8263 26.7811C12.025 27.0435 11.486 27.7743 11.486 28.601V29.9949C11.486 30.2404 11.6892 30.4408 11.9403 30.4408C12.1915 30.4408 12.3946 30.2404 12.3946 29.9949V28.601C12.3946 28.158 12.6824 27.7658 13.1113 27.6247L13.5825 27.4724L13.6136 27.5147C14.2598 28.4233 15.3235 28.9679 16.455 28.9679C17.5865 28.9679 18.6503 28.4261 19.2964 27.5147L19.3275 27.4724L19.7987 27.6247C20.2276 27.7658 20.5182 28.158 20.5182 28.601V29.9949C20.5182 30.2404 20.7214 30.4408 20.9725 30.4408C21.2236 30.4408 21.4268 30.2404 21.4268 29.9949V28.601C21.4268 27.7743 20.8879 27.0407 20.0865 26.7811L18.4161 26.2365V25.5113L18.4527 25.4916C19.288 25.0119 19.9369 24.2218 20.2332 23.3189L20.2671 23.2117L20.3489 23.2907C21.1785 24.0892 22.3213 24.5463 23.4781 24.5463C25.3856 24.5463 27.0842 23.3612 27.7022 21.5977L27.7276 21.5299L29.3867 22.1817C29.7874 22.3398 30.047 22.715 30.047 23.1355V25.1332H28.4161V26.1688L29.5447 26.2026V30.0034C29.5447 30.2489 29.7479 30.4492 29.999 30.4492C30.2501 30.4492 30.4533 30.2489 30.4533 30.0034V26.0305L30.521 26.0277C30.6339 26.022 30.7411 25.9769 30.823 25.8979C30.9076 25.8161 30.9556 25.7004 30.9556 25.5819V23.1411C30.9556 22.351 30.4702 21.6513 29.7225 21.3578ZM18.3455 13.7224C18.3935 12.8787 18.4161 12.0745 18.4161 11.3324C18.4161 8.59822 20.6875 6.37192 23.4781 6.37192C26.2688 6.37192 28.5402 8.59822 28.5402 11.3324C28.5402 14.1936 28.8958 17.1281 29.003 17.9605L29.0086 18.0057L28.9691 18.0282C28.6221 18.2455 27.6429 18.7844 26.0233 19.1456L25.9386 19.1654V18.5079L25.9753 18.4882C26.1954 18.3612 26.407 18.2201 26.5989 18.0677C27.4652 17.3821 28.0775 16.4199 28.3229 15.3618C28.4048 15.0091 28.4471 14.6451 28.4471 14.2811C28.4471 11.8375 26.6469 11.4876 24.9059 11.149C23.8647 10.9458 22.7868 10.737 21.8952 10.0993L21.8726 10.0824L21.867 10.057C21.819 9.83411 21.6582 9.06379 21.6582 8.51639C21.6582 8.27655 21.4635 8.08185 21.2236 8.08185C20.9838 8.08185 20.7891 8.27655 20.7891 8.51639C20.7891 9.19923 20.9838 10.0965 21.0233 10.2686L21.0261 10.2828L21.0233 10.2969C21.0205 10.3138 21.0176 10.3307 21.0176 10.3505C21.0176 10.3984 20.981 11.4848 19.3557 11.8855C19.2372 11.9137 19.1356 11.987 19.0735 12.0914C19.0114 12.193 18.9945 12.3115 19.0256 12.4244C19.0848 12.6614 19.3331 12.8082 19.5758 12.7489C20.9104 12.4216 21.4832 11.7021 21.7287 11.1546L21.7598 11.0841L21.8275 11.1208C22.7614 11.64 23.8055 11.8431 24.7281 12.0209C26.5735 12.3793 27.5385 12.6445 27.5385 14.2782C27.5385 14.5773 27.5047 14.8764 27.437 15.1614C27.2366 16.0249 26.7372 16.8121 26.0289 17.3708C25.3009 17.9492 24.4178 18.254 23.4781 18.254C22.6345 18.254 21.8246 18.0028 21.1362 17.526L21.1192 17.5147L21.1108 17.4949C20.8596 16.8319 20.4533 16.2195 19.9398 15.7229L19.9172 15.7032V13.7873C19.9172 13.6321 19.8354 13.491 19.7027 13.4092C19.5673 13.3273 19.4036 13.3189 19.2597 13.3894L18.3371 13.8409L18.3455 13.7224ZM19.0114 14.5096V16.0164L17.4736 15.263L19.0114 14.5096ZM13.9014 14.5096L15.4392 15.263L13.9014 16.0164V14.5096ZM10.9866 17.2297C10.9866 18.3386 10.0667 19.2416 8.93243 19.2416C7.80376 19.2416 6.88107 18.3386 6.87825 17.2297V16.2591L6.97701 16.3014C7.59496 16.5638 8.2524 16.6936 8.93243 16.6936C9.60963 16.6936 10.2699 16.561 10.8878 16.3014L10.9866 16.2591V17.2297ZM8.93243 15.7991C6.69484 15.7991 4.87204 14.0158 4.87204 11.8206C4.87204 11.5751 4.66888 11.3747 4.41775 11.3747C4.11583 11.3747 3.87035 11.1349 3.87035 10.8386C3.87035 10.5423 4.11583 10.3025 4.41775 10.3025H5.42227C5.61696 10.3025 5.79191 10.1812 5.85398 9.99777L6.25466 8.82395H6.30263C7.23096 8.80138 10.3941 8.65747 12.1463 7.79968C12.2564 7.74607 12.3382 7.65296 12.3749 7.54009C12.4116 7.42722 12.4031 7.30871 12.3495 7.20149C12.2366 6.9814 11.9657 6.89392 11.74 7.00115C9.8523 7.92666 5.96403 7.93794 5.92453 7.93794C5.72983 7.93794 5.55489 8.05928 5.49281 8.24269L5.09495 9.41368H4.37261V7.40182C4.37261 5.75115 5.74393 4.40804 7.42847 4.40804H11.4409C11.9573 4.40804 12.3918 4.77203 12.4736 5.27429C12.4962 5.40973 12.578 5.52542 12.6994 5.59314C13.1903 5.86402 13.4951 6.3691 13.4951 6.91086V9.41368H12.9448C12.6937 9.41368 12.4906 9.61402 12.4906 9.8595C12.4906 10.105 12.6937 10.3053 12.9448 10.3053H13.4471C13.749 10.3053 13.9945 10.5452 13.9945 10.8414C13.9945 11.1377 13.749 11.3776 13.4471 11.3776C13.196 11.3776 12.9928 11.5779 12.9928 11.8234C12.9928 14.0158 11.1728 15.7991 8.93243 15.7991ZM12.9928 14.6338V15.706L12.9702 15.7258C12.5865 16.0954 12.2705 16.5215 12.0278 16.987L11.8952 17.2438V15.7258L11.9234 15.7032C12.2789 15.4408 12.595 15.1332 12.8658 14.789L12.9928 14.6338ZM18.4217 27.1846L18.3455 27.2664C17.863 27.7884 17.1745 28.0875 16.455 28.0875C15.7383 28.0875 15.0498 27.7884 14.5645 27.2664L14.4883 27.1846L14.7479 27.0999C15.1401 26.9729 15.4025 26.6146 15.4025 26.2111V25.8894L15.49 25.912C16.1192 26.0672 16.7851 26.0672 17.4144 25.912L17.5018 25.8894V26.2111C17.5018 26.6146 17.7643 26.9729 18.1565 27.0999L18.4217 27.1846ZM19.968 21.2054C19.7169 21.2054 19.5137 21.4058 19.5137 21.6513V22.1422C19.5137 23.7929 18.1424 25.136 16.4578 25.136C14.7733 25.136 13.402 23.7929 13.402 22.1422V21.6513C13.402 21.4058 13.1988 21.2054 12.9477 21.2054H12.4454C12.1435 21.2054 11.8952 20.9656 11.8952 20.6693C11.8952 20.4774 11.9996 20.3053 12.1717 20.2066C12.1999 20.1896 12.231 20.1699 12.2564 20.1445L12.2761 20.1247H12.3015C13.3342 20.0937 16.8811 19.8905 19.1892 18.5982C19.2964 18.539 19.3726 18.443 19.4036 18.3273C19.4347 18.2145 19.4178 18.0931 19.3585 17.9916C19.2344 17.7771 18.9578 17.7037 18.7377 17.8251C16.7654 18.9312 13.6954 19.1738 12.468 19.2246L12.3946 19.2274V19.1541C12.4031 18.4176 12.6204 17.6981 13.0239 17.0717L13.069 17.0012L13.1311 17.0604C13.1536 17.083 13.179 17.1027 13.2073 17.1168C13.3371 17.1958 13.512 17.2043 13.6503 17.1366L16.4578 15.7624L19.2654 17.1366C19.4036 17.2043 19.5758 17.1958 19.7056 17.1168C19.731 17.0999 19.7564 17.0802 19.7818 17.0604L19.8438 17.0012L19.889 17.0717C20.3009 17.7094 20.5182 18.443 20.5182 19.1936V19.8228C20.5182 19.9808 20.6057 20.1276 20.7439 20.2066C20.9161 20.3053 21.0205 20.4774 21.0205 20.6693C21.0205 20.9656 20.775 21.2054 20.4702 21.2054H19.968ZM26.8585 21.2675C26.3788 22.7009 25.0216 23.6631 23.4781 23.6631C22.3297 23.6631 21.2462 23.1157 20.5803 22.1987L20.5098 22.0999L20.6311 22.0858C21.3704 22.0068 21.929 21.3945 21.929 20.6665C21.929 20.2686 21.7541 19.8849 21.4522 19.614L21.4296 19.5943V19.1936C21.4296 19.0694 21.424 18.9453 21.4155 18.8211L21.407 18.7054L21.5143 18.7506C22.135 19.013 22.7981 19.1484 23.4838 19.1484C23.9748 19.1484 24.4685 19.0751 24.9454 18.9312L25.0357 18.903V19.5096C25.0357 20.0965 25.3941 20.6185 25.9527 20.8358L26.8867 21.2026L26.8585 21.2675Z" fill="#C01818"/>
</svg>
