<svg width="30" height="30" viewBox="0 0 30 30" fill="none" xmlns="http://www.w3.org/2000/svg">
<path d="M21.3059 19.6841C21.3059 19.6841 23.0156 19.0733 22.2095 16.769C22.2095 16.769 19.7626 17.7775 20.8866 19.6606C20.9423 19.4278 21.0403 19.2073 21.1758 19.01C21.1468 19.2428 21.1924 19.4788 21.3059 19.6841Z" fill="#C01818"/>
<path d="M24.0674 17.5008C24.0473 17.3192 24.0608 17.1354 24.1071 16.9587C24.148 17.1354 24.2435 17.2947 24.38 17.4141C24.38 17.4141 25.4643 16.5286 24.2788 15.0647C24.2788 15.0611 22.7625 16.4274 24.0674 17.5008Z" fill="#C01818"/>
<path d="M25.8154 14.3835C25.7647 14.2131 25.7463 14.0348 25.7612 13.8576C25.83 14.0181 25.9476 14.1528 26.0974 14.2425C26.0974 14.2425 26.9739 13.2142 25.595 12.0287C25.595 12.0287 24.3931 13.5883 25.8154 14.3835Z" fill="#C01818"/>
<path d="M26.2163 9.2655C26.2163 9.2655 25.7284 10.9607 27.176 11.1541C27.0751 11.0297 26.9984 10.8875 26.9501 10.7348C27.0607 10.8459 27.2037 10.9193 27.3585 10.9444C27.3585 10.9444 27.7543 9.79864 26.2163 9.2655Z" fill="#C01818"/>
<path d="M26.2654 6.8562C26.2654 6.8562 26.0015 8.34717 27.2539 8.3797C27.1589 8.28195 27.0829 8.16734 27.0298 8.04174C27.1328 8.12535 27.259 8.1752 27.3913 8.18452C27.3913 8.18452 27.6262 7.17066 26.2654 6.8562Z" fill="#C01818"/>
<path d="M24.7653 20.1414C22.5117 18.5439 21.3135 20.2173 21.3135 20.2173C21.5003 20.4078 21.7426 20.5343 22.0056 20.5788C21.75 20.6656 21.4801 20.703 21.2104 20.689C22.9074 22.4926 24.7653 20.1414 24.7653 20.1414Z" fill="#C01818"/>
<path d="M24.3768 17.7287C24.5548 17.852 24.7675 17.9153 24.984 17.9094C24.7918 18.0174 24.5808 18.0879 24.3623 18.1172C25.9888 19.3154 27.131 17.1558 27.131 17.1558C25.087 16.2106 24.3768 17.7287 24.3768 17.7287Z" fill="#C01818"/>
<path d="M26.314 14.6132C26.513 14.6781 26.7276 14.6781 26.9266 14.6132C26.7777 14.7649 26.6018 14.8875 26.4079 14.9747C28.2459 15.6361 28.7067 13.3229 28.7067 13.3229C26.5543 13.012 26.314 14.6132 26.314 14.6132Z" fill="#C01818"/>
<path d="M29.1516 9.578C27.3299 9.93945 27.5883 11.2931 27.5883 11.2931C27.7678 11.2869 27.9406 11.2235 28.0817 11.1123C28.0074 11.2826 27.9006 11.4366 27.7672 11.566C29.4335 11.5786 29.1516 9.578 29.1516 9.578Z" fill="#C01818"/>
<path d="M27.7636 8.2209C27.916 8.18615 28.0537 8.10464 28.1575 7.98777C28.1197 8.142 28.0535 8.28785 27.9624 8.41789C29.3919 8.14681 28.8118 6.48596 28.8118 6.48596C27.3118 7.10042 27.7636 8.2209 27.7636 8.2209Z" fill="#C01818"/>
<path d="M26.6139 5.92225C26.5183 5.85187 26.4368 5.76421 26.3735 5.66382C26.4743 5.72153 26.5906 5.74618 26.7061 5.7343C26.7061 5.7343 26.7639 4.83069 25.5567 4.75659C25.5567 4.75659 25.5368 6.06683 26.6139 5.92225Z" fill="#C01818"/>
<path d="M27.3298 5.46297C27.3184 5.59968 27.2823 5.73317 27.2232 5.85695C28.4069 5.42683 27.6822 4.08948 27.6822 4.08948C26.484 4.82141 27.0262 5.71598 27.0262 5.71598C27.1513 5.66548 27.2575 5.57699 27.3298 5.46297Z" fill="#C01818"/>
<path d="M26.4082 4.01904C26.4556 3.92667 26.4727 3.82168 26.457 3.71904C26.5196 3.80387 26.5661 3.89941 26.5944 4.00097C27.057 3.15338 25.9636 2.75037 25.9636 2.75037C25.642 3.77868 26.4082 4.01904 26.4082 4.01904Z" fill="#C01818"/>
<path d="M8.43168 16.769C7.62204 19.0733 9.3353 19.6841 9.3353 19.6841C9.45047 19.4787 9.4973 19.242 9.46903 19.0082C9.60449 19.2055 9.70251 19.426 9.75819 19.6588C10.8787 17.7775 8.43168 16.769 8.43168 16.769Z" fill="#C01818"/>
<path d="M6.25944 17.4089C6.395 17.2893 6.48926 17.1299 6.52871 16.9535C6.57504 17.1303 6.58852 17.314 6.56847 17.4957C7.87329 16.4222 6.35884 15.0559 6.35884 15.0559C5.1751 16.5234 6.25944 17.4089 6.25944 17.4089Z" fill="#C01818"/>
<path d="M5.04264 12.0287C3.66372 13.2142 4.54023 14.2425 4.54023 14.2425C4.69027 14.1526 4.80843 14.018 4.87818 13.8576C4.892 14.0349 4.87301 14.2131 4.82215 14.3835C6.24625 13.5883 5.04264 12.0287 5.04264 12.0287Z" fill="#C01818"/>
<path d="M4.42148 9.2655C2.88352 9.79864 3.27569 10.9444 3.27569 10.9444C3.43052 10.9193 3.57346 10.8459 3.68413 10.7348C3.63522 10.8876 3.55797 11.0298 3.45641 11.1541C4.91123 10.9607 4.42148 9.2655 4.42148 9.2655Z" fill="#C01818"/>
<path d="M3.38391 8.3797C4.63632 8.34717 4.37427 6.8562 4.37427 6.8562C3.01162 7.17066 3.24114 8.18452 3.24114 8.18452C3.37343 8.1752 3.49964 8.12535 3.60258 8.04174C3.55116 8.16692 3.47702 8.2815 3.38391 8.3797Z" fill="#C01818"/>
<path d="M9.32437 20.2173C9.32437 20.2173 8.12798 18.5439 5.87256 20.1414C5.87256 20.1414 7.73039 22.4908 9.42919 20.6836C9.15894 20.6976 8.8885 20.6602 8.6322 20.5734C8.8946 20.5304 9.13679 20.4058 9.32437 20.2173Z" fill="#C01818"/>
<path d="M5.65382 17.9094C5.87086 17.9152 6.08412 17.8519 6.26286 17.7287C6.26286 17.7287 5.55081 16.2106 3.50684 17.1558C3.50684 17.1558 4.6472 19.3154 6.27551 18.1172C6.05699 18.0879 5.84602 18.0174 5.65382 17.9094Z" fill="#C01818"/>
<path d="M4.22995 14.978C4.03609 14.8909 3.86019 14.7683 3.71127 14.6166C3.91095 14.6815 4.12605 14.6815 4.32573 14.6166C4.32573 14.6166 4.08356 13.0118 1.93115 13.3262C1.93115 13.3262 2.392 15.6395 4.22995 14.978Z" fill="#C01818"/>
<path d="M2.55255 11.125C2.69359 11.2362 2.86643 11.2995 3.04592 11.3057C3.04592 11.3057 3.30978 9.93945 1.48628 9.578C1.48628 9.578 1.20436 11.566 2.87062 11.566C2.73733 11.4407 2.62935 11.291 2.55255 11.125Z" fill="#C01818"/>
<path d="M2.67529 8.41789C2.58414 8.28785 2.51796 8.142 2.48011 7.98777C2.58393 8.10464 2.72168 8.18615 2.87409 8.2209C2.87409 8.2209 3.3277 7.10042 1.8259 6.48596C1.82951 6.48596 1.24578 8.14681 2.67529 8.41789Z" fill="#C01818"/>
<path d="M4.2636 5.66382C4.20058 5.76385 4.11972 5.85145 4.02505 5.92225C5.10938 6.06683 5.08047 4.75659 5.08047 4.75659C3.87505 4.83611 3.93107 5.7343 3.93107 5.7343C4.04656 5.74618 4.16286 5.72153 4.2636 5.66382Z" fill="#C01818"/>
<path d="M3.41445 5.85705C3.35532 5.73327 3.31919 5.59977 3.30783 5.46307C3.38036 5.57642 3.48652 5.66425 3.61144 5.71428C3.61144 5.71428 4.15361 4.8215 2.95542 4.08777C2.95542 4.08958 2.23072 5.4215 3.41445 5.85705Z" fill="#C01818"/>
<path d="M4.17941 3.71909C4.16264 3.82154 4.17911 3.92667 4.2264 4.01909C4.2264 4.01909 4.98905 3.77873 4.67279 2.75403C4.67279 2.75403 3.5776 3.15704 4.04026 4.00463C4.06835 3.90158 4.11556 3.80472 4.17941 3.71909Z" fill="#C01818"/>
<path d="M9.71097 10.4112C10.6598 12.119 12.8845 16.122 12.8122 19.2305L13.8965 19.2558C13.976 15.8528 11.7278 11.8208 10.658 9.88349C10.4772 9.57446 10.3507 9.33048 10.2694 9.1606C8.6429 5.90759 8.57603 2.35638 8.61218 1.07686H22.0254C22.0634 2.35638 21.9965 5.91301 20.37 9.1606C20.2869 9.32325 20.1513 9.56723 19.9796 9.88349C18.8953 11.8208 16.6616 15.8473 16.7411 19.2558L17.8254 19.2305C17.7531 16.122 19.9778 12.119 20.9284 10.4112C21.1092 10.0895 21.2465 9.8365 21.3387 9.65397C23.5074 5.34193 23.0989 0.68831 23.079 0.491322L23.0339 -0.000244141H7.61278L7.55856 0.491322C7.54049 0.68831 7.13748 5.34193 9.29892 9.65397C9.39109 9.8365 9.53206 10.0895 9.71097 10.4112Z" fill="#C01818"/>
<path d="M23.65 24.7914H21.5807C19.8693 24.1046 19.2946 22.8739 19.1175 21.954C19.0449 21.5865 18.8467 21.2556 18.5568 21.0182C18.267 20.7808 17.9036 20.6516 17.5289 20.6528H13.1084C12.7338 20.6516 12.3704 20.7808 12.0805 21.0182C11.7907 21.2556 11.5925 21.5865 11.5199 21.954C11.3392 22.8739 10.7681 24.1046 9.05662 24.7914H6.98734V28.9155H5.51807V29.9998H25.1211V28.9155H23.65V24.7914ZM12.5843 22.1583C12.6094 22.0383 12.6754 21.9307 12.771 21.8539C12.8666 21.7771 12.9858 21.7358 13.1084 21.7372H17.5289C17.6515 21.7358 17.7708 21.7771 17.8664 21.8539C17.9619 21.9307 18.0279 22.0383 18.053 22.1583C18.2446 23.1732 18.7624 24.0978 19.5277 24.7914H11.1096C11.8749 24.0978 12.3928 23.1732 12.5843 22.1583ZM8.07168 28.9155V25.8757H22.5657V28.9155H8.07168Z" fill="#C01818"/>
</svg>
