<svg width="30" height="30" viewBox="0 0 30 30" fill="none" xmlns="http://www.w3.org/2000/svg">
<path d="M15.8844 29.4073C15.7225 29.4696 15.5947 29.5164 15.5066 29.5479C15.4181 29.5134 15.2895 29.4622 15.1263 29.3943C14.791 29.2546 14.3103 29.0444 13.7326 28.7636C12.5762 28.2014 11.037 27.3591 9.50051 26.2376C6.41004 23.9818 3.42491 20.6686 3.42491 16.3053V16.263V16.2208V16.1787V16.1365V16.0944V16.0523V16.0102V15.9681V15.9261V15.8841V15.8421V15.8002V15.7582V15.7163V15.6745V15.6326V15.5908V15.549V15.5072V15.4655V15.4238V15.3821V15.3404V15.2988V15.2572V15.2156V15.1741V15.1325V15.0911V15.0496V15.0082V14.9668V14.9254V14.8841V14.8428V14.8015V14.7602V14.719V14.6779V14.6367V14.5956V14.5545V14.5135V14.4724V14.4315V14.3905V14.3496V14.3087V14.2678V14.227V14.1863V14.1455V14.1048V14.0641V14.0235V13.9829V13.9423V13.9018V13.8613V13.8208V13.7804V13.74V13.6997V13.6593V13.6191V13.5788V13.5386V13.4985V13.4584V13.4183V13.3782V13.3382V13.2983V13.2583V13.2185V13.1786V13.1388V13.0991V13.0593V13.0197V12.98V12.9404V12.9009V12.8614V12.8219V12.7825V12.7431V12.7037V12.6644V12.6252V12.586V12.5468V12.5077V12.4686V12.4296V12.3906V12.3516V12.3127V12.2739V12.2351V12.1963V12.1576V12.119V12.0803V12.0418V12.0032V11.9648V11.9263V11.8879V11.8496V11.8113V11.7731V11.7349V11.6968V11.6587V11.6206V11.5827V11.5447V11.5068V11.469V11.4312V11.3935V11.3558V11.3182V11.2806V11.243V11.2056V11.1681V11.1308V11.0934V11.0562V11.019V10.9818V10.9447V10.9077V10.8707V10.8337V10.7968V10.76V10.7232V10.6865V10.6498V10.6132V10.5767V10.5402V10.5037V10.4673V10.431V10.3947V10.3585V10.3224V10.2863V10.2502V10.2143V10.1783V10.1425V10.1067V10.0709V10.0353V9.99963V9.96407V9.92857V9.89312V9.85774V9.82242V9.78716V9.75197V9.71683V9.68176V9.64674V9.61179V9.57691V9.54208V9.50732V9.47263V9.43799V9.40342V9.36892V9.33448V9.3001V9.26579V9.23154V9.19736V9.16324V9.12919V9.09521V9.06129V9.02744V8.99365V8.95994V8.92628V8.8927V8.85918V8.82574V8.79235V8.75904V8.7258V8.69262V8.65952V8.62648V8.59351V8.56062V8.52779V8.49503V8.46234V8.42973V8.39718V8.36471V8.3323V8.29997V8.26771V8.23553V8.20341V8.17137V8.13939V8.1075V8.07567V8.04392V8.01224V7.98064V7.94911V7.91766V7.88628V7.85497V7.82374V7.79258V7.7615V7.7305V7.69957V7.66872V7.63794V7.60724V7.57662V7.54608V7.51561V7.48522V7.45491V7.42467V7.39452V7.36444V7.33444V7.30452V7.27468V7.24492V7.21524V7.18564V7.15612V7.12668V7.09732V7.06804V7.03884V7.00972V6.98069V6.95174V6.92286V6.89407V6.86537V6.83674V6.8082V6.77975V6.75137V6.72308V6.69487V6.66675V6.63871V6.61076V6.58289V6.55511V6.52741V6.49979V6.47227V6.44482V6.41747V6.3902V6.36302V6.33592V6.30892V6.28199V6.25516V6.22842V6.20176V6.17519V6.14871V6.12232V6.09602V6.0698V6.04368V6.01764V5.9917V5.96585V5.94008V5.91441V5.88883V5.86334V5.83794V5.81263V5.78741V5.76229V5.73726V5.71232V5.68747V5.66272V5.63806V5.61349V5.58902V5.56464V5.54035V5.51616V5.49206V5.46806V5.44416V5.42034V5.39663V5.37301V5.34948V5.32606V5.30273V5.27949V5.25635V5.23331V5.21037V5.18752V5.16478V5.14213V5.11958V5.09712V5.07477V5.05251V5.03036V5.0083V4.98635V4.96449V4.94273V4.92108V4.89952V4.87807V4.85672V4.83546V4.81431V4.79326V4.77232V4.75147V4.73073V4.71009V4.68956V4.66913V4.6488V4.62857V4.60845V4.58843V4.56852V4.54871V4.52901V4.50941V4.48991V4.47053V4.45124V4.43207V4.413V4.39404V4.37518V4.35643V4.33779V4.31925V4.30083V4.28251V4.26429V4.24619V4.2282V4.21031V4.19253V4.17487V4.15731V4.13986V4.12252V4.1053V4.08818V4.07117V4.05428V4.03749V4.02082V4.00426V3.98781V3.97147V3.95524V3.93913V3.92313V3.90724V3.89147V3.87581V3.86026V3.84483V3.82951V3.8143V3.79921V3.78424V3.76938V3.75463V3.74V3.72549V3.71109V3.69681V3.68265V3.6686V3.65467V3.64086V3.62716V3.61358V3.60012V3.58678V3.57355V3.56045V3.54746V3.53459V3.52185V3.50922V3.49671V3.48432V3.47205V3.4599V3.44787V3.43597V3.42418V3.41252V3.40097V3.38955V3.37825V3.36708V3.35602V3.34509V3.33428V3.3236V3.31304V3.3026V3.29228V3.2851C3.62077 3.26975 3.88359 3.2471 4.20313 3.2149C4.94219 3.14041 5.98561 3.01468 7.20635 2.80944C9.59424 2.40797 12.6791 1.69932 15.4941 0.464783C18.3094 1.69935 21.3971 2.408 23.7879 2.80945C25.0101 3.01469 26.055 3.14042 26.7951 3.21491C27.1154 3.24714 27.3789 3.2698 27.5751 3.28515V3.29228V3.3026V3.31304V3.3236V3.33428V3.34509V3.35602V3.36708V3.37825V3.38955V3.40097V3.41252V3.42418V3.43597V3.44787V3.4599V3.47205V3.48432V3.49671V3.50922V3.52185V3.53459V3.54746V3.56045V3.57355V3.58678V3.60012V3.61358V3.62716V3.64086V3.65467V3.6686V3.68265V3.69681V3.71109V3.72549V3.74V3.75463V3.76938V3.78424V3.79921V3.8143V3.82951V3.84483V3.86026V3.87581V3.89147V3.90724V3.92313V3.93913V3.95524V3.97147V3.98781V4.00426V4.02082V4.03749V4.05428V4.07117V4.08818V4.1053V4.12252V4.13986V4.15731V4.17487V4.19253V4.21031V4.2282V4.24619V4.26429V4.28251V4.30083V4.31925V4.33779V4.35643V4.37518V4.39404V4.413V4.43207V4.45124V4.47053V4.48991V4.50941V4.52901V4.54871V4.56852V4.58843V4.60845V4.62857V4.6488V4.66913V4.68956V4.71009V4.73073V4.75147V4.77232V4.79326V4.81431V4.83546V4.85672V4.87807V4.89952V4.92108V4.94273V4.96449V4.98635V5.0083V5.03036V5.05251V5.07477V5.09712V5.11958V5.14213V5.16478V5.18752V5.21037V5.23331V5.25635V5.27949V5.30273V5.32606V5.34948V5.37301V5.39663V5.42034V5.44416V5.46806V5.49206V5.51616V5.54035V5.56464V5.58902V5.61349V5.63806V5.66272V5.68747V5.71232V5.73726V5.76229V5.78741V5.81263V5.83794V5.86334V5.88883V5.91441V5.94008V5.96585V5.9917V6.01764V6.04368V6.0698V6.09602V6.12232V6.14871V6.17519V6.20176V6.22842V6.25516V6.28199V6.30892V6.33592V6.36302V6.3902V6.41747V6.44482V6.47227V6.49979V6.52741V6.55511V6.58289V6.61076V6.63871V6.66675V6.69487V6.72308V6.75137V6.77975V6.8082V6.83674V6.86537V6.89407V6.92286V6.95174V6.98069V7.00972V7.03884V7.06804V7.09732V7.12668V7.15612V7.18564V7.21524V7.24492V7.27468V7.30452V7.33444V7.36444V7.39452V7.42467V7.45491V7.48522V7.51561V7.54608V7.57662V7.60724V7.63794V7.66872V7.69957V7.7305V7.7615V7.79258V7.82374V7.85497V7.88628V7.91766V7.94911V7.98064V8.01224V8.04392V8.07567V8.1075V8.13939V8.17137V8.20341V8.23553V8.26771V8.29997V8.3323V8.36471V8.39718V8.42973V8.46234V8.49503V8.52779V8.56062V8.59351V8.62648V8.65952V8.69262V8.7258V8.75904V8.79235V8.82574V8.85918V8.8927V8.92628V8.95994V8.99365V9.02744V9.06129V9.09521V9.12919V9.16324V9.19736V9.23154V9.26579V9.3001V9.33448V9.36892V9.40342V9.43799V9.47263V9.50732V9.54208V9.57691V9.61179V9.64674V9.68176V9.71683V9.75197V9.78716V9.82242V9.85774V9.89312V9.92857V9.96407V9.99963V10.0353V10.0709V10.1067V10.1425V10.1783V10.2143V10.2502V10.2863V10.3224V10.3585V10.3947V10.431V10.4673V10.5037V10.5402V10.5767V10.6132V10.6498V10.6865V10.7232V10.76V10.7968V10.8337V10.8707V10.9077V10.9447V10.9818V11.019V11.0562V11.0934V11.1308V11.1681V11.2056V11.243V11.2806V11.3182V11.3558V11.3935V11.4312V11.469V11.5068V11.5447V11.5827V11.6206V11.6587V11.6968V11.7349V11.7731V11.8113V11.8496V11.8879V11.9263V11.9648V12.0032V12.0418V12.0803V12.119V12.1576V12.1963V12.2351V12.2739V12.3127V12.3516V12.3906V12.4296V12.4686V12.5077V12.5468V12.586V12.6252V12.6644V12.7037V12.7431V12.7825V12.8219V12.8614V12.9009V12.9404V12.98V13.0197V13.0593V13.0991V13.1388V13.1786V13.2185V13.2583V13.2983V13.3382V13.3782V13.4183V13.4584V13.4985V13.5386V13.5788V13.6191V13.6593V13.6997V13.74V13.7804V13.8208V13.8613V13.9018V13.9423V13.9829V14.0235V14.0641V14.1048V14.1455V14.1863V14.227V14.2678V14.3087V14.3496V14.3905V14.4315V14.4724V14.5135V14.5545V14.5956V14.6367V14.6779V14.719V14.7602V14.8015V14.8428V14.8841V14.9254V14.9668V15.0082V15.0496V15.0911V15.1325V15.1741V15.2156V15.2572V15.2988V15.3404V15.3821V15.4238V15.4655V15.5072V15.549V15.5908V15.6326V15.6745V15.7163V15.7582V15.8002V15.8421V15.8841V15.9261V15.9681V16.0102V16.0523V16.0944V16.1365V16.1787V16.2208V16.263V16.3053C27.5751 20.8824 24.5853 24.1952 21.5033 26.3928C19.9687 27.4871 18.4313 28.2896 17.2762 28.8187C16.6992 29.083 16.2191 29.2784 15.8844 29.4073Z" fill="white" stroke="#C01818" stroke-width="0.849817"/>
<g clip-path="url(#clip0)">
<path d="M16.8906 19.6983C16.8906 20.4467 16.2688 21.0529 15.5011 21.0529C14.7333 21.0529 14.1115 20.4467 14.1115 19.6983C14.1115 18.9499 14.7333 18.3436 15.5011 18.3436C16.2688 18.3436 16.8906 18.9506 16.8906 19.6983ZM19.4073 17.4725C19.7074 17.1799 19.7074 16.7061 19.4073 16.4142C18.8998 15.9195 18.3094 15.5319 17.6515 15.2602C16.9697 14.9795 16.2465 14.8366 15.5011 14.8366C14.7556 14.8366 14.0324 14.9788 13.3507 15.2602C12.6927 15.5311 12.1023 15.9195 11.5949 16.4142C11.2947 16.7069 11.2947 17.1806 11.5949 17.4725C11.895 17.7651 12.381 17.7651 12.6804 17.4725C13.4336 16.7383 14.4355 16.3334 15.5011 16.3334C16.5667 16.3334 17.5685 16.7375 18.3217 17.4725C18.4714 17.6184 18.6679 17.6918 18.8645 17.6918C19.061 17.6918 19.2576 17.6192 19.4073 17.4725ZM10.163 15.0184C11.5887 13.6286 13.485 12.863 15.5011 12.863C17.5179 12.863 19.4134 13.6286 20.8391 15.0184C21.1393 15.3111 21.6252 15.3111 21.9246 15.0184C22.2248 14.7258 22.2248 14.2521 21.9246 13.9602C21.5139 13.5598 21.0617 13.196 20.5803 12.8795C20.0944 12.5599 19.5754 12.2845 19.0372 12.0629C17.9163 11.6012 16.7271 11.3669 15.5011 11.3669C14.275 11.3669 13.085 11.6012 11.9649 12.0629C11.4267 12.2852 10.907 12.5599 10.4218 12.8795C9.94117 13.196 9.48898 13.5598 9.07748 13.9602C8.7773 14.2528 8.7773 14.7266 9.07748 15.0184C9.22718 15.1644 9.42372 15.2377 9.62026 15.2377C9.81603 15.2377 10.0126 15.1644 10.163 15.0184ZM24.4428 12.5644C24.743 12.2718 24.743 11.798 24.4428 11.5061C23.8708 10.9486 23.2413 10.4419 22.5718 10.0011C21.8955 9.55575 21.173 9.17331 20.4237 8.86422C19.6606 8.54913 18.8614 8.3074 18.0491 8.14574C17.2154 7.97959 16.3586 7.89502 15.5011 7.89502C14.6435 7.89502 13.7867 7.97959 12.9537 8.14574C12.1415 8.3074 11.3423 8.54988 10.5792 8.86422C9.82985 9.17331 9.10665 9.55575 8.43105 10.0011C7.76159 10.4419 7.13205 10.9486 6.5601 11.5061C6.25992 11.7988 6.25992 12.2725 6.5601 12.5644C6.86028 12.857 7.34625 12.857 7.64566 12.5644C9.7431 10.5182 12.533 9.39185 15.5011 9.39185C18.4691 9.39185 21.2583 10.5182 23.3572 12.5644C23.5069 12.7103 23.7035 12.7837 23.9 12.7837C24.0965 12.7829 24.2931 12.7103 24.4428 12.5644Z" fill="#C01818"/>
</g>
<defs>
<clipPath id="clip0">
<rect x="6.33398" y="7.89502" width="18.3333" height="13.1579" fill="white"/>
</clipPath>
</defs>
</svg>
