<svg width="30" height="30" viewBox="0 0 30 30" fill="none" xmlns="http://www.w3.org/2000/svg">
<g clip-path="url(#clip0)">
<path d="M13.8796 16.4615C13.8561 16.4708 13.8343 16.4792 13.8144 16.4869C13.7939 16.4783 13.7713 16.4688 13.7469 16.4584C13.6061 16.3984 13.403 16.3075 13.1585 16.1858C12.6683 15.9418 12.0173 15.5769 11.369 15.0924C10.0563 14.1115 8.84423 12.7105 8.84423 10.8974V10.8787V10.86V10.8414V10.8227V10.8041V10.7855V10.7669V10.7483V10.7297V10.7111V10.6925V10.674V10.6554V10.6369V10.6184V10.5999V10.5814V10.5629V10.5444V10.5259V10.5075V10.4891V10.4706V10.4522V10.4338V10.4154V10.3971V10.3787V10.3603V10.342V10.3237V10.3054V10.2871V10.2688V10.2505V10.2323V10.214V10.1958V10.1776V10.1594V10.1412V10.123V10.1049V10.0867V10.0686V10.0505V10.0324V10.0143V9.99625V9.9782V9.96017V9.94214V9.92414V9.90615V9.88817V9.87021V9.85227V9.83434V9.81643V9.79854V9.78066V9.7628V9.74495V9.72712V9.70931V9.69151V9.67373V9.65597V9.63823V9.6205V9.60279V9.5851V9.56742V9.54976V9.53212V9.5145V9.4969V9.47931V9.46174V9.4442V9.42666V9.40915V9.39166V9.37418V9.35673V9.33929V9.32187V9.30447V9.28709V9.26973V9.25238V9.23506V9.21776V9.20048V9.18321V9.16597V9.14875V9.13154V9.11436V9.0972V9.08005V9.06293V9.04583V9.02875V9.01169V8.99465V8.97763V8.96064V8.94366V8.92671V8.90977V8.89286V8.87597V8.85911V8.84226V8.82544V8.80863V8.79185V8.7751V8.75836V8.74165V8.72496V8.70829V8.69165V8.67502V8.65843V8.64185V8.6253V8.60877V8.59226V8.57578V8.55932V8.54289V8.52648V8.51009V8.49373V8.47739V8.46107V8.44478V8.42852V8.41228V8.39606V8.37987V8.3637V8.34756V8.33144V8.31535V8.29928V8.28324V8.26722V8.25123V8.23527V8.21933V8.20342V8.18753V8.17167V8.15583V8.14002V8.12424V8.10849V8.09276V8.07705V8.06138V8.04573V8.03011V8.01451V7.99895V7.98341V7.96789V7.95241V7.93695V7.92152V7.90612V7.89074V7.8754V7.86008V7.84479V7.82953V7.8143V7.79909V7.78392V7.76877V7.75365V7.73856V7.7235V7.70847V7.69347V7.6785V7.66355V7.64864V7.63376V7.6189V7.60408V7.58929V7.57452V7.55979V7.54509V7.53041V7.51577V7.50116V7.48658V7.47203V7.45751V7.44302V7.42856V7.41414V7.39974V7.38538V7.37105V7.35675V7.34248V7.32825V7.31404V7.29987V7.28573V7.27162V7.25755V7.2435V7.22949V7.21551V7.20157V7.18766V7.17378V7.15993V7.14612V7.13234V7.11859V7.10488V7.0912V7.07756V7.06394V7.05037V7.03682V7.02331V7.00984V6.9964V6.98299V6.96962V6.95628V6.94298V6.92971V6.91648V6.90328V6.89012V6.87699V6.8639V6.85084V6.83782V6.82483V6.81188V6.79897V6.78609V6.77325V6.76044V6.74767V6.73494V6.72224V6.70958V6.69696V6.68437V6.67183V6.65931V6.64684V6.6344V6.622V6.60963V6.59731V6.58502V6.57277V6.56056V6.54838V6.53624V6.52415V6.51208V6.50006V6.48808V6.47613V6.46423V6.45236V6.44053V6.42874V6.41699V6.40528V6.3936V6.38197V6.37038V6.35882V6.34731V6.33583V6.3244V6.313V6.30165V6.29034V6.27906V6.26783V6.25663V6.24548V6.23437V6.2233V6.21227V6.20128V6.19033V6.17942V6.16856V6.15773V6.14695V6.13621V6.12551V6.11485V6.10424V6.09366V6.08313V6.07264V6.0622V6.05179V6.04143V6.03111V6.02083V6.0106V6.00041V5.99026V5.98016V5.9701V5.96008V5.95011V5.94018V5.93029V5.92045V5.91065V5.90089V5.89118V5.88151V5.87189V5.86231V5.85278V5.84329V5.83385V5.82445V5.81509V5.80578V5.79652V5.7873V5.77813V5.769V5.75992V5.75088V5.74189V5.73294V5.72404V5.71519V5.70638V5.69762V5.68891V5.68024V5.67162V5.66304V5.65451V5.64603V5.6376V5.62921V5.62087V5.61258V5.60433V5.59613V5.58798V5.57988V5.57183V5.56382V5.55586V5.54795V5.54009V5.53228V5.52451V5.51679V5.50912V5.5015V5.49393V5.48641V5.47894V5.47152V5.46414V5.45682V5.44954V5.44231V5.43514V5.42801V5.42093V5.41391V5.40693V5.4V5.39313V5.3863V5.37953V5.3728V5.36613V5.36587C8.87886 5.36253 8.91544 5.35888 8.95386 5.35492C9.27782 5.32149 9.73442 5.26515 10.2685 5.17322C11.2813 4.99889 12.5907 4.69359 13.8052 4.16396C15.0199 4.69362 16.3305 4.99891 17.3445 5.17324C17.8792 5.26516 18.3364 5.3215 18.6608 5.35493C18.6995 5.35891 18.7364 5.36257 18.7712 5.36593V5.36613V5.3728V5.37953V5.3863V5.39313V5.4V5.40693V5.41391V5.42093V5.42801V5.43514V5.44231V5.44954V5.45682V5.46414V5.47152V5.47894V5.48641V5.49393V5.5015V5.50912V5.51679V5.52451V5.53228V5.54009V5.54795V5.55586V5.56382V5.57183V5.57988V5.58798V5.59613V5.60433V5.61258V5.62087V5.62921V5.6376V5.64603V5.65451V5.66304V5.67162V5.68024V5.68891V5.69762V5.70638V5.71519V5.72404V5.73294V5.74189V5.75088V5.75992V5.769V5.77813V5.7873V5.79652V5.80578V5.81509V5.82445V5.83385V5.84329V5.85278V5.86231V5.87189V5.88151V5.89118V5.90089V5.91065V5.92045V5.93029V5.94018V5.95011V5.96008V5.9701V5.98016V5.99026V6.00041V6.0106V6.02083V6.03111V6.04143V6.05179V6.0622V6.07264V6.08313V6.09366V6.10424V6.11485V6.12551V6.13621V6.14695V6.15773V6.16856V6.17942V6.19033V6.20128V6.21227V6.2233V6.23437V6.24548V6.25663V6.26783V6.27906V6.29034V6.30165V6.313V6.3244V6.33583V6.34731V6.35882V6.37038V6.38197V6.3936V6.40528V6.41699V6.42874V6.44053V6.45236V6.46423V6.47613V6.48808V6.50006V6.51208V6.52415V6.53624V6.54838V6.56056V6.57277V6.58502V6.59731V6.60963V6.622V6.6344V6.64684V6.65931V6.67183V6.68437V6.69696V6.70958V6.72224V6.73494V6.74767V6.76044V6.77325V6.78609V6.79897V6.81188V6.82483V6.83782V6.85084V6.8639V6.87699V6.89012V6.90328V6.91648V6.92971V6.94298V6.95628V6.96962V6.98299V6.9964V7.00984V7.02331V7.03682V7.05037V7.06394V7.07756V7.0912V7.10488V7.11859V7.13234V7.14612V7.15993V7.17378V7.18766V7.20157V7.21551V7.22949V7.2435V7.25755V7.27162V7.28573V7.29987V7.31404V7.32825V7.34248V7.35675V7.37105V7.38538V7.39974V7.41414V7.42856V7.44302V7.45751V7.47203V7.48658V7.50116V7.51577V7.53041V7.54509V7.55979V7.57452V7.58929V7.60408V7.6189V7.63376V7.64864V7.66355V7.6785V7.69347V7.70847V7.7235V7.73856V7.75365V7.76877V7.78392V7.79909V7.8143V7.82953V7.84479V7.86008V7.8754V7.89074V7.90612V7.92152V7.93695V7.95241V7.96789V7.98341V7.99895V8.01451V8.03011V8.04573V8.06138V8.07705V8.09276V8.10849V8.12424V8.14002V8.15583V8.17167V8.18753V8.20342V8.21933V8.23527V8.25123V8.26722V8.28324V8.29928V8.31535V8.33144V8.34756V8.3637V8.37987V8.39606V8.41228V8.42852V8.44478V8.46107V8.47739V8.49373V8.51009V8.52648V8.54289V8.55932V8.57578V8.59226V8.60877V8.6253V8.64185V8.65843V8.67502V8.69165V8.70829V8.72496V8.74165V8.75836V8.7751V8.79185V8.80863V8.82544V8.84226V8.85911V8.87597V8.89286V8.90977V8.92671V8.94366V8.96064V8.97763V8.99465V9.01169V9.02875V9.04583V9.06293V9.08005V9.0972V9.11436V9.13154V9.14875V9.16597V9.18321V9.20048V9.21776V9.23506V9.25238V9.26973V9.28709V9.30447V9.32187V9.33929V9.35673V9.37418V9.39166V9.40915V9.42666V9.4442V9.46174V9.47931V9.4969V9.5145V9.53212V9.54976V9.56742V9.5851V9.60279V9.6205V9.63823V9.65597V9.67373V9.69151V9.70931V9.72712V9.74495V9.7628V9.78066V9.79854V9.81643V9.83434V9.85227V9.87021V9.88817V9.90615V9.92414V9.94214V9.96017V9.9782V9.99625V10.0143V10.0324V10.0505V10.0686V10.0867V10.1049V10.123V10.1412V10.1594V10.1776V10.1958V10.214V10.2323V10.2505V10.2688V10.2871V10.3054V10.3237V10.342V10.3603V10.3787V10.3971V10.4154V10.4338V10.4522V10.4706V10.4891V10.5075V10.5259V10.5444V10.5629V10.5814V10.5999V10.6184V10.6369V10.6554V10.674V10.6925V10.7111V10.7297V10.7483V10.7669V10.7855V10.8041V10.8227V10.8414V10.86V10.8787V10.8974C18.7712 12.8069 17.5544 14.2074 16.2503 15.1594C15.604 15.6312 14.955 15.9783 14.4661 16.2075C14.2223 16.3219 14.0199 16.4062 13.8796 16.4615Z" stroke="#C01818" stroke-width="0.873025"/>
<path fill-rule="evenodd" clip-rule="evenodd" d="M13.4546 12L11 9.23681L11.974 8.18426L13.4546 9.85087L16.026 7L17 8.05265L13.4546 12Z" fill="#C01818"/>
<path fill-rule="evenodd" clip-rule="evenodd" d="M26.1463 8.49533C26.1463 7.61752 25.4377 6.89575 24.5758 6.89575H20.1133V7.67604H24.5758C25.0163 7.67604 25.3802 8.04668 25.3802 8.49533V11.636H26.1463V8.49533Z" fill="#C01818" stroke="#C01818" stroke-width="0.2"/>
<path fill-rule="evenodd" clip-rule="evenodd" d="M28.231 11.5726H26.2487H25.4789H23.5159C22.6306 11.5726 21.9185 12.2847 21.9185 13.1701V21.8117H17.1073L16.7223 22.1004H11.2952L10.9103 21.8117H2.96198V8.47397C2.96198 8.03128 3.32764 7.66561 3.77028 7.66561H7.61934V6.89575H3.77028C2.90425 6.89575 2.19217 7.60787 2.19217 8.47397V21.8117H0.0751953V23.1782C0.0751953 23.9481 0.691044 24.5639 1.46085 24.5639H23.5159H27.0955H28.2118C29.097 24.5639 29.8091 23.8518 29.8091 22.9665V13.1701C29.8284 12.2847 29.097 11.5726 28.231 11.5726ZM1.46103 23.7748C1.11462 23.7748 0.845187 23.5054 0.845187 23.159V22.5816H10.6603L11.0452 22.8703H16.9727L17.3576 22.5816H21.9187V22.9665C21.9187 23.2744 21.9957 23.5439 22.1497 23.7941H1.46103V23.7748ZM28.231 23.7941C28.6929 23.7941 29.0586 23.4284 29.0586 22.9665H29.0778V13.1701C29.0778 12.7082 28.7122 12.3425 28.2503 12.3425H23.5352C23.0733 12.3425 22.7076 12.7082 22.7076 13.1701V22.9665C22.7076 23.4284 23.0733 23.7941 23.5352 23.7941H27.1148H28.231Z" fill="#C01818"/>
<path d="M21.9185 21.8117V21.9117H22.0185V21.8117H21.9185ZM17.1073 21.8117V21.7117H17.0739L17.0473 21.7317L17.1073 21.8117ZM16.7223 22.1004V22.2004H16.7557L16.7823 22.1804L16.7223 22.1004ZM11.2952 22.1004L11.2352 22.1804L11.2619 22.2004H11.2952V22.1004ZM10.9103 21.8117L10.9703 21.7317L10.9436 21.7117H10.9103V21.8117ZM2.96198 21.8117H2.86198V21.9117H2.96198V21.8117ZM7.61934 7.66561V7.76561H7.71934V7.66561H7.61934ZM7.61934 6.89575H7.71934V6.79575H7.61934V6.89575ZM2.19217 21.8117V21.9117H2.29217V21.8117H2.19217ZM0.0751953 21.8117V21.7117H-0.0248047V21.8117H0.0751953ZM29.8091 13.1701L29.7091 13.1679V13.1701H29.8091ZM1.46103 23.7748H1.56103V23.6748H1.46103V23.7748ZM0.845187 22.5816V22.4816H0.745187V22.5816H0.845187ZM10.6603 22.5816L10.7203 22.5016L10.6936 22.4816H10.6603V22.5816ZM11.0452 22.8703L10.9851 22.9503L11.0118 22.9703H11.0452V22.8703ZM16.9727 22.8703V22.9703H17.006L17.0327 22.9503L16.9727 22.8703ZM17.3576 22.5816V22.4816H17.3243L17.2976 22.5016L17.3576 22.5816ZM21.9187 22.5816H22.0187V22.4816H21.9187V22.5816ZM22.1497 23.7941V23.8941H22.3286L22.2348 23.7417L22.1497 23.7941ZM1.46103 23.7941H1.36103V23.8941H1.46103V23.7941ZM29.0586 22.9665V22.8665H28.9586V22.9665H29.0586ZM29.0778 22.9665V23.0665H29.1778V22.9665H29.0778ZM26.2487 11.6726H28.231V11.4726H26.2487V11.6726ZM25.4789 11.6726H26.2487V11.4726H25.4789V11.6726ZM23.5159 11.6726H25.4789V11.4726H23.5159V11.6726ZM22.0185 13.1701C22.0185 12.34 22.6858 11.6726 23.5159 11.6726V11.4726C22.5754 11.4726 21.8185 12.2295 21.8185 13.1701H22.0185ZM22.0185 21.8117V13.1701H21.8185V21.8117H22.0185ZM17.1073 21.9117H21.9185V21.7117H17.1073V21.9117ZM16.7823 22.1804L17.1673 21.8917L17.0473 21.7317L16.6623 22.0204L16.7823 22.1804ZM11.2952 22.2004H16.7223V22.0004H11.2952V22.2004ZM10.8503 21.8917L11.2352 22.1804L11.3552 22.0204L10.9703 21.7317L10.8503 21.8917ZM2.96198 21.9117H10.9103V21.7117H2.96198V21.9117ZM2.86198 8.47397V21.8117H3.06198V8.47397H2.86198ZM3.77028 7.56561C3.27241 7.56561 2.86198 7.97606 2.86198 8.47397H3.06198C3.06198 8.08651 3.38288 7.76561 3.77028 7.76561V7.56561ZM7.61934 7.56561H3.77028V7.76561H7.61934V7.56561ZM7.51934 6.89575V7.66561H7.71934V6.89575H7.51934ZM3.77028 6.99575H7.61934V6.79575H3.77028V6.99575ZM2.29217 8.47397C2.29217 7.66309 2.95948 6.99575 3.77028 6.99575V6.79575C2.84901 6.79575 2.09217 7.55264 2.09217 8.47397H2.29217ZM2.29217 21.8117V8.47397H2.09217V21.8117H2.29217ZM0.0751953 21.9117H2.19217V21.7117H0.0751953V21.9117ZM0.175195 23.1782V21.8117H-0.0248047V23.1782H0.175195ZM1.46085 24.4639C0.746278 24.4639 0.175195 23.8928 0.175195 23.1782H-0.0248047C-0.0248047 24.0033 0.635811 24.6639 1.46085 24.6639V24.4639ZM23.5159 24.4639H1.46085V24.6639H23.5159V24.4639ZM27.0955 24.4639H23.5159V24.6639H27.0955V24.4639ZM28.2118 24.4639H27.0955V24.6639H28.2118V24.4639ZM29.7091 22.9665C29.7091 23.7966 29.0418 24.4639 28.2118 24.4639V24.6639C29.1523 24.6639 29.9091 23.9071 29.9091 22.9665H29.7091ZM29.7091 13.1701V22.9665H29.9091V13.1701H29.7091ZM28.231 11.6726C29.043 11.6726 29.7271 12.3407 29.7091 13.1679L29.9091 13.1722C29.9296 12.2288 29.1511 11.4726 28.231 11.4726V11.6726ZM0.745187 23.159C0.745187 23.5606 1.05938 23.8748 1.46103 23.8748V23.6748C1.16985 23.6748 0.945187 23.4502 0.945187 23.159H0.745187ZM0.745187 22.5816V23.159H0.945187V22.5816H0.745187ZM10.6603 22.4816H0.845187V22.6816H10.6603V22.4816ZM11.1052 22.7903L10.7203 22.5016L10.6003 22.6616L10.9851 22.9503L11.1052 22.7903ZM16.9727 22.7703H11.0452V22.9703H16.9727V22.7703ZM17.2976 22.5016L16.9127 22.7903L17.0327 22.9503L17.4176 22.6616L17.2976 22.5016ZM21.9187 22.4816H17.3576V22.6816H21.9187V22.4816ZM22.0187 22.9665V22.5816H21.8187V22.9665H22.0187ZM22.2348 23.7417C22.0907 23.5075 22.0187 23.2562 22.0187 22.9665H21.8187C21.8187 23.2926 21.9007 23.5803 22.0645 23.8465L22.2348 23.7417ZM1.46103 23.8941H22.1497V23.6941H1.46103V23.8941ZM1.36103 23.7748V23.7941H1.56103V23.7748H1.36103ZM28.9586 22.9665C28.9586 23.3732 28.6377 23.6941 28.231 23.6941V23.8941C28.7482 23.8941 29.1586 23.4836 29.1586 22.9665H28.9586ZM29.0778 22.8665H29.0586V23.0665H29.0778V22.8665ZM28.9778 13.1701V22.9665H29.1778V13.1701H28.9778ZM28.2503 12.4425C28.6569 12.4425 28.9778 12.7634 28.9778 13.1701H29.1778C29.1778 12.653 28.7674 12.2425 28.2503 12.2425V12.4425ZM23.5352 12.4425H28.2503V12.2425H23.5352V12.4425ZM22.8076 13.1701C22.8076 12.7634 23.1285 12.4425 23.5352 12.4425V12.2425C23.0181 12.2425 22.6076 12.653 22.6076 13.1701H22.8076ZM22.8076 22.9665V13.1701H22.6076V22.9665H22.8076ZM23.5352 23.6941C23.1285 23.6941 22.8076 23.3732 22.8076 22.9665H22.6076C22.6076 23.4836 23.0181 23.8941 23.5352 23.8941V23.6941ZM27.1148 23.6941H23.5352V23.8941H27.1148V23.6941ZM28.231 23.6941H27.1148V23.8941H28.231V23.6941Z" fill="#C01818"/>
<path fill-rule="evenodd" clip-rule="evenodd" d="M26.5776 12.7303H25.0693V13.1269H26.5776V12.7303Z" fill="#C01818"/>
<path fill-rule="evenodd" clip-rule="evenodd" d="M25.2567 22.3748C25.4931 22.1366 25.8673 22.1366 26.1627 22.355L26.2021 22.3947C26.4187 22.6726 26.4187 23.0497 26.1823 23.2879C26.0642 23.4269 25.9066 23.4864 25.7294 23.4864C25.5718 23.4864 25.4143 23.4269 25.2764 23.3276L25.2371 23.2879C25.0007 22.9902 25.0204 22.613 25.2567 22.3748ZM25.5128 23.01C25.6703 23.1291 25.8082 23.0894 25.887 23.01C25.9658 22.9505 26.0051 22.8115 25.887 22.6329C25.7294 22.5138 25.5916 22.5535 25.5128 22.6329C25.4537 22.7122 25.4143 22.8512 25.5128 23.01Z" fill="#C01818"/>
</g>
<defs>
<clipPath id="clip0">
<rect width="30" height="30" fill="white"/>
</clipPath>
</defs>
</svg>
