<svg width="30" height="30" viewBox="0 0 30 30" fill="none" xmlns="http://www.w3.org/2000/svg">
<path d="M22.2207 10.2546L23.523 11.5569L24.1288 10.951L22.9457 9.76522L24.5586 8.96003L24.1754 8.19109L22.6505 8.95485V6.95093H21.7909V8.95485L20.266 8.19109L19.8828 8.96003L21.4958 9.76522L20.3126 10.951L20.9184 11.5569L22.2207 10.2546Z" fill="#C01818"/>
<path d="M10.6037 8.19158L9.07873 8.95534V6.95142H8.21917V8.95534L6.69422 8.19158L6.31104 8.96052L7.92401 9.76571L6.74082 10.9515L7.34665 11.5573L8.64894 10.255L9.95124 11.5573L10.5571 10.9515L9.37388 9.76571L10.9869 8.96052L10.6037 8.19158Z" fill="#C01818"/>
<path d="M17.3898 8.19134L15.8649 8.95509V6.95117H15.0053V8.95509L13.4803 8.19134L13.0972 8.96028L14.7101 9.76547L13.527 10.9513L14.1328 11.5571L15.4351 10.2548L16.7374 11.5571L17.3432 10.9513L16.16 9.76547L17.773 8.96028L17.3898 8.19134Z" fill="#C01818"/>
<path d="M3.5612 3.35792H27.3105C27.972 3.35792 28.5115 3.89643 28.5138 4.5591C28.5138 4.5593 28.5138 4.55949 28.5138 4.55969L28.5138 15.3032C28.5138 15.9673 27.9728 16.5064 27.3105 16.5064H24.049V16.3653H27.3105C27.8931 16.3653 28.3701 15.8926 28.3701 15.3058V4.5612C28.3701 3.97862 27.8974 3.50164 27.3105 3.50164H3.5612C2.97861 3.50164 2.50164 3.97432 2.50164 4.5612V15.3058C2.50164 15.8883 2.9743 16.3653 3.5612 16.3653H6.70884V16.5064H3.5612C2.89711 16.5064 2.35792 15.9654 2.35792 15.3032V4.55861C2.35792 3.8975 2.89854 3.35792 3.5612 3.35792Z" fill="#C01818" stroke="#C01818" stroke-width="0.71585"/>
<path d="M12.8274 20.8568L12.2241 21.4678L14.1633 23.3785C14.2514 23.464 14.3653 23.508 14.4921 23.5002C14.6138 23.4925 14.7251 23.4329 14.8002 23.3397L18.689 18.4386L18.0158 17.9053L14.4222 22.4309L12.8274 20.8568Z" fill="#C01818"/>
<path d="M21.7904 13.064C21.657 12.9869 21.4937 12.9795 21.3549 13.0416L15.5 15.6038L9.6451 13.0441C9.58249 13.0167 9.51717 13.0043 9.44912 13.0043C9.36474 13.0043 9.28308 13.0267 9.20959 13.0689C9.07621 13.146 9 13.2752 9 13.4169V23.929C9 24.0856 9.10071 24.2322 9.25586 24.2993L15.304 26.9609C15.4238 27.013 15.5762 27.013 15.696 26.9609L21.7441 24.2993C21.8993 24.2322 22 24.0856 22 23.929V13.4169C22 13.2702 21.9211 13.141 21.7904 13.064ZM21.099 23.668L15.5 26.1308L15.4401 26.106L9.90096 23.668V14.068L15.304 16.4313C15.4292 16.486 15.5708 16.486 15.6933 16.4313L21.0963 14.068V23.668H21.099Z" fill="#C01818"/>
</svg>
