<svg width="768" height="585" viewBox="0 0 768 585" fill="none" xmlns="http://www.w3.org/2000/svg">
<g clip-path="url(#clip0)">
<path fill-rule="evenodd" clip-rule="evenodd" d="M182.538 42.8913C236.849 15.2419 299.091 61.8476 359.996 60.1544C421.809 58.4359 481.774 9.44024 538.931 32.9834C598.897 57.6831 634.72 120.983 656.207 182.164C677.773 243.568 682.381 312.188 658.231 372.659C635.108 430.556 581.895 468.632 528.763 501.272C480.072 531.184 426.026 551.767 368.915 550.393C313.486 549.059 257.286 531.713 216.897 493.766C179.265 458.409 180.54 401.133 159.744 353.868C136.214 300.39 82.942 257.314 87.2144 199.026C91.7823 136.708 126.829 71.2527 182.538 42.8913Z" fill="#E6E9F0"/>
<g clip-path="url(#clip1)">
<path d="M589.627 450.757H144C138.477 450.757 134 446.279 134 440.757V103.198C134 88.6435 145.631 77 160.169 77H563.168C577.706 77 589.336 88.6435 589.336 103.198V450.466C589.336 450.626 589.466 450.757 589.627 450.757Z" fill="white"/>
<path opacity="0.55" d="M312.82 422.521H173.254C170.055 422.521 167.147 419.901 167.147 416.408V352.951C167.147 349.749 169.764 346.838 173.254 346.838H313.111C316.309 346.838 319.217 349.458 319.217 352.951V416.408C318.926 419.61 316.309 422.521 312.82 422.521Z" fill="#DBE0FE"/>
<path opacity="0.55" d="M435.232 147.734H170.637C168.892 147.734 167.147 146.279 167.147 144.241V137.546C167.147 135.8 168.601 134.053 170.637 134.053H435.523C437.267 134.053 439.012 135.509 439.012 137.546V144.241C438.721 146.279 437.267 147.734 435.232 147.734Z" fill="#DBE0FE"/>
<path opacity="0.55" d="M435.232 175.679H170.637C168.892 175.679 167.147 174.223 167.147 172.186V165.491C167.147 163.744 168.601 161.998 170.637 161.998H435.523C437.267 161.998 439.012 163.453 439.012 165.491V172.186C438.721 174.223 437.267 175.679 435.232 175.679Z" fill="#DBE0FE"/>
<path opacity="0.55" d="M270.54 204H168.348C167.674 204 167 202.511 167 200.426V193.574C167 191.787 167.561 190 168.348 190H270.652C271.326 190 272 191.489 272 193.574V200.426C271.888 202.511 271.326 204 270.54 204Z" fill="#DBE0FE"/>
<path opacity="0.55" d="M270.54 232H168.348C167.674 232 167 230.511 167 228.426V221.574C167 219.787 167.561 218 168.348 218H270.652C271.326 218 272 219.489 272 221.574V228.723C271.888 230.511 271.326 232 270.54 232Z" fill="#DBE0FE"/>
<path opacity="0.55" d="M270.54 260H168.348C167.674 260 167 258.511 167 256.426V249.574C167 247.787 167.561 246 168.348 246H270.652C271.326 246 272 247.489 272 249.574V256.426C271.888 258.511 271.326 260 270.54 260Z" fill="#DBE0FE"/>
<path opacity="0.55" d="M270.54 287H168.348C167.674 287 167 285.617 167 283.681V277.319C167 275.66 167.561 274 168.348 274H270.652C271.326 274 272 275.383 272 277.319V283.681C271.888 285.617 271.326 287 270.54 287Z" fill="#DBE0FE"/>
<path d="M563.458 77H160.169C145.631 77 134 88.6435 134 103.198V115.715H589.627V103.198C589.627 88.6435 577.996 77 563.458 77Z" fill="url(#paint0_linear)"/>
<path d="M522.17 96.5029C522.17 98.8316 520.425 100.578 518.099 100.578C515.773 100.578 514.028 98.8316 514.028 96.5029C514.028 94.1742 515.773 92.4277 518.099 92.4277C520.134 92.1366 522.17 94.1742 522.17 96.5029Z" fill="white"/>
<path d="M543.105 96.5029C543.105 98.8316 541.36 100.578 539.034 100.578C536.708 100.578 534.963 98.8316 534.963 96.5029C534.963 94.1742 536.708 92.4277 539.034 92.4277C541.069 92.1366 543.105 94.1742 543.105 96.5029Z" fill="white"/>
<path d="M564.04 96.5029C564.04 98.8316 562.295 100.578 559.969 100.578C557.643 100.578 555.898 98.8316 555.898 96.5029C555.898 94.1742 557.643 92.4277 559.969 92.4277C562.004 92.1366 564.04 94.1742 564.04 96.5029Z" fill="white"/>
<path fill-rule="evenodd" clip-rule="evenodd" d="M450.865 261.915C450.865 309.936 411.936 348.865 363.915 348.865C315.894 348.865 276.966 309.936 276.966 261.915C276.966 213.894 315.894 174.966 363.915 174.966C411.936 174.966 450.865 213.894 450.865 261.915ZM428.423 343.389C410.701 357.439 388.288 365.83 363.915 365.83C306.524 365.83 260 319.306 260 261.915C260 204.524 306.524 158 363.915 158C421.306 158 467.83 204.524 467.83 261.915C467.83 288.823 457.604 313.342 440.825 331.797L513.759 404.731L501.762 416.728L428.423 343.389Z" fill="#5A6175"/>
<path fill-rule="evenodd" clip-rule="evenodd" d="M424.778 237.778L348 314.556L299.222 265.778L314.778 250.222L348 283.444L409.222 222.222L424.778 237.778Z" fill="#0BD18A"/>
</g>
</g>
<defs>
<linearGradient id="paint0_linear" x1="134" y1="96.4234" x2="589.679" y2="96.4234" gradientUnits="userSpaceOnUse">
<stop stop-color="#F84E49"/>
<stop offset="1" stop-color="#C01818"/>
</linearGradient>
<clipPath id="clip0">
<path d="M0 0H768V585H0V0Z" fill="white"/>
</clipPath>
<clipPath id="clip1">
<rect x="134" y="77" width="455.627" height="373.757" fill="white"/>
</clipPath>
</defs>
</svg>
