<svg width="25" height="25" viewBox="0 0 25 25" fill="none" xmlns="http://www.w3.org/2000/svg">
<path fill-rule="evenodd" clip-rule="evenodd" d="M10.4941 5.32331C11.2573 3.95733 13.2228 3.95733 13.986 5.32332L21.0411 17.9503C21.7859 19.2835 20.8222 20.9259 19.2951 20.9259H5.18502C3.65791 20.9259 2.6942 19.2835 3.43906 17.9503L10.4941 5.32331ZM13.1695 17.5645C13.1695 18.0949 12.7534 18.5249 12.2401 18.5249C11.7268 18.5249 11.3107 18.0949 11.3107 17.5645C11.3107 17.0341 11.7268 16.6041 12.2401 16.6041C12.7534 16.6041 13.1695 17.0341 13.1695 17.5645ZM11.8464 8.92109H12.6337C12.9235 8.92109 13.1525 9.16654 13.1325 9.45557L12.7368 15.1802C12.7188 15.4412 12.5018 15.6438 12.2401 15.6438C11.9784 15.6438 11.7614 15.4412 11.7433 15.1802L11.3476 9.45557C11.3277 9.16654 11.5567 8.92109 11.8464 8.92109Z" fill="#E62626"/>
</svg>
