<svg width="16" height="16" viewBox="0 0 16 16" fill="none" xmlns="http://www.w3.org/2000/svg">
<path fill-rule="evenodd" clip-rule="evenodd" d="M4.70016 3.75736C4.43981 3.49701 4.0177 3.49701 3.75735 3.75736C3.497 4.01771 3.497 4.43982 3.75735 4.70017L7.05718 8L3.75735 11.2998C3.497 11.5602 3.497 11.9823 3.75735 12.2426C4.0177 12.503 4.43981 12.503 4.70016 12.2426L7.99999 8.94281L11.2998 12.2426C11.5602 12.503 11.9823 12.503 12.2426 12.2426C12.503 11.9823 12.503 11.5602 12.2426 11.2998L8.9428 8L12.2426 4.70017C12.503 4.43982 12.503 4.01771 12.2426 3.75736C11.9823 3.49701 11.5602 3.49701 11.2998 3.75736L7.99999 7.05719L4.70016 3.75736Z" fill="#ABB2C3"/>
</svg>
