<svg width="56" height="18" viewBox="0 0 56 18" fill="none" xmlns="http://www.w3.org/2000/svg">
<g clip-path="url(#clip0)">
<path d="M7.08485 0.00210571H7.57839C9.29181 0.0372191 10.9773 0.686817 12.1879 1.83678C11.7409 2.26692 11.2846 2.6795 10.8469 3.10964C10.1672 2.53027 9.34769 2.08258 8.45373 1.92457C7.13141 1.66122 5.70666 1.89823 4.59853 2.60928C3.38795 3.35544 2.56849 4.61952 2.39156 5.97139C2.19601 7.3057 2.59643 8.71024 3.51832 9.74608C4.40297 10.7556 5.75322 11.3876 7.15003 11.4315C8.45373 11.5018 9.81329 11.1243 10.7631 10.264C11.5081 9.6583 11.8526 8.73657 11.9644 7.84118C10.4186 7.84118 8.87277 7.84996 7.32696 7.84118V6.03284H13.8361C14.1713 7.97285 13.6871 10.1587 12.1227 11.5456C11.0797 12.5288 9.63636 13.1082 8.16505 13.2223C6.7403 13.354 5.26899 13.0994 4.00255 12.4498C2.48468 11.6861 1.27411 10.3957 0.678138 8.87702C0.119414 7.48127 0.110101 5.90116 0.631578 4.49662C1.10649 3.21498 2.01908 2.08258 3.1924 1.29252C4.31916 0.51125 5.68804 0.0811109 7.08485 0.00210571Z" fill="#848FAA"/>
<path d="M44.4265 0.458008H46.4193V12.9935C45.7581 12.9935 45.0877 13.0023 44.4265 12.9847C44.4358 8.815 44.4265 4.63651 44.4265 0.458008Z" fill="#848FAA"/>
<path d="M18.2688 4.8033C19.498 4.58385 20.8297 4.82964 21.8447 5.52313C22.7666 6.13761 23.4091 7.10323 23.6047 8.15663C23.8561 9.37682 23.5395 10.7111 22.7014 11.6767C21.7981 12.7565 20.3175 13.3358 18.8741 13.2481C17.5518 13.1778 16.2667 12.5546 15.4845 11.5363C14.5999 10.4127 14.3857 8.86767 14.8699 7.55092C15.3541 6.13761 16.723 5.05788 18.2688 4.8033ZM18.5482 6.47119C18.0453 6.59408 17.5797 6.86621 17.2445 7.25246C16.3412 8.27075 16.3971 9.92985 17.3935 10.8779C17.9615 11.4222 18.8183 11.6767 19.6098 11.5275C20.3454 11.4046 20.988 10.9394 21.3418 10.3249C21.9564 9.28025 21.7795 7.84061 20.839 7.02422C20.2337 6.49752 19.349 6.27806 18.5482 6.47119Z" fill="#848FAA"/>
<path d="M28.1397 4.80334C29.5458 4.54877 31.0823 4.91746 32.1345 5.84796C33.848 7.29639 34.0342 10.0089 32.5722 11.6768C31.6876 12.7302 30.2535 13.3096 28.8381 13.2481C27.4878 13.213 26.1562 12.581 25.3554 11.5363C24.4521 10.3864 24.2565 8.80627 24.7687 7.46318C25.2809 6.09376 26.6218 5.04913 28.1397 4.80334ZM28.419 6.47123C27.9162 6.59412 27.4506 6.86625 27.1153 7.24372C26.2214 8.24446 26.2586 9.87723 27.2178 10.8341C27.7858 11.4047 28.6705 11.6856 29.4899 11.5276C30.2163 11.3959 30.8681 10.9394 31.222 10.3249C31.8272 9.27152 31.6503 7.83187 30.7005 7.01549C30.0952 6.48878 29.2106 6.2781 28.419 6.47123Z" fill="#848FAA"/>
<path d="M36.5113 5.31242C37.5821 4.68038 39.0069 4.50481 40.1616 5.04907C40.5248 5.1983 40.8227 5.45288 41.1114 5.70745C41.1207 5.47043 41.1114 5.22464 41.1207 4.97884C41.7446 4.98762 42.3686 4.97884 43.0018 4.98762V12.7301C42.9925 13.8977 42.6758 15.1354 41.7819 15.9869C40.8041 16.9262 39.3049 17.2159 37.9546 17.0227C36.5113 16.8208 35.2541 15.8289 34.6954 14.5736C35.2541 14.319 35.8408 14.1171 36.4181 13.8801C36.7441 14.5999 37.4052 15.2144 38.234 15.3549C39.0628 15.4953 40.0219 15.3022 40.562 14.6526C41.1394 13.9854 41.1394 13.0725 41.1114 12.2561C40.6831 12.6511 40.1895 13.0023 39.5936 13.1339C38.2992 13.4763 36.8744 13.0549 35.878 12.2298C34.8723 11.4046 34.2764 10.1317 34.3322 8.86766C34.3602 7.43678 35.2169 6.05858 36.5113 5.31242ZM38.4389 6.43605C37.8708 6.52384 37.34 6.8223 36.9769 7.23488C36.1015 8.21806 36.1015 9.78938 36.9862 10.755C37.489 11.3256 38.2992 11.6416 39.0814 11.5626C39.817 11.4924 40.4968 11.0535 40.86 10.4478C41.4746 9.42069 41.3722 8.02493 40.5434 7.12954C40.0312 6.5765 39.2118 6.30438 38.4389 6.43605Z" fill="#848FAA"/>
<path d="M48.8125 5.76016C49.93 4.77699 51.6528 4.44341 53.0868 4.96133C54.4464 5.44414 55.3124 6.66433 55.7501 7.91964C53.7294 8.70969 51.7179 9.49096 49.6972 10.281C49.9766 10.7814 50.4049 11.2379 50.9823 11.4222C51.7924 11.6943 52.7609 11.5978 53.4407 11.0886C53.7107 10.8955 53.9249 10.6409 54.1298 10.3951C54.642 10.7199 55.1541 11.0359 55.6663 11.3607C54.9399 12.3878 53.72 13.1076 52.407 13.2218C50.9543 13.3885 49.4085 12.8618 48.468 11.7909C46.9222 10.1054 47.0712 7.27882 48.8125 5.76016ZM49.8089 7.38416C49.4923 7.8143 49.362 8.341 49.3713 8.85892C50.7215 8.33222 52.0718 7.80552 53.4221 7.27004C53.1986 6.77845 52.6585 6.47999 52.1091 6.40098C51.2244 6.25175 50.3025 6.69945 49.8089 7.38416Z" fill="#848FAA"/>
</g>
<defs>
<clipPath id="clip0">
<rect width="55.5" height="17.0769" fill="white" transform="translate(0.25)"/>
</clipPath>
</defs>
</svg>
