<svg width="65" height="13" viewBox="0 0 65 13" fill="none" xmlns="http://www.w3.org/2000/svg">
<path d="M65 5.44206V3.92778H63.0577V1.57366L62.9923 1.59315L61.1679 2.13356L61.1319 2.14414V3.92787H58.2524V2.93418C58.2524 2.47148 58.3593 2.1174 58.5699 1.88126C58.779 1.64796 59.0782 1.52935 59.4598 1.52935C59.734 1.52935 60.018 1.5919 60.3038 1.71526L60.3755 1.74625V0.151511L60.3418 0.139516C60.0752 0.0467275 59.7125 0 59.263 0C58.6965 0 58.1817 0.11936 57.7328 0.355913C57.2836 0.592799 56.9302 0.93097 56.6827 1.36093C56.4361 1.79039 56.3109 2.2864 56.3109 2.83531V3.92778H54.9584V5.44206H56.3109V11.8214H58.2524V5.44206H61.1319V9.49603C61.1319 11.1656 61.9454 12.0117 63.5497 12.0117C63.8133 12.0117 64.0908 11.9818 64.3741 11.9233C64.6625 11.8631 64.8589 11.8031 64.9745 11.739L65.0001 11.7243V10.196L64.9211 10.2466C64.8157 10.3146 64.6845 10.3701 64.5307 10.4114C64.3761 10.4535 64.2471 10.4746 64.1471 10.4746C63.7713 10.4746 63.4933 10.3765 63.3208 10.183C63.1463 9.98779 63.0577 9.64637 63.0577 9.16877V5.44206H65ZM50.6226 10.4748C49.9179 10.4748 49.3622 10.2486 48.9707 9.80296C48.5767 9.35509 48.3772 8.71657 48.3772 7.90529C48.3772 7.06827 48.5768 6.41317 48.9709 5.95739C49.3627 5.50461 49.913 5.2748 50.6067 5.2748C51.28 5.2748 51.8159 5.49428 52.1998 5.92749C52.5856 6.36295 52.7814 7.0128 52.7814 7.85956C52.7814 8.71673 52.5973 9.37517 52.2342 9.81562C51.8736 10.2527 51.3314 10.4748 50.6226 10.4748ZM50.7089 3.73762C49.3644 3.73762 48.2965 4.11902 47.5351 4.87125C46.7742 5.62355 46.3885 6.66464 46.3885 7.96585C46.3885 9.20175 46.765 10.1959 47.5079 10.9201C48.2507 11.6446 49.2616 12.0116 50.5123 12.0116C51.8155 12.0116 52.8622 11.6248 53.6232 10.8622C54.3842 10.1004 54.7697 9.06915 54.7697 7.79834C54.7697 6.54311 54.4079 5.54159 53.6941 4.82219C52.9799 4.10245 51.9754 3.73762 50.7089 3.73762ZM43.2581 3.73762C42.3435 3.73762 41.587 3.9641 41.0091 4.41063C40.4277 4.85984 40.1328 5.44897 40.1328 6.16188C40.1328 6.53245 40.1964 6.86162 40.3217 7.14082C40.4477 7.42094 40.6428 7.66757 40.9019 7.87456C41.1591 8.07987 41.556 8.29494 42.0821 8.51375C42.5243 8.68991 42.854 8.83893 43.0635 8.95637C43.2683 9.07148 43.4136 9.18718 43.4957 9.29987C43.5754 9.41015 43.6159 9.56108 43.6159 9.74732C43.6159 10.2777 43.2057 10.5357 42.3616 10.5357C42.0485 10.5357 41.6914 10.4724 41.3002 10.3476C40.9117 10.2247 40.5451 10.0448 40.2132 9.81404L40.1326 9.75807V11.5678L40.1622 11.5811C40.4369 11.7039 40.7833 11.8074 41.1915 11.8889C41.599 11.9704 41.9692 12.0119 42.2908 12.0119C43.2832 12.0119 44.0824 11.7843 44.6655 11.3351C45.2524 10.8829 45.5498 10.2798 45.5498 9.54225C45.5498 9.01018 45.3897 8.5539 45.0741 8.18591C44.7607 7.82091 44.2167 7.48583 43.4579 7.18963C42.8534 6.95475 42.4662 6.75976 42.3064 6.61008C42.1524 6.46548 42.0742 6.261 42.0742 6.00204C42.0742 5.77248 42.1707 5.58857 42.3689 5.43964C42.5686 5.28996 42.8466 5.21383 43.1952 5.21383C43.5187 5.21383 43.8496 5.26331 44.1788 5.36026C44.5077 5.45722 44.7966 5.58707 45.0378 5.74591L45.1171 5.79838V4.08171L45.0867 4.06905C44.8642 3.97668 44.5708 3.89763 44.2144 3.83349C43.8597 3.76977 43.5379 3.73762 43.2581 3.73762ZM35.0712 10.4748C34.3667 10.4748 33.8109 10.2486 33.4194 9.80296C33.0254 9.35509 32.8261 8.71673 32.8261 7.90529C32.8261 7.06827 33.0257 6.41317 33.4199 5.95739C33.8113 5.50461 34.3615 5.2748 35.0557 5.2748C35.7286 5.2748 36.2645 5.49428 36.6485 5.92749C37.0344 6.36295 37.2301 7.0128 37.2301 7.85956C37.2301 8.71673 37.0459 9.37517 36.6828 9.81562C36.3223 10.2527 35.7803 10.4748 35.0712 10.4748ZM35.1578 3.73762C33.813 3.73762 32.745 4.11902 31.984 4.87125C31.2231 5.62355 30.8371 6.66464 30.8371 7.96585C30.8371 9.20225 31.2139 10.1959 31.9568 10.9201C32.6996 11.6446 33.7104 12.0116 34.9611 12.0116C36.2642 12.0116 37.3111 11.6248 38.0721 10.8622C38.8329 10.1004 39.2186 9.06915 39.2186 7.79834C39.2186 6.54311 38.8568 5.54159 38.1428 4.82219C37.4284 4.10245 36.424 3.73762 35.1578 3.73762ZM27.8899 5.29479V3.92778H25.972V11.8212H27.8899V7.78343C27.8899 7.09685 28.0507 6.53278 28.368 6.10674C28.6812 5.68577 29.0987 5.47246 29.6083 5.47246C29.7811 5.47246 29.975 5.50003 30.185 5.55459C30.3929 5.60881 30.5435 5.6677 30.6322 5.72967L30.7129 5.78622V3.91429L30.6818 3.90138C30.5032 3.82791 30.2505 3.79085 29.9308 3.79085C29.4488 3.79085 29.0175 3.94078 28.6481 4.23597C28.3238 4.49543 28.0895 4.85117 27.9103 5.29479H27.8899ZM22.5374 3.73762C21.6575 3.73762 20.8727 3.92029 20.2051 4.28036C19.5362 4.64127 19.0189 5.15653 18.6669 5.81171C18.3165 6.46531 18.1386 7.22878 18.1386 8.08021C18.1386 8.82602 18.3111 9.51044 18.652 10.1136C18.9932 10.7179 19.476 11.1905 20.0872 11.5184C20.6975 11.8458 21.4029 12.0118 22.184 12.0118C23.0954 12.0118 23.8736 11.8354 24.4975 11.4875L24.5227 11.4735V9.77239L24.4421 9.82937C24.1595 10.0287 23.8437 10.1878 23.5038 10.3024C23.1648 10.4169 22.8558 10.4748 22.5848 10.4748C21.8322 10.4748 21.2281 10.2468 20.7896 9.79738C20.3501 9.34735 20.1273 8.7154 20.1273 7.9202C20.1273 7.12 20.3597 6.47181 20.8176 5.99354C21.2742 5.51669 21.8795 5.2748 22.6164 5.2748C23.2468 5.2748 23.8611 5.48145 24.4423 5.88959L24.5227 5.94615V4.15376L24.4967 4.1396C24.278 4.02107 23.9798 3.9232 23.6095 3.84899C23.2407 3.77494 22.8801 3.73762 22.5374 3.73762ZM16.8177 3.92787H14.8998V11.8212H16.8177V3.92787ZM15.8784 0.565229C15.5627 0.565229 15.2874 0.669262 15.0612 0.875413C14.8341 1.08215 14.7189 1.34244 14.7189 1.64963C14.7189 1.95198 14.8327 2.20752 15.0577 2.40876C15.2812 2.60942 15.5574 2.71112 15.8784 2.71112C16.1994 2.71112 16.4766 2.60941 16.7028 2.40909C16.9305 2.20752 17.0459 1.95206 17.0459 1.64963C17.0459 1.35318 16.9336 1.09556 16.7122 0.883743C16.491 0.672344 16.2104 0.565229 15.8784 0.565229ZM11.0931 3.34548V11.8212H13.0504V0.806863H10.3414L6.8981 8.98802L3.55659 0.806863H0.737305V11.8212H2.57665V3.34465H2.6398L6.16835 11.8212H7.55644L11.0299 3.34548H11.0931Z" fill="#5A6175"/>
</svg>
