<svg width="64" height="18" viewBox="0 0 64 18" fill="none" xmlns="http://www.w3.org/2000/svg">
<path fill-rule="evenodd" clip-rule="evenodd" d="M12.045 4.3943H8.28714L6.08486 9.63938L3.88259 4.3943H0.124756C1.48981 7.64535 2.85434 10.897 4.21993 14.1476L2.70722 17.7503H6.46506C8.34424 13.2747 10.1779 8.84089 12.0449 4.39439L12.045 4.3943ZM59.8286 0.0278479H63.8727L60.2157 8.86447H56.1715L59.8286 0.0278479ZM57.1656 9.71665C58.4248 9.71665 59.4457 10.7375 59.4457 11.9967C59.4457 13.256 58.4249 14.2768 57.1656 14.2768C55.9063 14.2768 54.8855 13.256 54.8855 11.9967C54.8855 10.7376 55.9063 9.71665 57.1656 9.71665ZM49.2139 4.12903C52.0457 4.12903 54.3412 6.42463 54.3412 9.25632C54.3412 12.0881 52.0456 14.3836 49.2139 14.3836C46.3821 14.3836 44.0866 12.088 44.0866 9.25632C44.0866 6.42454 46.3822 4.12903 49.2139 4.12903ZM49.2139 7.25431C50.3196 7.25431 51.216 8.1507 51.216 9.25641C51.216 10.3621 50.3196 11.2585 49.2139 11.2585C48.1082 11.2585 47.2118 10.3621 47.2118 9.25641C47.2118 8.1507 48.1082 7.25431 49.2139 7.25431ZM38.2064 4.12903C41.0381 4.12903 43.3336 6.42463 43.3336 9.25632C43.3336 12.0881 41.0381 14.3836 38.2064 14.3836C35.3746 14.3836 33.0791 12.088 33.0791 9.25632C33.0791 6.42454 35.3747 4.12903 38.2064 4.12903ZM38.2064 7.25431C39.3121 7.25431 40.2085 8.1507 40.2085 9.25641C40.2085 10.3621 39.3121 11.2585 38.2064 11.2585C37.1007 11.2585 36.2043 10.3621 36.2043 9.25641C36.2043 8.1507 37.1007 7.25431 38.2064 7.25431ZM23.0691 -3.24231e-05H26.4596V5.27105C26.4596 5.27105 27.0528 4.12903 29.0123 4.12903C30.9718 4.12903 32.2286 4.99117 32.2537 8.52139V14.2768H28.8631V8.52139C28.8631 7.85764 28.3251 7.31958 27.6613 7.31958C26.9823 7.31958 26.4431 7.8779 26.4601 8.55545L26.4595 14.2768H23.069V-0.00012207L23.0691 -3.24231e-05ZM18.4523 4.3943H21.8429V14.2769H18.4523V13.3453C17.693 13.9969 16.7468 14.3838 15.7207 14.3838C13.2202 14.3838 11.1932 12.0882 11.1932 9.2565C11.1932 6.42472 13.2202 4.12921 15.7207 4.12921C16.7468 4.12921 17.6931 4.51604 18.4523 5.16768V4.39448V4.3943ZM16.5426 7.25431C17.6483 7.25431 18.5447 8.1507 18.5447 9.25641C18.5447 10.3621 17.6483 11.2585 16.5426 11.2585C15.4369 11.2585 14.5405 10.3621 14.5405 9.25641C14.5405 8.1507 15.4369 7.25431 16.5426 7.25431Z" fill="#848FAA"/>
</svg>
