<svg width="34" height="34" viewBox="0 0 34 34" fill="none" xmlns="http://www.w3.org/2000/svg">
<path d="M14.5763 4.69347C15.6834 2.90035 18.2909 2.90035 19.398 4.69347L30.6992 22.9974C31.8647 24.8851 30.5068 27.3193 28.2884 27.3193H5.68596C3.46752 27.3193 2.10966 24.8851 3.27512 22.9975L14.5763 4.69347ZM18.4173 22.6667C18.4173 21.8843 17.783 21.25 17.0006 21.25C16.2182 21.25 15.5839 21.8843 15.5839 22.6667C15.5839 23.4491 16.2182 24.0833 17.0006 24.0833C17.783 24.0833 18.4173 23.4491 18.4173 22.6667ZM15.5839 9.91667L15.5842 18.4167H18.4173V9.91667H15.5839Z" fill="#E32224"/>
</svg>
