<svg width="74" height="74" viewBox="0 0 74 74" fill="none" xmlns="http://www.w3.org/2000/svg">
<rect width="74" height="74" fill="#D1D5DF"/>
<path d="M74 37.0041C74 16.5661 57.4339 0 36.9959 0C16.5579 0 0 16.5661 0 37.0041C0 55.4735 13.5273 70.7815 31.2207 73.5589V47.6969H21.8267V37.0041H31.2207V28.8518C31.2207 19.5803 36.7427 14.4585 45.1973 14.4585C49.2489 14.4585 53.4803 15.1774 53.4803 15.1774V24.2855H48.816C44.217 24.2855 42.7875 27.1363 42.7875 30.0607V37.0041H53.0474L51.4055 47.6969H42.7793V73.5507C60.4727 70.7734 74 55.4735 74 37.0041Z" fill="#D1D5DF"/>
<path d="M51.4055 47.6954L53.0474 37.0026H42.7794V30.0592C42.7794 27.1348 44.2089 24.2839 48.8078 24.2839H53.4721V15.1759C53.4721 15.1759 49.2408 14.457 45.1891 14.457C36.7345 14.457 31.2125 19.5788 31.2125 28.8502V37.0026H21.8185V47.6954H31.2125V73.5492C33.0995 73.8433 35.0273 73.9985 36.9959 73.9985C38.9646 73.9985 40.8924 73.8433 42.7794 73.5492V47.6954H51.4055Z" fill="white"/>
</svg>
