<svg width="74" height="74" viewBox="0 0 74 74" fill="none" xmlns="http://www.w3.org/2000/svg">
<rect width="74" height="74" fill="url(#paint0_linear)"/>
<path d="M37.006 18.9882C42.8774 18.9882 43.5667 19.0144 45.8873 19.1191C48.0335 19.215 49.1939 19.5727 49.9703 19.8781C50.9998 20.2794 51.7326 20.7505 52.5004 21.5182C53.2681 22.286 53.748 23.0188 54.1405 24.0483C54.4372 24.8248 54.8036 25.9851 54.8996 28.1313C55.0043 30.4519 55.0304 31.1412 55.0304 37.0126C55.0304 42.8841 55.0043 43.5733 54.8996 45.894C54.8036 48.0402 54.4459 49.2005 54.1405 49.977C53.7392 51.0065 53.2681 51.7393 52.5004 52.507C51.7326 53.2748 50.9998 53.7546 49.9703 54.1472C49.1939 54.4438 48.0335 54.8103 45.8873 54.9062C43.5667 55.0109 42.8774 55.0371 37.006 55.0371C31.1345 55.0371 30.4453 55.0109 28.1246 54.9062C25.9784 54.8103 24.8181 54.4526 24.0416 54.1472C23.0122 53.7459 22.2793 53.2748 21.5116 52.507C20.7438 51.7393 20.264 51.0065 19.8714 49.977C19.5748 49.2005 19.2083 48.0402 19.1124 45.894C19.0077 43.5733 18.9815 42.8841 18.9815 37.0126C18.9815 31.1412 19.0077 30.4519 19.1124 28.1313C19.2083 25.9851 19.566 24.8248 19.8714 24.0483C20.2727 23.0188 20.7438 22.286 21.5116 21.5182C22.2793 20.7505 23.0122 20.2707 24.0416 19.8781C24.8181 19.5814 25.9784 19.215 28.1246 19.1191C30.4453 19.0056 31.1432 18.9882 37.006 18.9882ZM37.006 15.0273C31.0385 15.0273 30.2882 15.0535 27.9414 15.1582C25.6033 15.2629 24.0067 15.638 22.6108 16.179C21.1626 16.7373 19.9412 17.4963 18.7198 18.7177C17.4984 19.9391 16.7481 21.1693 16.181 22.6088C15.6401 24.0047 15.265 25.6012 15.1603 27.9481C15.0556 30.2862 15.0294 31.0365 15.0294 37.0039C15.0294 42.9714 15.0556 43.7216 15.1603 46.0685C15.265 48.4066 15.6401 50.0032 16.181 51.4078C16.7394 52.856 17.4984 54.0774 18.7198 55.2988C19.9412 56.5202 21.1713 57.2705 22.6108 57.8376C24.0067 58.3785 25.6033 58.7537 27.9501 58.8583C30.297 58.963 31.0385 58.9892 37.0147 58.9892C42.9909 58.9892 43.7324 58.963 46.0793 58.8583C48.4174 58.7537 50.0139 58.3785 51.4186 57.8376C52.8668 57.2792 54.0882 56.5202 55.3096 55.2988C56.531 54.0774 57.2813 52.8473 57.8484 51.4078C58.3893 50.0119 58.7644 48.4153 58.8691 46.0685C58.9738 43.7216 59 42.9801 59 37.0039C59 31.0278 58.9738 30.2862 58.8691 27.9393C58.7644 25.6012 58.3893 24.0047 57.8484 22.6001C57.29 21.1518 56.531 19.9304 55.3096 18.709C54.0882 17.4876 52.8581 16.7373 51.4186 16.1702C50.0227 15.6293 48.4261 15.2542 46.0793 15.1495C43.7237 15.0535 42.9734 15.0273 37.006 15.0273Z" fill="white"/>
<path d="M37.006 25.7227C30.7768 25.7227 25.7167 30.774 25.7167 37.0119C25.7167 43.2498 30.7681 48.3012 37.006 48.3012C43.2439 48.3012 48.2952 43.2498 48.2952 37.0119C48.2952 30.774 43.2439 25.7227 37.006 25.7227ZM37.006 44.3316C32.9579 44.3316 29.6775 41.0513 29.6775 37.0032C29.6775 32.9551 32.9579 29.6748 37.006 29.6748C41.0541 29.6748 44.3344 32.9551 44.3344 37.0032C44.3344 41.0513 41.0541 44.3316 37.006 44.3316Z" fill="white"/>
<path d="M48.7402 27.9062C50.1953 27.9062 51.3749 26.7266 51.3749 25.2715C51.3749 23.8163 50.1953 22.6367 48.7402 22.6367C47.2851 22.6367 46.1054 23.8163 46.1054 25.2715C46.1054 26.7266 47.2851 27.9062 48.7402 27.9062Z" fill="white"/>
<defs>
<linearGradient id="paint0_linear" x1="37" y1="-1.2517e-06" x2="-5" y2="37" gradientUnits="userSpaceOnUse">
<stop stop-color="#AE2A9F"/>
<stop offset="1" stop-color="#DC2F26"/>
</linearGradient>
</defs>
</svg>
