<svg width="74" height="74" viewBox="0 0 74 74" fill="none" xmlns="http://www.w3.org/2000/svg">
<path d="M37 74C16.5686 74 0 57.4314 0 37C0 16.5686 16.5686 0 37 0C57.4314 0 74 16.5686 74 37C74 57.4314 57.4314 74 37 74Z" fill="#D1D5DF"/>
<path d="M45.4804 44.7107C43.3566 44.7107 41.625 42.9791 41.625 40.8553C41.625 38.7315 43.3566 36.9999 45.4804 36.9999C47.6042 36.9999 49.3358 38.7315 49.3358 40.8553C49.3358 42.9791 47.6042 44.7107 45.4804 44.7107ZM46.1612 51.0377C43.5268 53.6647 38.4874 53.8719 37.0074 53.8719C35.5274 53.8719 30.4806 53.6647 27.8536 51.0377C27.4614 50.6455 27.4614 50.0165 27.8536 49.6243C28.2458 49.2321 28.8748 49.2321 29.267 49.6243C30.9246 51.2819 34.4692 51.8739 37.0074 51.8739C39.5382 51.8739 43.0902 51.2819 44.7478 49.6243C45.14 49.2321 45.769 49.2321 46.1612 49.6243C46.546 50.0165 46.546 50.6455 46.1612 51.0377ZM24.6642 40.8553C24.6642 38.7315 26.3958 36.9999 28.5196 36.9999C30.6434 36.9999 32.375 38.7315 32.375 40.8553C32.375 42.9791 30.6434 44.7107 28.5196 44.7107C26.3958 44.7107 24.6642 42.9791 24.6642 40.8553ZM61.6642 36.9999C61.6642 34.0177 59.2518 31.6053 56.2696 31.6053C54.8118 31.6053 53.4946 32.1825 52.5252 33.1223C48.84 30.4583 43.7562 28.7415 38.0952 28.5417L40.552 16.9755L48.581 18.6849C48.6772 20.7273 50.3496 22.3553 52.4142 22.3553C54.5454 22.3553 56.2696 20.6311 56.2696 18.4999C56.2696 16.3687 54.5454 14.6445 52.4142 14.6445C50.8972 14.6445 49.6022 15.5251 48.9732 16.7979L40.0044 14.8887C39.7528 14.8369 39.4938 14.8813 39.2792 15.0219C39.0646 15.1625 38.9166 15.3771 38.8648 15.6287L36.1712 28.3197C36.1564 28.3937 36.1712 28.4603 36.1712 28.5343C30.4066 28.6823 25.2266 30.4065 21.4822 33.1075C20.5128 32.1751 19.203 31.6053 17.7526 31.6053C14.7704 31.6053 12.358 34.0251 12.358 36.9999C12.358 39.1903 13.6678 41.0773 15.5474 41.9209C15.466 42.4537 15.4216 43.0013 15.4216 43.5563C15.4216 51.8591 25.086 58.5857 37.0074 58.5857C48.9288 58.5857 58.5932 51.8591 58.5932 43.5563C58.5932 43.0087 58.5488 42.4685 58.4674 41.9357C60.3396 41.0921 61.6642 39.2051 61.6642 36.9999Z" fill="white"/>
</svg>
