<svg width="74" height="74" viewBox="0 0 74 74" fill="none" xmlns="http://www.w3.org/2000/svg">
<circle cx="37" cy="38" r="28" fill="white"/>
<path d="M74 37C74 57.4425 57.4425 74 37 74C16.5575 74 0 57.4425 0 37C0 16.5575 16.5575 0 37 0C57.4425 0 74 16.5575 74 37ZM30.229 56.5175C46.6385 56.5175 55.611 42.92 55.611 31.1355C55.611 30.747 55.611 30.3585 55.5925 29.9885C57.3315 28.7305 58.8485 27.158 60.051 25.3635C58.46 26.0665 56.7395 26.5475 54.9265 26.7695C56.7765 25.6595 58.1825 23.9205 58.8485 21.83C57.128 22.8475 55.2225 23.5875 53.1875 23.9945C51.5595 22.2555 49.247 21.1825 46.6755 21.1825C41.7545 21.1825 37.7585 25.1785 37.7585 30.0995C37.7585 30.8025 37.8325 31.487 37.999 32.1345C30.5805 31.7645 24.013 28.2125 19.61 22.8105C18.8515 24.124 18.4075 25.6595 18.4075 27.2875C18.4075 30.377 19.98 33.115 22.385 34.706C20.9235 34.669 19.5545 34.262 18.352 33.596C18.352 33.633 18.352 33.67 18.352 33.707C18.352 38.036 21.423 41.625 25.5115 42.4575C24.7715 42.661 23.976 42.772 23.162 42.772C22.5885 42.772 22.0335 42.7165 21.4785 42.6055C22.607 46.1575 25.9 48.729 29.8035 48.803C26.751 51.1895 22.903 52.614 18.722 52.614C18.0005 52.614 17.2975 52.577 16.5945 52.4845C20.498 55.0375 25.197 56.5175 30.229 56.5175Z" fill="#1DA1F2"/>
</svg>
