<svg width="24" height="24" viewBox="0 0 24 24" fill="none" xmlns="http://www.w3.org/2000/svg">
<path fill-rule="evenodd" clip-rule="evenodd" d="M18 1V5H23L21.35 21.53C21.25 22.35 20.56 23 19.72 23H18V21H19.39L20.79 7H11.23L11 5H16V1H18ZM8.5 8.99C4.75 8.99 1 11 1 15H16C16 11 12.25 8.99 8.5 8.99ZM1 21.98C1 22.54 1.45 22.99 2.01 22.99H15C15.56 22.99 16.01 22.54 16.01 21.98V21H1V21.98ZM8.5 10.99C7.09 10.99 4.73 11.45 3.62 13H13.38C12.27 11.45 9.91 10.99 8.5 10.99ZM1 17H16V19H1V17Z" fill="white"/>
</svg>
