<svg width="24" height="24" viewBox="0 0 24 24" fill="none" xmlns="http://www.w3.org/2000/svg">
<path fill-rule="evenodd" clip-rule="evenodd" d="M14.71 13.9818H15.5L20.49 18.9753L19 20.4634L14 15.4798V14.6909L13.73 14.4112C12.59 15.39 11.11 15.9792 9.5 15.9792C5.91 15.9792 3 13.073 3 9.48765C3 5.90231 5.91 2.99609 9.5 2.99609C13.09 2.99609 16 5.90231 16 9.48765C16 11.0956 15.41 12.5736 14.43 13.7121L14.71 13.9818ZM5 9.48765C5 11.9744 7.01 13.9818 9.5 13.9818C11.99 13.9818 14 11.9744 14 9.48765C14 7.00088 11.99 4.99349 9.5 4.99349C7.01 4.99349 5 7.00088 5 9.48765Z" fill="#1671EE"/>
</svg>
