<svg width="24" height="24" viewBox="0 0 24 24" fill="none" xmlns="http://www.w3.org/2000/svg">
<path fill-rule="evenodd" clip-rule="evenodd" d="M17.3 11.9544C16.96 12.5736 16.3 12.983 15.55 12.983H8.1L7 14.9804H19V16.9778H7C5.48 16.9778 4.52 15.3499 5.25 14.0117L6.6 11.5749L3 3.99472H1V1.99731H4.27L5.21 3.99472H20.01C20.77 3.99472 21.25 4.81365 20.88 5.47279L17.3 11.9544ZM18.31 5.99212H6.16L8.53 10.9856H15.55L18.31 5.99212Z" fill="#1671EE"/>
<path d="M7.00001 17.9766C5.90001 17.9766 5.01001 18.8754 5.01001 19.974C5.01001 21.0725 5.90001 21.9714 7.00001 21.9714C8.10001 21.9714 9.00001 21.0725 9.00001 19.974C9.00001 18.8754 8.10001 17.9766 7.00001 17.9766Z" fill="#1671EE"/>
<path d="M17 17.9766C15.9 17.9766 15.01 18.8754 15.01 19.974C15.01 21.0725 15.9 21.9714 17 21.9714C18.1 21.9714 19 21.0725 19 19.974C19 18.8754 18.1 17.9766 17 17.9766Z" fill="#1671EE"/>
</svg>
