<svg width="34" height="27" viewBox="0 0 34 27" fill="none" xmlns="http://www.w3.org/2000/svg">
<path fill-rule="evenodd" clip-rule="evenodd" d="M28.8076 3.30067H29.9191V2.16797H28.8076V3.30067Z" fill="white"/>
<path fill-rule="evenodd" clip-rule="evenodd" d="M1.35742 3.0597H11.8672V2.40918H1.35742V3.0597Z" fill="white"/>
<path fill-rule="evenodd" clip-rule="evenodd" d="M1.35645 22.5151V4.51074H29.922V22.5151H1.35645Z" fill="white"/>
<path fill-rule="evenodd" clip-rule="evenodd" d="M0.921937 0.96875V2.98309H0.920898V22.9586H30.9893L31.0002 2.98309H30.9987V0.96875H0.921937ZM28.5605 3.20094H29.624V2.11713H28.5605V3.20094ZM2.29541 2.97036H12.3504V2.34793H2.29541V2.97036ZM2.294 21.5844H29.6268V4.35736H2.294V21.5844Z" fill="#939598"/>
<path fill-rule="evenodd" clip-rule="evenodd" d="M26.9631 15.7344C24.2185 15.7344 21.9863 17.9677 21.9863 20.7137C21.9863 23.4591 24.2185 25.6925 26.9631 25.6925C29.7076 25.6925 31.9398 23.4591 31.9398 20.7137C31.9398 17.9677 29.7076 15.7344 26.9631 15.7344Z" fill="white"/>
<mask id="mask0" mask-type="alpha" maskUnits="userSpaceOnUse" x="20" y="14" width="14" height="14">
<path fill-rule="evenodd" clip-rule="evenodd" d="M33.2469 14.4258V27.0004H20.6787L20.6787 14.4258H33.2469V14.4258Z" fill="white"/>
</mask>
<g mask="url(#mask0)">
<path fill-rule="evenodd" clip-rule="evenodd" d="M26.9629 15.7339C24.2184 15.7339 21.9862 17.9673 21.9862 20.7132C21.9862 23.4587 24.2184 25.692 26.9629 25.692C29.7074 25.692 31.9397 23.4587 31.9397 20.7132C31.9397 17.9673 29.7074 15.7339 26.9629 15.7339ZM26.9629 27.0006C23.4971 27.0006 20.6711 24.1819 20.6787 20.7132C20.6863 17.2461 23.4976 14.4258 26.9629 14.4258C30.4281 14.4258 33.247 17.2461 33.247 20.7132C33.247 24.1797 30.4281 27.0006 26.9629 27.0006Z" fill="#C01818"/>
</g>
<path d="M23.2305 16.9277L31.0749 24.7763" stroke="#C01818" stroke-width="2"/>
<rect x="12.7607" y="14.1309" width="2.17391" height="4.34783" fill="#939598"/>
<rect x="9.5" y="8.69629" width="7.6087" height="5.43478" rx="2.5" fill="#939598"/>
<circle cx="20.3697" cy="11.4136" r="1.63043" fill="#939598"/>
<path d="M20.3694 6.52246V16.3051H19.2824L13.8477 14.1312V8.69637L19.2824 6.52246H20.3694Z" fill="#939598"/>
</svg>
