<svg width="36" height="28" viewBox="0 0 36 28" fill="none" xmlns="http://www.w3.org/2000/svg">
<path fill-rule="evenodd" clip-rule="evenodd" d="M27.9834 2.40628H29.0255V1.33887H27.9834V2.40628Z" fill="white"/>
<path fill-rule="evenodd" clip-rule="evenodd" d="M2.24512 2.17845H12.0991V1.56543H2.24512V2.17845Z" fill="white"/>
<path fill-rule="evenodd" clip-rule="evenodd" d="M2.24512 20.5124V3.5459H29.0283V20.5124H2.24512Z" fill="white"/>
<path fill-rule="evenodd" clip-rule="evenodd" d="M0.899455 0.208008V2.19188H0.898438V21.8653H30.3628L30.3735 2.19188H30.372V0.208008H0.899455ZM27.9829 2.40622H29.025V1.33881H27.9829V2.40622ZM2.24536 2.17905H12.0984V1.56603H2.24536V2.17905ZM2.24381 20.5117H29.0275V3.54514H2.24381V20.5117Z" fill="#939598"/>
<path fill-rule="evenodd" clip-rule="evenodd" d="M20.2734 18.1198C20.2734 15.117 22.7265 12.6748 25.7419 12.6748C28.7573 12.6748 31.2113 15.117 31.2113 18.1198C31.2113 21.1217 28.7573 23.5647 25.7419 23.5647C22.7265 23.5647 20.2734 21.1217 20.2734 18.1198Z" fill="white"/>
<mask id="mask0" mask-type="alpha" maskUnits="userSpaceOnUse" x="19" y="11" width="17" height="18">
<path fill-rule="evenodd" clip-rule="evenodd" d="M35.2066 28.0001H19.335V11.7422H35.2066V28.0001Z" fill="white"/>
</mask>
<g mask="url(#mask0)">
<path fill-rule="evenodd" clip-rule="evenodd" d="M20.2722 18.1203C20.2722 15.1175 22.7253 12.6753 25.7416 12.6753C28.7569 12.6753 31.21 15.1175 31.21 18.1203C31.21 21.1222 28.7569 23.5652 25.7416 23.5652C22.7253 23.5652 20.2722 21.1222 20.2722 18.1203ZM35.2067 26.84L30.5791 22.2926C31.5544 21.173 32.1471 19.7148 32.1471 18.1201C32.1471 14.6033 29.274 11.7422 25.7415 11.7422C22.2089 11.7422 19.335 14.6033 19.335 18.1201C19.335 21.636 22.2089 24.498 25.7415 24.498C27.0847 24.498 28.3316 24.0825 29.3634 23.3767L34.0683 28.001L35.2067 26.84Z" fill="#007EFF"/>
</g>
</svg>
